M48
; DRILL file {KiCad (5.1.5)-3} date 4/8/2020 4:54:33 PM
; FORMAT={-:-/ absolute / inch / decimal}
; #@! TF.CreationDate,2020-04-08T16:54:33+08:00
; #@! TF.GenerationSoftware,Kicad,Pcbnew,(5.1.5)-3
; #@! TF.FileFunction,Plated,1,2,PTH
FMAT,2
INCH
T1C0.0157
T2C0.0276
T3C0.0394
%
G90
G05
T1
X2.595Y-1.605
X2.865Y-2.26
X3.195Y-2.05
X3.485Y-1.11
X3.575Y-1.71
X3.58Y-1.11
X3.6Y-2.305
X3.83Y-1.855
X3.8438Y-2.0938
X3.9375Y-2.0938
X3.94Y-1.855
X4.015Y-0.985
X4.03Y-1.335
X4.035Y-1.295
X4.09Y-1.97
X4.09Y-2.095
X4.305Y-1.195
X4.34Y-2.28
X4.38Y-1.355
X4.415Y-1.1
X4.475Y-1.07
X4.49Y-1.355
X4.51Y-1.14
X4.6619Y-1.3519
X4.6798Y-0.9298
X4.72Y-1.035
X4.745Y-1.375
X4.745Y-1.47
X4.7552Y-0.9352
X4.775Y-1.215
X4.775Y-1.26
X4.865Y-1.015
X4.88Y-1.185
X4.9Y-0.985
X4.9Y-2.185
X4.955Y-1.545
X5.09Y-0.9621
X5.1266Y-0.9476
X5.17Y-1.6
X5.28Y-1.625
X5.31Y-1.585
X5.435Y-1.6
X5.4581Y-2.1681
X5.4944Y-1.4744
X5.595Y-2.365
X5.72Y-1.485
T3
X3.74Y-0.865
X3.84Y-0.865
X3.94Y-0.865
X4.04Y-0.865
X2.68Y-0.845
X2.68Y-0.945
X2.68Y-1.045
X2.68Y-1.145
X3.715Y-1.1
X3.715Y-1.2
X3.715Y-1.3
X3.715Y-1.4
X3.195Y-1.155
X3.195Y-1.255
X3.195Y-1.355
X3.295Y-1.155
X3.295Y-1.255
X3.295Y-1.355
T2
G00X4.3013Y-0.6964
M15
G01X4.3013Y-0.7436
M16
G05
G00X4.3013Y-0.8735
M15
G01X4.3013Y-0.9208
M16
G05
G00X4.5887Y-0.6964
M15
G01X4.5887Y-0.7436
M16
G05
G00X4.5887Y-0.8735
M15
G01X4.5887Y-0.9208
M16
G05
T0
M30
