M48
; DRILL file {KiCad (5.1.5)-3} date 4/8/2020 4:54:33 PM
; FORMAT={-:-/ absolute / inch / decimal}
; #@! TF.CreationDate,2020-04-08T16:54:33+08:00
; #@! TF.GenerationSoftware,Kicad,Pcbnew,(5.1.5)-3
; #@! TF.FileFunction,NonPlated,1,2,NPTH
FMAT,2
INCH
T1C0.0689
T2C0.1181
T3C0.1570
%
G90
G05
T1
X6.075Y-2.6875
X4.925Y-2.6875
X5.325Y-2.6875
X3.075Y-1.9375
X4.175Y-1.9375
X4.575Y-1.9375
X4.175Y-2.6875
X4.575Y-2.6875
X3.425Y-1.9375
X3.825Y-1.9375
X5.675Y-1.9375
X6.075Y-1.9375
X5.675Y-2.6875
X2.675Y-2.6875
X3.075Y-2.6875
X2.675Y-1.9375
X3.425Y-2.6875
X3.825Y-2.6875
X4.925Y-1.9375
X5.325Y-1.9375
T2
X5.725Y-2.5875
X5.975Y-2.4875
X4.975Y-2.5875
X5.225Y-2.4875
X2.725Y-2.5875
X2.975Y-2.4875
X2.725Y-1.8375
X2.975Y-1.7375
X3.475Y-2.5875
X3.725Y-2.4875
X4.975Y-1.8375
X5.225Y-1.7375
X4.225Y-1.8375
X4.475Y-1.7375
X4.225Y-2.5875
X4.475Y-2.4875
X3.475Y-1.8375
X3.725Y-1.7375
X5.725Y-1.8375
X5.975Y-1.7375
T3
X4.375Y-1.9375
X4.375Y-2.6875
X3.625Y-1.9375
X5.875Y-1.9375
X5.875Y-2.6875
X5.125Y-2.6875
X2.875Y-2.6875
X2.875Y-1.9375
X3.625Y-2.6875
X5.125Y-1.9375
T0
M30
