G04 #@! TF.GenerationSoftware,KiCad,Pcbnew,(5.1.5)-3*
G04 #@! TF.CreationDate,2020-04-08T16:54:26+08:00*
G04 #@! TF.ProjectId,KaChi-Juu Macropad,4b614368-692d-44a7-9575-204d6163726f,rev?*
G04 #@! TF.SameCoordinates,Original*
G04 #@! TF.FileFunction,Copper,L1,Top*
G04 #@! TF.FilePolarity,Positive*
%FSLAX46Y46*%
G04 Gerber Fmt 4.6, Leading zero omitted, Abs format (unit mm)*
G04 Created by KiCad (PCBNEW (5.1.5)-3) date 2020-04-08 16:54:26*
%MOMM*%
%LPD*%
G04 APERTURE LIST*
%ADD10C,0.500000*%
%ADD11O,1.700000X1.700000*%
%ADD12R,1.700000X1.700000*%
%ADD13O,1.700000X2.700000*%
%ADD14C,0.800000*%
%ADD15C,0.203200*%
%ADD16C,0.228600*%
%ADD17C,0.254000*%
G04 APERTURE END LIST*
D10*
X79177380Y-23355952D02*
X79177380Y-20855952D01*
X80605952Y-23355952D02*
X79534523Y-21927380D01*
X80605952Y-20855952D02*
X79177380Y-22284523D01*
X82748809Y-23355952D02*
X82748809Y-22046428D01*
X82629761Y-21808333D01*
X82391666Y-21689285D01*
X81915476Y-21689285D01*
X81677380Y-21808333D01*
X82748809Y-23236904D02*
X82510714Y-23355952D01*
X81915476Y-23355952D01*
X81677380Y-23236904D01*
X81558333Y-22998809D01*
X81558333Y-22760714D01*
X81677380Y-22522619D01*
X81915476Y-22403571D01*
X82510714Y-22403571D01*
X82748809Y-22284523D01*
X83939285Y-22403571D02*
X85844047Y-22403571D01*
X87748809Y-20855952D02*
X87748809Y-22641666D01*
X87629761Y-22998809D01*
X87391666Y-23236904D01*
X87034523Y-23355952D01*
X86796428Y-23355952D01*
X90010714Y-21689285D02*
X90010714Y-23355952D01*
X88939285Y-21689285D02*
X88939285Y-22998809D01*
X89058333Y-23236904D01*
X89296428Y-23355952D01*
X89653571Y-23355952D01*
X89891666Y-23236904D01*
X90010714Y-23117857D01*
X92272619Y-21689285D02*
X92272619Y-23355952D01*
X91201190Y-21689285D02*
X91201190Y-22998809D01*
X91320238Y-23236904D01*
X91558333Y-23355952D01*
X91915476Y-23355952D01*
X92153571Y-23236904D01*
X92272619Y-23117857D01*
D11*
X94996000Y-21971000D03*
X97536000Y-21971000D03*
X100076000Y-21971000D03*
D12*
X102616000Y-21971000D03*
D11*
X68072000Y-29083000D03*
X68072000Y-26543000D03*
X68072000Y-24003000D03*
D12*
X68072000Y-21463000D03*
D13*
X109253000Y-18288000D03*
X116553000Y-18288000D03*
X116553000Y-22788000D03*
X109253000Y-22788000D03*
D11*
X94361000Y-27940000D03*
X94361000Y-30480000D03*
X94361000Y-33020000D03*
D12*
X94361000Y-35560000D03*
D11*
X83693000Y-29337000D03*
X81153000Y-29337000D03*
X83693000Y-31877000D03*
X81153000Y-31877000D03*
X83693000Y-34417000D03*
D12*
X81153000Y-34417000D03*
D14*
X111252000Y-34417000D03*
X114046000Y-34417000D03*
X130215867Y-24069600D03*
X81153000Y-52070000D03*
X90805000Y-43434000D03*
X97631250Y-53181250D03*
X100012500Y-53181250D03*
X97282000Y-47117000D03*
X100076000Y-47117000D03*
X103886000Y-50038000D03*
X103886000Y-53213000D03*
X90932000Y-28194000D03*
X88519000Y-28194000D03*
X120523000Y-37338000D03*
X118412500Y-34338500D03*
X121285000Y-32004000D03*
X109347000Y-30353000D03*
X114554000Y-28956000D03*
X129286000Y-24437500D03*
X139558000Y-37450000D03*
X145288000Y-37719000D03*
X120523000Y-34925000D03*
X121285000Y-30861000D03*
X138049000Y-40640000D03*
X125857000Y-39243000D03*
X124460000Y-25019000D03*
X72771000Y-57404000D03*
X123571000Y-25781000D03*
X91440000Y-58547000D03*
X123952000Y-30099000D03*
X110236000Y-57912000D03*
X134112000Y-41275000D03*
X138636390Y-55070390D03*
X131318000Y-40640000D03*
X124460000Y-55499000D03*
X102489000Y-32893000D03*
X102362000Y-33909000D03*
X65913000Y-40767000D03*
X134874000Y-40259000D03*
X142113000Y-60071000D03*
X119888000Y-26289000D03*
X120783067Y-23755067D03*
X113665000Y-27178000D03*
X112141000Y-27940000D03*
X118865933Y-23615933D03*
X101981000Y-25019000D03*
D15*
X111252000Y-34417000D02*
X114046000Y-34417000D01*
X130215867Y-24069600D02*
X130215867Y-22265867D01*
X130127390Y-22177390D02*
X120316610Y-22177390D01*
X130215867Y-22265867D02*
X130127390Y-22177390D01*
X119706000Y-22788000D02*
X116553000Y-22788000D01*
X120316610Y-22177390D02*
X119706000Y-22788000D01*
D16*
X81153000Y-35495600D02*
X81153000Y-34417000D01*
X74676000Y-46863000D02*
X73914000Y-46101000D01*
X76643600Y-40005000D02*
X81153000Y-35495600D01*
X76327000Y-46863000D02*
X74676000Y-46863000D01*
X76454000Y-52070000D02*
X76327000Y-51943000D01*
X70485000Y-40005000D02*
X76643600Y-40005000D01*
X81153000Y-52070000D02*
X76454000Y-52070000D01*
X73914000Y-46101000D02*
X73406000Y-46101000D01*
X73406000Y-46101000D02*
X70358000Y-43053000D01*
X76327000Y-51943000D02*
X76327000Y-46863000D01*
X70358000Y-43053000D02*
X70358000Y-40132000D01*
X70358000Y-40132000D02*
X70485000Y-40005000D01*
X90805000Y-43434000D02*
X90805000Y-36068000D01*
X91313000Y-35560000D02*
X94361000Y-35560000D01*
X90805000Y-36068000D02*
X91313000Y-35560000D01*
X97631250Y-53181250D02*
X100012500Y-53181250D01*
X97282000Y-47117000D02*
X97847685Y-47117000D01*
X97847685Y-47117000D02*
X100076000Y-47117000D01*
X103886000Y-53213000D02*
X103886000Y-50038000D01*
D17*
X91567000Y-35560000D02*
X94361000Y-35560000D01*
X95250000Y-25400000D02*
X91186000Y-25400000D01*
X91186000Y-25400000D02*
X90932000Y-25654000D01*
X95250000Y-22225000D02*
X95250000Y-25400000D01*
X90932000Y-34925000D02*
X91567000Y-35560000D01*
X90932000Y-25654000D02*
X90932000Y-28194000D01*
X90932000Y-28194000D02*
X90932000Y-29083000D01*
X90932000Y-28924250D02*
X90932000Y-29083000D01*
X90932000Y-29083000D02*
X90932000Y-34925000D01*
X88519000Y-28194000D02*
X86106000Y-25781000D01*
X86106000Y-25781000D02*
X71501000Y-25781000D01*
X71501000Y-23788000D02*
X69176000Y-21463000D01*
X69176000Y-21463000D02*
X68072000Y-21463000D01*
X71501000Y-25781000D02*
X71501000Y-23788000D01*
X114046000Y-34417000D02*
X114046000Y-34982685D01*
X114046000Y-34982685D02*
X114046000Y-37338000D01*
X114046000Y-37338000D02*
X120523000Y-37338000D01*
D15*
X118978185Y-34338500D02*
X119026685Y-34290000D01*
X118412500Y-34338500D02*
X118978185Y-34338500D01*
X119026685Y-34290000D02*
X119586390Y-34290000D01*
X119586390Y-35102536D02*
X120170854Y-35687000D01*
X119586390Y-34290000D02*
X119586390Y-35102536D01*
X120170854Y-35687000D02*
X121158000Y-35687000D01*
X121285000Y-35560000D02*
X121285000Y-32004000D01*
X121158000Y-35687000D02*
X121285000Y-35560000D01*
D17*
X109347000Y-30353000D02*
X109347000Y-29787315D01*
X109347000Y-29787315D02*
X113976685Y-29787315D01*
X113976685Y-29787315D02*
X114554000Y-29210000D01*
X114554000Y-29210000D02*
X114554000Y-28956000D01*
X119072500Y-24437500D02*
X114554000Y-28956000D01*
X139827000Y-37719000D02*
X139558000Y-37450000D01*
X145288000Y-37719000D02*
X139827000Y-37719000D01*
X129286000Y-22606000D02*
X129286000Y-24437500D01*
X121793000Y-22606000D02*
X129286000Y-22606000D01*
X120015000Y-29210000D02*
X120088500Y-29136500D01*
X120088500Y-29136500D02*
X121739500Y-29136500D01*
X121739500Y-29136500D02*
X121739500Y-22659500D01*
X121739500Y-22659500D02*
X121793000Y-22606000D01*
X120850500Y-22659500D02*
X119072500Y-24437500D01*
X121739500Y-22659500D02*
X120850500Y-22659500D01*
X120523000Y-34925000D02*
X120015000Y-34925000D01*
X120015000Y-34925000D02*
X120015000Y-30988000D01*
X120015000Y-30861000D02*
X121285000Y-30861000D01*
X120015000Y-30861000D02*
X120015000Y-29210000D01*
X120015000Y-30988000D02*
X120015000Y-30861000D01*
X136652000Y-39243000D02*
X138049000Y-40640000D01*
X128397000Y-39243000D02*
X136652000Y-39243000D01*
X128397000Y-39243000D02*
X125857000Y-39243000D01*
D16*
X124060001Y-24619001D02*
X122954999Y-24619001D01*
X124460000Y-25019000D02*
X124060001Y-24619001D01*
X122954999Y-24619001D02*
X122682000Y-24892000D01*
X122682000Y-24892000D02*
X122682000Y-29083000D01*
X122682000Y-29083000D02*
X122428000Y-29337000D01*
X122428000Y-29337000D02*
X122428000Y-34671000D01*
X122428000Y-34671000D02*
X122428000Y-40005000D01*
X122428000Y-40005000D02*
X101882854Y-40005000D01*
X101882854Y-40005000D02*
X101727000Y-40005000D01*
X101727000Y-40005000D02*
X100965000Y-40767000D01*
X100965000Y-40767000D02*
X100965000Y-56769000D01*
X100965000Y-56769000D02*
X100330000Y-57404000D01*
X100330000Y-57404000D02*
X72771000Y-57404000D01*
X123571000Y-25781000D02*
X123571000Y-26346685D01*
X123571000Y-26346685D02*
X123571000Y-29083000D01*
X123571000Y-29083000D02*
X123190000Y-29464000D01*
X123190000Y-29464000D02*
X122936000Y-29718000D01*
X122936000Y-29718000D02*
X122936000Y-39878000D01*
X122936000Y-39878000D02*
X122936000Y-40767000D01*
X122936000Y-40767000D02*
X101727000Y-40767000D01*
X101727000Y-40767000D02*
X101727000Y-57658000D01*
X101727000Y-57658000D02*
X100838000Y-58547000D01*
X100838000Y-58547000D02*
X91440000Y-58547000D01*
X123952000Y-30099000D02*
X123952000Y-41529000D01*
X123952000Y-41529000D02*
X120015000Y-41529000D01*
X120015000Y-41529000D02*
X120015000Y-44450000D01*
X120015000Y-44450000D02*
X120015000Y-59055000D01*
X120015000Y-59055000D02*
X119507000Y-59563000D01*
X119507000Y-59563000D02*
X110236000Y-59563000D01*
X110236000Y-59563000D02*
X110236000Y-57912000D01*
X134112000Y-41275000D02*
X136144000Y-41275000D01*
X136807854Y-41275000D02*
X137744464Y-42211610D01*
X136144000Y-41275000D02*
X136807854Y-41275000D01*
X138604610Y-42211610D02*
X138636390Y-42243390D01*
X137744464Y-42211610D02*
X138604610Y-42211610D01*
X138636390Y-42243390D02*
X138636390Y-55070390D01*
X131318000Y-40640000D02*
X130918001Y-41039999D01*
X130918001Y-41039999D02*
X129921000Y-42037000D01*
X129921000Y-42037000D02*
X129794000Y-42164000D01*
X129794000Y-42164000D02*
X120523000Y-42164000D01*
X120523000Y-42164000D02*
X120523000Y-55499000D01*
X120523000Y-55499000D02*
X124460000Y-55499000D01*
X82042000Y-42926000D02*
X82042000Y-52959000D01*
X83820000Y-35746081D02*
X83820000Y-41148000D01*
X83693000Y-35619081D02*
X83820000Y-35746081D01*
X68707000Y-59309000D02*
X89916000Y-59309000D01*
X83693000Y-34417000D02*
X83693000Y-35619081D01*
X82042000Y-52959000D02*
X69596000Y-52959000D01*
X68707000Y-53848000D02*
X68707000Y-59309000D01*
X83820000Y-41148000D02*
X82042000Y-42926000D01*
X69596000Y-52959000D02*
X68707000Y-53848000D01*
X89916000Y-59309000D02*
X90932000Y-60325000D01*
X124460000Y-55499000D02*
X124460000Y-55880000D01*
X124460000Y-55880000D02*
X124333000Y-56007000D01*
X124333000Y-56007000D02*
X120523000Y-56007000D01*
X120523000Y-56007000D02*
X120523000Y-59690000D01*
X119888000Y-60325000D02*
X119380000Y-60325000D01*
X90932000Y-60325000D02*
X119380000Y-60325000D01*
X120523000Y-59690000D02*
X119888000Y-60325000D01*
D15*
X94361000Y-27940000D02*
X95563081Y-27940000D01*
X95563081Y-27940000D02*
X97536000Y-27940000D01*
X97536000Y-27940000D02*
X102489000Y-32893000D01*
D16*
X101727000Y-33274000D02*
X102362000Y-33909000D01*
X95885000Y-28956000D02*
X95885000Y-28575000D01*
X97155000Y-28575000D02*
X101727000Y-33147000D01*
X94361000Y-30480000D02*
X95885000Y-28956000D01*
X95885000Y-28575000D02*
X97155000Y-28575000D01*
X101727000Y-33147000D02*
X101727000Y-33274000D01*
D15*
X83693000Y-29337000D02*
X83693000Y-26670000D01*
X83693000Y-26670000D02*
X74676000Y-26670000D01*
X74676000Y-26670000D02*
X65913000Y-35433000D01*
X65913000Y-35433000D02*
X65913000Y-40767000D01*
D16*
X139065000Y-41910000D02*
X139065000Y-47879000D01*
X139065000Y-47879000D02*
X142113000Y-50927000D01*
X142113000Y-50927000D02*
X142113000Y-60071000D01*
X134874000Y-40259000D02*
X136398000Y-40259000D01*
X136398000Y-40259000D02*
X137922000Y-41783000D01*
X137922000Y-41783000D02*
X138938000Y-41783000D01*
X138938000Y-41783000D02*
X139065000Y-41910000D01*
D15*
X119888000Y-26289000D02*
X119888000Y-25723315D01*
X119888000Y-25723315D02*
X119888000Y-24638000D01*
X119888000Y-24638000D02*
X120770933Y-23755067D01*
X120770933Y-23755067D02*
X120783067Y-23755067D01*
X111633000Y-28829000D02*
X113284000Y-28829000D01*
X113665000Y-28448000D02*
X113665000Y-27178000D01*
X111379000Y-28575000D02*
X111633000Y-28829000D01*
X111379000Y-27940000D02*
X111379000Y-28575000D01*
X97631250Y-24733250D02*
X99282250Y-24733250D01*
X113284000Y-28829000D02*
X113665000Y-28448000D01*
X100965000Y-26416000D02*
X109855000Y-26416000D01*
X99282250Y-24733250D02*
X100965000Y-26416000D01*
X97631250Y-22225000D02*
X97631250Y-24733250D01*
X109855000Y-26416000D02*
X111379000Y-27940000D01*
X100012500Y-22225000D02*
X100012500Y-24701500D01*
X100012500Y-24701500D02*
X101219000Y-25908000D01*
X110109000Y-25908000D02*
X112141000Y-27940000D01*
X101219000Y-25908000D02*
X110109000Y-25908000D01*
X118465934Y-24015932D02*
X118465934Y-24028066D01*
X118865933Y-23615933D02*
X118465934Y-24015932D01*
X118465934Y-24028066D02*
X115824000Y-26670000D01*
X114195370Y-26670000D02*
X112544370Y-25019000D01*
X115824000Y-26670000D02*
X114195370Y-26670000D01*
X112544370Y-25019000D02*
X101981000Y-25019000D01*
D17*
G36*
X115121310Y-17373731D02*
G01*
X115068000Y-17661000D01*
X115068000Y-18161000D01*
X116426000Y-18161000D01*
X116426000Y-18141000D01*
X116680000Y-18141000D01*
X116680000Y-18161000D01*
X116700000Y-18161000D01*
X116700000Y-18415000D01*
X116680000Y-18415000D01*
X116680000Y-20108155D01*
X116909890Y-20229476D01*
X117003953Y-20208563D01*
X117272426Y-20093291D01*
X117513252Y-19927857D01*
X117717176Y-19718619D01*
X117876361Y-19473618D01*
X117984690Y-19202269D01*
X118037808Y-18916037D01*
X160029025Y-18916248D01*
X159880204Y-18977892D01*
X159565621Y-19188090D01*
X159298090Y-19455621D01*
X159087892Y-19770204D01*
X158943105Y-20119751D01*
X158869293Y-20490827D01*
X158869293Y-20869173D01*
X158943105Y-21240249D01*
X159087892Y-21589796D01*
X159298090Y-21904379D01*
X159565621Y-22171910D01*
X159880204Y-22382108D01*
X160229751Y-22526895D01*
X160600827Y-22600707D01*
X160979173Y-22600707D01*
X161350249Y-22526895D01*
X161699796Y-22382108D01*
X162014379Y-22171910D01*
X162281910Y-21904379D01*
X162492108Y-21589796D01*
X162636895Y-21240249D01*
X162710707Y-20869173D01*
X162710707Y-20644076D01*
X162798032Y-20926178D01*
X162852500Y-21444403D01*
X162852501Y-77755212D01*
X162801498Y-78275383D01*
X162659807Y-78744686D01*
X162429661Y-79177528D01*
X162119823Y-79557427D01*
X161742100Y-79869906D01*
X161310873Y-80103069D01*
X160842573Y-80248032D01*
X160324347Y-80302500D01*
X61944778Y-80302500D01*
X61424617Y-80251498D01*
X60955314Y-80109807D01*
X60522472Y-79879661D01*
X60142573Y-79569823D01*
X59830094Y-79192100D01*
X59596931Y-78760873D01*
X59451968Y-78292573D01*
X59397500Y-77774347D01*
X59397500Y-77590827D01*
X59589293Y-77590827D01*
X59589293Y-77969173D01*
X59663105Y-78340249D01*
X59807892Y-78689796D01*
X60018090Y-79004379D01*
X60285621Y-79271910D01*
X60600204Y-79482108D01*
X60949751Y-79626895D01*
X61320827Y-79700707D01*
X61699173Y-79700707D01*
X62070249Y-79626895D01*
X62419796Y-79482108D01*
X62734379Y-79271910D01*
X63001910Y-79004379D01*
X63212108Y-78689796D01*
X63356895Y-78340249D01*
X63430707Y-77969173D01*
X63430707Y-77610827D01*
X158879293Y-77610827D01*
X158879293Y-77989173D01*
X158953105Y-78360249D01*
X159097892Y-78709796D01*
X159308090Y-79024379D01*
X159575621Y-79291910D01*
X159890204Y-79502108D01*
X160239751Y-79646895D01*
X160610827Y-79720707D01*
X160989173Y-79720707D01*
X161360249Y-79646895D01*
X161709796Y-79502108D01*
X162024379Y-79291910D01*
X162291910Y-79024379D01*
X162502108Y-78709796D01*
X162646895Y-78360249D01*
X162720707Y-77989173D01*
X162720707Y-77610827D01*
X162646895Y-77239751D01*
X162502108Y-76890204D01*
X162291910Y-76575621D01*
X162024379Y-76308090D01*
X161709796Y-76097892D01*
X161360249Y-75953105D01*
X160989173Y-75879293D01*
X160610827Y-75879293D01*
X160239751Y-75953105D01*
X159890204Y-76097892D01*
X159575621Y-76308090D01*
X159308090Y-76575621D01*
X159097892Y-76890204D01*
X158953105Y-77239751D01*
X158879293Y-77610827D01*
X63430707Y-77610827D01*
X63430707Y-77590827D01*
X63356895Y-77219751D01*
X63212108Y-76870204D01*
X63001910Y-76555621D01*
X62734379Y-76288090D01*
X62419796Y-76077892D01*
X62070249Y-75933105D01*
X61699173Y-75859293D01*
X61320827Y-75859293D01*
X60949751Y-75933105D01*
X60600204Y-76077892D01*
X60285621Y-76288090D01*
X60018090Y-76555621D01*
X59807892Y-76870204D01*
X59663105Y-77219751D01*
X59589293Y-77590827D01*
X59397500Y-77590827D01*
X59397500Y-68113778D01*
X66435000Y-68113778D01*
X66435000Y-68411222D01*
X66493029Y-68702951D01*
X66606856Y-68977753D01*
X66772107Y-69225069D01*
X66982431Y-69435393D01*
X67229747Y-69600644D01*
X67504549Y-69714471D01*
X67796278Y-69772500D01*
X68093722Y-69772500D01*
X68385451Y-69714471D01*
X68660253Y-69600644D01*
X68907569Y-69435393D01*
X69117893Y-69225069D01*
X69283144Y-68977753D01*
X69396971Y-68702951D01*
X69455000Y-68411222D01*
X69455000Y-68113778D01*
X69404023Y-67857500D01*
X69425279Y-67857500D01*
X69837756Y-67775453D01*
X70226302Y-67614512D01*
X70532708Y-67409779D01*
X70497127Y-67495678D01*
X70396100Y-68003576D01*
X70396100Y-68521424D01*
X70497127Y-69029322D01*
X70695299Y-69507751D01*
X70983000Y-69938326D01*
X71349174Y-70304500D01*
X71779749Y-70592201D01*
X72258178Y-70790373D01*
X72766076Y-70891400D01*
X73283924Y-70891400D01*
X73791822Y-70790373D01*
X74270251Y-70592201D01*
X74700826Y-70304500D01*
X75067000Y-69938326D01*
X75354701Y-69507751D01*
X75552873Y-69029322D01*
X75653900Y-68521424D01*
X75653900Y-68113778D01*
X76595000Y-68113778D01*
X76595000Y-68411222D01*
X76653029Y-68702951D01*
X76766856Y-68977753D01*
X76932107Y-69225069D01*
X77142431Y-69435393D01*
X77389747Y-69600644D01*
X77664549Y-69714471D01*
X77956278Y-69772500D01*
X78253722Y-69772500D01*
X78545451Y-69714471D01*
X78820253Y-69600644D01*
X79067569Y-69435393D01*
X79277893Y-69225069D01*
X79443144Y-68977753D01*
X79556971Y-68702951D01*
X79615000Y-68411222D01*
X79615000Y-68113778D01*
X85485000Y-68113778D01*
X85485000Y-68411222D01*
X85543029Y-68702951D01*
X85656856Y-68977753D01*
X85822107Y-69225069D01*
X86032431Y-69435393D01*
X86279747Y-69600644D01*
X86554549Y-69714471D01*
X86846278Y-69772500D01*
X87143722Y-69772500D01*
X87435451Y-69714471D01*
X87710253Y-69600644D01*
X87957569Y-69435393D01*
X88167893Y-69225069D01*
X88333144Y-68977753D01*
X88446971Y-68702951D01*
X88505000Y-68411222D01*
X88505000Y-68113778D01*
X88454023Y-67857500D01*
X88475279Y-67857500D01*
X88887756Y-67775453D01*
X89276302Y-67614512D01*
X89582708Y-67409779D01*
X89547127Y-67495678D01*
X89446100Y-68003576D01*
X89446100Y-68521424D01*
X89547127Y-69029322D01*
X89745299Y-69507751D01*
X90033000Y-69938326D01*
X90399174Y-70304500D01*
X90829749Y-70592201D01*
X91308178Y-70790373D01*
X91816076Y-70891400D01*
X92333924Y-70891400D01*
X92841822Y-70790373D01*
X93320251Y-70592201D01*
X93750826Y-70304500D01*
X94117000Y-69938326D01*
X94404701Y-69507751D01*
X94602873Y-69029322D01*
X94703900Y-68521424D01*
X94703900Y-68113778D01*
X95645000Y-68113778D01*
X95645000Y-68411222D01*
X95703029Y-68702951D01*
X95816856Y-68977753D01*
X95982107Y-69225069D01*
X96192431Y-69435393D01*
X96439747Y-69600644D01*
X96714549Y-69714471D01*
X97006278Y-69772500D01*
X97303722Y-69772500D01*
X97595451Y-69714471D01*
X97870253Y-69600644D01*
X98117569Y-69435393D01*
X98327893Y-69225069D01*
X98493144Y-68977753D01*
X98606971Y-68702951D01*
X98665000Y-68411222D01*
X98665000Y-68113778D01*
X104535000Y-68113778D01*
X104535000Y-68411222D01*
X104593029Y-68702951D01*
X104706856Y-68977753D01*
X104872107Y-69225069D01*
X105082431Y-69435393D01*
X105329747Y-69600644D01*
X105604549Y-69714471D01*
X105896278Y-69772500D01*
X106193722Y-69772500D01*
X106485451Y-69714471D01*
X106760253Y-69600644D01*
X107007569Y-69435393D01*
X107217893Y-69225069D01*
X107383144Y-68977753D01*
X107496971Y-68702951D01*
X107555000Y-68411222D01*
X107555000Y-68113778D01*
X107504023Y-67857500D01*
X107525279Y-67857500D01*
X107937756Y-67775453D01*
X108326302Y-67614512D01*
X108632708Y-67409779D01*
X108597127Y-67495678D01*
X108496100Y-68003576D01*
X108496100Y-68521424D01*
X108597127Y-69029322D01*
X108795299Y-69507751D01*
X109083000Y-69938326D01*
X109449174Y-70304500D01*
X109879749Y-70592201D01*
X110358178Y-70790373D01*
X110866076Y-70891400D01*
X111383924Y-70891400D01*
X111891822Y-70790373D01*
X112370251Y-70592201D01*
X112800826Y-70304500D01*
X113167000Y-69938326D01*
X113454701Y-69507751D01*
X113652873Y-69029322D01*
X113753900Y-68521424D01*
X113753900Y-68113778D01*
X114695000Y-68113778D01*
X114695000Y-68411222D01*
X114753029Y-68702951D01*
X114866856Y-68977753D01*
X115032107Y-69225069D01*
X115242431Y-69435393D01*
X115489747Y-69600644D01*
X115764549Y-69714471D01*
X116056278Y-69772500D01*
X116353722Y-69772500D01*
X116645451Y-69714471D01*
X116920253Y-69600644D01*
X117167569Y-69435393D01*
X117377893Y-69225069D01*
X117543144Y-68977753D01*
X117656971Y-68702951D01*
X117715000Y-68411222D01*
X117715000Y-68113778D01*
X123585000Y-68113778D01*
X123585000Y-68411222D01*
X123643029Y-68702951D01*
X123756856Y-68977753D01*
X123922107Y-69225069D01*
X124132431Y-69435393D01*
X124379747Y-69600644D01*
X124654549Y-69714471D01*
X124946278Y-69772500D01*
X125243722Y-69772500D01*
X125535451Y-69714471D01*
X125810253Y-69600644D01*
X126057569Y-69435393D01*
X126267893Y-69225069D01*
X126433144Y-68977753D01*
X126546971Y-68702951D01*
X126605000Y-68411222D01*
X126605000Y-68113778D01*
X126554023Y-67857500D01*
X126575279Y-67857500D01*
X126987756Y-67775453D01*
X127376302Y-67614512D01*
X127682708Y-67409779D01*
X127647127Y-67495678D01*
X127546100Y-68003576D01*
X127546100Y-68521424D01*
X127647127Y-69029322D01*
X127845299Y-69507751D01*
X128133000Y-69938326D01*
X128499174Y-70304500D01*
X128929749Y-70592201D01*
X129408178Y-70790373D01*
X129916076Y-70891400D01*
X130433924Y-70891400D01*
X130941822Y-70790373D01*
X131420251Y-70592201D01*
X131850826Y-70304500D01*
X132217000Y-69938326D01*
X132504701Y-69507751D01*
X132702873Y-69029322D01*
X132803900Y-68521424D01*
X132803900Y-68113778D01*
X133745000Y-68113778D01*
X133745000Y-68411222D01*
X133803029Y-68702951D01*
X133916856Y-68977753D01*
X134082107Y-69225069D01*
X134292431Y-69435393D01*
X134539747Y-69600644D01*
X134814549Y-69714471D01*
X135106278Y-69772500D01*
X135403722Y-69772500D01*
X135695451Y-69714471D01*
X135970253Y-69600644D01*
X136217569Y-69435393D01*
X136427893Y-69225069D01*
X136593144Y-68977753D01*
X136706971Y-68702951D01*
X136765000Y-68411222D01*
X136765000Y-68113778D01*
X142635000Y-68113778D01*
X142635000Y-68411222D01*
X142693029Y-68702951D01*
X142806856Y-68977753D01*
X142972107Y-69225069D01*
X143182431Y-69435393D01*
X143429747Y-69600644D01*
X143704549Y-69714471D01*
X143996278Y-69772500D01*
X144293722Y-69772500D01*
X144585451Y-69714471D01*
X144860253Y-69600644D01*
X145107569Y-69435393D01*
X145317893Y-69225069D01*
X145483144Y-68977753D01*
X145596971Y-68702951D01*
X145655000Y-68411222D01*
X145655000Y-68113778D01*
X145604023Y-67857500D01*
X145625279Y-67857500D01*
X146037756Y-67775453D01*
X146426302Y-67614512D01*
X146732708Y-67409779D01*
X146697127Y-67495678D01*
X146596100Y-68003576D01*
X146596100Y-68521424D01*
X146697127Y-69029322D01*
X146895299Y-69507751D01*
X147183000Y-69938326D01*
X147549174Y-70304500D01*
X147979749Y-70592201D01*
X148458178Y-70790373D01*
X148966076Y-70891400D01*
X149483924Y-70891400D01*
X149991822Y-70790373D01*
X150470251Y-70592201D01*
X150900826Y-70304500D01*
X151267000Y-69938326D01*
X151554701Y-69507751D01*
X151752873Y-69029322D01*
X151853900Y-68521424D01*
X151853900Y-68113778D01*
X152795000Y-68113778D01*
X152795000Y-68411222D01*
X152853029Y-68702951D01*
X152966856Y-68977753D01*
X153132107Y-69225069D01*
X153342431Y-69435393D01*
X153589747Y-69600644D01*
X153864549Y-69714471D01*
X154156278Y-69772500D01*
X154453722Y-69772500D01*
X154745451Y-69714471D01*
X155020253Y-69600644D01*
X155267569Y-69435393D01*
X155477893Y-69225069D01*
X155643144Y-68977753D01*
X155756971Y-68702951D01*
X155815000Y-68411222D01*
X155815000Y-68113778D01*
X155756971Y-67822049D01*
X155643144Y-67547247D01*
X155477893Y-67299931D01*
X155267569Y-67089607D01*
X155020253Y-66924356D01*
X154745451Y-66810529D01*
X154453722Y-66752500D01*
X154156278Y-66752500D01*
X153864549Y-66810529D01*
X153589747Y-66924356D01*
X153342431Y-67089607D01*
X153132107Y-67299931D01*
X152966856Y-67547247D01*
X152853029Y-67822049D01*
X152795000Y-68113778D01*
X151853900Y-68113778D01*
X151853900Y-68003576D01*
X151752873Y-67495678D01*
X151554701Y-67017249D01*
X151267000Y-66586674D01*
X150900826Y-66220500D01*
X150470251Y-65932799D01*
X149991822Y-65734627D01*
X149483924Y-65633600D01*
X148966076Y-65633600D01*
X148458178Y-65734627D01*
X147979749Y-65932799D01*
X147549174Y-66220500D01*
X147478763Y-66290911D01*
X147550000Y-65932779D01*
X147550000Y-65512221D01*
X147467953Y-65099744D01*
X147307012Y-64711198D01*
X147073363Y-64361517D01*
X146775983Y-64064137D01*
X146426302Y-63830488D01*
X146037756Y-63669547D01*
X145625279Y-63587500D01*
X145204721Y-63587500D01*
X144792244Y-63669547D01*
X144403698Y-63830488D01*
X144054017Y-64064137D01*
X143756637Y-64361517D01*
X143522988Y-64711198D01*
X143362047Y-65099744D01*
X143280000Y-65512221D01*
X143280000Y-65932779D01*
X143362047Y-66345256D01*
X143522988Y-66733802D01*
X143602499Y-66852799D01*
X143429747Y-66924356D01*
X143182431Y-67089607D01*
X142972107Y-67299931D01*
X142806856Y-67547247D01*
X142693029Y-67822049D01*
X142635000Y-68113778D01*
X136765000Y-68113778D01*
X136706971Y-67822049D01*
X136593144Y-67547247D01*
X136427893Y-67299931D01*
X136217569Y-67089607D01*
X135970253Y-66924356D01*
X135695451Y-66810529D01*
X135403722Y-66752500D01*
X135106278Y-66752500D01*
X134814549Y-66810529D01*
X134539747Y-66924356D01*
X134292431Y-67089607D01*
X134082107Y-67299931D01*
X133916856Y-67547247D01*
X133803029Y-67822049D01*
X133745000Y-68113778D01*
X132803900Y-68113778D01*
X132803900Y-68003576D01*
X132702873Y-67495678D01*
X132504701Y-67017249D01*
X132217000Y-66586674D01*
X131850826Y-66220500D01*
X131420251Y-65932799D01*
X130941822Y-65734627D01*
X130433924Y-65633600D01*
X129916076Y-65633600D01*
X129408178Y-65734627D01*
X128929749Y-65932799D01*
X128499174Y-66220500D01*
X128428763Y-66290911D01*
X128500000Y-65932779D01*
X128500000Y-65512221D01*
X128417953Y-65099744D01*
X128257012Y-64711198D01*
X128023363Y-64361517D01*
X127725983Y-64064137D01*
X127376302Y-63830488D01*
X126987756Y-63669547D01*
X126575279Y-63587500D01*
X126154721Y-63587500D01*
X125742244Y-63669547D01*
X125353698Y-63830488D01*
X125004017Y-64064137D01*
X124706637Y-64361517D01*
X124472988Y-64711198D01*
X124312047Y-65099744D01*
X124230000Y-65512221D01*
X124230000Y-65932779D01*
X124312047Y-66345256D01*
X124472988Y-66733802D01*
X124552499Y-66852799D01*
X124379747Y-66924356D01*
X124132431Y-67089607D01*
X123922107Y-67299931D01*
X123756856Y-67547247D01*
X123643029Y-67822049D01*
X123585000Y-68113778D01*
X117715000Y-68113778D01*
X117656971Y-67822049D01*
X117543144Y-67547247D01*
X117377893Y-67299931D01*
X117167569Y-67089607D01*
X116920253Y-66924356D01*
X116645451Y-66810529D01*
X116353722Y-66752500D01*
X116056278Y-66752500D01*
X115764549Y-66810529D01*
X115489747Y-66924356D01*
X115242431Y-67089607D01*
X115032107Y-67299931D01*
X114866856Y-67547247D01*
X114753029Y-67822049D01*
X114695000Y-68113778D01*
X113753900Y-68113778D01*
X113753900Y-68003576D01*
X113652873Y-67495678D01*
X113454701Y-67017249D01*
X113167000Y-66586674D01*
X112800826Y-66220500D01*
X112370251Y-65932799D01*
X111891822Y-65734627D01*
X111383924Y-65633600D01*
X110866076Y-65633600D01*
X110358178Y-65734627D01*
X109879749Y-65932799D01*
X109449174Y-66220500D01*
X109378763Y-66290911D01*
X109450000Y-65932779D01*
X109450000Y-65512221D01*
X109367953Y-65099744D01*
X109207012Y-64711198D01*
X108973363Y-64361517D01*
X108675983Y-64064137D01*
X108326302Y-63830488D01*
X107937756Y-63669547D01*
X107525279Y-63587500D01*
X107104721Y-63587500D01*
X106692244Y-63669547D01*
X106303698Y-63830488D01*
X105954017Y-64064137D01*
X105656637Y-64361517D01*
X105422988Y-64711198D01*
X105262047Y-65099744D01*
X105180000Y-65512221D01*
X105180000Y-65932779D01*
X105262047Y-66345256D01*
X105422988Y-66733802D01*
X105502499Y-66852799D01*
X105329747Y-66924356D01*
X105082431Y-67089607D01*
X104872107Y-67299931D01*
X104706856Y-67547247D01*
X104593029Y-67822049D01*
X104535000Y-68113778D01*
X98665000Y-68113778D01*
X98606971Y-67822049D01*
X98493144Y-67547247D01*
X98327893Y-67299931D01*
X98117569Y-67089607D01*
X97870253Y-66924356D01*
X97595451Y-66810529D01*
X97303722Y-66752500D01*
X97006278Y-66752500D01*
X96714549Y-66810529D01*
X96439747Y-66924356D01*
X96192431Y-67089607D01*
X95982107Y-67299931D01*
X95816856Y-67547247D01*
X95703029Y-67822049D01*
X95645000Y-68113778D01*
X94703900Y-68113778D01*
X94703900Y-68003576D01*
X94602873Y-67495678D01*
X94404701Y-67017249D01*
X94117000Y-66586674D01*
X93750826Y-66220500D01*
X93320251Y-65932799D01*
X92841822Y-65734627D01*
X92333924Y-65633600D01*
X91816076Y-65633600D01*
X91308178Y-65734627D01*
X90829749Y-65932799D01*
X90399174Y-66220500D01*
X90328763Y-66290911D01*
X90400000Y-65932779D01*
X90400000Y-65512221D01*
X90317953Y-65099744D01*
X90157012Y-64711198D01*
X89923363Y-64361517D01*
X89625983Y-64064137D01*
X89276302Y-63830488D01*
X88887756Y-63669547D01*
X88475279Y-63587500D01*
X88054721Y-63587500D01*
X87642244Y-63669547D01*
X87253698Y-63830488D01*
X86904017Y-64064137D01*
X86606637Y-64361517D01*
X86372988Y-64711198D01*
X86212047Y-65099744D01*
X86130000Y-65512221D01*
X86130000Y-65932779D01*
X86212047Y-66345256D01*
X86372988Y-66733802D01*
X86452499Y-66852799D01*
X86279747Y-66924356D01*
X86032431Y-67089607D01*
X85822107Y-67299931D01*
X85656856Y-67547247D01*
X85543029Y-67822049D01*
X85485000Y-68113778D01*
X79615000Y-68113778D01*
X79556971Y-67822049D01*
X79443144Y-67547247D01*
X79277893Y-67299931D01*
X79067569Y-67089607D01*
X78820253Y-66924356D01*
X78545451Y-66810529D01*
X78253722Y-66752500D01*
X77956278Y-66752500D01*
X77664549Y-66810529D01*
X77389747Y-66924356D01*
X77142431Y-67089607D01*
X76932107Y-67299931D01*
X76766856Y-67547247D01*
X76653029Y-67822049D01*
X76595000Y-68113778D01*
X75653900Y-68113778D01*
X75653900Y-68003576D01*
X75552873Y-67495678D01*
X75354701Y-67017249D01*
X75067000Y-66586674D01*
X74700826Y-66220500D01*
X74270251Y-65932799D01*
X73791822Y-65734627D01*
X73283924Y-65633600D01*
X72766076Y-65633600D01*
X72258178Y-65734627D01*
X71779749Y-65932799D01*
X71349174Y-66220500D01*
X71278763Y-66290911D01*
X71350000Y-65932779D01*
X71350000Y-65512221D01*
X71267953Y-65099744D01*
X71107012Y-64711198D01*
X70873363Y-64361517D01*
X70575983Y-64064137D01*
X70226302Y-63830488D01*
X69837756Y-63669547D01*
X69425279Y-63587500D01*
X69004721Y-63587500D01*
X68592244Y-63669547D01*
X68203698Y-63830488D01*
X67854017Y-64064137D01*
X67556637Y-64361517D01*
X67322988Y-64711198D01*
X67162047Y-65099744D01*
X67080000Y-65512221D01*
X67080000Y-65932779D01*
X67162047Y-66345256D01*
X67322988Y-66733802D01*
X67402499Y-66852799D01*
X67229747Y-66924356D01*
X66982431Y-67089607D01*
X66772107Y-67299931D01*
X66606856Y-67547247D01*
X66493029Y-67822049D01*
X66435000Y-68113778D01*
X59397500Y-68113778D01*
X59397500Y-62972221D01*
X73430000Y-62972221D01*
X73430000Y-63392779D01*
X73512047Y-63805256D01*
X73672988Y-64193802D01*
X73906637Y-64543483D01*
X74204017Y-64840863D01*
X74553698Y-65074512D01*
X74942244Y-65235453D01*
X75354721Y-65317500D01*
X75775279Y-65317500D01*
X76187756Y-65235453D01*
X76576302Y-65074512D01*
X76925983Y-64840863D01*
X77223363Y-64543483D01*
X77457012Y-64193802D01*
X77617953Y-63805256D01*
X77700000Y-63392779D01*
X77700000Y-62972221D01*
X77617953Y-62559744D01*
X77457012Y-62171198D01*
X77223363Y-61821517D01*
X76925983Y-61524137D01*
X76576302Y-61290488D01*
X76187756Y-61129547D01*
X75775279Y-61047500D01*
X75354721Y-61047500D01*
X74942244Y-61129547D01*
X74553698Y-61290488D01*
X74204017Y-61524137D01*
X73906637Y-61821517D01*
X73672988Y-62171198D01*
X73512047Y-62559744D01*
X73430000Y-62972221D01*
X59397500Y-62972221D01*
X59397500Y-49063778D01*
X66435000Y-49063778D01*
X66435000Y-49361222D01*
X66493029Y-49652951D01*
X66606856Y-49927753D01*
X66772107Y-50175069D01*
X66982431Y-50385393D01*
X67229747Y-50550644D01*
X67504549Y-50664471D01*
X67796278Y-50722500D01*
X68093722Y-50722500D01*
X68385451Y-50664471D01*
X68660253Y-50550644D01*
X68907569Y-50385393D01*
X69117893Y-50175069D01*
X69283144Y-49927753D01*
X69396971Y-49652951D01*
X69455000Y-49361222D01*
X69455000Y-49063778D01*
X69404023Y-48807500D01*
X69425279Y-48807500D01*
X69837756Y-48725453D01*
X70226302Y-48564512D01*
X70532708Y-48359779D01*
X70497127Y-48445678D01*
X70396100Y-48953576D01*
X70396100Y-49471424D01*
X70497127Y-49979322D01*
X70695299Y-50457751D01*
X70983000Y-50888326D01*
X71349174Y-51254500D01*
X71779749Y-51542201D01*
X72258178Y-51740373D01*
X72766076Y-51841400D01*
X73283924Y-51841400D01*
X73791822Y-51740373D01*
X74270251Y-51542201D01*
X74700826Y-51254500D01*
X75067000Y-50888326D01*
X75354701Y-50457751D01*
X75552873Y-49979322D01*
X75653900Y-49471424D01*
X75653900Y-49063778D01*
X76595000Y-49063778D01*
X76595000Y-49361222D01*
X76653029Y-49652951D01*
X76766856Y-49927753D01*
X76932107Y-50175069D01*
X77142431Y-50385393D01*
X77389747Y-50550644D01*
X77664549Y-50664471D01*
X77956278Y-50722500D01*
X78253722Y-50722500D01*
X78545451Y-50664471D01*
X78820253Y-50550644D01*
X79067569Y-50385393D01*
X79277893Y-50175069D01*
X79443144Y-49927753D01*
X79556971Y-49652951D01*
X79615000Y-49361222D01*
X79615000Y-49063778D01*
X79556971Y-48772049D01*
X79443144Y-48497247D01*
X79277893Y-48249931D01*
X79067569Y-48039607D01*
X78820253Y-47874356D01*
X78545451Y-47760529D01*
X78253722Y-47702500D01*
X77956278Y-47702500D01*
X77664549Y-47760529D01*
X77389747Y-47874356D01*
X77142431Y-48039607D01*
X76932107Y-48249931D01*
X76766856Y-48497247D01*
X76653029Y-48772049D01*
X76595000Y-49063778D01*
X75653900Y-49063778D01*
X75653900Y-48953576D01*
X75552873Y-48445678D01*
X75354701Y-47967249D01*
X75067000Y-47536674D01*
X74700826Y-47170500D01*
X74270251Y-46882799D01*
X73791822Y-46684627D01*
X73283924Y-46583600D01*
X72766076Y-46583600D01*
X72258178Y-46684627D01*
X71779749Y-46882799D01*
X71349174Y-47170500D01*
X71278763Y-47240911D01*
X71350000Y-46882779D01*
X71350000Y-46462221D01*
X71267953Y-46049744D01*
X71107012Y-45661198D01*
X70873363Y-45311517D01*
X70575983Y-45014137D01*
X70226302Y-44780488D01*
X69837756Y-44619547D01*
X69425279Y-44537500D01*
X69004721Y-44537500D01*
X68592244Y-44619547D01*
X68203698Y-44780488D01*
X67854017Y-45014137D01*
X67556637Y-45311517D01*
X67322988Y-45661198D01*
X67162047Y-46049744D01*
X67080000Y-46462221D01*
X67080000Y-46882779D01*
X67162047Y-47295256D01*
X67322988Y-47683802D01*
X67402499Y-47802799D01*
X67229747Y-47874356D01*
X66982431Y-48039607D01*
X66772107Y-48249931D01*
X66606856Y-48497247D01*
X66493029Y-48772049D01*
X66435000Y-49063778D01*
X59397500Y-49063778D01*
X59397500Y-43922221D01*
X73430000Y-43922221D01*
X73430000Y-44342779D01*
X73512047Y-44755256D01*
X73672988Y-45143802D01*
X73906637Y-45493483D01*
X74204017Y-45790863D01*
X74553698Y-46024512D01*
X74942244Y-46185453D01*
X75354721Y-46267500D01*
X75775279Y-46267500D01*
X76187756Y-46185453D01*
X76576302Y-46024512D01*
X76925983Y-45790863D01*
X77223363Y-45493483D01*
X77457012Y-45143802D01*
X77617953Y-44755256D01*
X77700000Y-44342779D01*
X77700000Y-43922221D01*
X77617953Y-43509744D01*
X77457012Y-43121198D01*
X77223363Y-42771517D01*
X76925983Y-42474137D01*
X76576302Y-42240488D01*
X76187756Y-42079547D01*
X75775279Y-41997500D01*
X75354721Y-41997500D01*
X74942244Y-42079547D01*
X74553698Y-42240488D01*
X74204017Y-42474137D01*
X73906637Y-42771517D01*
X73672988Y-43121198D01*
X73512047Y-43509744D01*
X73430000Y-43922221D01*
X59397500Y-43922221D01*
X59397500Y-40665061D01*
X64878000Y-40665061D01*
X64878000Y-40868939D01*
X64917774Y-41068898D01*
X64995795Y-41257256D01*
X65109063Y-41426774D01*
X65253226Y-41570937D01*
X65422744Y-41684205D01*
X65611102Y-41762226D01*
X65811061Y-41802000D01*
X66014939Y-41802000D01*
X66214898Y-41762226D01*
X66403256Y-41684205D01*
X66572774Y-41570937D01*
X66716937Y-41426774D01*
X66830205Y-41257256D01*
X66908226Y-41068898D01*
X66948000Y-40868939D01*
X66948000Y-40665061D01*
X66908226Y-40465102D01*
X66830205Y-40276744D01*
X66716937Y-40107226D01*
X66649600Y-40039889D01*
X66649600Y-35738109D01*
X67120709Y-35267000D01*
X79664928Y-35267000D01*
X79677188Y-35391482D01*
X79713498Y-35511180D01*
X79772463Y-35621494D01*
X79851815Y-35718185D01*
X79948506Y-35797537D01*
X80058820Y-35856502D01*
X80178518Y-35892812D01*
X80303000Y-35905072D01*
X80867250Y-35902000D01*
X81026000Y-35743250D01*
X81026000Y-34544000D01*
X79826750Y-34544000D01*
X79668000Y-34702750D01*
X79664928Y-35267000D01*
X67120709Y-35267000D01*
X74981109Y-27406600D01*
X82956401Y-27406600D01*
X82956400Y-28043186D01*
X82746368Y-28183525D01*
X82539525Y-28390368D01*
X82423000Y-28564760D01*
X82306475Y-28390368D01*
X82099632Y-28183525D01*
X81856411Y-28021010D01*
X81586158Y-27909068D01*
X81299260Y-27852000D01*
X81006740Y-27852000D01*
X80719842Y-27909068D01*
X80449589Y-28021010D01*
X80206368Y-28183525D01*
X79999525Y-28390368D01*
X79837010Y-28633589D01*
X79725068Y-28903842D01*
X79668000Y-29190740D01*
X79668000Y-29483260D01*
X79725068Y-29770158D01*
X79837010Y-30040411D01*
X79999525Y-30283632D01*
X80206368Y-30490475D01*
X80380760Y-30607000D01*
X80206368Y-30723525D01*
X79999525Y-30930368D01*
X79837010Y-31173589D01*
X79725068Y-31443842D01*
X79668000Y-31730740D01*
X79668000Y-32023260D01*
X79725068Y-32310158D01*
X79837010Y-32580411D01*
X79999525Y-32823632D01*
X80131380Y-32955487D01*
X80058820Y-32977498D01*
X79948506Y-33036463D01*
X79851815Y-33115815D01*
X79772463Y-33212506D01*
X79713498Y-33322820D01*
X79677188Y-33442518D01*
X79664928Y-33567000D01*
X79668000Y-34131250D01*
X79826750Y-34290000D01*
X81026000Y-34290000D01*
X81026000Y-34270000D01*
X81280000Y-34270000D01*
X81280000Y-34290000D01*
X81300000Y-34290000D01*
X81300000Y-34544000D01*
X81280000Y-34544000D01*
X81280000Y-35743250D01*
X81438750Y-35902000D01*
X82003000Y-35905072D01*
X82127482Y-35892812D01*
X82247180Y-35856502D01*
X82357494Y-35797537D01*
X82454185Y-35718185D01*
X82533537Y-35621494D01*
X82592502Y-35511180D01*
X82614513Y-35438620D01*
X82746368Y-35570475D01*
X82948597Y-35705600D01*
X82954543Y-35765968D01*
X82997388Y-35907212D01*
X83066966Y-36037384D01*
X83070700Y-36041934D01*
X83070701Y-40837628D01*
X81538194Y-42370137D01*
X81509602Y-42393602D01*
X81486140Y-42422191D01*
X81415966Y-42507697D01*
X81370446Y-42592860D01*
X81346388Y-42637869D01*
X81303542Y-42779113D01*
X81292700Y-42889195D01*
X81292700Y-42889205D01*
X81289076Y-42926000D01*
X81292700Y-42962795D01*
X81292701Y-52209700D01*
X69632796Y-52209700D01*
X69596000Y-52206076D01*
X69559204Y-52209700D01*
X69559194Y-52209700D01*
X69449112Y-52220542D01*
X69307868Y-52263388D01*
X69177696Y-52332966D01*
X69092190Y-52403140D01*
X69063602Y-52426602D01*
X69040141Y-52455189D01*
X68203194Y-53292137D01*
X68174602Y-53315602D01*
X68151140Y-53344191D01*
X68080966Y-53429697D01*
X68011389Y-53559868D01*
X68011388Y-53559869D01*
X67968542Y-53701113D01*
X67957700Y-53811195D01*
X67957700Y-53811205D01*
X67954076Y-53848000D01*
X67957700Y-53884795D01*
X67957701Y-59272184D01*
X67954075Y-59309000D01*
X67968542Y-59455888D01*
X68011388Y-59597132D01*
X68080966Y-59727303D01*
X68174602Y-59841398D01*
X68288697Y-59935034D01*
X68418868Y-60004612D01*
X68560112Y-60047458D01*
X68670194Y-60058300D01*
X68707000Y-60061925D01*
X68743806Y-60058300D01*
X89605631Y-60058300D01*
X90376141Y-60828811D01*
X90399602Y-60857398D01*
X90428188Y-60880858D01*
X90428190Y-60880860D01*
X90513696Y-60951034D01*
X90643868Y-61020612D01*
X90785112Y-61063458D01*
X90895194Y-61074300D01*
X90895204Y-61074300D01*
X90932000Y-61077924D01*
X90968796Y-61074300D01*
X94269989Y-61074300D01*
X93992244Y-61129547D01*
X93603698Y-61290488D01*
X93254017Y-61524137D01*
X92956637Y-61821517D01*
X92722988Y-62171198D01*
X92562047Y-62559744D01*
X92480000Y-62972221D01*
X92480000Y-63392779D01*
X92562047Y-63805256D01*
X92722988Y-64193802D01*
X92956637Y-64543483D01*
X93254017Y-64840863D01*
X93603698Y-65074512D01*
X93992244Y-65235453D01*
X94404721Y-65317500D01*
X94825279Y-65317500D01*
X95237756Y-65235453D01*
X95626302Y-65074512D01*
X95975983Y-64840863D01*
X96273363Y-64543483D01*
X96507012Y-64193802D01*
X96667953Y-63805256D01*
X96750000Y-63392779D01*
X96750000Y-62972221D01*
X96667953Y-62559744D01*
X96507012Y-62171198D01*
X96273363Y-61821517D01*
X95975983Y-61524137D01*
X95626302Y-61290488D01*
X95237756Y-61129547D01*
X94960011Y-61074300D01*
X113319989Y-61074300D01*
X113042244Y-61129547D01*
X112653698Y-61290488D01*
X112304017Y-61524137D01*
X112006637Y-61821517D01*
X111772988Y-62171198D01*
X111612047Y-62559744D01*
X111530000Y-62972221D01*
X111530000Y-63392779D01*
X111612047Y-63805256D01*
X111772988Y-64193802D01*
X112006637Y-64543483D01*
X112304017Y-64840863D01*
X112653698Y-65074512D01*
X113042244Y-65235453D01*
X113454721Y-65317500D01*
X113875279Y-65317500D01*
X114287756Y-65235453D01*
X114676302Y-65074512D01*
X115025983Y-64840863D01*
X115323363Y-64543483D01*
X115557012Y-64193802D01*
X115717953Y-63805256D01*
X115800000Y-63392779D01*
X115800000Y-62972221D01*
X130580000Y-62972221D01*
X130580000Y-63392779D01*
X130662047Y-63805256D01*
X130822988Y-64193802D01*
X131056637Y-64543483D01*
X131354017Y-64840863D01*
X131703698Y-65074512D01*
X132092244Y-65235453D01*
X132504721Y-65317500D01*
X132925279Y-65317500D01*
X133337756Y-65235453D01*
X133726302Y-65074512D01*
X134075983Y-64840863D01*
X134373363Y-64543483D01*
X134607012Y-64193802D01*
X134767953Y-63805256D01*
X134850000Y-63392779D01*
X134850000Y-62972221D01*
X149630000Y-62972221D01*
X149630000Y-63392779D01*
X149712047Y-63805256D01*
X149872988Y-64193802D01*
X150106637Y-64543483D01*
X150404017Y-64840863D01*
X150753698Y-65074512D01*
X151142244Y-65235453D01*
X151554721Y-65317500D01*
X151975279Y-65317500D01*
X152387756Y-65235453D01*
X152776302Y-65074512D01*
X153125983Y-64840863D01*
X153423363Y-64543483D01*
X153657012Y-64193802D01*
X153817953Y-63805256D01*
X153900000Y-63392779D01*
X153900000Y-62972221D01*
X153817953Y-62559744D01*
X153657012Y-62171198D01*
X153423363Y-61821517D01*
X153125983Y-61524137D01*
X152776302Y-61290488D01*
X152387756Y-61129547D01*
X151975279Y-61047500D01*
X151554721Y-61047500D01*
X151142244Y-61129547D01*
X150753698Y-61290488D01*
X150404017Y-61524137D01*
X150106637Y-61821517D01*
X149872988Y-62171198D01*
X149712047Y-62559744D01*
X149630000Y-62972221D01*
X134850000Y-62972221D01*
X134767953Y-62559744D01*
X134607012Y-62171198D01*
X134373363Y-61821517D01*
X134075983Y-61524137D01*
X133726302Y-61290488D01*
X133337756Y-61129547D01*
X132925279Y-61047500D01*
X132504721Y-61047500D01*
X132092244Y-61129547D01*
X131703698Y-61290488D01*
X131354017Y-61524137D01*
X131056637Y-61821517D01*
X130822988Y-62171198D01*
X130662047Y-62559744D01*
X130580000Y-62972221D01*
X115800000Y-62972221D01*
X115717953Y-62559744D01*
X115557012Y-62171198D01*
X115323363Y-61821517D01*
X115025983Y-61524137D01*
X114676302Y-61290488D01*
X114287756Y-61129547D01*
X114010011Y-61074300D01*
X119851205Y-61074300D01*
X119888000Y-61077924D01*
X119924795Y-61074300D01*
X119924806Y-61074300D01*
X120034888Y-61063458D01*
X120176132Y-61020612D01*
X120306303Y-60951034D01*
X120420398Y-60857398D01*
X120443862Y-60828807D01*
X121026816Y-60245855D01*
X121055398Y-60222398D01*
X121078854Y-60193817D01*
X121078861Y-60193810D01*
X121149034Y-60108303D01*
X121218612Y-59978132D01*
X121261458Y-59836888D01*
X121263004Y-59821190D01*
X121272300Y-59726806D01*
X121272300Y-59726798D01*
X121275924Y-59690000D01*
X121272300Y-59653202D01*
X121272300Y-56756300D01*
X124296205Y-56756300D01*
X124333000Y-56759924D01*
X124369795Y-56756300D01*
X124369806Y-56756300D01*
X124479888Y-56745458D01*
X124621132Y-56702612D01*
X124751303Y-56633034D01*
X124865398Y-56539398D01*
X124888863Y-56510806D01*
X124963806Y-56435863D01*
X124992398Y-56412398D01*
X125036648Y-56358480D01*
X125119774Y-56302937D01*
X125263937Y-56158774D01*
X125377205Y-55989256D01*
X125455226Y-55800898D01*
X125495000Y-55600939D01*
X125495000Y-55397061D01*
X125455226Y-55197102D01*
X125377205Y-55008744D01*
X125263937Y-54839226D01*
X125119774Y-54695063D01*
X124950256Y-54581795D01*
X124761898Y-54503774D01*
X124561939Y-54464000D01*
X124358061Y-54464000D01*
X124158102Y-54503774D01*
X123969744Y-54581795D01*
X123800226Y-54695063D01*
X123745589Y-54749700D01*
X121272300Y-54749700D01*
X121272300Y-49063778D01*
X123585000Y-49063778D01*
X123585000Y-49361222D01*
X123643029Y-49652951D01*
X123756856Y-49927753D01*
X123922107Y-50175069D01*
X124132431Y-50385393D01*
X124379747Y-50550644D01*
X124654549Y-50664471D01*
X124946278Y-50722500D01*
X125243722Y-50722500D01*
X125535451Y-50664471D01*
X125810253Y-50550644D01*
X126057569Y-50385393D01*
X126267893Y-50175069D01*
X126433144Y-49927753D01*
X126546971Y-49652951D01*
X126605000Y-49361222D01*
X126605000Y-49063778D01*
X126554023Y-48807500D01*
X126575279Y-48807500D01*
X126987756Y-48725453D01*
X127376302Y-48564512D01*
X127682708Y-48359779D01*
X127647127Y-48445678D01*
X127546100Y-48953576D01*
X127546100Y-49471424D01*
X127647127Y-49979322D01*
X127845299Y-50457751D01*
X128133000Y-50888326D01*
X128499174Y-51254500D01*
X128929749Y-51542201D01*
X129408178Y-51740373D01*
X129916076Y-51841400D01*
X130433924Y-51841400D01*
X130941822Y-51740373D01*
X131420251Y-51542201D01*
X131850826Y-51254500D01*
X132217000Y-50888326D01*
X132504701Y-50457751D01*
X132702873Y-49979322D01*
X132803900Y-49471424D01*
X132803900Y-49063778D01*
X133745000Y-49063778D01*
X133745000Y-49361222D01*
X133803029Y-49652951D01*
X133916856Y-49927753D01*
X134082107Y-50175069D01*
X134292431Y-50385393D01*
X134539747Y-50550644D01*
X134814549Y-50664471D01*
X135106278Y-50722500D01*
X135403722Y-50722500D01*
X135695451Y-50664471D01*
X135970253Y-50550644D01*
X136217569Y-50385393D01*
X136427893Y-50175069D01*
X136593144Y-49927753D01*
X136706971Y-49652951D01*
X136765000Y-49361222D01*
X136765000Y-49063778D01*
X136706971Y-48772049D01*
X136593144Y-48497247D01*
X136427893Y-48249931D01*
X136217569Y-48039607D01*
X135970253Y-47874356D01*
X135695451Y-47760529D01*
X135403722Y-47702500D01*
X135106278Y-47702500D01*
X134814549Y-47760529D01*
X134539747Y-47874356D01*
X134292431Y-48039607D01*
X134082107Y-48249931D01*
X133916856Y-48497247D01*
X133803029Y-48772049D01*
X133745000Y-49063778D01*
X132803900Y-49063778D01*
X132803900Y-48953576D01*
X132702873Y-48445678D01*
X132504701Y-47967249D01*
X132217000Y-47536674D01*
X131850826Y-47170500D01*
X131420251Y-46882799D01*
X130941822Y-46684627D01*
X130433924Y-46583600D01*
X129916076Y-46583600D01*
X129408178Y-46684627D01*
X128929749Y-46882799D01*
X128499174Y-47170500D01*
X128428763Y-47240911D01*
X128500000Y-46882779D01*
X128500000Y-46462221D01*
X128417953Y-46049744D01*
X128257012Y-45661198D01*
X128023363Y-45311517D01*
X127725983Y-45014137D01*
X127376302Y-44780488D01*
X126987756Y-44619547D01*
X126575279Y-44537500D01*
X126154721Y-44537500D01*
X125742244Y-44619547D01*
X125353698Y-44780488D01*
X125004017Y-45014137D01*
X124706637Y-45311517D01*
X124472988Y-45661198D01*
X124312047Y-46049744D01*
X124230000Y-46462221D01*
X124230000Y-46882779D01*
X124312047Y-47295256D01*
X124472988Y-47683802D01*
X124552499Y-47802799D01*
X124379747Y-47874356D01*
X124132431Y-48039607D01*
X123922107Y-48249931D01*
X123756856Y-48497247D01*
X123643029Y-48772049D01*
X123585000Y-49063778D01*
X121272300Y-49063778D01*
X121272300Y-43922221D01*
X130580000Y-43922221D01*
X130580000Y-44342779D01*
X130662047Y-44755256D01*
X130822988Y-45143802D01*
X131056637Y-45493483D01*
X131354017Y-45790863D01*
X131703698Y-46024512D01*
X132092244Y-46185453D01*
X132504721Y-46267500D01*
X132925279Y-46267500D01*
X133337756Y-46185453D01*
X133726302Y-46024512D01*
X134075983Y-45790863D01*
X134373363Y-45493483D01*
X134607012Y-45143802D01*
X134767953Y-44755256D01*
X134850000Y-44342779D01*
X134850000Y-43922221D01*
X134767953Y-43509744D01*
X134607012Y-43121198D01*
X134373363Y-42771517D01*
X134075983Y-42474137D01*
X133726302Y-42240488D01*
X133337756Y-42079547D01*
X132925279Y-41997500D01*
X132504721Y-41997500D01*
X132092244Y-42079547D01*
X131703698Y-42240488D01*
X131354017Y-42474137D01*
X131056637Y-42771517D01*
X130822988Y-43121198D01*
X130662047Y-43509744D01*
X130580000Y-43922221D01*
X121272300Y-43922221D01*
X121272300Y-42913300D01*
X129757205Y-42913300D01*
X129794000Y-42916924D01*
X129830795Y-42913300D01*
X129830806Y-42913300D01*
X129940888Y-42902458D01*
X130082132Y-42859612D01*
X130212303Y-42790034D01*
X130326398Y-42696398D01*
X130349863Y-42667806D01*
X130476860Y-42540809D01*
X131342670Y-41675000D01*
X131419939Y-41675000D01*
X131619898Y-41635226D01*
X131808256Y-41557205D01*
X131977774Y-41443937D01*
X132121937Y-41299774D01*
X132235205Y-41130256D01*
X132313226Y-40941898D01*
X132353000Y-40741939D01*
X132353000Y-40538061D01*
X132313226Y-40338102D01*
X132235205Y-40149744D01*
X132138490Y-40005000D01*
X133869247Y-40005000D01*
X133839000Y-40157061D01*
X133839000Y-40274026D01*
X133810102Y-40279774D01*
X133621744Y-40357795D01*
X133452226Y-40471063D01*
X133308063Y-40615226D01*
X133194795Y-40784744D01*
X133116774Y-40973102D01*
X133077000Y-41173061D01*
X133077000Y-41376939D01*
X133116774Y-41576898D01*
X133194795Y-41765256D01*
X133308063Y-41934774D01*
X133452226Y-42078937D01*
X133621744Y-42192205D01*
X133810102Y-42270226D01*
X134010061Y-42310000D01*
X134213939Y-42310000D01*
X134413898Y-42270226D01*
X134602256Y-42192205D01*
X134771774Y-42078937D01*
X134826411Y-42024300D01*
X136497485Y-42024300D01*
X137188610Y-42715427D01*
X137212066Y-42744008D01*
X137240647Y-42767464D01*
X137240654Y-42767471D01*
X137326161Y-42837644D01*
X137456332Y-42907222D01*
X137597576Y-42950068D01*
X137707658Y-42960910D01*
X137707666Y-42960910D01*
X137744464Y-42964534D01*
X137781262Y-42960910D01*
X137887090Y-42960910D01*
X137887091Y-54355978D01*
X137832453Y-54410616D01*
X137719185Y-54580134D01*
X137641164Y-54768492D01*
X137601390Y-54968451D01*
X137601390Y-55172329D01*
X137641164Y-55372288D01*
X137719185Y-55560646D01*
X137832453Y-55730164D01*
X137976616Y-55874327D01*
X138146134Y-55987595D01*
X138334492Y-56065616D01*
X138534451Y-56105390D01*
X138738329Y-56105390D01*
X138938288Y-56065616D01*
X139126646Y-55987595D01*
X139296164Y-55874327D01*
X139440327Y-55730164D01*
X139553595Y-55560646D01*
X139631616Y-55372288D01*
X139671390Y-55172329D01*
X139671390Y-54968451D01*
X139631616Y-54768492D01*
X139553595Y-54580134D01*
X139440327Y-54410616D01*
X139385690Y-54355979D01*
X139385690Y-49259359D01*
X141363700Y-51237370D01*
X141363701Y-59356588D01*
X141309063Y-59411226D01*
X141195795Y-59580744D01*
X141117774Y-59769102D01*
X141078000Y-59969061D01*
X141078000Y-60172939D01*
X141117774Y-60372898D01*
X141195795Y-60561256D01*
X141309063Y-60730774D01*
X141453226Y-60874937D01*
X141622744Y-60988205D01*
X141811102Y-61066226D01*
X142011061Y-61106000D01*
X142214939Y-61106000D01*
X142414898Y-61066226D01*
X142603256Y-60988205D01*
X142772774Y-60874937D01*
X142916937Y-60730774D01*
X143030205Y-60561256D01*
X143108226Y-60372898D01*
X143148000Y-60172939D01*
X143148000Y-59969061D01*
X143108226Y-59769102D01*
X143030205Y-59580744D01*
X142916937Y-59411226D01*
X142862300Y-59356589D01*
X142862300Y-50963796D01*
X142865924Y-50927000D01*
X142862300Y-50890204D01*
X142862300Y-50890194D01*
X142851458Y-50780112D01*
X142808612Y-50638868D01*
X142739034Y-50508696D01*
X142668860Y-50423190D01*
X142668858Y-50423188D01*
X142645398Y-50394602D01*
X142616813Y-50371143D01*
X141309448Y-49063778D01*
X142635000Y-49063778D01*
X142635000Y-49361222D01*
X142693029Y-49652951D01*
X142806856Y-49927753D01*
X142972107Y-50175069D01*
X143182431Y-50385393D01*
X143429747Y-50550644D01*
X143704549Y-50664471D01*
X143996278Y-50722500D01*
X144293722Y-50722500D01*
X144585451Y-50664471D01*
X144860253Y-50550644D01*
X145107569Y-50385393D01*
X145317893Y-50175069D01*
X145483144Y-49927753D01*
X145596971Y-49652951D01*
X145655000Y-49361222D01*
X145655000Y-49063778D01*
X145604023Y-48807500D01*
X145625279Y-48807500D01*
X146037756Y-48725453D01*
X146426302Y-48564512D01*
X146732708Y-48359779D01*
X146697127Y-48445678D01*
X146596100Y-48953576D01*
X146596100Y-49471424D01*
X146697127Y-49979322D01*
X146895299Y-50457751D01*
X147183000Y-50888326D01*
X147549174Y-51254500D01*
X147979749Y-51542201D01*
X148458178Y-51740373D01*
X148966076Y-51841400D01*
X149483924Y-51841400D01*
X149991822Y-51740373D01*
X150470251Y-51542201D01*
X150900826Y-51254500D01*
X151267000Y-50888326D01*
X151554701Y-50457751D01*
X151752873Y-49979322D01*
X151853900Y-49471424D01*
X151853900Y-49063778D01*
X152795000Y-49063778D01*
X152795000Y-49361222D01*
X152853029Y-49652951D01*
X152966856Y-49927753D01*
X153132107Y-50175069D01*
X153342431Y-50385393D01*
X153589747Y-50550644D01*
X153864549Y-50664471D01*
X154156278Y-50722500D01*
X154453722Y-50722500D01*
X154745451Y-50664471D01*
X155020253Y-50550644D01*
X155267569Y-50385393D01*
X155477893Y-50175069D01*
X155643144Y-49927753D01*
X155756971Y-49652951D01*
X155815000Y-49361222D01*
X155815000Y-49063778D01*
X155756971Y-48772049D01*
X155643144Y-48497247D01*
X155477893Y-48249931D01*
X155267569Y-48039607D01*
X155020253Y-47874356D01*
X154745451Y-47760529D01*
X154453722Y-47702500D01*
X154156278Y-47702500D01*
X153864549Y-47760529D01*
X153589747Y-47874356D01*
X153342431Y-48039607D01*
X153132107Y-48249931D01*
X152966856Y-48497247D01*
X152853029Y-48772049D01*
X152795000Y-49063778D01*
X151853900Y-49063778D01*
X151853900Y-48953576D01*
X151752873Y-48445678D01*
X151554701Y-47967249D01*
X151267000Y-47536674D01*
X150900826Y-47170500D01*
X150470251Y-46882799D01*
X149991822Y-46684627D01*
X149483924Y-46583600D01*
X148966076Y-46583600D01*
X148458178Y-46684627D01*
X147979749Y-46882799D01*
X147549174Y-47170500D01*
X147478763Y-47240911D01*
X147550000Y-46882779D01*
X147550000Y-46462221D01*
X147467953Y-46049744D01*
X147307012Y-45661198D01*
X147073363Y-45311517D01*
X146775983Y-45014137D01*
X146426302Y-44780488D01*
X146037756Y-44619547D01*
X145625279Y-44537500D01*
X145204721Y-44537500D01*
X144792244Y-44619547D01*
X144403698Y-44780488D01*
X144054017Y-45014137D01*
X143756637Y-45311517D01*
X143522988Y-45661198D01*
X143362047Y-46049744D01*
X143280000Y-46462221D01*
X143280000Y-46882779D01*
X143362047Y-47295256D01*
X143522988Y-47683802D01*
X143602499Y-47802799D01*
X143429747Y-47874356D01*
X143182431Y-48039607D01*
X142972107Y-48249931D01*
X142806856Y-48497247D01*
X142693029Y-48772049D01*
X142635000Y-49063778D01*
X141309448Y-49063778D01*
X139814300Y-47568631D01*
X139814300Y-43922221D01*
X149630000Y-43922221D01*
X149630000Y-44342779D01*
X149712047Y-44755256D01*
X149872988Y-45143802D01*
X150106637Y-45493483D01*
X150404017Y-45790863D01*
X150753698Y-46024512D01*
X151142244Y-46185453D01*
X151554721Y-46267500D01*
X151975279Y-46267500D01*
X152387756Y-46185453D01*
X152776302Y-46024512D01*
X153125983Y-45790863D01*
X153423363Y-45493483D01*
X153657012Y-45143802D01*
X153817953Y-44755256D01*
X153900000Y-44342779D01*
X153900000Y-43922221D01*
X153817953Y-43509744D01*
X153657012Y-43121198D01*
X153423363Y-42771517D01*
X153125983Y-42474137D01*
X152776302Y-42240488D01*
X152387756Y-42079547D01*
X151975279Y-41997500D01*
X151554721Y-41997500D01*
X151142244Y-42079547D01*
X150753698Y-42240488D01*
X150404017Y-42474137D01*
X150106637Y-42771517D01*
X149872988Y-43121198D01*
X149712047Y-43509744D01*
X149630000Y-43922221D01*
X139814300Y-43922221D01*
X139814300Y-41946795D01*
X139817924Y-41909999D01*
X139814300Y-41873204D01*
X139814300Y-41873194D01*
X139803458Y-41763112D01*
X139760612Y-41621868D01*
X139691034Y-41491697D01*
X139597398Y-41377602D01*
X139568807Y-41354138D01*
X139493863Y-41279194D01*
X139470398Y-41250602D01*
X139356303Y-41156966D01*
X139226132Y-41087388D01*
X139084888Y-41044542D01*
X139004970Y-41036671D01*
X139044226Y-40941898D01*
X139084000Y-40741939D01*
X139084000Y-40538061D01*
X139044226Y-40338102D01*
X138966205Y-40149744D01*
X138852937Y-39980226D01*
X138708774Y-39836063D01*
X138539256Y-39722795D01*
X138350898Y-39644774D01*
X138150939Y-39605000D01*
X138091631Y-39605000D01*
X137217284Y-38730654D01*
X137193422Y-38701578D01*
X137077392Y-38606355D01*
X136945015Y-38535598D01*
X136801378Y-38492026D01*
X136689426Y-38481000D01*
X136689423Y-38481000D01*
X136652000Y-38477314D01*
X136614577Y-38481000D01*
X126558711Y-38481000D01*
X126516774Y-38439063D01*
X126347256Y-38325795D01*
X126158898Y-38247774D01*
X125958939Y-38208000D01*
X125755061Y-38208000D01*
X125555102Y-38247774D01*
X125366744Y-38325795D01*
X125197226Y-38439063D01*
X125053063Y-38583226D01*
X124939795Y-38752744D01*
X124861774Y-38941102D01*
X124822000Y-39141061D01*
X124822000Y-39344939D01*
X124861774Y-39544898D01*
X124939795Y-39733256D01*
X125053063Y-39902774D01*
X125197226Y-40046937D01*
X125366744Y-40160205D01*
X125555102Y-40238226D01*
X125755061Y-40278000D01*
X125958939Y-40278000D01*
X126158898Y-40238226D01*
X126347256Y-40160205D01*
X126516774Y-40046937D01*
X126558711Y-40005000D01*
X130497510Y-40005000D01*
X130400795Y-40149744D01*
X130322774Y-40338102D01*
X130283000Y-40538061D01*
X130283000Y-40615330D01*
X129483631Y-41414700D01*
X124701300Y-41414700D01*
X124701300Y-37348061D01*
X138523000Y-37348061D01*
X138523000Y-37551939D01*
X138562774Y-37751898D01*
X138640795Y-37940256D01*
X138754063Y-38109774D01*
X138898226Y-38253937D01*
X139067744Y-38367205D01*
X139256102Y-38445226D01*
X139456061Y-38485000D01*
X139659939Y-38485000D01*
X139716320Y-38473785D01*
X139789574Y-38481000D01*
X139789576Y-38481000D01*
X139826999Y-38484686D01*
X139864422Y-38481000D01*
X144586289Y-38481000D01*
X144628226Y-38522937D01*
X144797744Y-38636205D01*
X144986102Y-38714226D01*
X145186061Y-38754000D01*
X145389939Y-38754000D01*
X145589898Y-38714226D01*
X145778256Y-38636205D01*
X145947774Y-38522937D01*
X146091937Y-38378774D01*
X146205205Y-38209256D01*
X146283226Y-38020898D01*
X146323000Y-37820939D01*
X146323000Y-37617061D01*
X146283226Y-37417102D01*
X146205205Y-37228744D01*
X146091937Y-37059226D01*
X145947774Y-36915063D01*
X145778256Y-36801795D01*
X145589898Y-36723774D01*
X145389939Y-36684000D01*
X145186061Y-36684000D01*
X144986102Y-36723774D01*
X144797744Y-36801795D01*
X144628226Y-36915063D01*
X144586289Y-36957000D01*
X140473372Y-36957000D01*
X140361937Y-36790226D01*
X140217774Y-36646063D01*
X140048256Y-36532795D01*
X139859898Y-36454774D01*
X139659939Y-36415000D01*
X139456061Y-36415000D01*
X139256102Y-36454774D01*
X139067744Y-36532795D01*
X138898226Y-36646063D01*
X138754063Y-36790226D01*
X138640795Y-36959744D01*
X138562774Y-37148102D01*
X138523000Y-37348061D01*
X124701300Y-37348061D01*
X124701300Y-30813411D01*
X124755937Y-30758774D01*
X124869205Y-30589256D01*
X124947226Y-30400898D01*
X124987000Y-30200939D01*
X124987000Y-29997061D01*
X124947226Y-29797102D01*
X124869205Y-29608744D01*
X124755937Y-29439226D01*
X124611774Y-29295063D01*
X124442256Y-29181795D01*
X124319214Y-29130829D01*
X124320300Y-29119806D01*
X124320300Y-29119797D01*
X124323924Y-29083001D01*
X124320300Y-29046205D01*
X124320300Y-26495411D01*
X124374937Y-26440774D01*
X124488205Y-26271256D01*
X124566226Y-26082898D01*
X124572388Y-26051922D01*
X124761898Y-26014226D01*
X124950256Y-25936205D01*
X125119774Y-25822937D01*
X125263937Y-25678774D01*
X125377205Y-25509256D01*
X125455226Y-25320898D01*
X125495000Y-25120939D01*
X125495000Y-24917061D01*
X125455226Y-24717102D01*
X125377205Y-24528744D01*
X125263937Y-24359226D01*
X125119774Y-24215063D01*
X124950256Y-24101795D01*
X124761898Y-24023774D01*
X124561939Y-23984000D01*
X124461528Y-23984000D01*
X124348133Y-23923389D01*
X124206889Y-23880543D01*
X124096807Y-23869701D01*
X124096796Y-23869701D01*
X124060001Y-23866077D01*
X124023206Y-23869701D01*
X122991795Y-23869701D01*
X122954999Y-23866077D01*
X122918203Y-23869701D01*
X122918193Y-23869701D01*
X122808111Y-23880543D01*
X122666867Y-23923389D01*
X122536696Y-23992967D01*
X122501500Y-24021852D01*
X122501500Y-23368000D01*
X128524000Y-23368000D01*
X128524001Y-23735788D01*
X128482063Y-23777726D01*
X128368795Y-23947244D01*
X128290774Y-24135602D01*
X128251000Y-24335561D01*
X128251000Y-24539439D01*
X128290774Y-24739398D01*
X128368795Y-24927756D01*
X128482063Y-25097274D01*
X128626226Y-25241437D01*
X128795744Y-25354705D01*
X128984102Y-25432726D01*
X129184061Y-25472500D01*
X129387939Y-25472500D01*
X129587898Y-25432726D01*
X129776256Y-25354705D01*
X129945774Y-25241437D01*
X130089937Y-25097274D01*
X130203205Y-24927756D01*
X130281226Y-24739398D01*
X130321000Y-24539439D01*
X130321000Y-24335561D01*
X130281226Y-24135602D01*
X130203205Y-23947244D01*
X130089937Y-23777726D01*
X130048000Y-23735789D01*
X130048000Y-22643426D01*
X130051686Y-22606000D01*
X130036974Y-22456622D01*
X129993402Y-22312985D01*
X129922645Y-22180608D01*
X129827422Y-22064578D01*
X129711392Y-21969355D01*
X129579015Y-21898598D01*
X129435378Y-21855026D01*
X129323426Y-21844000D01*
X129323425Y-21844000D01*
X129286000Y-21840314D01*
X129248574Y-21844000D01*
X121830422Y-21844000D01*
X121792999Y-21840314D01*
X121755576Y-21844000D01*
X121755574Y-21844000D01*
X121643622Y-21855026D01*
X121503605Y-21897500D01*
X120887923Y-21897500D01*
X120850500Y-21893814D01*
X120813077Y-21897500D01*
X120813074Y-21897500D01*
X120701122Y-21908526D01*
X120557485Y-21952098D01*
X120525198Y-21969356D01*
X120425107Y-22022855D01*
X120401380Y-22042328D01*
X120309078Y-22118078D01*
X120285216Y-22147154D01*
X119573041Y-22859330D01*
X119525707Y-22811996D01*
X119356189Y-22698728D01*
X119167831Y-22620707D01*
X118967872Y-22580933D01*
X118763994Y-22580933D01*
X118564035Y-22620707D01*
X118375677Y-22698728D01*
X118206159Y-22811996D01*
X118061996Y-22956159D01*
X118038000Y-22992072D01*
X118038000Y-22915000D01*
X116680000Y-22915000D01*
X116680000Y-24608155D01*
X116787437Y-24664853D01*
X115518891Y-25933400D01*
X114500480Y-25933400D01*
X113090815Y-24523736D01*
X113067745Y-24495625D01*
X112955583Y-24403576D01*
X112827619Y-24335178D01*
X112688769Y-24293058D01*
X112580556Y-24282400D01*
X112580553Y-24282400D01*
X112544370Y-24278836D01*
X112508187Y-24282400D01*
X110355015Y-24282400D01*
X110417176Y-24218619D01*
X110576361Y-23973618D01*
X110684690Y-23702269D01*
X110738000Y-23415000D01*
X110738000Y-22915000D01*
X115068000Y-22915000D01*
X115068000Y-23415000D01*
X115121310Y-23702269D01*
X115229639Y-23973618D01*
X115388824Y-24218619D01*
X115592748Y-24427857D01*
X115833574Y-24593291D01*
X116102047Y-24708563D01*
X116196110Y-24729476D01*
X116426000Y-24608155D01*
X116426000Y-22915000D01*
X115068000Y-22915000D01*
X110738000Y-22915000D01*
X109380000Y-22915000D01*
X109380000Y-22935000D01*
X109126000Y-22935000D01*
X109126000Y-22915000D01*
X107768000Y-22915000D01*
X107768000Y-23415000D01*
X107821310Y-23702269D01*
X107929639Y-23973618D01*
X108088824Y-24218619D01*
X108150985Y-24282400D01*
X102708111Y-24282400D01*
X102640774Y-24215063D01*
X102471256Y-24101795D01*
X102282898Y-24023774D01*
X102082939Y-23984000D01*
X101879061Y-23984000D01*
X101679102Y-24023774D01*
X101490744Y-24101795D01*
X101321226Y-24215063D01*
X101177063Y-24359226D01*
X101063795Y-24528744D01*
X101010388Y-24657679D01*
X100749100Y-24396391D01*
X100749100Y-23299545D01*
X100779411Y-23286990D01*
X101022632Y-23124475D01*
X101154487Y-22992620D01*
X101176498Y-23065180D01*
X101235463Y-23175494D01*
X101314815Y-23272185D01*
X101411506Y-23351537D01*
X101521820Y-23410502D01*
X101641518Y-23446812D01*
X101766000Y-23459072D01*
X103466000Y-23459072D01*
X103590482Y-23446812D01*
X103710180Y-23410502D01*
X103820494Y-23351537D01*
X103917185Y-23272185D01*
X103996537Y-23175494D01*
X104055502Y-23065180D01*
X104091812Y-22945482D01*
X104104072Y-22821000D01*
X104104072Y-22161000D01*
X107768000Y-22161000D01*
X107768000Y-22661000D01*
X109126000Y-22661000D01*
X109126000Y-20967845D01*
X109380000Y-20967845D01*
X109380000Y-22661000D01*
X110738000Y-22661000D01*
X110738000Y-22161000D01*
X115068000Y-22161000D01*
X115068000Y-22661000D01*
X116426000Y-22661000D01*
X116426000Y-20967845D01*
X116680000Y-20967845D01*
X116680000Y-22661000D01*
X118038000Y-22661000D01*
X118038000Y-22161000D01*
X117984690Y-21873731D01*
X117876361Y-21602382D01*
X117717176Y-21357381D01*
X117513252Y-21148143D01*
X117272426Y-20982709D01*
X117003953Y-20867437D01*
X116909890Y-20846524D01*
X116680000Y-20967845D01*
X116426000Y-20967845D01*
X116196110Y-20846524D01*
X116102047Y-20867437D01*
X115833574Y-20982709D01*
X115592748Y-21148143D01*
X115388824Y-21357381D01*
X115229639Y-21602382D01*
X115121310Y-21873731D01*
X115068000Y-22161000D01*
X110738000Y-22161000D01*
X110684690Y-21873731D01*
X110576361Y-21602382D01*
X110417176Y-21357381D01*
X110213252Y-21148143D01*
X109972426Y-20982709D01*
X109703953Y-20867437D01*
X109609890Y-20846524D01*
X109380000Y-20967845D01*
X109126000Y-20967845D01*
X108896110Y-20846524D01*
X108802047Y-20867437D01*
X108533574Y-20982709D01*
X108292748Y-21148143D01*
X108088824Y-21357381D01*
X107929639Y-21602382D01*
X107821310Y-21873731D01*
X107768000Y-22161000D01*
X104104072Y-22161000D01*
X104104072Y-21121000D01*
X104091812Y-20996518D01*
X104055502Y-20876820D01*
X103996537Y-20766506D01*
X103917185Y-20669815D01*
X103820494Y-20590463D01*
X103710180Y-20531498D01*
X103590482Y-20495188D01*
X103466000Y-20482928D01*
X101766000Y-20482928D01*
X101641518Y-20495188D01*
X101521820Y-20531498D01*
X101411506Y-20590463D01*
X101314815Y-20669815D01*
X101235463Y-20766506D01*
X101176498Y-20876820D01*
X101154487Y-20949380D01*
X101022632Y-20817525D01*
X100779411Y-20655010D01*
X100509158Y-20543068D01*
X100222260Y-20486000D01*
X99929740Y-20486000D01*
X99642842Y-20543068D01*
X99372589Y-20655010D01*
X99129368Y-20817525D01*
X98922525Y-21024368D01*
X98806000Y-21198760D01*
X98689475Y-21024368D01*
X98482632Y-20817525D01*
X98239411Y-20655010D01*
X97969158Y-20543068D01*
X97682260Y-20486000D01*
X97389740Y-20486000D01*
X97102842Y-20543068D01*
X96832589Y-20655010D01*
X96589368Y-20817525D01*
X96382525Y-21024368D01*
X96260805Y-21206534D01*
X96191178Y-21089645D01*
X95996269Y-20873412D01*
X95762920Y-20699359D01*
X95500099Y-20574175D01*
X95352890Y-20529524D01*
X95123000Y-20650845D01*
X95123000Y-21844000D01*
X95143000Y-21844000D01*
X95143000Y-22098000D01*
X95123000Y-22098000D01*
X95123000Y-23291155D01*
X95352890Y-23412476D01*
X95500099Y-23367825D01*
X95762920Y-23242641D01*
X95996269Y-23068588D01*
X96191178Y-22852355D01*
X96260805Y-22735466D01*
X96382525Y-22917632D01*
X96589368Y-23124475D01*
X96832589Y-23286990D01*
X96894650Y-23312697D01*
X96894651Y-24697054D01*
X96891086Y-24733250D01*
X96905308Y-24877649D01*
X96947428Y-25016499D01*
X97015826Y-25144463D01*
X97107875Y-25256625D01*
X97220037Y-25348674D01*
X97348001Y-25417072D01*
X97486851Y-25459192D01*
X97595064Y-25469850D01*
X97631250Y-25473414D01*
X97667436Y-25469850D01*
X98977141Y-25469850D01*
X100418557Y-26911267D01*
X100441625Y-26939375D01*
X100553787Y-27031424D01*
X100681751Y-27099822D01*
X100801221Y-27136063D01*
X100820601Y-27141942D01*
X100965000Y-27156164D01*
X101001186Y-27152600D01*
X109549891Y-27152600D01*
X110642400Y-28245109D01*
X110642400Y-28538817D01*
X110638836Y-28575000D01*
X110642400Y-28611183D01*
X110642400Y-28611186D01*
X110653058Y-28719399D01*
X110695178Y-28858249D01*
X110736324Y-28935226D01*
X110763576Y-28986212D01*
X110795667Y-29025315D01*
X109384426Y-29025315D01*
X109347000Y-29021629D01*
X109309575Y-29025315D01*
X109309574Y-29025315D01*
X109197622Y-29036341D01*
X109053985Y-29079913D01*
X108921608Y-29150670D01*
X108805578Y-29245893D01*
X108710355Y-29361923D01*
X108655794Y-29464000D01*
X108639598Y-29494300D01*
X108596026Y-29637937D01*
X108595772Y-29640517D01*
X108543063Y-29693226D01*
X108429795Y-29862744D01*
X108351774Y-30051102D01*
X108312000Y-30251061D01*
X108312000Y-30454939D01*
X108351774Y-30654898D01*
X108429795Y-30843256D01*
X108543063Y-31012774D01*
X108687226Y-31156937D01*
X108856744Y-31270205D01*
X109045102Y-31348226D01*
X109245061Y-31388000D01*
X109448939Y-31388000D01*
X109648898Y-31348226D01*
X109837256Y-31270205D01*
X110006774Y-31156937D01*
X110150937Y-31012774D01*
X110264205Y-30843256D01*
X110342226Y-30654898D01*
X110363228Y-30549315D01*
X113939262Y-30549315D01*
X113976685Y-30553001D01*
X114014108Y-30549315D01*
X114014111Y-30549315D01*
X114126063Y-30538289D01*
X114269700Y-30494717D01*
X114402077Y-30423960D01*
X114518107Y-30328737D01*
X114541969Y-30299661D01*
X114914804Y-29926826D01*
X115044256Y-29873205D01*
X115213774Y-29759937D01*
X115357937Y-29615774D01*
X115471205Y-29446256D01*
X115549226Y-29257898D01*
X115589000Y-29057939D01*
X115589000Y-28998630D01*
X119151400Y-25436231D01*
X119151400Y-25561889D01*
X119084063Y-25629226D01*
X118970795Y-25798744D01*
X118892774Y-25987102D01*
X118853000Y-26187061D01*
X118853000Y-26390939D01*
X118892774Y-26590898D01*
X118970795Y-26779256D01*
X119084063Y-26948774D01*
X119228226Y-27092937D01*
X119397744Y-27206205D01*
X119586102Y-27284226D01*
X119786061Y-27324000D01*
X119989939Y-27324000D01*
X120189898Y-27284226D01*
X120378256Y-27206205D01*
X120547774Y-27092937D01*
X120691937Y-26948774D01*
X120805205Y-26779256D01*
X120883226Y-26590898D01*
X120923000Y-26390939D01*
X120923000Y-26187061D01*
X120883226Y-25987102D01*
X120805205Y-25798744D01*
X120691937Y-25629226D01*
X120624600Y-25561889D01*
X120624600Y-24943109D01*
X120777642Y-24790067D01*
X120885006Y-24790067D01*
X120977501Y-24771669D01*
X120977500Y-28374500D01*
X120125923Y-28374500D01*
X120088500Y-28370814D01*
X120051077Y-28374500D01*
X120051074Y-28374500D01*
X119939122Y-28385526D01*
X119795485Y-28429098D01*
X119663108Y-28499855D01*
X119547078Y-28595078D01*
X119523214Y-28624157D01*
X119502652Y-28644719D01*
X119473579Y-28668578D01*
X119449722Y-28697648D01*
X119449721Y-28697649D01*
X119378355Y-28784608D01*
X119307599Y-28916985D01*
X119264027Y-29060622D01*
X119249314Y-29210000D01*
X119253001Y-29247433D01*
X119253000Y-30823574D01*
X119249314Y-30861000D01*
X119253000Y-30898425D01*
X119253000Y-31025425D01*
X119253001Y-31025435D01*
X119253000Y-33553400D01*
X119091111Y-33553400D01*
X119072274Y-33534563D01*
X118902756Y-33421295D01*
X118714398Y-33343274D01*
X118514439Y-33303500D01*
X118310561Y-33303500D01*
X118110602Y-33343274D01*
X117922244Y-33421295D01*
X117752726Y-33534563D01*
X117608563Y-33678726D01*
X117495295Y-33848244D01*
X117417274Y-34036602D01*
X117377500Y-34236561D01*
X117377500Y-34440439D01*
X117417274Y-34640398D01*
X117495295Y-34828756D01*
X117608563Y-34998274D01*
X117752726Y-35142437D01*
X117922244Y-35255705D01*
X118110602Y-35333726D01*
X118310561Y-35373500D01*
X118514439Y-35373500D01*
X118714398Y-35333726D01*
X118867535Y-35270294D01*
X118878789Y-35307394D01*
X118902568Y-35385783D01*
X118970966Y-35513748D01*
X119029256Y-35584774D01*
X119063016Y-35625911D01*
X119091122Y-35648977D01*
X119624413Y-36182269D01*
X119647479Y-36210375D01*
X119759641Y-36302424D01*
X119887605Y-36370822D01*
X120016757Y-36410000D01*
X120026455Y-36412942D01*
X120170854Y-36427164D01*
X120207040Y-36423600D01*
X121121817Y-36423600D01*
X121158000Y-36427164D01*
X121194183Y-36423600D01*
X121194186Y-36423600D01*
X121302399Y-36412942D01*
X121441249Y-36370822D01*
X121569213Y-36302424D01*
X121678700Y-36212570D01*
X121678701Y-39255700D01*
X101763796Y-39255700D01*
X101727000Y-39252076D01*
X101690204Y-39255700D01*
X101690194Y-39255700D01*
X101580112Y-39266542D01*
X101438868Y-39309388D01*
X101308697Y-39378966D01*
X101223190Y-39449139D01*
X101223183Y-39449146D01*
X101194602Y-39472602D01*
X101171146Y-39501184D01*
X100461193Y-40211138D01*
X100432602Y-40234602D01*
X100409140Y-40263191D01*
X100338966Y-40348697D01*
X100283542Y-40452388D01*
X100269388Y-40478869D01*
X100226542Y-40620113D01*
X100215700Y-40730195D01*
X100215700Y-40730205D01*
X100212076Y-40767000D01*
X100215700Y-40803795D01*
X100215701Y-56458629D01*
X100019630Y-56654700D01*
X73485411Y-56654700D01*
X73430774Y-56600063D01*
X73261256Y-56486795D01*
X73072898Y-56408774D01*
X72872939Y-56369000D01*
X72669061Y-56369000D01*
X72469102Y-56408774D01*
X72280744Y-56486795D01*
X72111226Y-56600063D01*
X71967063Y-56744226D01*
X71853795Y-56913744D01*
X71775774Y-57102102D01*
X71736000Y-57302061D01*
X71736000Y-57505939D01*
X71775774Y-57705898D01*
X71853795Y-57894256D01*
X71967063Y-58063774D01*
X72111226Y-58207937D01*
X72280744Y-58321205D01*
X72469102Y-58399226D01*
X72669061Y-58439000D01*
X72872939Y-58439000D01*
X73072898Y-58399226D01*
X73261256Y-58321205D01*
X73430774Y-58207937D01*
X73485411Y-58153300D01*
X90482800Y-58153300D01*
X90444774Y-58245102D01*
X90405000Y-58445061D01*
X90405000Y-58648939D01*
X90426881Y-58758943D01*
X90334303Y-58682966D01*
X90204132Y-58613388D01*
X90062888Y-58570542D01*
X89952806Y-58559700D01*
X89952795Y-58559700D01*
X89916000Y-58556076D01*
X89879205Y-58559700D01*
X69456300Y-58559700D01*
X69456300Y-54158369D01*
X69906370Y-53708300D01*
X82005194Y-53708300D01*
X82042000Y-53711925D01*
X82188888Y-53697458D01*
X82330132Y-53654612D01*
X82460303Y-53585034D01*
X82574398Y-53491398D01*
X82668034Y-53377303D01*
X82737612Y-53247132D01*
X82780458Y-53105888D01*
X82791300Y-52995806D01*
X82794925Y-52959000D01*
X82791300Y-52922194D01*
X82791300Y-49063778D01*
X85485000Y-49063778D01*
X85485000Y-49361222D01*
X85543029Y-49652951D01*
X85656856Y-49927753D01*
X85822107Y-50175069D01*
X86032431Y-50385393D01*
X86279747Y-50550644D01*
X86554549Y-50664471D01*
X86846278Y-50722500D01*
X87143722Y-50722500D01*
X87435451Y-50664471D01*
X87710253Y-50550644D01*
X87957569Y-50385393D01*
X88167893Y-50175069D01*
X88333144Y-49927753D01*
X88446971Y-49652951D01*
X88505000Y-49361222D01*
X88505000Y-49063778D01*
X88454023Y-48807500D01*
X88475279Y-48807500D01*
X88887756Y-48725453D01*
X89276302Y-48564512D01*
X89582708Y-48359779D01*
X89547127Y-48445678D01*
X89446100Y-48953576D01*
X89446100Y-49471424D01*
X89547127Y-49979322D01*
X89745299Y-50457751D01*
X90033000Y-50888326D01*
X90399174Y-51254500D01*
X90829749Y-51542201D01*
X91308178Y-51740373D01*
X91816076Y-51841400D01*
X92333924Y-51841400D01*
X92841822Y-51740373D01*
X93320251Y-51542201D01*
X93750826Y-51254500D01*
X94117000Y-50888326D01*
X94404701Y-50457751D01*
X94602873Y-49979322D01*
X94703900Y-49471424D01*
X94703900Y-49063778D01*
X95645000Y-49063778D01*
X95645000Y-49361222D01*
X95703029Y-49652951D01*
X95816856Y-49927753D01*
X95982107Y-50175069D01*
X96192431Y-50385393D01*
X96439747Y-50550644D01*
X96714549Y-50664471D01*
X97006278Y-50722500D01*
X97303722Y-50722500D01*
X97595451Y-50664471D01*
X97870253Y-50550644D01*
X98117569Y-50385393D01*
X98327893Y-50175069D01*
X98493144Y-49927753D01*
X98606971Y-49652951D01*
X98665000Y-49361222D01*
X98665000Y-49063778D01*
X98606971Y-48772049D01*
X98493144Y-48497247D01*
X98327893Y-48249931D01*
X98117569Y-48039607D01*
X97870253Y-47874356D01*
X97595451Y-47760529D01*
X97303722Y-47702500D01*
X97006278Y-47702500D01*
X96714549Y-47760529D01*
X96439747Y-47874356D01*
X96192431Y-48039607D01*
X95982107Y-48249931D01*
X95816856Y-48497247D01*
X95703029Y-48772049D01*
X95645000Y-49063778D01*
X94703900Y-49063778D01*
X94703900Y-48953576D01*
X94602873Y-48445678D01*
X94404701Y-47967249D01*
X94117000Y-47536674D01*
X93750826Y-47170500D01*
X93320251Y-46882799D01*
X92841822Y-46684627D01*
X92333924Y-46583600D01*
X91816076Y-46583600D01*
X91308178Y-46684627D01*
X90829749Y-46882799D01*
X90399174Y-47170500D01*
X90328763Y-47240911D01*
X90400000Y-46882779D01*
X90400000Y-46462221D01*
X90317953Y-46049744D01*
X90157012Y-45661198D01*
X89923363Y-45311517D01*
X89625983Y-45014137D01*
X89276302Y-44780488D01*
X88887756Y-44619547D01*
X88475279Y-44537500D01*
X88054721Y-44537500D01*
X87642244Y-44619547D01*
X87253698Y-44780488D01*
X86904017Y-45014137D01*
X86606637Y-45311517D01*
X86372988Y-45661198D01*
X86212047Y-46049744D01*
X86130000Y-46462221D01*
X86130000Y-46882779D01*
X86212047Y-47295256D01*
X86372988Y-47683802D01*
X86452499Y-47802799D01*
X86279747Y-47874356D01*
X86032431Y-48039607D01*
X85822107Y-48249931D01*
X85656856Y-48497247D01*
X85543029Y-48772049D01*
X85485000Y-49063778D01*
X82791300Y-49063778D01*
X82791300Y-43922221D01*
X92480000Y-43922221D01*
X92480000Y-44342779D01*
X92562047Y-44755256D01*
X92722988Y-45143802D01*
X92956637Y-45493483D01*
X93254017Y-45790863D01*
X93603698Y-46024512D01*
X93992244Y-46185453D01*
X94404721Y-46267500D01*
X94825279Y-46267500D01*
X95237756Y-46185453D01*
X95626302Y-46024512D01*
X95975983Y-45790863D01*
X96273363Y-45493483D01*
X96507012Y-45143802D01*
X96667953Y-44755256D01*
X96750000Y-44342779D01*
X96750000Y-43922221D01*
X96667953Y-43509744D01*
X96507012Y-43121198D01*
X96273363Y-42771517D01*
X95975983Y-42474137D01*
X95626302Y-42240488D01*
X95237756Y-42079547D01*
X94825279Y-41997500D01*
X94404721Y-41997500D01*
X93992244Y-42079547D01*
X93603698Y-42240488D01*
X93254017Y-42474137D01*
X92956637Y-42771517D01*
X92722988Y-43121198D01*
X92562047Y-43509744D01*
X92480000Y-43922221D01*
X82791300Y-43922221D01*
X82791300Y-43236369D01*
X84323817Y-41703854D01*
X84352398Y-41680398D01*
X84375854Y-41651817D01*
X84375861Y-41651810D01*
X84446034Y-41566303D01*
X84515612Y-41436132D01*
X84523246Y-41410966D01*
X84558458Y-41294888D01*
X84569300Y-41184806D01*
X84569300Y-41184796D01*
X84572924Y-41148000D01*
X84569300Y-41111204D01*
X84569300Y-36410000D01*
X92872928Y-36410000D01*
X92885188Y-36534482D01*
X92921498Y-36654180D01*
X92980463Y-36764494D01*
X93059815Y-36861185D01*
X93156506Y-36940537D01*
X93266820Y-36999502D01*
X93386518Y-37035812D01*
X93511000Y-37048072D01*
X94075250Y-37045000D01*
X94234000Y-36886250D01*
X94234000Y-35687000D01*
X94488000Y-35687000D01*
X94488000Y-36886250D01*
X94646750Y-37045000D01*
X95211000Y-37048072D01*
X95335482Y-37035812D01*
X95455180Y-36999502D01*
X95565494Y-36940537D01*
X95662185Y-36861185D01*
X95741537Y-36764494D01*
X95800502Y-36654180D01*
X95836812Y-36534482D01*
X95849072Y-36410000D01*
X95846000Y-35845750D01*
X95687250Y-35687000D01*
X94488000Y-35687000D01*
X94234000Y-35687000D01*
X93034750Y-35687000D01*
X92876000Y-35845750D01*
X92872928Y-36410000D01*
X84569300Y-36410000D01*
X84569300Y-35782876D01*
X84572924Y-35746080D01*
X84569300Y-35709285D01*
X84569300Y-35709275D01*
X84560816Y-35623138D01*
X84639632Y-35570475D01*
X84846475Y-35363632D01*
X85008990Y-35120411D01*
X85120932Y-34850158D01*
X85148811Y-34710000D01*
X92872928Y-34710000D01*
X92876000Y-35274250D01*
X93034750Y-35433000D01*
X94234000Y-35433000D01*
X94234000Y-35413000D01*
X94488000Y-35413000D01*
X94488000Y-35433000D01*
X95687250Y-35433000D01*
X95846000Y-35274250D01*
X95849072Y-34710000D01*
X95836812Y-34585518D01*
X95800502Y-34465820D01*
X95741537Y-34355506D01*
X95662185Y-34258815D01*
X95565494Y-34179463D01*
X95455180Y-34120498D01*
X95382620Y-34098487D01*
X95514475Y-33966632D01*
X95676990Y-33723411D01*
X95788932Y-33453158D01*
X95846000Y-33166260D01*
X95846000Y-32873740D01*
X95788932Y-32586842D01*
X95676990Y-32316589D01*
X95514475Y-32073368D01*
X95307632Y-31866525D01*
X95133240Y-31750000D01*
X95307632Y-31633475D01*
X95514475Y-31426632D01*
X95676990Y-31183411D01*
X95788932Y-30913158D01*
X95846000Y-30626260D01*
X95846000Y-30333740D01*
X95799699Y-30100971D01*
X96388812Y-29511857D01*
X96417398Y-29488398D01*
X96460569Y-29435795D01*
X96511033Y-29374304D01*
X96511034Y-29374303D01*
X96537761Y-29324300D01*
X96844631Y-29324300D01*
X101009149Y-33488818D01*
X101031388Y-33562132D01*
X101100966Y-33692303D01*
X101194602Y-33806398D01*
X101223192Y-33829861D01*
X101327000Y-33933669D01*
X101327000Y-34010939D01*
X101366774Y-34210898D01*
X101444795Y-34399256D01*
X101558063Y-34568774D01*
X101702226Y-34712937D01*
X101871744Y-34826205D01*
X102060102Y-34904226D01*
X102260061Y-34944000D01*
X102463939Y-34944000D01*
X102663898Y-34904226D01*
X102852256Y-34826205D01*
X103021774Y-34712937D01*
X103165937Y-34568774D01*
X103279205Y-34399256D01*
X103357226Y-34210898D01*
X103397000Y-34010939D01*
X103397000Y-33807061D01*
X103357226Y-33607102D01*
X103318732Y-33514169D01*
X103406205Y-33383256D01*
X103484226Y-33194898D01*
X103524000Y-32994939D01*
X103524000Y-32791061D01*
X103484226Y-32591102D01*
X103406205Y-32402744D01*
X103292937Y-32233226D01*
X103148774Y-32089063D01*
X102979256Y-31975795D01*
X102790898Y-31897774D01*
X102590939Y-31858000D01*
X102495710Y-31858000D01*
X98082446Y-27444737D01*
X98059375Y-27416625D01*
X97947213Y-27324576D01*
X97819249Y-27256178D01*
X97680399Y-27214058D01*
X97572186Y-27203400D01*
X97572183Y-27203400D01*
X97536000Y-27199836D01*
X97499817Y-27203400D01*
X95654814Y-27203400D01*
X95514475Y-26993368D01*
X95307632Y-26786525D01*
X95064411Y-26624010D01*
X94794158Y-26512068D01*
X94507260Y-26455000D01*
X94214740Y-26455000D01*
X93927842Y-26512068D01*
X93657589Y-26624010D01*
X93414368Y-26786525D01*
X93207525Y-26993368D01*
X93045010Y-27236589D01*
X92933068Y-27506842D01*
X92876000Y-27793740D01*
X92876000Y-28086260D01*
X92933068Y-28373158D01*
X93045010Y-28643411D01*
X93207525Y-28886632D01*
X93414368Y-29093475D01*
X93588760Y-29210000D01*
X93414368Y-29326525D01*
X93207525Y-29533368D01*
X93045010Y-29776589D01*
X92933068Y-30046842D01*
X92876000Y-30333740D01*
X92876000Y-30626260D01*
X92933068Y-30913158D01*
X93045010Y-31183411D01*
X93207525Y-31426632D01*
X93414368Y-31633475D01*
X93588760Y-31750000D01*
X93414368Y-31866525D01*
X93207525Y-32073368D01*
X93045010Y-32316589D01*
X92933068Y-32586842D01*
X92876000Y-32873740D01*
X92876000Y-33166260D01*
X92933068Y-33453158D01*
X93045010Y-33723411D01*
X93207525Y-33966632D01*
X93339380Y-34098487D01*
X93266820Y-34120498D01*
X93156506Y-34179463D01*
X93059815Y-34258815D01*
X92980463Y-34355506D01*
X92921498Y-34465820D01*
X92885188Y-34585518D01*
X92872928Y-34710000D01*
X85148811Y-34710000D01*
X85178000Y-34563260D01*
X85178000Y-34270740D01*
X85120932Y-33983842D01*
X85008990Y-33713589D01*
X84846475Y-33470368D01*
X84639632Y-33263525D01*
X84465240Y-33147000D01*
X84639632Y-33030475D01*
X84846475Y-32823632D01*
X85008990Y-32580411D01*
X85120932Y-32310158D01*
X85178000Y-32023260D01*
X85178000Y-31730740D01*
X85120932Y-31443842D01*
X85008990Y-31173589D01*
X84846475Y-30930368D01*
X84639632Y-30723525D01*
X84465240Y-30607000D01*
X84639632Y-30490475D01*
X84846475Y-30283632D01*
X85008990Y-30040411D01*
X85120932Y-29770158D01*
X85178000Y-29483260D01*
X85178000Y-29190740D01*
X85120932Y-28903842D01*
X85008990Y-28633589D01*
X84846475Y-28390368D01*
X84639632Y-28183525D01*
X84429600Y-28043186D01*
X84429600Y-26706186D01*
X84433164Y-26670000D01*
X84418942Y-26525601D01*
X84376822Y-26386751D01*
X84308424Y-26258787D01*
X84216375Y-26146625D01*
X84104213Y-26054576D01*
X83976249Y-25986178D01*
X83837399Y-25944058D01*
X83729186Y-25933400D01*
X83693000Y-25929836D01*
X83656814Y-25933400D01*
X74712175Y-25933400D01*
X74675999Y-25929837D01*
X74639823Y-25933400D01*
X74639814Y-25933400D01*
X74531601Y-25944058D01*
X74392751Y-25986178D01*
X74264787Y-26054576D01*
X74152625Y-26146625D01*
X74129554Y-26174737D01*
X65417732Y-34886559D01*
X65389625Y-34909626D01*
X65366559Y-34937732D01*
X65366558Y-34937733D01*
X65349812Y-34958138D01*
X65297576Y-35021788D01*
X65229178Y-35149752D01*
X65187058Y-35288602D01*
X65176925Y-35391482D01*
X65172836Y-35433000D01*
X65176400Y-35469183D01*
X65176401Y-40039888D01*
X65109063Y-40107226D01*
X64995795Y-40276744D01*
X64917774Y-40465102D01*
X64878000Y-40665061D01*
X59397500Y-40665061D01*
X59397500Y-29439890D01*
X66630524Y-29439890D01*
X66675175Y-29587099D01*
X66800359Y-29849920D01*
X66974412Y-30083269D01*
X67190645Y-30278178D01*
X67440748Y-30427157D01*
X67715109Y-30524481D01*
X67945000Y-30403814D01*
X67945000Y-29210000D01*
X68199000Y-29210000D01*
X68199000Y-30403814D01*
X68428891Y-30524481D01*
X68703252Y-30427157D01*
X68953355Y-30278178D01*
X69169588Y-30083269D01*
X69343641Y-29849920D01*
X69468825Y-29587099D01*
X69513476Y-29439890D01*
X69392155Y-29210000D01*
X68199000Y-29210000D01*
X67945000Y-29210000D01*
X66751845Y-29210000D01*
X66630524Y-29439890D01*
X59397500Y-29439890D01*
X59397500Y-21463528D01*
X59448502Y-20943366D01*
X59579293Y-20510166D01*
X59579293Y-20849173D01*
X59653105Y-21220249D01*
X59797892Y-21569796D01*
X60008090Y-21884379D01*
X60275621Y-22151910D01*
X60590204Y-22362108D01*
X60939751Y-22506895D01*
X61310827Y-22580707D01*
X61689173Y-22580707D01*
X62060249Y-22506895D01*
X62409796Y-22362108D01*
X62483291Y-22313000D01*
X66583928Y-22313000D01*
X66596188Y-22437482D01*
X66632498Y-22557180D01*
X66691463Y-22667494D01*
X66770815Y-22764185D01*
X66867506Y-22843537D01*
X66977820Y-22902502D01*
X67050380Y-22924513D01*
X66918525Y-23056368D01*
X66756010Y-23299589D01*
X66644068Y-23569842D01*
X66587000Y-23856740D01*
X66587000Y-24149260D01*
X66644068Y-24436158D01*
X66756010Y-24706411D01*
X66918525Y-24949632D01*
X67125368Y-25156475D01*
X67299760Y-25273000D01*
X67125368Y-25389525D01*
X66918525Y-25596368D01*
X66756010Y-25839589D01*
X66644068Y-26109842D01*
X66587000Y-26396740D01*
X66587000Y-26689260D01*
X66644068Y-26976158D01*
X66756010Y-27246411D01*
X66918525Y-27489632D01*
X67125368Y-27696475D01*
X67307534Y-27818195D01*
X67190645Y-27887822D01*
X66974412Y-28082731D01*
X66800359Y-28316080D01*
X66675175Y-28578901D01*
X66630524Y-28726110D01*
X66751845Y-28956000D01*
X67945000Y-28956000D01*
X67945000Y-28936000D01*
X68199000Y-28936000D01*
X68199000Y-28956000D01*
X69392155Y-28956000D01*
X69513476Y-28726110D01*
X69468825Y-28578901D01*
X69343641Y-28316080D01*
X69169588Y-28082731D01*
X68953355Y-27887822D01*
X68836466Y-27818195D01*
X69018632Y-27696475D01*
X69225475Y-27489632D01*
X69387990Y-27246411D01*
X69499932Y-26976158D01*
X69557000Y-26689260D01*
X69557000Y-26396740D01*
X69499932Y-26109842D01*
X69387990Y-25839589D01*
X69225475Y-25596368D01*
X69018632Y-25389525D01*
X68844240Y-25273000D01*
X69018632Y-25156475D01*
X69225475Y-24949632D01*
X69387990Y-24706411D01*
X69499932Y-24436158D01*
X69557000Y-24149260D01*
X69557000Y-23856740D01*
X69499932Y-23569842D01*
X69387990Y-23299589D01*
X69225475Y-23056368D01*
X69093620Y-22924513D01*
X69166180Y-22902502D01*
X69276494Y-22843537D01*
X69373185Y-22764185D01*
X69452537Y-22667494D01*
X69511502Y-22557180D01*
X69547812Y-22437482D01*
X69560072Y-22313000D01*
X69557000Y-21748750D01*
X69398250Y-21590000D01*
X68199000Y-21590000D01*
X68199000Y-21610000D01*
X67945000Y-21610000D01*
X67945000Y-21590000D01*
X66745750Y-21590000D01*
X66587000Y-21748750D01*
X66583928Y-22313000D01*
X62483291Y-22313000D01*
X62724379Y-22151910D01*
X62991910Y-21884379D01*
X63202108Y-21569796D01*
X63346895Y-21220249D01*
X63420707Y-20849173D01*
X63420707Y-20613000D01*
X66583928Y-20613000D01*
X66587000Y-21177250D01*
X66745750Y-21336000D01*
X67945000Y-21336000D01*
X67945000Y-20136750D01*
X68199000Y-20136750D01*
X68199000Y-21336000D01*
X69398250Y-21336000D01*
X69557000Y-21177250D01*
X69560072Y-20613000D01*
X69547812Y-20488518D01*
X69511502Y-20368820D01*
X69452537Y-20258506D01*
X69373185Y-20161815D01*
X69276494Y-20082463D01*
X69166180Y-20023498D01*
X69046482Y-19987188D01*
X68922000Y-19974928D01*
X68357750Y-19978000D01*
X68199000Y-20136750D01*
X67945000Y-20136750D01*
X67786250Y-19978000D01*
X67222000Y-19974928D01*
X67097518Y-19987188D01*
X66977820Y-20023498D01*
X66867506Y-20082463D01*
X66770815Y-20161815D01*
X66691463Y-20258506D01*
X66632498Y-20368820D01*
X66596188Y-20488518D01*
X66583928Y-20613000D01*
X63420707Y-20613000D01*
X63420707Y-20470827D01*
X63346895Y-20099751D01*
X63202108Y-19750204D01*
X63145177Y-19665000D01*
X77697143Y-19665000D01*
X77697143Y-25185000D01*
X93752857Y-25185000D01*
X93752857Y-22771832D01*
X93800822Y-22852355D01*
X93995731Y-23068588D01*
X94229080Y-23242641D01*
X94491901Y-23367825D01*
X94639110Y-23412476D01*
X94869000Y-23291155D01*
X94869000Y-22098000D01*
X94849000Y-22098000D01*
X94849000Y-21844000D01*
X94869000Y-21844000D01*
X94869000Y-20650845D01*
X94639110Y-20529524D01*
X94491901Y-20574175D01*
X94229080Y-20699359D01*
X93995731Y-20873412D01*
X93800822Y-21089645D01*
X93752857Y-21170168D01*
X93752857Y-19665000D01*
X77697143Y-19665000D01*
X63145177Y-19665000D01*
X62991910Y-19435621D01*
X62724379Y-19168090D01*
X62409796Y-18957892D01*
X62309263Y-18916250D01*
X107768232Y-18916250D01*
X107821310Y-19202269D01*
X107929639Y-19473618D01*
X108088824Y-19718619D01*
X108292748Y-19927857D01*
X108533574Y-20093291D01*
X108802047Y-20208563D01*
X108896110Y-20229476D01*
X109126000Y-20108155D01*
X109126000Y-18415000D01*
X109380000Y-18415000D01*
X109380000Y-20108155D01*
X109609890Y-20229476D01*
X109703953Y-20208563D01*
X109972426Y-20093291D01*
X110213252Y-19927857D01*
X110417176Y-19718619D01*
X110576361Y-19473618D01*
X110684690Y-19202269D01*
X110738000Y-18915000D01*
X110738000Y-18415000D01*
X115068000Y-18415000D01*
X115068000Y-18915000D01*
X115121310Y-19202269D01*
X115229639Y-19473618D01*
X115388824Y-19718619D01*
X115592748Y-19927857D01*
X115833574Y-20093291D01*
X116102047Y-20208563D01*
X116196110Y-20229476D01*
X116426000Y-20108155D01*
X116426000Y-18415000D01*
X115068000Y-18415000D01*
X110738000Y-18415000D01*
X109380000Y-18415000D01*
X109126000Y-18415000D01*
X109106000Y-18415000D01*
X109106000Y-18161000D01*
X109126000Y-18161000D01*
X109126000Y-18141000D01*
X109380000Y-18141000D01*
X109380000Y-18161000D01*
X110738000Y-18161000D01*
X110738000Y-17661000D01*
X110684690Y-17373731D01*
X110663262Y-17320056D01*
X115148477Y-17305681D01*
X115121310Y-17373731D01*
G37*
X115121310Y-17373731D02*
X115068000Y-17661000D01*
X115068000Y-18161000D01*
X116426000Y-18161000D01*
X116426000Y-18141000D01*
X116680000Y-18141000D01*
X116680000Y-18161000D01*
X116700000Y-18161000D01*
X116700000Y-18415000D01*
X116680000Y-18415000D01*
X116680000Y-20108155D01*
X116909890Y-20229476D01*
X117003953Y-20208563D01*
X117272426Y-20093291D01*
X117513252Y-19927857D01*
X117717176Y-19718619D01*
X117876361Y-19473618D01*
X117984690Y-19202269D01*
X118037808Y-18916037D01*
X160029025Y-18916248D01*
X159880204Y-18977892D01*
X159565621Y-19188090D01*
X159298090Y-19455621D01*
X159087892Y-19770204D01*
X158943105Y-20119751D01*
X158869293Y-20490827D01*
X158869293Y-20869173D01*
X158943105Y-21240249D01*
X159087892Y-21589796D01*
X159298090Y-21904379D01*
X159565621Y-22171910D01*
X159880204Y-22382108D01*
X160229751Y-22526895D01*
X160600827Y-22600707D01*
X160979173Y-22600707D01*
X161350249Y-22526895D01*
X161699796Y-22382108D01*
X162014379Y-22171910D01*
X162281910Y-21904379D01*
X162492108Y-21589796D01*
X162636895Y-21240249D01*
X162710707Y-20869173D01*
X162710707Y-20644076D01*
X162798032Y-20926178D01*
X162852500Y-21444403D01*
X162852501Y-77755212D01*
X162801498Y-78275383D01*
X162659807Y-78744686D01*
X162429661Y-79177528D01*
X162119823Y-79557427D01*
X161742100Y-79869906D01*
X161310873Y-80103069D01*
X160842573Y-80248032D01*
X160324347Y-80302500D01*
X61944778Y-80302500D01*
X61424617Y-80251498D01*
X60955314Y-80109807D01*
X60522472Y-79879661D01*
X60142573Y-79569823D01*
X59830094Y-79192100D01*
X59596931Y-78760873D01*
X59451968Y-78292573D01*
X59397500Y-77774347D01*
X59397500Y-77590827D01*
X59589293Y-77590827D01*
X59589293Y-77969173D01*
X59663105Y-78340249D01*
X59807892Y-78689796D01*
X60018090Y-79004379D01*
X60285621Y-79271910D01*
X60600204Y-79482108D01*
X60949751Y-79626895D01*
X61320827Y-79700707D01*
X61699173Y-79700707D01*
X62070249Y-79626895D01*
X62419796Y-79482108D01*
X62734379Y-79271910D01*
X63001910Y-79004379D01*
X63212108Y-78689796D01*
X63356895Y-78340249D01*
X63430707Y-77969173D01*
X63430707Y-77610827D01*
X158879293Y-77610827D01*
X158879293Y-77989173D01*
X158953105Y-78360249D01*
X159097892Y-78709796D01*
X159308090Y-79024379D01*
X159575621Y-79291910D01*
X159890204Y-79502108D01*
X160239751Y-79646895D01*
X160610827Y-79720707D01*
X160989173Y-79720707D01*
X161360249Y-79646895D01*
X161709796Y-79502108D01*
X162024379Y-79291910D01*
X162291910Y-79024379D01*
X162502108Y-78709796D01*
X162646895Y-78360249D01*
X162720707Y-77989173D01*
X162720707Y-77610827D01*
X162646895Y-77239751D01*
X162502108Y-76890204D01*
X162291910Y-76575621D01*
X162024379Y-76308090D01*
X161709796Y-76097892D01*
X161360249Y-75953105D01*
X160989173Y-75879293D01*
X160610827Y-75879293D01*
X160239751Y-75953105D01*
X159890204Y-76097892D01*
X159575621Y-76308090D01*
X159308090Y-76575621D01*
X159097892Y-76890204D01*
X158953105Y-77239751D01*
X158879293Y-77610827D01*
X63430707Y-77610827D01*
X63430707Y-77590827D01*
X63356895Y-77219751D01*
X63212108Y-76870204D01*
X63001910Y-76555621D01*
X62734379Y-76288090D01*
X62419796Y-76077892D01*
X62070249Y-75933105D01*
X61699173Y-75859293D01*
X61320827Y-75859293D01*
X60949751Y-75933105D01*
X60600204Y-76077892D01*
X60285621Y-76288090D01*
X60018090Y-76555621D01*
X59807892Y-76870204D01*
X59663105Y-77219751D01*
X59589293Y-77590827D01*
X59397500Y-77590827D01*
X59397500Y-68113778D01*
X66435000Y-68113778D01*
X66435000Y-68411222D01*
X66493029Y-68702951D01*
X66606856Y-68977753D01*
X66772107Y-69225069D01*
X66982431Y-69435393D01*
X67229747Y-69600644D01*
X67504549Y-69714471D01*
X67796278Y-69772500D01*
X68093722Y-69772500D01*
X68385451Y-69714471D01*
X68660253Y-69600644D01*
X68907569Y-69435393D01*
X69117893Y-69225069D01*
X69283144Y-68977753D01*
X69396971Y-68702951D01*
X69455000Y-68411222D01*
X69455000Y-68113778D01*
X69404023Y-67857500D01*
X69425279Y-67857500D01*
X69837756Y-67775453D01*
X70226302Y-67614512D01*
X70532708Y-67409779D01*
X70497127Y-67495678D01*
X70396100Y-68003576D01*
X70396100Y-68521424D01*
X70497127Y-69029322D01*
X70695299Y-69507751D01*
X70983000Y-69938326D01*
X71349174Y-70304500D01*
X71779749Y-70592201D01*
X72258178Y-70790373D01*
X72766076Y-70891400D01*
X73283924Y-70891400D01*
X73791822Y-70790373D01*
X74270251Y-70592201D01*
X74700826Y-70304500D01*
X75067000Y-69938326D01*
X75354701Y-69507751D01*
X75552873Y-69029322D01*
X75653900Y-68521424D01*
X75653900Y-68113778D01*
X76595000Y-68113778D01*
X76595000Y-68411222D01*
X76653029Y-68702951D01*
X76766856Y-68977753D01*
X76932107Y-69225069D01*
X77142431Y-69435393D01*
X77389747Y-69600644D01*
X77664549Y-69714471D01*
X77956278Y-69772500D01*
X78253722Y-69772500D01*
X78545451Y-69714471D01*
X78820253Y-69600644D01*
X79067569Y-69435393D01*
X79277893Y-69225069D01*
X79443144Y-68977753D01*
X79556971Y-68702951D01*
X79615000Y-68411222D01*
X79615000Y-68113778D01*
X85485000Y-68113778D01*
X85485000Y-68411222D01*
X85543029Y-68702951D01*
X85656856Y-68977753D01*
X85822107Y-69225069D01*
X86032431Y-69435393D01*
X86279747Y-69600644D01*
X86554549Y-69714471D01*
X86846278Y-69772500D01*
X87143722Y-69772500D01*
X87435451Y-69714471D01*
X87710253Y-69600644D01*
X87957569Y-69435393D01*
X88167893Y-69225069D01*
X88333144Y-68977753D01*
X88446971Y-68702951D01*
X88505000Y-68411222D01*
X88505000Y-68113778D01*
X88454023Y-67857500D01*
X88475279Y-67857500D01*
X88887756Y-67775453D01*
X89276302Y-67614512D01*
X89582708Y-67409779D01*
X89547127Y-67495678D01*
X89446100Y-68003576D01*
X89446100Y-68521424D01*
X89547127Y-69029322D01*
X89745299Y-69507751D01*
X90033000Y-69938326D01*
X90399174Y-70304500D01*
X90829749Y-70592201D01*
X91308178Y-70790373D01*
X91816076Y-70891400D01*
X92333924Y-70891400D01*
X92841822Y-70790373D01*
X93320251Y-70592201D01*
X93750826Y-70304500D01*
X94117000Y-69938326D01*
X94404701Y-69507751D01*
X94602873Y-69029322D01*
X94703900Y-68521424D01*
X94703900Y-68113778D01*
X95645000Y-68113778D01*
X95645000Y-68411222D01*
X95703029Y-68702951D01*
X95816856Y-68977753D01*
X95982107Y-69225069D01*
X96192431Y-69435393D01*
X96439747Y-69600644D01*
X96714549Y-69714471D01*
X97006278Y-69772500D01*
X97303722Y-69772500D01*
X97595451Y-69714471D01*
X97870253Y-69600644D01*
X98117569Y-69435393D01*
X98327893Y-69225069D01*
X98493144Y-68977753D01*
X98606971Y-68702951D01*
X98665000Y-68411222D01*
X98665000Y-68113778D01*
X104535000Y-68113778D01*
X104535000Y-68411222D01*
X104593029Y-68702951D01*
X104706856Y-68977753D01*
X104872107Y-69225069D01*
X105082431Y-69435393D01*
X105329747Y-69600644D01*
X105604549Y-69714471D01*
X105896278Y-69772500D01*
X106193722Y-69772500D01*
X106485451Y-69714471D01*
X106760253Y-69600644D01*
X107007569Y-69435393D01*
X107217893Y-69225069D01*
X107383144Y-68977753D01*
X107496971Y-68702951D01*
X107555000Y-68411222D01*
X107555000Y-68113778D01*
X107504023Y-67857500D01*
X107525279Y-67857500D01*
X107937756Y-67775453D01*
X108326302Y-67614512D01*
X108632708Y-67409779D01*
X108597127Y-67495678D01*
X108496100Y-68003576D01*
X108496100Y-68521424D01*
X108597127Y-69029322D01*
X108795299Y-69507751D01*
X109083000Y-69938326D01*
X109449174Y-70304500D01*
X109879749Y-70592201D01*
X110358178Y-70790373D01*
X110866076Y-70891400D01*
X111383924Y-70891400D01*
X111891822Y-70790373D01*
X112370251Y-70592201D01*
X112800826Y-70304500D01*
X113167000Y-69938326D01*
X113454701Y-69507751D01*
X113652873Y-69029322D01*
X113753900Y-68521424D01*
X113753900Y-68113778D01*
X114695000Y-68113778D01*
X114695000Y-68411222D01*
X114753029Y-68702951D01*
X114866856Y-68977753D01*
X115032107Y-69225069D01*
X115242431Y-69435393D01*
X115489747Y-69600644D01*
X115764549Y-69714471D01*
X116056278Y-69772500D01*
X116353722Y-69772500D01*
X116645451Y-69714471D01*
X116920253Y-69600644D01*
X117167569Y-69435393D01*
X117377893Y-69225069D01*
X117543144Y-68977753D01*
X117656971Y-68702951D01*
X117715000Y-68411222D01*
X117715000Y-68113778D01*
X123585000Y-68113778D01*
X123585000Y-68411222D01*
X123643029Y-68702951D01*
X123756856Y-68977753D01*
X123922107Y-69225069D01*
X124132431Y-69435393D01*
X124379747Y-69600644D01*
X124654549Y-69714471D01*
X124946278Y-69772500D01*
X125243722Y-69772500D01*
X125535451Y-69714471D01*
X125810253Y-69600644D01*
X126057569Y-69435393D01*
X126267893Y-69225069D01*
X126433144Y-68977753D01*
X126546971Y-68702951D01*
X126605000Y-68411222D01*
X126605000Y-68113778D01*
X126554023Y-67857500D01*
X126575279Y-67857500D01*
X126987756Y-67775453D01*
X127376302Y-67614512D01*
X127682708Y-67409779D01*
X127647127Y-67495678D01*
X127546100Y-68003576D01*
X127546100Y-68521424D01*
X127647127Y-69029322D01*
X127845299Y-69507751D01*
X128133000Y-69938326D01*
X128499174Y-70304500D01*
X128929749Y-70592201D01*
X129408178Y-70790373D01*
X129916076Y-70891400D01*
X130433924Y-70891400D01*
X130941822Y-70790373D01*
X131420251Y-70592201D01*
X131850826Y-70304500D01*
X132217000Y-69938326D01*
X132504701Y-69507751D01*
X132702873Y-69029322D01*
X132803900Y-68521424D01*
X132803900Y-68113778D01*
X133745000Y-68113778D01*
X133745000Y-68411222D01*
X133803029Y-68702951D01*
X133916856Y-68977753D01*
X134082107Y-69225069D01*
X134292431Y-69435393D01*
X134539747Y-69600644D01*
X134814549Y-69714471D01*
X135106278Y-69772500D01*
X135403722Y-69772500D01*
X135695451Y-69714471D01*
X135970253Y-69600644D01*
X136217569Y-69435393D01*
X136427893Y-69225069D01*
X136593144Y-68977753D01*
X136706971Y-68702951D01*
X136765000Y-68411222D01*
X136765000Y-68113778D01*
X142635000Y-68113778D01*
X142635000Y-68411222D01*
X142693029Y-68702951D01*
X142806856Y-68977753D01*
X142972107Y-69225069D01*
X143182431Y-69435393D01*
X143429747Y-69600644D01*
X143704549Y-69714471D01*
X143996278Y-69772500D01*
X144293722Y-69772500D01*
X144585451Y-69714471D01*
X144860253Y-69600644D01*
X145107569Y-69435393D01*
X145317893Y-69225069D01*
X145483144Y-68977753D01*
X145596971Y-68702951D01*
X145655000Y-68411222D01*
X145655000Y-68113778D01*
X145604023Y-67857500D01*
X145625279Y-67857500D01*
X146037756Y-67775453D01*
X146426302Y-67614512D01*
X146732708Y-67409779D01*
X146697127Y-67495678D01*
X146596100Y-68003576D01*
X146596100Y-68521424D01*
X146697127Y-69029322D01*
X146895299Y-69507751D01*
X147183000Y-69938326D01*
X147549174Y-70304500D01*
X147979749Y-70592201D01*
X148458178Y-70790373D01*
X148966076Y-70891400D01*
X149483924Y-70891400D01*
X149991822Y-70790373D01*
X150470251Y-70592201D01*
X150900826Y-70304500D01*
X151267000Y-69938326D01*
X151554701Y-69507751D01*
X151752873Y-69029322D01*
X151853900Y-68521424D01*
X151853900Y-68113778D01*
X152795000Y-68113778D01*
X152795000Y-68411222D01*
X152853029Y-68702951D01*
X152966856Y-68977753D01*
X153132107Y-69225069D01*
X153342431Y-69435393D01*
X153589747Y-69600644D01*
X153864549Y-69714471D01*
X154156278Y-69772500D01*
X154453722Y-69772500D01*
X154745451Y-69714471D01*
X155020253Y-69600644D01*
X155267569Y-69435393D01*
X155477893Y-69225069D01*
X155643144Y-68977753D01*
X155756971Y-68702951D01*
X155815000Y-68411222D01*
X155815000Y-68113778D01*
X155756971Y-67822049D01*
X155643144Y-67547247D01*
X155477893Y-67299931D01*
X155267569Y-67089607D01*
X155020253Y-66924356D01*
X154745451Y-66810529D01*
X154453722Y-66752500D01*
X154156278Y-66752500D01*
X153864549Y-66810529D01*
X153589747Y-66924356D01*
X153342431Y-67089607D01*
X153132107Y-67299931D01*
X152966856Y-67547247D01*
X152853029Y-67822049D01*
X152795000Y-68113778D01*
X151853900Y-68113778D01*
X151853900Y-68003576D01*
X151752873Y-67495678D01*
X151554701Y-67017249D01*
X151267000Y-66586674D01*
X150900826Y-66220500D01*
X150470251Y-65932799D01*
X149991822Y-65734627D01*
X149483924Y-65633600D01*
X148966076Y-65633600D01*
X148458178Y-65734627D01*
X147979749Y-65932799D01*
X147549174Y-66220500D01*
X147478763Y-66290911D01*
X147550000Y-65932779D01*
X147550000Y-65512221D01*
X147467953Y-65099744D01*
X147307012Y-64711198D01*
X147073363Y-64361517D01*
X146775983Y-64064137D01*
X146426302Y-63830488D01*
X146037756Y-63669547D01*
X145625279Y-63587500D01*
X145204721Y-63587500D01*
X144792244Y-63669547D01*
X144403698Y-63830488D01*
X144054017Y-64064137D01*
X143756637Y-64361517D01*
X143522988Y-64711198D01*
X143362047Y-65099744D01*
X143280000Y-65512221D01*
X143280000Y-65932779D01*
X143362047Y-66345256D01*
X143522988Y-66733802D01*
X143602499Y-66852799D01*
X143429747Y-66924356D01*
X143182431Y-67089607D01*
X142972107Y-67299931D01*
X142806856Y-67547247D01*
X142693029Y-67822049D01*
X142635000Y-68113778D01*
X136765000Y-68113778D01*
X136706971Y-67822049D01*
X136593144Y-67547247D01*
X136427893Y-67299931D01*
X136217569Y-67089607D01*
X135970253Y-66924356D01*
X135695451Y-66810529D01*
X135403722Y-66752500D01*
X135106278Y-66752500D01*
X134814549Y-66810529D01*
X134539747Y-66924356D01*
X134292431Y-67089607D01*
X134082107Y-67299931D01*
X133916856Y-67547247D01*
X133803029Y-67822049D01*
X133745000Y-68113778D01*
X132803900Y-68113778D01*
X132803900Y-68003576D01*
X132702873Y-67495678D01*
X132504701Y-67017249D01*
X132217000Y-66586674D01*
X131850826Y-66220500D01*
X131420251Y-65932799D01*
X130941822Y-65734627D01*
X130433924Y-65633600D01*
X129916076Y-65633600D01*
X129408178Y-65734627D01*
X128929749Y-65932799D01*
X128499174Y-66220500D01*
X128428763Y-66290911D01*
X128500000Y-65932779D01*
X128500000Y-65512221D01*
X128417953Y-65099744D01*
X128257012Y-64711198D01*
X128023363Y-64361517D01*
X127725983Y-64064137D01*
X127376302Y-63830488D01*
X126987756Y-63669547D01*
X126575279Y-63587500D01*
X126154721Y-63587500D01*
X125742244Y-63669547D01*
X125353698Y-63830488D01*
X125004017Y-64064137D01*
X124706637Y-64361517D01*
X124472988Y-64711198D01*
X124312047Y-65099744D01*
X124230000Y-65512221D01*
X124230000Y-65932779D01*
X124312047Y-66345256D01*
X124472988Y-66733802D01*
X124552499Y-66852799D01*
X124379747Y-66924356D01*
X124132431Y-67089607D01*
X123922107Y-67299931D01*
X123756856Y-67547247D01*
X123643029Y-67822049D01*
X123585000Y-68113778D01*
X117715000Y-68113778D01*
X117656971Y-67822049D01*
X117543144Y-67547247D01*
X117377893Y-67299931D01*
X117167569Y-67089607D01*
X116920253Y-66924356D01*
X116645451Y-66810529D01*
X116353722Y-66752500D01*
X116056278Y-66752500D01*
X115764549Y-66810529D01*
X115489747Y-66924356D01*
X115242431Y-67089607D01*
X115032107Y-67299931D01*
X114866856Y-67547247D01*
X114753029Y-67822049D01*
X114695000Y-68113778D01*
X113753900Y-68113778D01*
X113753900Y-68003576D01*
X113652873Y-67495678D01*
X113454701Y-67017249D01*
X113167000Y-66586674D01*
X112800826Y-66220500D01*
X112370251Y-65932799D01*
X111891822Y-65734627D01*
X111383924Y-65633600D01*
X110866076Y-65633600D01*
X110358178Y-65734627D01*
X109879749Y-65932799D01*
X109449174Y-66220500D01*
X109378763Y-66290911D01*
X109450000Y-65932779D01*
X109450000Y-65512221D01*
X109367953Y-65099744D01*
X109207012Y-64711198D01*
X108973363Y-64361517D01*
X108675983Y-64064137D01*
X108326302Y-63830488D01*
X107937756Y-63669547D01*
X107525279Y-63587500D01*
X107104721Y-63587500D01*
X106692244Y-63669547D01*
X106303698Y-63830488D01*
X105954017Y-64064137D01*
X105656637Y-64361517D01*
X105422988Y-64711198D01*
X105262047Y-65099744D01*
X105180000Y-65512221D01*
X105180000Y-65932779D01*
X105262047Y-66345256D01*
X105422988Y-66733802D01*
X105502499Y-66852799D01*
X105329747Y-66924356D01*
X105082431Y-67089607D01*
X104872107Y-67299931D01*
X104706856Y-67547247D01*
X104593029Y-67822049D01*
X104535000Y-68113778D01*
X98665000Y-68113778D01*
X98606971Y-67822049D01*
X98493144Y-67547247D01*
X98327893Y-67299931D01*
X98117569Y-67089607D01*
X97870253Y-66924356D01*
X97595451Y-66810529D01*
X97303722Y-66752500D01*
X97006278Y-66752500D01*
X96714549Y-66810529D01*
X96439747Y-66924356D01*
X96192431Y-67089607D01*
X95982107Y-67299931D01*
X95816856Y-67547247D01*
X95703029Y-67822049D01*
X95645000Y-68113778D01*
X94703900Y-68113778D01*
X94703900Y-68003576D01*
X94602873Y-67495678D01*
X94404701Y-67017249D01*
X94117000Y-66586674D01*
X93750826Y-66220500D01*
X93320251Y-65932799D01*
X92841822Y-65734627D01*
X92333924Y-65633600D01*
X91816076Y-65633600D01*
X91308178Y-65734627D01*
X90829749Y-65932799D01*
X90399174Y-66220500D01*
X90328763Y-66290911D01*
X90400000Y-65932779D01*
X90400000Y-65512221D01*
X90317953Y-65099744D01*
X90157012Y-64711198D01*
X89923363Y-64361517D01*
X89625983Y-64064137D01*
X89276302Y-63830488D01*
X88887756Y-63669547D01*
X88475279Y-63587500D01*
X88054721Y-63587500D01*
X87642244Y-63669547D01*
X87253698Y-63830488D01*
X86904017Y-64064137D01*
X86606637Y-64361517D01*
X86372988Y-64711198D01*
X86212047Y-65099744D01*
X86130000Y-65512221D01*
X86130000Y-65932779D01*
X86212047Y-66345256D01*
X86372988Y-66733802D01*
X86452499Y-66852799D01*
X86279747Y-66924356D01*
X86032431Y-67089607D01*
X85822107Y-67299931D01*
X85656856Y-67547247D01*
X85543029Y-67822049D01*
X85485000Y-68113778D01*
X79615000Y-68113778D01*
X79556971Y-67822049D01*
X79443144Y-67547247D01*
X79277893Y-67299931D01*
X79067569Y-67089607D01*
X78820253Y-66924356D01*
X78545451Y-66810529D01*
X78253722Y-66752500D01*
X77956278Y-66752500D01*
X77664549Y-66810529D01*
X77389747Y-66924356D01*
X77142431Y-67089607D01*
X76932107Y-67299931D01*
X76766856Y-67547247D01*
X76653029Y-67822049D01*
X76595000Y-68113778D01*
X75653900Y-68113778D01*
X75653900Y-68003576D01*
X75552873Y-67495678D01*
X75354701Y-67017249D01*
X75067000Y-66586674D01*
X74700826Y-66220500D01*
X74270251Y-65932799D01*
X73791822Y-65734627D01*
X73283924Y-65633600D01*
X72766076Y-65633600D01*
X72258178Y-65734627D01*
X71779749Y-65932799D01*
X71349174Y-66220500D01*
X71278763Y-66290911D01*
X71350000Y-65932779D01*
X71350000Y-65512221D01*
X71267953Y-65099744D01*
X71107012Y-64711198D01*
X70873363Y-64361517D01*
X70575983Y-64064137D01*
X70226302Y-63830488D01*
X69837756Y-63669547D01*
X69425279Y-63587500D01*
X69004721Y-63587500D01*
X68592244Y-63669547D01*
X68203698Y-63830488D01*
X67854017Y-64064137D01*
X67556637Y-64361517D01*
X67322988Y-64711198D01*
X67162047Y-65099744D01*
X67080000Y-65512221D01*
X67080000Y-65932779D01*
X67162047Y-66345256D01*
X67322988Y-66733802D01*
X67402499Y-66852799D01*
X67229747Y-66924356D01*
X66982431Y-67089607D01*
X66772107Y-67299931D01*
X66606856Y-67547247D01*
X66493029Y-67822049D01*
X66435000Y-68113778D01*
X59397500Y-68113778D01*
X59397500Y-62972221D01*
X73430000Y-62972221D01*
X73430000Y-63392779D01*
X73512047Y-63805256D01*
X73672988Y-64193802D01*
X73906637Y-64543483D01*
X74204017Y-64840863D01*
X74553698Y-65074512D01*
X74942244Y-65235453D01*
X75354721Y-65317500D01*
X75775279Y-65317500D01*
X76187756Y-65235453D01*
X76576302Y-65074512D01*
X76925983Y-64840863D01*
X77223363Y-64543483D01*
X77457012Y-64193802D01*
X77617953Y-63805256D01*
X77700000Y-63392779D01*
X77700000Y-62972221D01*
X77617953Y-62559744D01*
X77457012Y-62171198D01*
X77223363Y-61821517D01*
X76925983Y-61524137D01*
X76576302Y-61290488D01*
X76187756Y-61129547D01*
X75775279Y-61047500D01*
X75354721Y-61047500D01*
X74942244Y-61129547D01*
X74553698Y-61290488D01*
X74204017Y-61524137D01*
X73906637Y-61821517D01*
X73672988Y-62171198D01*
X73512047Y-62559744D01*
X73430000Y-62972221D01*
X59397500Y-62972221D01*
X59397500Y-49063778D01*
X66435000Y-49063778D01*
X66435000Y-49361222D01*
X66493029Y-49652951D01*
X66606856Y-49927753D01*
X66772107Y-50175069D01*
X66982431Y-50385393D01*
X67229747Y-50550644D01*
X67504549Y-50664471D01*
X67796278Y-50722500D01*
X68093722Y-50722500D01*
X68385451Y-50664471D01*
X68660253Y-50550644D01*
X68907569Y-50385393D01*
X69117893Y-50175069D01*
X69283144Y-49927753D01*
X69396971Y-49652951D01*
X69455000Y-49361222D01*
X69455000Y-49063778D01*
X69404023Y-48807500D01*
X69425279Y-48807500D01*
X69837756Y-48725453D01*
X70226302Y-48564512D01*
X70532708Y-48359779D01*
X70497127Y-48445678D01*
X70396100Y-48953576D01*
X70396100Y-49471424D01*
X70497127Y-49979322D01*
X70695299Y-50457751D01*
X70983000Y-50888326D01*
X71349174Y-51254500D01*
X71779749Y-51542201D01*
X72258178Y-51740373D01*
X72766076Y-51841400D01*
X73283924Y-51841400D01*
X73791822Y-51740373D01*
X74270251Y-51542201D01*
X74700826Y-51254500D01*
X75067000Y-50888326D01*
X75354701Y-50457751D01*
X75552873Y-49979322D01*
X75653900Y-49471424D01*
X75653900Y-49063778D01*
X76595000Y-49063778D01*
X76595000Y-49361222D01*
X76653029Y-49652951D01*
X76766856Y-49927753D01*
X76932107Y-50175069D01*
X77142431Y-50385393D01*
X77389747Y-50550644D01*
X77664549Y-50664471D01*
X77956278Y-50722500D01*
X78253722Y-50722500D01*
X78545451Y-50664471D01*
X78820253Y-50550644D01*
X79067569Y-50385393D01*
X79277893Y-50175069D01*
X79443144Y-49927753D01*
X79556971Y-49652951D01*
X79615000Y-49361222D01*
X79615000Y-49063778D01*
X79556971Y-48772049D01*
X79443144Y-48497247D01*
X79277893Y-48249931D01*
X79067569Y-48039607D01*
X78820253Y-47874356D01*
X78545451Y-47760529D01*
X78253722Y-47702500D01*
X77956278Y-47702500D01*
X77664549Y-47760529D01*
X77389747Y-47874356D01*
X77142431Y-48039607D01*
X76932107Y-48249931D01*
X76766856Y-48497247D01*
X76653029Y-48772049D01*
X76595000Y-49063778D01*
X75653900Y-49063778D01*
X75653900Y-48953576D01*
X75552873Y-48445678D01*
X75354701Y-47967249D01*
X75067000Y-47536674D01*
X74700826Y-47170500D01*
X74270251Y-46882799D01*
X73791822Y-46684627D01*
X73283924Y-46583600D01*
X72766076Y-46583600D01*
X72258178Y-46684627D01*
X71779749Y-46882799D01*
X71349174Y-47170500D01*
X71278763Y-47240911D01*
X71350000Y-46882779D01*
X71350000Y-46462221D01*
X71267953Y-46049744D01*
X71107012Y-45661198D01*
X70873363Y-45311517D01*
X70575983Y-45014137D01*
X70226302Y-44780488D01*
X69837756Y-44619547D01*
X69425279Y-44537500D01*
X69004721Y-44537500D01*
X68592244Y-44619547D01*
X68203698Y-44780488D01*
X67854017Y-45014137D01*
X67556637Y-45311517D01*
X67322988Y-45661198D01*
X67162047Y-46049744D01*
X67080000Y-46462221D01*
X67080000Y-46882779D01*
X67162047Y-47295256D01*
X67322988Y-47683802D01*
X67402499Y-47802799D01*
X67229747Y-47874356D01*
X66982431Y-48039607D01*
X66772107Y-48249931D01*
X66606856Y-48497247D01*
X66493029Y-48772049D01*
X66435000Y-49063778D01*
X59397500Y-49063778D01*
X59397500Y-43922221D01*
X73430000Y-43922221D01*
X73430000Y-44342779D01*
X73512047Y-44755256D01*
X73672988Y-45143802D01*
X73906637Y-45493483D01*
X74204017Y-45790863D01*
X74553698Y-46024512D01*
X74942244Y-46185453D01*
X75354721Y-46267500D01*
X75775279Y-46267500D01*
X76187756Y-46185453D01*
X76576302Y-46024512D01*
X76925983Y-45790863D01*
X77223363Y-45493483D01*
X77457012Y-45143802D01*
X77617953Y-44755256D01*
X77700000Y-44342779D01*
X77700000Y-43922221D01*
X77617953Y-43509744D01*
X77457012Y-43121198D01*
X77223363Y-42771517D01*
X76925983Y-42474137D01*
X76576302Y-42240488D01*
X76187756Y-42079547D01*
X75775279Y-41997500D01*
X75354721Y-41997500D01*
X74942244Y-42079547D01*
X74553698Y-42240488D01*
X74204017Y-42474137D01*
X73906637Y-42771517D01*
X73672988Y-43121198D01*
X73512047Y-43509744D01*
X73430000Y-43922221D01*
X59397500Y-43922221D01*
X59397500Y-40665061D01*
X64878000Y-40665061D01*
X64878000Y-40868939D01*
X64917774Y-41068898D01*
X64995795Y-41257256D01*
X65109063Y-41426774D01*
X65253226Y-41570937D01*
X65422744Y-41684205D01*
X65611102Y-41762226D01*
X65811061Y-41802000D01*
X66014939Y-41802000D01*
X66214898Y-41762226D01*
X66403256Y-41684205D01*
X66572774Y-41570937D01*
X66716937Y-41426774D01*
X66830205Y-41257256D01*
X66908226Y-41068898D01*
X66948000Y-40868939D01*
X66948000Y-40665061D01*
X66908226Y-40465102D01*
X66830205Y-40276744D01*
X66716937Y-40107226D01*
X66649600Y-40039889D01*
X66649600Y-35738109D01*
X67120709Y-35267000D01*
X79664928Y-35267000D01*
X79677188Y-35391482D01*
X79713498Y-35511180D01*
X79772463Y-35621494D01*
X79851815Y-35718185D01*
X79948506Y-35797537D01*
X80058820Y-35856502D01*
X80178518Y-35892812D01*
X80303000Y-35905072D01*
X80867250Y-35902000D01*
X81026000Y-35743250D01*
X81026000Y-34544000D01*
X79826750Y-34544000D01*
X79668000Y-34702750D01*
X79664928Y-35267000D01*
X67120709Y-35267000D01*
X74981109Y-27406600D01*
X82956401Y-27406600D01*
X82956400Y-28043186D01*
X82746368Y-28183525D01*
X82539525Y-28390368D01*
X82423000Y-28564760D01*
X82306475Y-28390368D01*
X82099632Y-28183525D01*
X81856411Y-28021010D01*
X81586158Y-27909068D01*
X81299260Y-27852000D01*
X81006740Y-27852000D01*
X80719842Y-27909068D01*
X80449589Y-28021010D01*
X80206368Y-28183525D01*
X79999525Y-28390368D01*
X79837010Y-28633589D01*
X79725068Y-28903842D01*
X79668000Y-29190740D01*
X79668000Y-29483260D01*
X79725068Y-29770158D01*
X79837010Y-30040411D01*
X79999525Y-30283632D01*
X80206368Y-30490475D01*
X80380760Y-30607000D01*
X80206368Y-30723525D01*
X79999525Y-30930368D01*
X79837010Y-31173589D01*
X79725068Y-31443842D01*
X79668000Y-31730740D01*
X79668000Y-32023260D01*
X79725068Y-32310158D01*
X79837010Y-32580411D01*
X79999525Y-32823632D01*
X80131380Y-32955487D01*
X80058820Y-32977498D01*
X79948506Y-33036463D01*
X79851815Y-33115815D01*
X79772463Y-33212506D01*
X79713498Y-33322820D01*
X79677188Y-33442518D01*
X79664928Y-33567000D01*
X79668000Y-34131250D01*
X79826750Y-34290000D01*
X81026000Y-34290000D01*
X81026000Y-34270000D01*
X81280000Y-34270000D01*
X81280000Y-34290000D01*
X81300000Y-34290000D01*
X81300000Y-34544000D01*
X81280000Y-34544000D01*
X81280000Y-35743250D01*
X81438750Y-35902000D01*
X82003000Y-35905072D01*
X82127482Y-35892812D01*
X82247180Y-35856502D01*
X82357494Y-35797537D01*
X82454185Y-35718185D01*
X82533537Y-35621494D01*
X82592502Y-35511180D01*
X82614513Y-35438620D01*
X82746368Y-35570475D01*
X82948597Y-35705600D01*
X82954543Y-35765968D01*
X82997388Y-35907212D01*
X83066966Y-36037384D01*
X83070700Y-36041934D01*
X83070701Y-40837628D01*
X81538194Y-42370137D01*
X81509602Y-42393602D01*
X81486140Y-42422191D01*
X81415966Y-42507697D01*
X81370446Y-42592860D01*
X81346388Y-42637869D01*
X81303542Y-42779113D01*
X81292700Y-42889195D01*
X81292700Y-42889205D01*
X81289076Y-42926000D01*
X81292700Y-42962795D01*
X81292701Y-52209700D01*
X69632796Y-52209700D01*
X69596000Y-52206076D01*
X69559204Y-52209700D01*
X69559194Y-52209700D01*
X69449112Y-52220542D01*
X69307868Y-52263388D01*
X69177696Y-52332966D01*
X69092190Y-52403140D01*
X69063602Y-52426602D01*
X69040141Y-52455189D01*
X68203194Y-53292137D01*
X68174602Y-53315602D01*
X68151140Y-53344191D01*
X68080966Y-53429697D01*
X68011389Y-53559868D01*
X68011388Y-53559869D01*
X67968542Y-53701113D01*
X67957700Y-53811195D01*
X67957700Y-53811205D01*
X67954076Y-53848000D01*
X67957700Y-53884795D01*
X67957701Y-59272184D01*
X67954075Y-59309000D01*
X67968542Y-59455888D01*
X68011388Y-59597132D01*
X68080966Y-59727303D01*
X68174602Y-59841398D01*
X68288697Y-59935034D01*
X68418868Y-60004612D01*
X68560112Y-60047458D01*
X68670194Y-60058300D01*
X68707000Y-60061925D01*
X68743806Y-60058300D01*
X89605631Y-60058300D01*
X90376141Y-60828811D01*
X90399602Y-60857398D01*
X90428188Y-60880858D01*
X90428190Y-60880860D01*
X90513696Y-60951034D01*
X90643868Y-61020612D01*
X90785112Y-61063458D01*
X90895194Y-61074300D01*
X90895204Y-61074300D01*
X90932000Y-61077924D01*
X90968796Y-61074300D01*
X94269989Y-61074300D01*
X93992244Y-61129547D01*
X93603698Y-61290488D01*
X93254017Y-61524137D01*
X92956637Y-61821517D01*
X92722988Y-62171198D01*
X92562047Y-62559744D01*
X92480000Y-62972221D01*
X92480000Y-63392779D01*
X92562047Y-63805256D01*
X92722988Y-64193802D01*
X92956637Y-64543483D01*
X93254017Y-64840863D01*
X93603698Y-65074512D01*
X93992244Y-65235453D01*
X94404721Y-65317500D01*
X94825279Y-65317500D01*
X95237756Y-65235453D01*
X95626302Y-65074512D01*
X95975983Y-64840863D01*
X96273363Y-64543483D01*
X96507012Y-64193802D01*
X96667953Y-63805256D01*
X96750000Y-63392779D01*
X96750000Y-62972221D01*
X96667953Y-62559744D01*
X96507012Y-62171198D01*
X96273363Y-61821517D01*
X95975983Y-61524137D01*
X95626302Y-61290488D01*
X95237756Y-61129547D01*
X94960011Y-61074300D01*
X113319989Y-61074300D01*
X113042244Y-61129547D01*
X112653698Y-61290488D01*
X112304017Y-61524137D01*
X112006637Y-61821517D01*
X111772988Y-62171198D01*
X111612047Y-62559744D01*
X111530000Y-62972221D01*
X111530000Y-63392779D01*
X111612047Y-63805256D01*
X111772988Y-64193802D01*
X112006637Y-64543483D01*
X112304017Y-64840863D01*
X112653698Y-65074512D01*
X113042244Y-65235453D01*
X113454721Y-65317500D01*
X113875279Y-65317500D01*
X114287756Y-65235453D01*
X114676302Y-65074512D01*
X115025983Y-64840863D01*
X115323363Y-64543483D01*
X115557012Y-64193802D01*
X115717953Y-63805256D01*
X115800000Y-63392779D01*
X115800000Y-62972221D01*
X130580000Y-62972221D01*
X130580000Y-63392779D01*
X130662047Y-63805256D01*
X130822988Y-64193802D01*
X131056637Y-64543483D01*
X131354017Y-64840863D01*
X131703698Y-65074512D01*
X132092244Y-65235453D01*
X132504721Y-65317500D01*
X132925279Y-65317500D01*
X133337756Y-65235453D01*
X133726302Y-65074512D01*
X134075983Y-64840863D01*
X134373363Y-64543483D01*
X134607012Y-64193802D01*
X134767953Y-63805256D01*
X134850000Y-63392779D01*
X134850000Y-62972221D01*
X149630000Y-62972221D01*
X149630000Y-63392779D01*
X149712047Y-63805256D01*
X149872988Y-64193802D01*
X150106637Y-64543483D01*
X150404017Y-64840863D01*
X150753698Y-65074512D01*
X151142244Y-65235453D01*
X151554721Y-65317500D01*
X151975279Y-65317500D01*
X152387756Y-65235453D01*
X152776302Y-65074512D01*
X153125983Y-64840863D01*
X153423363Y-64543483D01*
X153657012Y-64193802D01*
X153817953Y-63805256D01*
X153900000Y-63392779D01*
X153900000Y-62972221D01*
X153817953Y-62559744D01*
X153657012Y-62171198D01*
X153423363Y-61821517D01*
X153125983Y-61524137D01*
X152776302Y-61290488D01*
X152387756Y-61129547D01*
X151975279Y-61047500D01*
X151554721Y-61047500D01*
X151142244Y-61129547D01*
X150753698Y-61290488D01*
X150404017Y-61524137D01*
X150106637Y-61821517D01*
X149872988Y-62171198D01*
X149712047Y-62559744D01*
X149630000Y-62972221D01*
X134850000Y-62972221D01*
X134767953Y-62559744D01*
X134607012Y-62171198D01*
X134373363Y-61821517D01*
X134075983Y-61524137D01*
X133726302Y-61290488D01*
X133337756Y-61129547D01*
X132925279Y-61047500D01*
X132504721Y-61047500D01*
X132092244Y-61129547D01*
X131703698Y-61290488D01*
X131354017Y-61524137D01*
X131056637Y-61821517D01*
X130822988Y-62171198D01*
X130662047Y-62559744D01*
X130580000Y-62972221D01*
X115800000Y-62972221D01*
X115717953Y-62559744D01*
X115557012Y-62171198D01*
X115323363Y-61821517D01*
X115025983Y-61524137D01*
X114676302Y-61290488D01*
X114287756Y-61129547D01*
X114010011Y-61074300D01*
X119851205Y-61074300D01*
X119888000Y-61077924D01*
X119924795Y-61074300D01*
X119924806Y-61074300D01*
X120034888Y-61063458D01*
X120176132Y-61020612D01*
X120306303Y-60951034D01*
X120420398Y-60857398D01*
X120443862Y-60828807D01*
X121026816Y-60245855D01*
X121055398Y-60222398D01*
X121078854Y-60193817D01*
X121078861Y-60193810D01*
X121149034Y-60108303D01*
X121218612Y-59978132D01*
X121261458Y-59836888D01*
X121263004Y-59821190D01*
X121272300Y-59726806D01*
X121272300Y-59726798D01*
X121275924Y-59690000D01*
X121272300Y-59653202D01*
X121272300Y-56756300D01*
X124296205Y-56756300D01*
X124333000Y-56759924D01*
X124369795Y-56756300D01*
X124369806Y-56756300D01*
X124479888Y-56745458D01*
X124621132Y-56702612D01*
X124751303Y-56633034D01*
X124865398Y-56539398D01*
X124888863Y-56510806D01*
X124963806Y-56435863D01*
X124992398Y-56412398D01*
X125036648Y-56358480D01*
X125119774Y-56302937D01*
X125263937Y-56158774D01*
X125377205Y-55989256D01*
X125455226Y-55800898D01*
X125495000Y-55600939D01*
X125495000Y-55397061D01*
X125455226Y-55197102D01*
X125377205Y-55008744D01*
X125263937Y-54839226D01*
X125119774Y-54695063D01*
X124950256Y-54581795D01*
X124761898Y-54503774D01*
X124561939Y-54464000D01*
X124358061Y-54464000D01*
X124158102Y-54503774D01*
X123969744Y-54581795D01*
X123800226Y-54695063D01*
X123745589Y-54749700D01*
X121272300Y-54749700D01*
X121272300Y-49063778D01*
X123585000Y-49063778D01*
X123585000Y-49361222D01*
X123643029Y-49652951D01*
X123756856Y-49927753D01*
X123922107Y-50175069D01*
X124132431Y-50385393D01*
X124379747Y-50550644D01*
X124654549Y-50664471D01*
X124946278Y-50722500D01*
X125243722Y-50722500D01*
X125535451Y-50664471D01*
X125810253Y-50550644D01*
X126057569Y-50385393D01*
X126267893Y-50175069D01*
X126433144Y-49927753D01*
X126546971Y-49652951D01*
X126605000Y-49361222D01*
X126605000Y-49063778D01*
X126554023Y-48807500D01*
X126575279Y-48807500D01*
X126987756Y-48725453D01*
X127376302Y-48564512D01*
X127682708Y-48359779D01*
X127647127Y-48445678D01*
X127546100Y-48953576D01*
X127546100Y-49471424D01*
X127647127Y-49979322D01*
X127845299Y-50457751D01*
X128133000Y-50888326D01*
X128499174Y-51254500D01*
X128929749Y-51542201D01*
X129408178Y-51740373D01*
X129916076Y-51841400D01*
X130433924Y-51841400D01*
X130941822Y-51740373D01*
X131420251Y-51542201D01*
X131850826Y-51254500D01*
X132217000Y-50888326D01*
X132504701Y-50457751D01*
X132702873Y-49979322D01*
X132803900Y-49471424D01*
X132803900Y-49063778D01*
X133745000Y-49063778D01*
X133745000Y-49361222D01*
X133803029Y-49652951D01*
X133916856Y-49927753D01*
X134082107Y-50175069D01*
X134292431Y-50385393D01*
X134539747Y-50550644D01*
X134814549Y-50664471D01*
X135106278Y-50722500D01*
X135403722Y-50722500D01*
X135695451Y-50664471D01*
X135970253Y-50550644D01*
X136217569Y-50385393D01*
X136427893Y-50175069D01*
X136593144Y-49927753D01*
X136706971Y-49652951D01*
X136765000Y-49361222D01*
X136765000Y-49063778D01*
X136706971Y-48772049D01*
X136593144Y-48497247D01*
X136427893Y-48249931D01*
X136217569Y-48039607D01*
X135970253Y-47874356D01*
X135695451Y-47760529D01*
X135403722Y-47702500D01*
X135106278Y-47702500D01*
X134814549Y-47760529D01*
X134539747Y-47874356D01*
X134292431Y-48039607D01*
X134082107Y-48249931D01*
X133916856Y-48497247D01*
X133803029Y-48772049D01*
X133745000Y-49063778D01*
X132803900Y-49063778D01*
X132803900Y-48953576D01*
X132702873Y-48445678D01*
X132504701Y-47967249D01*
X132217000Y-47536674D01*
X131850826Y-47170500D01*
X131420251Y-46882799D01*
X130941822Y-46684627D01*
X130433924Y-46583600D01*
X129916076Y-46583600D01*
X129408178Y-46684627D01*
X128929749Y-46882799D01*
X128499174Y-47170500D01*
X128428763Y-47240911D01*
X128500000Y-46882779D01*
X128500000Y-46462221D01*
X128417953Y-46049744D01*
X128257012Y-45661198D01*
X128023363Y-45311517D01*
X127725983Y-45014137D01*
X127376302Y-44780488D01*
X126987756Y-44619547D01*
X126575279Y-44537500D01*
X126154721Y-44537500D01*
X125742244Y-44619547D01*
X125353698Y-44780488D01*
X125004017Y-45014137D01*
X124706637Y-45311517D01*
X124472988Y-45661198D01*
X124312047Y-46049744D01*
X124230000Y-46462221D01*
X124230000Y-46882779D01*
X124312047Y-47295256D01*
X124472988Y-47683802D01*
X124552499Y-47802799D01*
X124379747Y-47874356D01*
X124132431Y-48039607D01*
X123922107Y-48249931D01*
X123756856Y-48497247D01*
X123643029Y-48772049D01*
X123585000Y-49063778D01*
X121272300Y-49063778D01*
X121272300Y-43922221D01*
X130580000Y-43922221D01*
X130580000Y-44342779D01*
X130662047Y-44755256D01*
X130822988Y-45143802D01*
X131056637Y-45493483D01*
X131354017Y-45790863D01*
X131703698Y-46024512D01*
X132092244Y-46185453D01*
X132504721Y-46267500D01*
X132925279Y-46267500D01*
X133337756Y-46185453D01*
X133726302Y-46024512D01*
X134075983Y-45790863D01*
X134373363Y-45493483D01*
X134607012Y-45143802D01*
X134767953Y-44755256D01*
X134850000Y-44342779D01*
X134850000Y-43922221D01*
X134767953Y-43509744D01*
X134607012Y-43121198D01*
X134373363Y-42771517D01*
X134075983Y-42474137D01*
X133726302Y-42240488D01*
X133337756Y-42079547D01*
X132925279Y-41997500D01*
X132504721Y-41997500D01*
X132092244Y-42079547D01*
X131703698Y-42240488D01*
X131354017Y-42474137D01*
X131056637Y-42771517D01*
X130822988Y-43121198D01*
X130662047Y-43509744D01*
X130580000Y-43922221D01*
X121272300Y-43922221D01*
X121272300Y-42913300D01*
X129757205Y-42913300D01*
X129794000Y-42916924D01*
X129830795Y-42913300D01*
X129830806Y-42913300D01*
X129940888Y-42902458D01*
X130082132Y-42859612D01*
X130212303Y-42790034D01*
X130326398Y-42696398D01*
X130349863Y-42667806D01*
X130476860Y-42540809D01*
X131342670Y-41675000D01*
X131419939Y-41675000D01*
X131619898Y-41635226D01*
X131808256Y-41557205D01*
X131977774Y-41443937D01*
X132121937Y-41299774D01*
X132235205Y-41130256D01*
X132313226Y-40941898D01*
X132353000Y-40741939D01*
X132353000Y-40538061D01*
X132313226Y-40338102D01*
X132235205Y-40149744D01*
X132138490Y-40005000D01*
X133869247Y-40005000D01*
X133839000Y-40157061D01*
X133839000Y-40274026D01*
X133810102Y-40279774D01*
X133621744Y-40357795D01*
X133452226Y-40471063D01*
X133308063Y-40615226D01*
X133194795Y-40784744D01*
X133116774Y-40973102D01*
X133077000Y-41173061D01*
X133077000Y-41376939D01*
X133116774Y-41576898D01*
X133194795Y-41765256D01*
X133308063Y-41934774D01*
X133452226Y-42078937D01*
X133621744Y-42192205D01*
X133810102Y-42270226D01*
X134010061Y-42310000D01*
X134213939Y-42310000D01*
X134413898Y-42270226D01*
X134602256Y-42192205D01*
X134771774Y-42078937D01*
X134826411Y-42024300D01*
X136497485Y-42024300D01*
X137188610Y-42715427D01*
X137212066Y-42744008D01*
X137240647Y-42767464D01*
X137240654Y-42767471D01*
X137326161Y-42837644D01*
X137456332Y-42907222D01*
X137597576Y-42950068D01*
X137707658Y-42960910D01*
X137707666Y-42960910D01*
X137744464Y-42964534D01*
X137781262Y-42960910D01*
X137887090Y-42960910D01*
X137887091Y-54355978D01*
X137832453Y-54410616D01*
X137719185Y-54580134D01*
X137641164Y-54768492D01*
X137601390Y-54968451D01*
X137601390Y-55172329D01*
X137641164Y-55372288D01*
X137719185Y-55560646D01*
X137832453Y-55730164D01*
X137976616Y-55874327D01*
X138146134Y-55987595D01*
X138334492Y-56065616D01*
X138534451Y-56105390D01*
X138738329Y-56105390D01*
X138938288Y-56065616D01*
X139126646Y-55987595D01*
X139296164Y-55874327D01*
X139440327Y-55730164D01*
X139553595Y-55560646D01*
X139631616Y-55372288D01*
X139671390Y-55172329D01*
X139671390Y-54968451D01*
X139631616Y-54768492D01*
X139553595Y-54580134D01*
X139440327Y-54410616D01*
X139385690Y-54355979D01*
X139385690Y-49259359D01*
X141363700Y-51237370D01*
X141363701Y-59356588D01*
X141309063Y-59411226D01*
X141195795Y-59580744D01*
X141117774Y-59769102D01*
X141078000Y-59969061D01*
X141078000Y-60172939D01*
X141117774Y-60372898D01*
X141195795Y-60561256D01*
X141309063Y-60730774D01*
X141453226Y-60874937D01*
X141622744Y-60988205D01*
X141811102Y-61066226D01*
X142011061Y-61106000D01*
X142214939Y-61106000D01*
X142414898Y-61066226D01*
X142603256Y-60988205D01*
X142772774Y-60874937D01*
X142916937Y-60730774D01*
X143030205Y-60561256D01*
X143108226Y-60372898D01*
X143148000Y-60172939D01*
X143148000Y-59969061D01*
X143108226Y-59769102D01*
X143030205Y-59580744D01*
X142916937Y-59411226D01*
X142862300Y-59356589D01*
X142862300Y-50963796D01*
X142865924Y-50927000D01*
X142862300Y-50890204D01*
X142862300Y-50890194D01*
X142851458Y-50780112D01*
X142808612Y-50638868D01*
X142739034Y-50508696D01*
X142668860Y-50423190D01*
X142668858Y-50423188D01*
X142645398Y-50394602D01*
X142616813Y-50371143D01*
X141309448Y-49063778D01*
X142635000Y-49063778D01*
X142635000Y-49361222D01*
X142693029Y-49652951D01*
X142806856Y-49927753D01*
X142972107Y-50175069D01*
X143182431Y-50385393D01*
X143429747Y-50550644D01*
X143704549Y-50664471D01*
X143996278Y-50722500D01*
X144293722Y-50722500D01*
X144585451Y-50664471D01*
X144860253Y-50550644D01*
X145107569Y-50385393D01*
X145317893Y-50175069D01*
X145483144Y-49927753D01*
X145596971Y-49652951D01*
X145655000Y-49361222D01*
X145655000Y-49063778D01*
X145604023Y-48807500D01*
X145625279Y-48807500D01*
X146037756Y-48725453D01*
X146426302Y-48564512D01*
X146732708Y-48359779D01*
X146697127Y-48445678D01*
X146596100Y-48953576D01*
X146596100Y-49471424D01*
X146697127Y-49979322D01*
X146895299Y-50457751D01*
X147183000Y-50888326D01*
X147549174Y-51254500D01*
X147979749Y-51542201D01*
X148458178Y-51740373D01*
X148966076Y-51841400D01*
X149483924Y-51841400D01*
X149991822Y-51740373D01*
X150470251Y-51542201D01*
X150900826Y-51254500D01*
X151267000Y-50888326D01*
X151554701Y-50457751D01*
X151752873Y-49979322D01*
X151853900Y-49471424D01*
X151853900Y-49063778D01*
X152795000Y-49063778D01*
X152795000Y-49361222D01*
X152853029Y-49652951D01*
X152966856Y-49927753D01*
X153132107Y-50175069D01*
X153342431Y-50385393D01*
X153589747Y-50550644D01*
X153864549Y-50664471D01*
X154156278Y-50722500D01*
X154453722Y-50722500D01*
X154745451Y-50664471D01*
X155020253Y-50550644D01*
X155267569Y-50385393D01*
X155477893Y-50175069D01*
X155643144Y-49927753D01*
X155756971Y-49652951D01*
X155815000Y-49361222D01*
X155815000Y-49063778D01*
X155756971Y-48772049D01*
X155643144Y-48497247D01*
X155477893Y-48249931D01*
X155267569Y-48039607D01*
X155020253Y-47874356D01*
X154745451Y-47760529D01*
X154453722Y-47702500D01*
X154156278Y-47702500D01*
X153864549Y-47760529D01*
X153589747Y-47874356D01*
X153342431Y-48039607D01*
X153132107Y-48249931D01*
X152966856Y-48497247D01*
X152853029Y-48772049D01*
X152795000Y-49063778D01*
X151853900Y-49063778D01*
X151853900Y-48953576D01*
X151752873Y-48445678D01*
X151554701Y-47967249D01*
X151267000Y-47536674D01*
X150900826Y-47170500D01*
X150470251Y-46882799D01*
X149991822Y-46684627D01*
X149483924Y-46583600D01*
X148966076Y-46583600D01*
X148458178Y-46684627D01*
X147979749Y-46882799D01*
X147549174Y-47170500D01*
X147478763Y-47240911D01*
X147550000Y-46882779D01*
X147550000Y-46462221D01*
X147467953Y-46049744D01*
X147307012Y-45661198D01*
X147073363Y-45311517D01*
X146775983Y-45014137D01*
X146426302Y-44780488D01*
X146037756Y-44619547D01*
X145625279Y-44537500D01*
X145204721Y-44537500D01*
X144792244Y-44619547D01*
X144403698Y-44780488D01*
X144054017Y-45014137D01*
X143756637Y-45311517D01*
X143522988Y-45661198D01*
X143362047Y-46049744D01*
X143280000Y-46462221D01*
X143280000Y-46882779D01*
X143362047Y-47295256D01*
X143522988Y-47683802D01*
X143602499Y-47802799D01*
X143429747Y-47874356D01*
X143182431Y-48039607D01*
X142972107Y-48249931D01*
X142806856Y-48497247D01*
X142693029Y-48772049D01*
X142635000Y-49063778D01*
X141309448Y-49063778D01*
X139814300Y-47568631D01*
X139814300Y-43922221D01*
X149630000Y-43922221D01*
X149630000Y-44342779D01*
X149712047Y-44755256D01*
X149872988Y-45143802D01*
X150106637Y-45493483D01*
X150404017Y-45790863D01*
X150753698Y-46024512D01*
X151142244Y-46185453D01*
X151554721Y-46267500D01*
X151975279Y-46267500D01*
X152387756Y-46185453D01*
X152776302Y-46024512D01*
X153125983Y-45790863D01*
X153423363Y-45493483D01*
X153657012Y-45143802D01*
X153817953Y-44755256D01*
X153900000Y-44342779D01*
X153900000Y-43922221D01*
X153817953Y-43509744D01*
X153657012Y-43121198D01*
X153423363Y-42771517D01*
X153125983Y-42474137D01*
X152776302Y-42240488D01*
X152387756Y-42079547D01*
X151975279Y-41997500D01*
X151554721Y-41997500D01*
X151142244Y-42079547D01*
X150753698Y-42240488D01*
X150404017Y-42474137D01*
X150106637Y-42771517D01*
X149872988Y-43121198D01*
X149712047Y-43509744D01*
X149630000Y-43922221D01*
X139814300Y-43922221D01*
X139814300Y-41946795D01*
X139817924Y-41909999D01*
X139814300Y-41873204D01*
X139814300Y-41873194D01*
X139803458Y-41763112D01*
X139760612Y-41621868D01*
X139691034Y-41491697D01*
X139597398Y-41377602D01*
X139568807Y-41354138D01*
X139493863Y-41279194D01*
X139470398Y-41250602D01*
X139356303Y-41156966D01*
X139226132Y-41087388D01*
X139084888Y-41044542D01*
X139004970Y-41036671D01*
X139044226Y-40941898D01*
X139084000Y-40741939D01*
X139084000Y-40538061D01*
X139044226Y-40338102D01*
X138966205Y-40149744D01*
X138852937Y-39980226D01*
X138708774Y-39836063D01*
X138539256Y-39722795D01*
X138350898Y-39644774D01*
X138150939Y-39605000D01*
X138091631Y-39605000D01*
X137217284Y-38730654D01*
X137193422Y-38701578D01*
X137077392Y-38606355D01*
X136945015Y-38535598D01*
X136801378Y-38492026D01*
X136689426Y-38481000D01*
X136689423Y-38481000D01*
X136652000Y-38477314D01*
X136614577Y-38481000D01*
X126558711Y-38481000D01*
X126516774Y-38439063D01*
X126347256Y-38325795D01*
X126158898Y-38247774D01*
X125958939Y-38208000D01*
X125755061Y-38208000D01*
X125555102Y-38247774D01*
X125366744Y-38325795D01*
X125197226Y-38439063D01*
X125053063Y-38583226D01*
X124939795Y-38752744D01*
X124861774Y-38941102D01*
X124822000Y-39141061D01*
X124822000Y-39344939D01*
X124861774Y-39544898D01*
X124939795Y-39733256D01*
X125053063Y-39902774D01*
X125197226Y-40046937D01*
X125366744Y-40160205D01*
X125555102Y-40238226D01*
X125755061Y-40278000D01*
X125958939Y-40278000D01*
X126158898Y-40238226D01*
X126347256Y-40160205D01*
X126516774Y-40046937D01*
X126558711Y-40005000D01*
X130497510Y-40005000D01*
X130400795Y-40149744D01*
X130322774Y-40338102D01*
X130283000Y-40538061D01*
X130283000Y-40615330D01*
X129483631Y-41414700D01*
X124701300Y-41414700D01*
X124701300Y-37348061D01*
X138523000Y-37348061D01*
X138523000Y-37551939D01*
X138562774Y-37751898D01*
X138640795Y-37940256D01*
X138754063Y-38109774D01*
X138898226Y-38253937D01*
X139067744Y-38367205D01*
X139256102Y-38445226D01*
X139456061Y-38485000D01*
X139659939Y-38485000D01*
X139716320Y-38473785D01*
X139789574Y-38481000D01*
X139789576Y-38481000D01*
X139826999Y-38484686D01*
X139864422Y-38481000D01*
X144586289Y-38481000D01*
X144628226Y-38522937D01*
X144797744Y-38636205D01*
X144986102Y-38714226D01*
X145186061Y-38754000D01*
X145389939Y-38754000D01*
X145589898Y-38714226D01*
X145778256Y-38636205D01*
X145947774Y-38522937D01*
X146091937Y-38378774D01*
X146205205Y-38209256D01*
X146283226Y-38020898D01*
X146323000Y-37820939D01*
X146323000Y-37617061D01*
X146283226Y-37417102D01*
X146205205Y-37228744D01*
X146091937Y-37059226D01*
X145947774Y-36915063D01*
X145778256Y-36801795D01*
X145589898Y-36723774D01*
X145389939Y-36684000D01*
X145186061Y-36684000D01*
X144986102Y-36723774D01*
X144797744Y-36801795D01*
X144628226Y-36915063D01*
X144586289Y-36957000D01*
X140473372Y-36957000D01*
X140361937Y-36790226D01*
X140217774Y-36646063D01*
X140048256Y-36532795D01*
X139859898Y-36454774D01*
X139659939Y-36415000D01*
X139456061Y-36415000D01*
X139256102Y-36454774D01*
X139067744Y-36532795D01*
X138898226Y-36646063D01*
X138754063Y-36790226D01*
X138640795Y-36959744D01*
X138562774Y-37148102D01*
X138523000Y-37348061D01*
X124701300Y-37348061D01*
X124701300Y-30813411D01*
X124755937Y-30758774D01*
X124869205Y-30589256D01*
X124947226Y-30400898D01*
X124987000Y-30200939D01*
X124987000Y-29997061D01*
X124947226Y-29797102D01*
X124869205Y-29608744D01*
X124755937Y-29439226D01*
X124611774Y-29295063D01*
X124442256Y-29181795D01*
X124319214Y-29130829D01*
X124320300Y-29119806D01*
X124320300Y-29119797D01*
X124323924Y-29083001D01*
X124320300Y-29046205D01*
X124320300Y-26495411D01*
X124374937Y-26440774D01*
X124488205Y-26271256D01*
X124566226Y-26082898D01*
X124572388Y-26051922D01*
X124761898Y-26014226D01*
X124950256Y-25936205D01*
X125119774Y-25822937D01*
X125263937Y-25678774D01*
X125377205Y-25509256D01*
X125455226Y-25320898D01*
X125495000Y-25120939D01*
X125495000Y-24917061D01*
X125455226Y-24717102D01*
X125377205Y-24528744D01*
X125263937Y-24359226D01*
X125119774Y-24215063D01*
X124950256Y-24101795D01*
X124761898Y-24023774D01*
X124561939Y-23984000D01*
X124461528Y-23984000D01*
X124348133Y-23923389D01*
X124206889Y-23880543D01*
X124096807Y-23869701D01*
X124096796Y-23869701D01*
X124060001Y-23866077D01*
X124023206Y-23869701D01*
X122991795Y-23869701D01*
X122954999Y-23866077D01*
X122918203Y-23869701D01*
X122918193Y-23869701D01*
X122808111Y-23880543D01*
X122666867Y-23923389D01*
X122536696Y-23992967D01*
X122501500Y-24021852D01*
X122501500Y-23368000D01*
X128524000Y-23368000D01*
X128524001Y-23735788D01*
X128482063Y-23777726D01*
X128368795Y-23947244D01*
X128290774Y-24135602D01*
X128251000Y-24335561D01*
X128251000Y-24539439D01*
X128290774Y-24739398D01*
X128368795Y-24927756D01*
X128482063Y-25097274D01*
X128626226Y-25241437D01*
X128795744Y-25354705D01*
X128984102Y-25432726D01*
X129184061Y-25472500D01*
X129387939Y-25472500D01*
X129587898Y-25432726D01*
X129776256Y-25354705D01*
X129945774Y-25241437D01*
X130089937Y-25097274D01*
X130203205Y-24927756D01*
X130281226Y-24739398D01*
X130321000Y-24539439D01*
X130321000Y-24335561D01*
X130281226Y-24135602D01*
X130203205Y-23947244D01*
X130089937Y-23777726D01*
X130048000Y-23735789D01*
X130048000Y-22643426D01*
X130051686Y-22606000D01*
X130036974Y-22456622D01*
X129993402Y-22312985D01*
X129922645Y-22180608D01*
X129827422Y-22064578D01*
X129711392Y-21969355D01*
X129579015Y-21898598D01*
X129435378Y-21855026D01*
X129323426Y-21844000D01*
X129323425Y-21844000D01*
X129286000Y-21840314D01*
X129248574Y-21844000D01*
X121830422Y-21844000D01*
X121792999Y-21840314D01*
X121755576Y-21844000D01*
X121755574Y-21844000D01*
X121643622Y-21855026D01*
X121503605Y-21897500D01*
X120887923Y-21897500D01*
X120850500Y-21893814D01*
X120813077Y-21897500D01*
X120813074Y-21897500D01*
X120701122Y-21908526D01*
X120557485Y-21952098D01*
X120525198Y-21969356D01*
X120425107Y-22022855D01*
X120401380Y-22042328D01*
X120309078Y-22118078D01*
X120285216Y-22147154D01*
X119573041Y-22859330D01*
X119525707Y-22811996D01*
X119356189Y-22698728D01*
X119167831Y-22620707D01*
X118967872Y-22580933D01*
X118763994Y-22580933D01*
X118564035Y-22620707D01*
X118375677Y-22698728D01*
X118206159Y-22811996D01*
X118061996Y-22956159D01*
X118038000Y-22992072D01*
X118038000Y-22915000D01*
X116680000Y-22915000D01*
X116680000Y-24608155D01*
X116787437Y-24664853D01*
X115518891Y-25933400D01*
X114500480Y-25933400D01*
X113090815Y-24523736D01*
X113067745Y-24495625D01*
X112955583Y-24403576D01*
X112827619Y-24335178D01*
X112688769Y-24293058D01*
X112580556Y-24282400D01*
X112580553Y-24282400D01*
X112544370Y-24278836D01*
X112508187Y-24282400D01*
X110355015Y-24282400D01*
X110417176Y-24218619D01*
X110576361Y-23973618D01*
X110684690Y-23702269D01*
X110738000Y-23415000D01*
X110738000Y-22915000D01*
X115068000Y-22915000D01*
X115068000Y-23415000D01*
X115121310Y-23702269D01*
X115229639Y-23973618D01*
X115388824Y-24218619D01*
X115592748Y-24427857D01*
X115833574Y-24593291D01*
X116102047Y-24708563D01*
X116196110Y-24729476D01*
X116426000Y-24608155D01*
X116426000Y-22915000D01*
X115068000Y-22915000D01*
X110738000Y-22915000D01*
X109380000Y-22915000D01*
X109380000Y-22935000D01*
X109126000Y-22935000D01*
X109126000Y-22915000D01*
X107768000Y-22915000D01*
X107768000Y-23415000D01*
X107821310Y-23702269D01*
X107929639Y-23973618D01*
X108088824Y-24218619D01*
X108150985Y-24282400D01*
X102708111Y-24282400D01*
X102640774Y-24215063D01*
X102471256Y-24101795D01*
X102282898Y-24023774D01*
X102082939Y-23984000D01*
X101879061Y-23984000D01*
X101679102Y-24023774D01*
X101490744Y-24101795D01*
X101321226Y-24215063D01*
X101177063Y-24359226D01*
X101063795Y-24528744D01*
X101010388Y-24657679D01*
X100749100Y-24396391D01*
X100749100Y-23299545D01*
X100779411Y-23286990D01*
X101022632Y-23124475D01*
X101154487Y-22992620D01*
X101176498Y-23065180D01*
X101235463Y-23175494D01*
X101314815Y-23272185D01*
X101411506Y-23351537D01*
X101521820Y-23410502D01*
X101641518Y-23446812D01*
X101766000Y-23459072D01*
X103466000Y-23459072D01*
X103590482Y-23446812D01*
X103710180Y-23410502D01*
X103820494Y-23351537D01*
X103917185Y-23272185D01*
X103996537Y-23175494D01*
X104055502Y-23065180D01*
X104091812Y-22945482D01*
X104104072Y-22821000D01*
X104104072Y-22161000D01*
X107768000Y-22161000D01*
X107768000Y-22661000D01*
X109126000Y-22661000D01*
X109126000Y-20967845D01*
X109380000Y-20967845D01*
X109380000Y-22661000D01*
X110738000Y-22661000D01*
X110738000Y-22161000D01*
X115068000Y-22161000D01*
X115068000Y-22661000D01*
X116426000Y-22661000D01*
X116426000Y-20967845D01*
X116680000Y-20967845D01*
X116680000Y-22661000D01*
X118038000Y-22661000D01*
X118038000Y-22161000D01*
X117984690Y-21873731D01*
X117876361Y-21602382D01*
X117717176Y-21357381D01*
X117513252Y-21148143D01*
X117272426Y-20982709D01*
X117003953Y-20867437D01*
X116909890Y-20846524D01*
X116680000Y-20967845D01*
X116426000Y-20967845D01*
X116196110Y-20846524D01*
X116102047Y-20867437D01*
X115833574Y-20982709D01*
X115592748Y-21148143D01*
X115388824Y-21357381D01*
X115229639Y-21602382D01*
X115121310Y-21873731D01*
X115068000Y-22161000D01*
X110738000Y-22161000D01*
X110684690Y-21873731D01*
X110576361Y-21602382D01*
X110417176Y-21357381D01*
X110213252Y-21148143D01*
X109972426Y-20982709D01*
X109703953Y-20867437D01*
X109609890Y-20846524D01*
X109380000Y-20967845D01*
X109126000Y-20967845D01*
X108896110Y-20846524D01*
X108802047Y-20867437D01*
X108533574Y-20982709D01*
X108292748Y-21148143D01*
X108088824Y-21357381D01*
X107929639Y-21602382D01*
X107821310Y-21873731D01*
X107768000Y-22161000D01*
X104104072Y-22161000D01*
X104104072Y-21121000D01*
X104091812Y-20996518D01*
X104055502Y-20876820D01*
X103996537Y-20766506D01*
X103917185Y-20669815D01*
X103820494Y-20590463D01*
X103710180Y-20531498D01*
X103590482Y-20495188D01*
X103466000Y-20482928D01*
X101766000Y-20482928D01*
X101641518Y-20495188D01*
X101521820Y-20531498D01*
X101411506Y-20590463D01*
X101314815Y-20669815D01*
X101235463Y-20766506D01*
X101176498Y-20876820D01*
X101154487Y-20949380D01*
X101022632Y-20817525D01*
X100779411Y-20655010D01*
X100509158Y-20543068D01*
X100222260Y-20486000D01*
X99929740Y-20486000D01*
X99642842Y-20543068D01*
X99372589Y-20655010D01*
X99129368Y-20817525D01*
X98922525Y-21024368D01*
X98806000Y-21198760D01*
X98689475Y-21024368D01*
X98482632Y-20817525D01*
X98239411Y-20655010D01*
X97969158Y-20543068D01*
X97682260Y-20486000D01*
X97389740Y-20486000D01*
X97102842Y-20543068D01*
X96832589Y-20655010D01*
X96589368Y-20817525D01*
X96382525Y-21024368D01*
X96260805Y-21206534D01*
X96191178Y-21089645D01*
X95996269Y-20873412D01*
X95762920Y-20699359D01*
X95500099Y-20574175D01*
X95352890Y-20529524D01*
X95123000Y-20650845D01*
X95123000Y-21844000D01*
X95143000Y-21844000D01*
X95143000Y-22098000D01*
X95123000Y-22098000D01*
X95123000Y-23291155D01*
X95352890Y-23412476D01*
X95500099Y-23367825D01*
X95762920Y-23242641D01*
X95996269Y-23068588D01*
X96191178Y-22852355D01*
X96260805Y-22735466D01*
X96382525Y-22917632D01*
X96589368Y-23124475D01*
X96832589Y-23286990D01*
X96894650Y-23312697D01*
X96894651Y-24697054D01*
X96891086Y-24733250D01*
X96905308Y-24877649D01*
X96947428Y-25016499D01*
X97015826Y-25144463D01*
X97107875Y-25256625D01*
X97220037Y-25348674D01*
X97348001Y-25417072D01*
X97486851Y-25459192D01*
X97595064Y-25469850D01*
X97631250Y-25473414D01*
X97667436Y-25469850D01*
X98977141Y-25469850D01*
X100418557Y-26911267D01*
X100441625Y-26939375D01*
X100553787Y-27031424D01*
X100681751Y-27099822D01*
X100801221Y-27136063D01*
X100820601Y-27141942D01*
X100965000Y-27156164D01*
X101001186Y-27152600D01*
X109549891Y-27152600D01*
X110642400Y-28245109D01*
X110642400Y-28538817D01*
X110638836Y-28575000D01*
X110642400Y-28611183D01*
X110642400Y-28611186D01*
X110653058Y-28719399D01*
X110695178Y-28858249D01*
X110736324Y-28935226D01*
X110763576Y-28986212D01*
X110795667Y-29025315D01*
X109384426Y-29025315D01*
X109347000Y-29021629D01*
X109309575Y-29025315D01*
X109309574Y-29025315D01*
X109197622Y-29036341D01*
X109053985Y-29079913D01*
X108921608Y-29150670D01*
X108805578Y-29245893D01*
X108710355Y-29361923D01*
X108655794Y-29464000D01*
X108639598Y-29494300D01*
X108596026Y-29637937D01*
X108595772Y-29640517D01*
X108543063Y-29693226D01*
X108429795Y-29862744D01*
X108351774Y-30051102D01*
X108312000Y-30251061D01*
X108312000Y-30454939D01*
X108351774Y-30654898D01*
X108429795Y-30843256D01*
X108543063Y-31012774D01*
X108687226Y-31156937D01*
X108856744Y-31270205D01*
X109045102Y-31348226D01*
X109245061Y-31388000D01*
X109448939Y-31388000D01*
X109648898Y-31348226D01*
X109837256Y-31270205D01*
X110006774Y-31156937D01*
X110150937Y-31012774D01*
X110264205Y-30843256D01*
X110342226Y-30654898D01*
X110363228Y-30549315D01*
X113939262Y-30549315D01*
X113976685Y-30553001D01*
X114014108Y-30549315D01*
X114014111Y-30549315D01*
X114126063Y-30538289D01*
X114269700Y-30494717D01*
X114402077Y-30423960D01*
X114518107Y-30328737D01*
X114541969Y-30299661D01*
X114914804Y-29926826D01*
X115044256Y-29873205D01*
X115213774Y-29759937D01*
X115357937Y-29615774D01*
X115471205Y-29446256D01*
X115549226Y-29257898D01*
X115589000Y-29057939D01*
X115589000Y-28998630D01*
X119151400Y-25436231D01*
X119151400Y-25561889D01*
X119084063Y-25629226D01*
X118970795Y-25798744D01*
X118892774Y-25987102D01*
X118853000Y-26187061D01*
X118853000Y-26390939D01*
X118892774Y-26590898D01*
X118970795Y-26779256D01*
X119084063Y-26948774D01*
X119228226Y-27092937D01*
X119397744Y-27206205D01*
X119586102Y-27284226D01*
X119786061Y-27324000D01*
X119989939Y-27324000D01*
X120189898Y-27284226D01*
X120378256Y-27206205D01*
X120547774Y-27092937D01*
X120691937Y-26948774D01*
X120805205Y-26779256D01*
X120883226Y-26590898D01*
X120923000Y-26390939D01*
X120923000Y-26187061D01*
X120883226Y-25987102D01*
X120805205Y-25798744D01*
X120691937Y-25629226D01*
X120624600Y-25561889D01*
X120624600Y-24943109D01*
X120777642Y-24790067D01*
X120885006Y-24790067D01*
X120977501Y-24771669D01*
X120977500Y-28374500D01*
X120125923Y-28374500D01*
X120088500Y-28370814D01*
X120051077Y-28374500D01*
X120051074Y-28374500D01*
X119939122Y-28385526D01*
X119795485Y-28429098D01*
X119663108Y-28499855D01*
X119547078Y-28595078D01*
X119523214Y-28624157D01*
X119502652Y-28644719D01*
X119473579Y-28668578D01*
X119449722Y-28697648D01*
X119449721Y-28697649D01*
X119378355Y-28784608D01*
X119307599Y-28916985D01*
X119264027Y-29060622D01*
X119249314Y-29210000D01*
X119253001Y-29247433D01*
X119253000Y-30823574D01*
X119249314Y-30861000D01*
X119253000Y-30898425D01*
X119253000Y-31025425D01*
X119253001Y-31025435D01*
X119253000Y-33553400D01*
X119091111Y-33553400D01*
X119072274Y-33534563D01*
X118902756Y-33421295D01*
X118714398Y-33343274D01*
X118514439Y-33303500D01*
X118310561Y-33303500D01*
X118110602Y-33343274D01*
X117922244Y-33421295D01*
X117752726Y-33534563D01*
X117608563Y-33678726D01*
X117495295Y-33848244D01*
X117417274Y-34036602D01*
X117377500Y-34236561D01*
X117377500Y-34440439D01*
X117417274Y-34640398D01*
X117495295Y-34828756D01*
X117608563Y-34998274D01*
X117752726Y-35142437D01*
X117922244Y-35255705D01*
X118110602Y-35333726D01*
X118310561Y-35373500D01*
X118514439Y-35373500D01*
X118714398Y-35333726D01*
X118867535Y-35270294D01*
X118878789Y-35307394D01*
X118902568Y-35385783D01*
X118970966Y-35513748D01*
X119029256Y-35584774D01*
X119063016Y-35625911D01*
X119091122Y-35648977D01*
X119624413Y-36182269D01*
X119647479Y-36210375D01*
X119759641Y-36302424D01*
X119887605Y-36370822D01*
X120016757Y-36410000D01*
X120026455Y-36412942D01*
X120170854Y-36427164D01*
X120207040Y-36423600D01*
X121121817Y-36423600D01*
X121158000Y-36427164D01*
X121194183Y-36423600D01*
X121194186Y-36423600D01*
X121302399Y-36412942D01*
X121441249Y-36370822D01*
X121569213Y-36302424D01*
X121678700Y-36212570D01*
X121678701Y-39255700D01*
X101763796Y-39255700D01*
X101727000Y-39252076D01*
X101690204Y-39255700D01*
X101690194Y-39255700D01*
X101580112Y-39266542D01*
X101438868Y-39309388D01*
X101308697Y-39378966D01*
X101223190Y-39449139D01*
X101223183Y-39449146D01*
X101194602Y-39472602D01*
X101171146Y-39501184D01*
X100461193Y-40211138D01*
X100432602Y-40234602D01*
X100409140Y-40263191D01*
X100338966Y-40348697D01*
X100283542Y-40452388D01*
X100269388Y-40478869D01*
X100226542Y-40620113D01*
X100215700Y-40730195D01*
X100215700Y-40730205D01*
X100212076Y-40767000D01*
X100215700Y-40803795D01*
X100215701Y-56458629D01*
X100019630Y-56654700D01*
X73485411Y-56654700D01*
X73430774Y-56600063D01*
X73261256Y-56486795D01*
X73072898Y-56408774D01*
X72872939Y-56369000D01*
X72669061Y-56369000D01*
X72469102Y-56408774D01*
X72280744Y-56486795D01*
X72111226Y-56600063D01*
X71967063Y-56744226D01*
X71853795Y-56913744D01*
X71775774Y-57102102D01*
X71736000Y-57302061D01*
X71736000Y-57505939D01*
X71775774Y-57705898D01*
X71853795Y-57894256D01*
X71967063Y-58063774D01*
X72111226Y-58207937D01*
X72280744Y-58321205D01*
X72469102Y-58399226D01*
X72669061Y-58439000D01*
X72872939Y-58439000D01*
X73072898Y-58399226D01*
X73261256Y-58321205D01*
X73430774Y-58207937D01*
X73485411Y-58153300D01*
X90482800Y-58153300D01*
X90444774Y-58245102D01*
X90405000Y-58445061D01*
X90405000Y-58648939D01*
X90426881Y-58758943D01*
X90334303Y-58682966D01*
X90204132Y-58613388D01*
X90062888Y-58570542D01*
X89952806Y-58559700D01*
X89952795Y-58559700D01*
X89916000Y-58556076D01*
X89879205Y-58559700D01*
X69456300Y-58559700D01*
X69456300Y-54158369D01*
X69906370Y-53708300D01*
X82005194Y-53708300D01*
X82042000Y-53711925D01*
X82188888Y-53697458D01*
X82330132Y-53654612D01*
X82460303Y-53585034D01*
X82574398Y-53491398D01*
X82668034Y-53377303D01*
X82737612Y-53247132D01*
X82780458Y-53105888D01*
X82791300Y-52995806D01*
X82794925Y-52959000D01*
X82791300Y-52922194D01*
X82791300Y-49063778D01*
X85485000Y-49063778D01*
X85485000Y-49361222D01*
X85543029Y-49652951D01*
X85656856Y-49927753D01*
X85822107Y-50175069D01*
X86032431Y-50385393D01*
X86279747Y-50550644D01*
X86554549Y-50664471D01*
X86846278Y-50722500D01*
X87143722Y-50722500D01*
X87435451Y-50664471D01*
X87710253Y-50550644D01*
X87957569Y-50385393D01*
X88167893Y-50175069D01*
X88333144Y-49927753D01*
X88446971Y-49652951D01*
X88505000Y-49361222D01*
X88505000Y-49063778D01*
X88454023Y-48807500D01*
X88475279Y-48807500D01*
X88887756Y-48725453D01*
X89276302Y-48564512D01*
X89582708Y-48359779D01*
X89547127Y-48445678D01*
X89446100Y-48953576D01*
X89446100Y-49471424D01*
X89547127Y-49979322D01*
X89745299Y-50457751D01*
X90033000Y-50888326D01*
X90399174Y-51254500D01*
X90829749Y-51542201D01*
X91308178Y-51740373D01*
X91816076Y-51841400D01*
X92333924Y-51841400D01*
X92841822Y-51740373D01*
X93320251Y-51542201D01*
X93750826Y-51254500D01*
X94117000Y-50888326D01*
X94404701Y-50457751D01*
X94602873Y-49979322D01*
X94703900Y-49471424D01*
X94703900Y-49063778D01*
X95645000Y-49063778D01*
X95645000Y-49361222D01*
X95703029Y-49652951D01*
X95816856Y-49927753D01*
X95982107Y-50175069D01*
X96192431Y-50385393D01*
X96439747Y-50550644D01*
X96714549Y-50664471D01*
X97006278Y-50722500D01*
X97303722Y-50722500D01*
X97595451Y-50664471D01*
X97870253Y-50550644D01*
X98117569Y-50385393D01*
X98327893Y-50175069D01*
X98493144Y-49927753D01*
X98606971Y-49652951D01*
X98665000Y-49361222D01*
X98665000Y-49063778D01*
X98606971Y-48772049D01*
X98493144Y-48497247D01*
X98327893Y-48249931D01*
X98117569Y-48039607D01*
X97870253Y-47874356D01*
X97595451Y-47760529D01*
X97303722Y-47702500D01*
X97006278Y-47702500D01*
X96714549Y-47760529D01*
X96439747Y-47874356D01*
X96192431Y-48039607D01*
X95982107Y-48249931D01*
X95816856Y-48497247D01*
X95703029Y-48772049D01*
X95645000Y-49063778D01*
X94703900Y-49063778D01*
X94703900Y-48953576D01*
X94602873Y-48445678D01*
X94404701Y-47967249D01*
X94117000Y-47536674D01*
X93750826Y-47170500D01*
X93320251Y-46882799D01*
X92841822Y-46684627D01*
X92333924Y-46583600D01*
X91816076Y-46583600D01*
X91308178Y-46684627D01*
X90829749Y-46882799D01*
X90399174Y-47170500D01*
X90328763Y-47240911D01*
X90400000Y-46882779D01*
X90400000Y-46462221D01*
X90317953Y-46049744D01*
X90157012Y-45661198D01*
X89923363Y-45311517D01*
X89625983Y-45014137D01*
X89276302Y-44780488D01*
X88887756Y-44619547D01*
X88475279Y-44537500D01*
X88054721Y-44537500D01*
X87642244Y-44619547D01*
X87253698Y-44780488D01*
X86904017Y-45014137D01*
X86606637Y-45311517D01*
X86372988Y-45661198D01*
X86212047Y-46049744D01*
X86130000Y-46462221D01*
X86130000Y-46882779D01*
X86212047Y-47295256D01*
X86372988Y-47683802D01*
X86452499Y-47802799D01*
X86279747Y-47874356D01*
X86032431Y-48039607D01*
X85822107Y-48249931D01*
X85656856Y-48497247D01*
X85543029Y-48772049D01*
X85485000Y-49063778D01*
X82791300Y-49063778D01*
X82791300Y-43922221D01*
X92480000Y-43922221D01*
X92480000Y-44342779D01*
X92562047Y-44755256D01*
X92722988Y-45143802D01*
X92956637Y-45493483D01*
X93254017Y-45790863D01*
X93603698Y-46024512D01*
X93992244Y-46185453D01*
X94404721Y-46267500D01*
X94825279Y-46267500D01*
X95237756Y-46185453D01*
X95626302Y-46024512D01*
X95975983Y-45790863D01*
X96273363Y-45493483D01*
X96507012Y-45143802D01*
X96667953Y-44755256D01*
X96750000Y-44342779D01*
X96750000Y-43922221D01*
X96667953Y-43509744D01*
X96507012Y-43121198D01*
X96273363Y-42771517D01*
X95975983Y-42474137D01*
X95626302Y-42240488D01*
X95237756Y-42079547D01*
X94825279Y-41997500D01*
X94404721Y-41997500D01*
X93992244Y-42079547D01*
X93603698Y-42240488D01*
X93254017Y-42474137D01*
X92956637Y-42771517D01*
X92722988Y-43121198D01*
X92562047Y-43509744D01*
X92480000Y-43922221D01*
X82791300Y-43922221D01*
X82791300Y-43236369D01*
X84323817Y-41703854D01*
X84352398Y-41680398D01*
X84375854Y-41651817D01*
X84375861Y-41651810D01*
X84446034Y-41566303D01*
X84515612Y-41436132D01*
X84523246Y-41410966D01*
X84558458Y-41294888D01*
X84569300Y-41184806D01*
X84569300Y-41184796D01*
X84572924Y-41148000D01*
X84569300Y-41111204D01*
X84569300Y-36410000D01*
X92872928Y-36410000D01*
X92885188Y-36534482D01*
X92921498Y-36654180D01*
X92980463Y-36764494D01*
X93059815Y-36861185D01*
X93156506Y-36940537D01*
X93266820Y-36999502D01*
X93386518Y-37035812D01*
X93511000Y-37048072D01*
X94075250Y-37045000D01*
X94234000Y-36886250D01*
X94234000Y-35687000D01*
X94488000Y-35687000D01*
X94488000Y-36886250D01*
X94646750Y-37045000D01*
X95211000Y-37048072D01*
X95335482Y-37035812D01*
X95455180Y-36999502D01*
X95565494Y-36940537D01*
X95662185Y-36861185D01*
X95741537Y-36764494D01*
X95800502Y-36654180D01*
X95836812Y-36534482D01*
X95849072Y-36410000D01*
X95846000Y-35845750D01*
X95687250Y-35687000D01*
X94488000Y-35687000D01*
X94234000Y-35687000D01*
X93034750Y-35687000D01*
X92876000Y-35845750D01*
X92872928Y-36410000D01*
X84569300Y-36410000D01*
X84569300Y-35782876D01*
X84572924Y-35746080D01*
X84569300Y-35709285D01*
X84569300Y-35709275D01*
X84560816Y-35623138D01*
X84639632Y-35570475D01*
X84846475Y-35363632D01*
X85008990Y-35120411D01*
X85120932Y-34850158D01*
X85148811Y-34710000D01*
X92872928Y-34710000D01*
X92876000Y-35274250D01*
X93034750Y-35433000D01*
X94234000Y-35433000D01*
X94234000Y-35413000D01*
X94488000Y-35413000D01*
X94488000Y-35433000D01*
X95687250Y-35433000D01*
X95846000Y-35274250D01*
X95849072Y-34710000D01*
X95836812Y-34585518D01*
X95800502Y-34465820D01*
X95741537Y-34355506D01*
X95662185Y-34258815D01*
X95565494Y-34179463D01*
X95455180Y-34120498D01*
X95382620Y-34098487D01*
X95514475Y-33966632D01*
X95676990Y-33723411D01*
X95788932Y-33453158D01*
X95846000Y-33166260D01*
X95846000Y-32873740D01*
X95788932Y-32586842D01*
X95676990Y-32316589D01*
X95514475Y-32073368D01*
X95307632Y-31866525D01*
X95133240Y-31750000D01*
X95307632Y-31633475D01*
X95514475Y-31426632D01*
X95676990Y-31183411D01*
X95788932Y-30913158D01*
X95846000Y-30626260D01*
X95846000Y-30333740D01*
X95799699Y-30100971D01*
X96388812Y-29511857D01*
X96417398Y-29488398D01*
X96460569Y-29435795D01*
X96511033Y-29374304D01*
X96511034Y-29374303D01*
X96537761Y-29324300D01*
X96844631Y-29324300D01*
X101009149Y-33488818D01*
X101031388Y-33562132D01*
X101100966Y-33692303D01*
X101194602Y-33806398D01*
X101223192Y-33829861D01*
X101327000Y-33933669D01*
X101327000Y-34010939D01*
X101366774Y-34210898D01*
X101444795Y-34399256D01*
X101558063Y-34568774D01*
X101702226Y-34712937D01*
X101871744Y-34826205D01*
X102060102Y-34904226D01*
X102260061Y-34944000D01*
X102463939Y-34944000D01*
X102663898Y-34904226D01*
X102852256Y-34826205D01*
X103021774Y-34712937D01*
X103165937Y-34568774D01*
X103279205Y-34399256D01*
X103357226Y-34210898D01*
X103397000Y-34010939D01*
X103397000Y-33807061D01*
X103357226Y-33607102D01*
X103318732Y-33514169D01*
X103406205Y-33383256D01*
X103484226Y-33194898D01*
X103524000Y-32994939D01*
X103524000Y-32791061D01*
X103484226Y-32591102D01*
X103406205Y-32402744D01*
X103292937Y-32233226D01*
X103148774Y-32089063D01*
X102979256Y-31975795D01*
X102790898Y-31897774D01*
X102590939Y-31858000D01*
X102495710Y-31858000D01*
X98082446Y-27444737D01*
X98059375Y-27416625D01*
X97947213Y-27324576D01*
X97819249Y-27256178D01*
X97680399Y-27214058D01*
X97572186Y-27203400D01*
X97572183Y-27203400D01*
X97536000Y-27199836D01*
X97499817Y-27203400D01*
X95654814Y-27203400D01*
X95514475Y-26993368D01*
X95307632Y-26786525D01*
X95064411Y-26624010D01*
X94794158Y-26512068D01*
X94507260Y-26455000D01*
X94214740Y-26455000D01*
X93927842Y-26512068D01*
X93657589Y-26624010D01*
X93414368Y-26786525D01*
X93207525Y-26993368D01*
X93045010Y-27236589D01*
X92933068Y-27506842D01*
X92876000Y-27793740D01*
X92876000Y-28086260D01*
X92933068Y-28373158D01*
X93045010Y-28643411D01*
X93207525Y-28886632D01*
X93414368Y-29093475D01*
X93588760Y-29210000D01*
X93414368Y-29326525D01*
X93207525Y-29533368D01*
X93045010Y-29776589D01*
X92933068Y-30046842D01*
X92876000Y-30333740D01*
X92876000Y-30626260D01*
X92933068Y-30913158D01*
X93045010Y-31183411D01*
X93207525Y-31426632D01*
X93414368Y-31633475D01*
X93588760Y-31750000D01*
X93414368Y-31866525D01*
X93207525Y-32073368D01*
X93045010Y-32316589D01*
X92933068Y-32586842D01*
X92876000Y-32873740D01*
X92876000Y-33166260D01*
X92933068Y-33453158D01*
X93045010Y-33723411D01*
X93207525Y-33966632D01*
X93339380Y-34098487D01*
X93266820Y-34120498D01*
X93156506Y-34179463D01*
X93059815Y-34258815D01*
X92980463Y-34355506D01*
X92921498Y-34465820D01*
X92885188Y-34585518D01*
X92872928Y-34710000D01*
X85148811Y-34710000D01*
X85178000Y-34563260D01*
X85178000Y-34270740D01*
X85120932Y-33983842D01*
X85008990Y-33713589D01*
X84846475Y-33470368D01*
X84639632Y-33263525D01*
X84465240Y-33147000D01*
X84639632Y-33030475D01*
X84846475Y-32823632D01*
X85008990Y-32580411D01*
X85120932Y-32310158D01*
X85178000Y-32023260D01*
X85178000Y-31730740D01*
X85120932Y-31443842D01*
X85008990Y-31173589D01*
X84846475Y-30930368D01*
X84639632Y-30723525D01*
X84465240Y-30607000D01*
X84639632Y-30490475D01*
X84846475Y-30283632D01*
X85008990Y-30040411D01*
X85120932Y-29770158D01*
X85178000Y-29483260D01*
X85178000Y-29190740D01*
X85120932Y-28903842D01*
X85008990Y-28633589D01*
X84846475Y-28390368D01*
X84639632Y-28183525D01*
X84429600Y-28043186D01*
X84429600Y-26706186D01*
X84433164Y-26670000D01*
X84418942Y-26525601D01*
X84376822Y-26386751D01*
X84308424Y-26258787D01*
X84216375Y-26146625D01*
X84104213Y-26054576D01*
X83976249Y-25986178D01*
X83837399Y-25944058D01*
X83729186Y-25933400D01*
X83693000Y-25929836D01*
X83656814Y-25933400D01*
X74712175Y-25933400D01*
X74675999Y-25929837D01*
X74639823Y-25933400D01*
X74639814Y-25933400D01*
X74531601Y-25944058D01*
X74392751Y-25986178D01*
X74264787Y-26054576D01*
X74152625Y-26146625D01*
X74129554Y-26174737D01*
X65417732Y-34886559D01*
X65389625Y-34909626D01*
X65366559Y-34937732D01*
X65366558Y-34937733D01*
X65349812Y-34958138D01*
X65297576Y-35021788D01*
X65229178Y-35149752D01*
X65187058Y-35288602D01*
X65176925Y-35391482D01*
X65172836Y-35433000D01*
X65176400Y-35469183D01*
X65176401Y-40039888D01*
X65109063Y-40107226D01*
X64995795Y-40276744D01*
X64917774Y-40465102D01*
X64878000Y-40665061D01*
X59397500Y-40665061D01*
X59397500Y-29439890D01*
X66630524Y-29439890D01*
X66675175Y-29587099D01*
X66800359Y-29849920D01*
X66974412Y-30083269D01*
X67190645Y-30278178D01*
X67440748Y-30427157D01*
X67715109Y-30524481D01*
X67945000Y-30403814D01*
X67945000Y-29210000D01*
X68199000Y-29210000D01*
X68199000Y-30403814D01*
X68428891Y-30524481D01*
X68703252Y-30427157D01*
X68953355Y-30278178D01*
X69169588Y-30083269D01*
X69343641Y-29849920D01*
X69468825Y-29587099D01*
X69513476Y-29439890D01*
X69392155Y-29210000D01*
X68199000Y-29210000D01*
X67945000Y-29210000D01*
X66751845Y-29210000D01*
X66630524Y-29439890D01*
X59397500Y-29439890D01*
X59397500Y-21463528D01*
X59448502Y-20943366D01*
X59579293Y-20510166D01*
X59579293Y-20849173D01*
X59653105Y-21220249D01*
X59797892Y-21569796D01*
X60008090Y-21884379D01*
X60275621Y-22151910D01*
X60590204Y-22362108D01*
X60939751Y-22506895D01*
X61310827Y-22580707D01*
X61689173Y-22580707D01*
X62060249Y-22506895D01*
X62409796Y-22362108D01*
X62483291Y-22313000D01*
X66583928Y-22313000D01*
X66596188Y-22437482D01*
X66632498Y-22557180D01*
X66691463Y-22667494D01*
X66770815Y-22764185D01*
X66867506Y-22843537D01*
X66977820Y-22902502D01*
X67050380Y-22924513D01*
X66918525Y-23056368D01*
X66756010Y-23299589D01*
X66644068Y-23569842D01*
X66587000Y-23856740D01*
X66587000Y-24149260D01*
X66644068Y-24436158D01*
X66756010Y-24706411D01*
X66918525Y-24949632D01*
X67125368Y-25156475D01*
X67299760Y-25273000D01*
X67125368Y-25389525D01*
X66918525Y-25596368D01*
X66756010Y-25839589D01*
X66644068Y-26109842D01*
X66587000Y-26396740D01*
X66587000Y-26689260D01*
X66644068Y-26976158D01*
X66756010Y-27246411D01*
X66918525Y-27489632D01*
X67125368Y-27696475D01*
X67307534Y-27818195D01*
X67190645Y-27887822D01*
X66974412Y-28082731D01*
X66800359Y-28316080D01*
X66675175Y-28578901D01*
X66630524Y-28726110D01*
X66751845Y-28956000D01*
X67945000Y-28956000D01*
X67945000Y-28936000D01*
X68199000Y-28936000D01*
X68199000Y-28956000D01*
X69392155Y-28956000D01*
X69513476Y-28726110D01*
X69468825Y-28578901D01*
X69343641Y-28316080D01*
X69169588Y-28082731D01*
X68953355Y-27887822D01*
X68836466Y-27818195D01*
X69018632Y-27696475D01*
X69225475Y-27489632D01*
X69387990Y-27246411D01*
X69499932Y-26976158D01*
X69557000Y-26689260D01*
X69557000Y-26396740D01*
X69499932Y-26109842D01*
X69387990Y-25839589D01*
X69225475Y-25596368D01*
X69018632Y-25389525D01*
X68844240Y-25273000D01*
X69018632Y-25156475D01*
X69225475Y-24949632D01*
X69387990Y-24706411D01*
X69499932Y-24436158D01*
X69557000Y-24149260D01*
X69557000Y-23856740D01*
X69499932Y-23569842D01*
X69387990Y-23299589D01*
X69225475Y-23056368D01*
X69093620Y-22924513D01*
X69166180Y-22902502D01*
X69276494Y-22843537D01*
X69373185Y-22764185D01*
X69452537Y-22667494D01*
X69511502Y-22557180D01*
X69547812Y-22437482D01*
X69560072Y-22313000D01*
X69557000Y-21748750D01*
X69398250Y-21590000D01*
X68199000Y-21590000D01*
X68199000Y-21610000D01*
X67945000Y-21610000D01*
X67945000Y-21590000D01*
X66745750Y-21590000D01*
X66587000Y-21748750D01*
X66583928Y-22313000D01*
X62483291Y-22313000D01*
X62724379Y-22151910D01*
X62991910Y-21884379D01*
X63202108Y-21569796D01*
X63346895Y-21220249D01*
X63420707Y-20849173D01*
X63420707Y-20613000D01*
X66583928Y-20613000D01*
X66587000Y-21177250D01*
X66745750Y-21336000D01*
X67945000Y-21336000D01*
X67945000Y-20136750D01*
X68199000Y-20136750D01*
X68199000Y-21336000D01*
X69398250Y-21336000D01*
X69557000Y-21177250D01*
X69560072Y-20613000D01*
X69547812Y-20488518D01*
X69511502Y-20368820D01*
X69452537Y-20258506D01*
X69373185Y-20161815D01*
X69276494Y-20082463D01*
X69166180Y-20023498D01*
X69046482Y-19987188D01*
X68922000Y-19974928D01*
X68357750Y-19978000D01*
X68199000Y-20136750D01*
X67945000Y-20136750D01*
X67786250Y-19978000D01*
X67222000Y-19974928D01*
X67097518Y-19987188D01*
X66977820Y-20023498D01*
X66867506Y-20082463D01*
X66770815Y-20161815D01*
X66691463Y-20258506D01*
X66632498Y-20368820D01*
X66596188Y-20488518D01*
X66583928Y-20613000D01*
X63420707Y-20613000D01*
X63420707Y-20470827D01*
X63346895Y-20099751D01*
X63202108Y-19750204D01*
X63145177Y-19665000D01*
X77697143Y-19665000D01*
X77697143Y-25185000D01*
X93752857Y-25185000D01*
X93752857Y-22771832D01*
X93800822Y-22852355D01*
X93995731Y-23068588D01*
X94229080Y-23242641D01*
X94491901Y-23367825D01*
X94639110Y-23412476D01*
X94869000Y-23291155D01*
X94869000Y-22098000D01*
X94849000Y-22098000D01*
X94849000Y-21844000D01*
X94869000Y-21844000D01*
X94869000Y-20650845D01*
X94639110Y-20529524D01*
X94491901Y-20574175D01*
X94229080Y-20699359D01*
X93995731Y-20873412D01*
X93800822Y-21089645D01*
X93752857Y-21170168D01*
X93752857Y-19665000D01*
X77697143Y-19665000D01*
X63145177Y-19665000D01*
X62991910Y-19435621D01*
X62724379Y-19168090D01*
X62409796Y-18957892D01*
X62309263Y-18916250D01*
X107768232Y-18916250D01*
X107821310Y-19202269D01*
X107929639Y-19473618D01*
X108088824Y-19718619D01*
X108292748Y-19927857D01*
X108533574Y-20093291D01*
X108802047Y-20208563D01*
X108896110Y-20229476D01*
X109126000Y-20108155D01*
X109126000Y-18415000D01*
X109380000Y-18415000D01*
X109380000Y-20108155D01*
X109609890Y-20229476D01*
X109703953Y-20208563D01*
X109972426Y-20093291D01*
X110213252Y-19927857D01*
X110417176Y-19718619D01*
X110576361Y-19473618D01*
X110684690Y-19202269D01*
X110738000Y-18915000D01*
X110738000Y-18415000D01*
X115068000Y-18415000D01*
X115068000Y-18915000D01*
X115121310Y-19202269D01*
X115229639Y-19473618D01*
X115388824Y-19718619D01*
X115592748Y-19927857D01*
X115833574Y-20093291D01*
X116102047Y-20208563D01*
X116196110Y-20229476D01*
X116426000Y-20108155D01*
X116426000Y-18415000D01*
X115068000Y-18415000D01*
X110738000Y-18415000D01*
X109380000Y-18415000D01*
X109126000Y-18415000D01*
X109106000Y-18415000D01*
X109106000Y-18161000D01*
X109126000Y-18161000D01*
X109126000Y-18141000D01*
X109380000Y-18141000D01*
X109380000Y-18161000D01*
X110738000Y-18161000D01*
X110738000Y-17661000D01*
X110684690Y-17373731D01*
X110663262Y-17320056D01*
X115148477Y-17305681D01*
X115121310Y-17373731D01*
G36*
X119262075Y-41529000D02*
G01*
X119265700Y-41565806D01*
X119265701Y-44413185D01*
X119265700Y-44413195D01*
X119265701Y-58744629D01*
X119196631Y-58813700D01*
X110985300Y-58813700D01*
X110985300Y-58626411D01*
X111039937Y-58571774D01*
X111153205Y-58402256D01*
X111231226Y-58213898D01*
X111271000Y-58013939D01*
X111271000Y-57810061D01*
X111231226Y-57610102D01*
X111153205Y-57421744D01*
X111039937Y-57252226D01*
X110895774Y-57108063D01*
X110726256Y-56994795D01*
X110537898Y-56916774D01*
X110337939Y-56877000D01*
X110134061Y-56877000D01*
X109934102Y-56916774D01*
X109745744Y-56994795D01*
X109576226Y-57108063D01*
X109432063Y-57252226D01*
X109318795Y-57421744D01*
X109240774Y-57610102D01*
X109201000Y-57810061D01*
X109201000Y-58013939D01*
X109240774Y-58213898D01*
X109318795Y-58402256D01*
X109432063Y-58571774D01*
X109486701Y-58626412D01*
X109486700Y-59526194D01*
X109483075Y-59563000D01*
X109484326Y-59575700D01*
X91573611Y-59575700D01*
X91741898Y-59542226D01*
X91930256Y-59464205D01*
X92099774Y-59350937D01*
X92154411Y-59296300D01*
X100801205Y-59296300D01*
X100838000Y-59299924D01*
X100874795Y-59296300D01*
X100874806Y-59296300D01*
X100984888Y-59285458D01*
X101126132Y-59242612D01*
X101256303Y-59173034D01*
X101370398Y-59079398D01*
X101393863Y-59050806D01*
X102230811Y-58213859D01*
X102259398Y-58190398D01*
X102298742Y-58142458D01*
X102353034Y-58076304D01*
X102422612Y-57946132D01*
X102440481Y-57887226D01*
X102465458Y-57804888D01*
X102476300Y-57694806D01*
X102476300Y-57694796D01*
X102479924Y-57658000D01*
X102476300Y-57621204D01*
X102476300Y-49063778D01*
X104535000Y-49063778D01*
X104535000Y-49361222D01*
X104593029Y-49652951D01*
X104706856Y-49927753D01*
X104872107Y-50175069D01*
X105082431Y-50385393D01*
X105329747Y-50550644D01*
X105604549Y-50664471D01*
X105896278Y-50722500D01*
X106193722Y-50722500D01*
X106485451Y-50664471D01*
X106760253Y-50550644D01*
X107007569Y-50385393D01*
X107217893Y-50175069D01*
X107383144Y-49927753D01*
X107496971Y-49652951D01*
X107555000Y-49361222D01*
X107555000Y-49063778D01*
X107504023Y-48807500D01*
X107525279Y-48807500D01*
X107937756Y-48725453D01*
X108326302Y-48564512D01*
X108632708Y-48359779D01*
X108597127Y-48445678D01*
X108496100Y-48953576D01*
X108496100Y-49471424D01*
X108597127Y-49979322D01*
X108795299Y-50457751D01*
X109083000Y-50888326D01*
X109449174Y-51254500D01*
X109879749Y-51542201D01*
X110358178Y-51740373D01*
X110866076Y-51841400D01*
X111383924Y-51841400D01*
X111891822Y-51740373D01*
X112370251Y-51542201D01*
X112800826Y-51254500D01*
X113167000Y-50888326D01*
X113454701Y-50457751D01*
X113652873Y-49979322D01*
X113753900Y-49471424D01*
X113753900Y-49063778D01*
X114695000Y-49063778D01*
X114695000Y-49361222D01*
X114753029Y-49652951D01*
X114866856Y-49927753D01*
X115032107Y-50175069D01*
X115242431Y-50385393D01*
X115489747Y-50550644D01*
X115764549Y-50664471D01*
X116056278Y-50722500D01*
X116353722Y-50722500D01*
X116645451Y-50664471D01*
X116920253Y-50550644D01*
X117167569Y-50385393D01*
X117377893Y-50175069D01*
X117543144Y-49927753D01*
X117656971Y-49652951D01*
X117715000Y-49361222D01*
X117715000Y-49063778D01*
X117656971Y-48772049D01*
X117543144Y-48497247D01*
X117377893Y-48249931D01*
X117167569Y-48039607D01*
X116920253Y-47874356D01*
X116645451Y-47760529D01*
X116353722Y-47702500D01*
X116056278Y-47702500D01*
X115764549Y-47760529D01*
X115489747Y-47874356D01*
X115242431Y-48039607D01*
X115032107Y-48249931D01*
X114866856Y-48497247D01*
X114753029Y-48772049D01*
X114695000Y-49063778D01*
X113753900Y-49063778D01*
X113753900Y-48953576D01*
X113652873Y-48445678D01*
X113454701Y-47967249D01*
X113167000Y-47536674D01*
X112800826Y-47170500D01*
X112370251Y-46882799D01*
X111891822Y-46684627D01*
X111383924Y-46583600D01*
X110866076Y-46583600D01*
X110358178Y-46684627D01*
X109879749Y-46882799D01*
X109449174Y-47170500D01*
X109378763Y-47240911D01*
X109450000Y-46882779D01*
X109450000Y-46462221D01*
X109367953Y-46049744D01*
X109207012Y-45661198D01*
X108973363Y-45311517D01*
X108675983Y-45014137D01*
X108326302Y-44780488D01*
X107937756Y-44619547D01*
X107525279Y-44537500D01*
X107104721Y-44537500D01*
X106692244Y-44619547D01*
X106303698Y-44780488D01*
X105954017Y-45014137D01*
X105656637Y-45311517D01*
X105422988Y-45661198D01*
X105262047Y-46049744D01*
X105180000Y-46462221D01*
X105180000Y-46882779D01*
X105262047Y-47295256D01*
X105422988Y-47683802D01*
X105502499Y-47802799D01*
X105329747Y-47874356D01*
X105082431Y-48039607D01*
X104872107Y-48249931D01*
X104706856Y-48497247D01*
X104593029Y-48772049D01*
X104535000Y-49063778D01*
X102476300Y-49063778D01*
X102476300Y-43922221D01*
X111530000Y-43922221D01*
X111530000Y-44342779D01*
X111612047Y-44755256D01*
X111772988Y-45143802D01*
X112006637Y-45493483D01*
X112304017Y-45790863D01*
X112653698Y-46024512D01*
X113042244Y-46185453D01*
X113454721Y-46267500D01*
X113875279Y-46267500D01*
X114287756Y-46185453D01*
X114676302Y-46024512D01*
X115025983Y-45790863D01*
X115323363Y-45493483D01*
X115557012Y-45143802D01*
X115717953Y-44755256D01*
X115800000Y-44342779D01*
X115800000Y-43922221D01*
X115717953Y-43509744D01*
X115557012Y-43121198D01*
X115323363Y-42771517D01*
X115025983Y-42474137D01*
X114676302Y-42240488D01*
X114287756Y-42079547D01*
X113875279Y-41997500D01*
X113454721Y-41997500D01*
X113042244Y-42079547D01*
X112653698Y-42240488D01*
X112304017Y-42474137D01*
X112006637Y-42771517D01*
X111772988Y-43121198D01*
X111612047Y-43509744D01*
X111530000Y-43922221D01*
X102476300Y-43922221D01*
X102476300Y-41516300D01*
X119263326Y-41516300D01*
X119262075Y-41529000D01*
G37*
X119262075Y-41529000D02*
X119265700Y-41565806D01*
X119265701Y-44413185D01*
X119265700Y-44413195D01*
X119265701Y-58744629D01*
X119196631Y-58813700D01*
X110985300Y-58813700D01*
X110985300Y-58626411D01*
X111039937Y-58571774D01*
X111153205Y-58402256D01*
X111231226Y-58213898D01*
X111271000Y-58013939D01*
X111271000Y-57810061D01*
X111231226Y-57610102D01*
X111153205Y-57421744D01*
X111039937Y-57252226D01*
X110895774Y-57108063D01*
X110726256Y-56994795D01*
X110537898Y-56916774D01*
X110337939Y-56877000D01*
X110134061Y-56877000D01*
X109934102Y-56916774D01*
X109745744Y-56994795D01*
X109576226Y-57108063D01*
X109432063Y-57252226D01*
X109318795Y-57421744D01*
X109240774Y-57610102D01*
X109201000Y-57810061D01*
X109201000Y-58013939D01*
X109240774Y-58213898D01*
X109318795Y-58402256D01*
X109432063Y-58571774D01*
X109486701Y-58626412D01*
X109486700Y-59526194D01*
X109483075Y-59563000D01*
X109484326Y-59575700D01*
X91573611Y-59575700D01*
X91741898Y-59542226D01*
X91930256Y-59464205D01*
X92099774Y-59350937D01*
X92154411Y-59296300D01*
X100801205Y-59296300D01*
X100838000Y-59299924D01*
X100874795Y-59296300D01*
X100874806Y-59296300D01*
X100984888Y-59285458D01*
X101126132Y-59242612D01*
X101256303Y-59173034D01*
X101370398Y-59079398D01*
X101393863Y-59050806D01*
X102230811Y-58213859D01*
X102259398Y-58190398D01*
X102298742Y-58142458D01*
X102353034Y-58076304D01*
X102422612Y-57946132D01*
X102440481Y-57887226D01*
X102465458Y-57804888D01*
X102476300Y-57694806D01*
X102476300Y-57694796D01*
X102479924Y-57658000D01*
X102476300Y-57621204D01*
X102476300Y-49063778D01*
X104535000Y-49063778D01*
X104535000Y-49361222D01*
X104593029Y-49652951D01*
X104706856Y-49927753D01*
X104872107Y-50175069D01*
X105082431Y-50385393D01*
X105329747Y-50550644D01*
X105604549Y-50664471D01*
X105896278Y-50722500D01*
X106193722Y-50722500D01*
X106485451Y-50664471D01*
X106760253Y-50550644D01*
X107007569Y-50385393D01*
X107217893Y-50175069D01*
X107383144Y-49927753D01*
X107496971Y-49652951D01*
X107555000Y-49361222D01*
X107555000Y-49063778D01*
X107504023Y-48807500D01*
X107525279Y-48807500D01*
X107937756Y-48725453D01*
X108326302Y-48564512D01*
X108632708Y-48359779D01*
X108597127Y-48445678D01*
X108496100Y-48953576D01*
X108496100Y-49471424D01*
X108597127Y-49979322D01*
X108795299Y-50457751D01*
X109083000Y-50888326D01*
X109449174Y-51254500D01*
X109879749Y-51542201D01*
X110358178Y-51740373D01*
X110866076Y-51841400D01*
X111383924Y-51841400D01*
X111891822Y-51740373D01*
X112370251Y-51542201D01*
X112800826Y-51254500D01*
X113167000Y-50888326D01*
X113454701Y-50457751D01*
X113652873Y-49979322D01*
X113753900Y-49471424D01*
X113753900Y-49063778D01*
X114695000Y-49063778D01*
X114695000Y-49361222D01*
X114753029Y-49652951D01*
X114866856Y-49927753D01*
X115032107Y-50175069D01*
X115242431Y-50385393D01*
X115489747Y-50550644D01*
X115764549Y-50664471D01*
X116056278Y-50722500D01*
X116353722Y-50722500D01*
X116645451Y-50664471D01*
X116920253Y-50550644D01*
X117167569Y-50385393D01*
X117377893Y-50175069D01*
X117543144Y-49927753D01*
X117656971Y-49652951D01*
X117715000Y-49361222D01*
X117715000Y-49063778D01*
X117656971Y-48772049D01*
X117543144Y-48497247D01*
X117377893Y-48249931D01*
X117167569Y-48039607D01*
X116920253Y-47874356D01*
X116645451Y-47760529D01*
X116353722Y-47702500D01*
X116056278Y-47702500D01*
X115764549Y-47760529D01*
X115489747Y-47874356D01*
X115242431Y-48039607D01*
X115032107Y-48249931D01*
X114866856Y-48497247D01*
X114753029Y-48772049D01*
X114695000Y-49063778D01*
X113753900Y-49063778D01*
X113753900Y-48953576D01*
X113652873Y-48445678D01*
X113454701Y-47967249D01*
X113167000Y-47536674D01*
X112800826Y-47170500D01*
X112370251Y-46882799D01*
X111891822Y-46684627D01*
X111383924Y-46583600D01*
X110866076Y-46583600D01*
X110358178Y-46684627D01*
X109879749Y-46882799D01*
X109449174Y-47170500D01*
X109378763Y-47240911D01*
X109450000Y-46882779D01*
X109450000Y-46462221D01*
X109367953Y-46049744D01*
X109207012Y-45661198D01*
X108973363Y-45311517D01*
X108675983Y-45014137D01*
X108326302Y-44780488D01*
X107937756Y-44619547D01*
X107525279Y-44537500D01*
X107104721Y-44537500D01*
X106692244Y-44619547D01*
X106303698Y-44780488D01*
X105954017Y-45014137D01*
X105656637Y-45311517D01*
X105422988Y-45661198D01*
X105262047Y-46049744D01*
X105180000Y-46462221D01*
X105180000Y-46882779D01*
X105262047Y-47295256D01*
X105422988Y-47683802D01*
X105502499Y-47802799D01*
X105329747Y-47874356D01*
X105082431Y-48039607D01*
X104872107Y-48249931D01*
X104706856Y-48497247D01*
X104593029Y-48772049D01*
X104535000Y-49063778D01*
X102476300Y-49063778D01*
X102476300Y-43922221D01*
X111530000Y-43922221D01*
X111530000Y-44342779D01*
X111612047Y-44755256D01*
X111772988Y-45143802D01*
X112006637Y-45493483D01*
X112304017Y-45790863D01*
X112653698Y-46024512D01*
X113042244Y-46185453D01*
X113454721Y-46267500D01*
X113875279Y-46267500D01*
X114287756Y-46185453D01*
X114676302Y-46024512D01*
X115025983Y-45790863D01*
X115323363Y-45493483D01*
X115557012Y-45143802D01*
X115717953Y-44755256D01*
X115800000Y-44342779D01*
X115800000Y-43922221D01*
X115717953Y-43509744D01*
X115557012Y-43121198D01*
X115323363Y-42771517D01*
X115025983Y-42474137D01*
X114676302Y-42240488D01*
X114287756Y-42079547D01*
X113875279Y-41997500D01*
X113454721Y-41997500D01*
X113042244Y-42079547D01*
X112653698Y-42240488D01*
X112304017Y-42474137D01*
X112006637Y-42771517D01*
X111772988Y-43121198D01*
X111612047Y-43509744D01*
X111530000Y-43922221D01*
X102476300Y-43922221D01*
X102476300Y-41516300D01*
X119263326Y-41516300D01*
X119262075Y-41529000D01*
M02*
