G04 #@! TF.GenerationSoftware,KiCad,Pcbnew,(5.1.5)-3*
G04 #@! TF.CreationDate,2020-04-08T16:54:26+08:00*
G04 #@! TF.ProjectId,KaChi-Juu Macropad,4b614368-692d-44a7-9575-204d6163726f,rev?*
G04 #@! TF.SameCoordinates,Original*
G04 #@! TF.FileFunction,Legend,Top*
G04 #@! TF.FilePolarity,Positive*
%FSLAX46Y46*%
G04 Gerber Fmt 4.6, Leading zero omitted, Abs format (unit mm)*
G04 Created by KiCad (PCBNEW (5.1.5)-3) date 2020-04-08 16:54:26*
%MOMM*%
%LPD*%
G04 APERTURE LIST*
%ADD10C,0.120000*%
%ADD11C,0.150000*%
G04 APERTURE END LIST*
D10*
X103946000Y-20641000D02*
X103946000Y-21971000D01*
X102616000Y-20641000D02*
X103946000Y-20641000D01*
X101346000Y-20641000D02*
X101346000Y-23301000D01*
X101346000Y-23301000D02*
X93666000Y-23301000D01*
X101346000Y-20641000D02*
X93666000Y-20641000D01*
X93666000Y-20641000D02*
X93666000Y-23301000D01*
X66742000Y-20133000D02*
X68072000Y-20133000D01*
X66742000Y-21463000D02*
X66742000Y-20133000D01*
X66742000Y-22733000D02*
X69402000Y-22733000D01*
X69402000Y-22733000D02*
X69402000Y-30413000D01*
X66742000Y-22733000D02*
X66742000Y-30413000D01*
X66742000Y-30413000D02*
X69402000Y-30413000D01*
X95691000Y-36890000D02*
X94361000Y-36890000D01*
X95691000Y-35560000D02*
X95691000Y-36890000D01*
X95691000Y-34290000D02*
X93031000Y-34290000D01*
X93031000Y-34290000D02*
X93031000Y-26610000D01*
X95691000Y-34290000D02*
X95691000Y-26610000D01*
X95691000Y-26610000D02*
X93031000Y-26610000D01*
X81153000Y-35747000D02*
X79823000Y-35747000D01*
X79823000Y-35747000D02*
X79823000Y-34417000D01*
X82423000Y-35747000D02*
X82423000Y-33147000D01*
X82423000Y-33147000D02*
X79823000Y-33147000D01*
X79823000Y-33147000D02*
X79823000Y-28007000D01*
X85023000Y-28007000D02*
X79823000Y-28007000D01*
X85023000Y-35747000D02*
X85023000Y-28007000D01*
X85023000Y-35747000D02*
X82423000Y-35747000D01*
D11*
X104398380Y-22304333D02*
X105112666Y-22304333D01*
X105255523Y-22351952D01*
X105350761Y-22447190D01*
X105398380Y-22590047D01*
X105398380Y-22685285D01*
X104731714Y-21399571D02*
X105398380Y-21399571D01*
X104350761Y-21637666D02*
X105065047Y-21875761D01*
X105065047Y-21256714D01*
X67738666Y-18585380D02*
X67738666Y-19299666D01*
X67691047Y-19442523D01*
X67595809Y-19537761D01*
X67452952Y-19585380D01*
X67357714Y-19585380D01*
X68119619Y-18585380D02*
X68738666Y-18585380D01*
X68405333Y-18966333D01*
X68548190Y-18966333D01*
X68643428Y-19013952D01*
X68691047Y-19061571D01*
X68738666Y-19156809D01*
X68738666Y-19394904D01*
X68691047Y-19490142D01*
X68643428Y-19537761D01*
X68548190Y-19585380D01*
X68262476Y-19585380D01*
X68167238Y-19537761D01*
X68119619Y-19490142D01*
X94027666Y-37342380D02*
X94027666Y-38056666D01*
X93980047Y-38199523D01*
X93884809Y-38294761D01*
X93741952Y-38342380D01*
X93646714Y-38342380D01*
X94456238Y-37437619D02*
X94503857Y-37390000D01*
X94599095Y-37342380D01*
X94837190Y-37342380D01*
X94932428Y-37390000D01*
X94980047Y-37437619D01*
X95027666Y-37532857D01*
X95027666Y-37628095D01*
X94980047Y-37770952D01*
X94408619Y-38342380D01*
X95027666Y-38342380D01*
X82089666Y-36639380D02*
X82089666Y-37353666D01*
X82042047Y-37496523D01*
X81946809Y-37591761D01*
X81803952Y-37639380D01*
X81708714Y-37639380D01*
X83089666Y-37639380D02*
X82518238Y-37639380D01*
X82803952Y-37639380D02*
X82803952Y-36639380D01*
X82708714Y-36782238D01*
X82613476Y-36877476D01*
X82518238Y-36925095D01*
M02*
