G04 #@! TF.GenerationSoftware,KiCad,Pcbnew,(5.1.5)-3*
G04 #@! TF.CreationDate,2020-04-08T16:54:26+08:00*
G04 #@! TF.ProjectId,KaChi-Juu Macropad,4b614368-692d-44a7-9575-204d6163726f,rev?*
G04 #@! TF.SameCoordinates,Original*
G04 #@! TF.FileFunction,Soldermask,Bot*
G04 #@! TF.FilePolarity,Negative*
%FSLAX46Y46*%
G04 Gerber Fmt 4.6, Leading zero omitted, Abs format (unit mm)*
G04 Created by KiCad (PCBNEW (5.1.5)-3) date 2020-04-08 16:54:26*
%MOMM*%
%LPD*%
G04 APERTURE LIST*
%ADD10C,0.100000*%
G04 APERTURE END LIST*
D10*
G36*
X71876000Y-75263500D02*
G01*
X70874000Y-75263500D01*
X70874000Y-73961500D01*
X71876000Y-73961500D01*
X71876000Y-75263500D01*
G37*
G36*
X75176000Y-75263500D02*
G01*
X74174000Y-75263500D01*
X74174000Y-73961500D01*
X75176000Y-73961500D01*
X75176000Y-75263500D01*
G37*
G36*
X90926000Y-75263500D02*
G01*
X89924000Y-75263500D01*
X89924000Y-73961500D01*
X90926000Y-73961500D01*
X90926000Y-75263500D01*
G37*
G36*
X94226000Y-75263500D02*
G01*
X93224000Y-75263500D01*
X93224000Y-73961500D01*
X94226000Y-73961500D01*
X94226000Y-75263500D01*
G37*
G36*
X109976000Y-75263500D02*
G01*
X108974000Y-75263500D01*
X108974000Y-73961500D01*
X109976000Y-73961500D01*
X109976000Y-75263500D01*
G37*
G36*
X113276000Y-75263500D02*
G01*
X112274000Y-75263500D01*
X112274000Y-73961500D01*
X113276000Y-73961500D01*
X113276000Y-75263500D01*
G37*
G36*
X129026000Y-75263500D02*
G01*
X128024000Y-75263500D01*
X128024000Y-73961500D01*
X129026000Y-73961500D01*
X129026000Y-75263500D01*
G37*
G36*
X132326000Y-75263500D02*
G01*
X131324000Y-75263500D01*
X131324000Y-73961500D01*
X132326000Y-73961500D01*
X132326000Y-75263500D01*
G37*
G36*
X151376000Y-75263500D02*
G01*
X150374000Y-75263500D01*
X150374000Y-73961500D01*
X151376000Y-73961500D01*
X151376000Y-75263500D01*
G37*
G36*
X148076000Y-75263500D02*
G01*
X147074000Y-75263500D01*
X147074000Y-73961500D01*
X148076000Y-73961500D01*
X148076000Y-75263500D01*
G37*
G36*
X130771474Y-66296184D02*
G01*
X130989474Y-66386483D01*
X131143623Y-66450333D01*
X131478548Y-66674123D01*
X131763377Y-66958952D01*
X131987167Y-67293877D01*
X132019562Y-67372086D01*
X132141316Y-67666026D01*
X132219900Y-68061094D01*
X132219900Y-68463906D01*
X132141316Y-68858974D01*
X132090451Y-68981772D01*
X131987167Y-69231123D01*
X131763377Y-69566048D01*
X131478548Y-69850877D01*
X131143623Y-70074667D01*
X130989474Y-70138517D01*
X130771474Y-70228816D01*
X130376406Y-70307400D01*
X129973594Y-70307400D01*
X129578526Y-70228816D01*
X129360526Y-70138517D01*
X129206377Y-70074667D01*
X128871452Y-69850877D01*
X128586623Y-69566048D01*
X128362833Y-69231123D01*
X128259549Y-68981772D01*
X128208684Y-68858974D01*
X128130100Y-68463906D01*
X128130100Y-68061094D01*
X128208684Y-67666026D01*
X128330438Y-67372086D01*
X128362833Y-67293877D01*
X128586623Y-66958952D01*
X128871452Y-66674123D01*
X129206377Y-66450333D01*
X129360526Y-66386483D01*
X129578526Y-66296184D01*
X129973594Y-66217600D01*
X130376406Y-66217600D01*
X130771474Y-66296184D01*
G37*
G36*
X149821474Y-66296184D02*
G01*
X150039474Y-66386483D01*
X150193623Y-66450333D01*
X150528548Y-66674123D01*
X150813377Y-66958952D01*
X151037167Y-67293877D01*
X151069562Y-67372086D01*
X151191316Y-67666026D01*
X151269900Y-68061094D01*
X151269900Y-68463906D01*
X151191316Y-68858974D01*
X151140451Y-68981772D01*
X151037167Y-69231123D01*
X150813377Y-69566048D01*
X150528548Y-69850877D01*
X150193623Y-70074667D01*
X150039474Y-70138517D01*
X149821474Y-70228816D01*
X149426406Y-70307400D01*
X149023594Y-70307400D01*
X148628526Y-70228816D01*
X148410526Y-70138517D01*
X148256377Y-70074667D01*
X147921452Y-69850877D01*
X147636623Y-69566048D01*
X147412833Y-69231123D01*
X147309549Y-68981772D01*
X147258684Y-68858974D01*
X147180100Y-68463906D01*
X147180100Y-68061094D01*
X147258684Y-67666026D01*
X147380438Y-67372086D01*
X147412833Y-67293877D01*
X147636623Y-66958952D01*
X147921452Y-66674123D01*
X148256377Y-66450333D01*
X148410526Y-66386483D01*
X148628526Y-66296184D01*
X149023594Y-66217600D01*
X149426406Y-66217600D01*
X149821474Y-66296184D01*
G37*
G36*
X73621474Y-66296184D02*
G01*
X73839474Y-66386483D01*
X73993623Y-66450333D01*
X74328548Y-66674123D01*
X74613377Y-66958952D01*
X74837167Y-67293877D01*
X74869562Y-67372086D01*
X74991316Y-67666026D01*
X75069900Y-68061094D01*
X75069900Y-68463906D01*
X74991316Y-68858974D01*
X74940451Y-68981772D01*
X74837167Y-69231123D01*
X74613377Y-69566048D01*
X74328548Y-69850877D01*
X73993623Y-70074667D01*
X73839474Y-70138517D01*
X73621474Y-70228816D01*
X73226406Y-70307400D01*
X72823594Y-70307400D01*
X72428526Y-70228816D01*
X72210526Y-70138517D01*
X72056377Y-70074667D01*
X71721452Y-69850877D01*
X71436623Y-69566048D01*
X71212833Y-69231123D01*
X71109549Y-68981772D01*
X71058684Y-68858974D01*
X70980100Y-68463906D01*
X70980100Y-68061094D01*
X71058684Y-67666026D01*
X71180438Y-67372086D01*
X71212833Y-67293877D01*
X71436623Y-66958952D01*
X71721452Y-66674123D01*
X72056377Y-66450333D01*
X72210526Y-66386483D01*
X72428526Y-66296184D01*
X72823594Y-66217600D01*
X73226406Y-66217600D01*
X73621474Y-66296184D01*
G37*
G36*
X92671474Y-66296184D02*
G01*
X92889474Y-66386483D01*
X93043623Y-66450333D01*
X93378548Y-66674123D01*
X93663377Y-66958952D01*
X93887167Y-67293877D01*
X93919562Y-67372086D01*
X94041316Y-67666026D01*
X94119900Y-68061094D01*
X94119900Y-68463906D01*
X94041316Y-68858974D01*
X93990451Y-68981772D01*
X93887167Y-69231123D01*
X93663377Y-69566048D01*
X93378548Y-69850877D01*
X93043623Y-70074667D01*
X92889474Y-70138517D01*
X92671474Y-70228816D01*
X92276406Y-70307400D01*
X91873594Y-70307400D01*
X91478526Y-70228816D01*
X91260526Y-70138517D01*
X91106377Y-70074667D01*
X90771452Y-69850877D01*
X90486623Y-69566048D01*
X90262833Y-69231123D01*
X90159549Y-68981772D01*
X90108684Y-68858974D01*
X90030100Y-68463906D01*
X90030100Y-68061094D01*
X90108684Y-67666026D01*
X90230438Y-67372086D01*
X90262833Y-67293877D01*
X90486623Y-66958952D01*
X90771452Y-66674123D01*
X91106377Y-66450333D01*
X91260526Y-66386483D01*
X91478526Y-66296184D01*
X91873594Y-66217600D01*
X92276406Y-66217600D01*
X92671474Y-66296184D01*
G37*
G36*
X111721474Y-66296184D02*
G01*
X111939474Y-66386483D01*
X112093623Y-66450333D01*
X112428548Y-66674123D01*
X112713377Y-66958952D01*
X112937167Y-67293877D01*
X112969562Y-67372086D01*
X113091316Y-67666026D01*
X113169900Y-68061094D01*
X113169900Y-68463906D01*
X113091316Y-68858974D01*
X113040451Y-68981772D01*
X112937167Y-69231123D01*
X112713377Y-69566048D01*
X112428548Y-69850877D01*
X112093623Y-70074667D01*
X111939474Y-70138517D01*
X111721474Y-70228816D01*
X111326406Y-70307400D01*
X110923594Y-70307400D01*
X110528526Y-70228816D01*
X110310526Y-70138517D01*
X110156377Y-70074667D01*
X109821452Y-69850877D01*
X109536623Y-69566048D01*
X109312833Y-69231123D01*
X109209549Y-68981772D01*
X109158684Y-68858974D01*
X109080100Y-68463906D01*
X109080100Y-68061094D01*
X109158684Y-67666026D01*
X109280438Y-67372086D01*
X109312833Y-67293877D01*
X109536623Y-66958952D01*
X109821452Y-66674123D01*
X110156377Y-66450333D01*
X110310526Y-66386483D01*
X110528526Y-66296184D01*
X110923594Y-66217600D01*
X111326406Y-66217600D01*
X111721474Y-66296184D01*
G37*
G36*
X68215104Y-67372085D02*
G01*
X68383626Y-67441889D01*
X68535291Y-67543228D01*
X68664272Y-67672209D01*
X68765611Y-67823874D01*
X68835415Y-67992396D01*
X68871000Y-68171297D01*
X68871000Y-68353703D01*
X68835415Y-68532604D01*
X68765611Y-68701126D01*
X68664272Y-68852791D01*
X68535291Y-68981772D01*
X68383626Y-69083111D01*
X68215104Y-69152915D01*
X68036203Y-69188500D01*
X67853797Y-69188500D01*
X67674896Y-69152915D01*
X67506374Y-69083111D01*
X67354709Y-68981772D01*
X67225728Y-68852791D01*
X67124389Y-68701126D01*
X67054585Y-68532604D01*
X67019000Y-68353703D01*
X67019000Y-68171297D01*
X67054585Y-67992396D01*
X67124389Y-67823874D01*
X67225728Y-67672209D01*
X67354709Y-67543228D01*
X67506374Y-67441889D01*
X67674896Y-67372085D01*
X67853797Y-67336500D01*
X68036203Y-67336500D01*
X68215104Y-67372085D01*
G37*
G36*
X154575104Y-67372085D02*
G01*
X154743626Y-67441889D01*
X154895291Y-67543228D01*
X155024272Y-67672209D01*
X155125611Y-67823874D01*
X155195415Y-67992396D01*
X155231000Y-68171297D01*
X155231000Y-68353703D01*
X155195415Y-68532604D01*
X155125611Y-68701126D01*
X155024272Y-68852791D01*
X154895291Y-68981772D01*
X154743626Y-69083111D01*
X154575104Y-69152915D01*
X154396203Y-69188500D01*
X154213797Y-69188500D01*
X154034896Y-69152915D01*
X153866374Y-69083111D01*
X153714709Y-68981772D01*
X153585728Y-68852791D01*
X153484389Y-68701126D01*
X153414585Y-68532604D01*
X153379000Y-68353703D01*
X153379000Y-68171297D01*
X153414585Y-67992396D01*
X153484389Y-67823874D01*
X153585728Y-67672209D01*
X153714709Y-67543228D01*
X153866374Y-67441889D01*
X154034896Y-67372085D01*
X154213797Y-67336500D01*
X154396203Y-67336500D01*
X154575104Y-67372085D01*
G37*
G36*
X144415104Y-67372085D02*
G01*
X144583626Y-67441889D01*
X144735291Y-67543228D01*
X144864272Y-67672209D01*
X144965611Y-67823874D01*
X145035415Y-67992396D01*
X145071000Y-68171297D01*
X145071000Y-68353703D01*
X145035415Y-68532604D01*
X144965611Y-68701126D01*
X144864272Y-68852791D01*
X144735291Y-68981772D01*
X144583626Y-69083111D01*
X144415104Y-69152915D01*
X144236203Y-69188500D01*
X144053797Y-69188500D01*
X143874896Y-69152915D01*
X143706374Y-69083111D01*
X143554709Y-68981772D01*
X143425728Y-68852791D01*
X143324389Y-68701126D01*
X143254585Y-68532604D01*
X143219000Y-68353703D01*
X143219000Y-68171297D01*
X143254585Y-67992396D01*
X143324389Y-67823874D01*
X143425728Y-67672209D01*
X143554709Y-67543228D01*
X143706374Y-67441889D01*
X143874896Y-67372085D01*
X144053797Y-67336500D01*
X144236203Y-67336500D01*
X144415104Y-67372085D01*
G37*
G36*
X135525104Y-67372085D02*
G01*
X135693626Y-67441889D01*
X135845291Y-67543228D01*
X135974272Y-67672209D01*
X136075611Y-67823874D01*
X136145415Y-67992396D01*
X136181000Y-68171297D01*
X136181000Y-68353703D01*
X136145415Y-68532604D01*
X136075611Y-68701126D01*
X135974272Y-68852791D01*
X135845291Y-68981772D01*
X135693626Y-69083111D01*
X135525104Y-69152915D01*
X135346203Y-69188500D01*
X135163797Y-69188500D01*
X134984896Y-69152915D01*
X134816374Y-69083111D01*
X134664709Y-68981772D01*
X134535728Y-68852791D01*
X134434389Y-68701126D01*
X134364585Y-68532604D01*
X134329000Y-68353703D01*
X134329000Y-68171297D01*
X134364585Y-67992396D01*
X134434389Y-67823874D01*
X134535728Y-67672209D01*
X134664709Y-67543228D01*
X134816374Y-67441889D01*
X134984896Y-67372085D01*
X135163797Y-67336500D01*
X135346203Y-67336500D01*
X135525104Y-67372085D01*
G37*
G36*
X125365104Y-67372085D02*
G01*
X125533626Y-67441889D01*
X125685291Y-67543228D01*
X125814272Y-67672209D01*
X125915611Y-67823874D01*
X125985415Y-67992396D01*
X126021000Y-68171297D01*
X126021000Y-68353703D01*
X125985415Y-68532604D01*
X125915611Y-68701126D01*
X125814272Y-68852791D01*
X125685291Y-68981772D01*
X125533626Y-69083111D01*
X125365104Y-69152915D01*
X125186203Y-69188500D01*
X125003797Y-69188500D01*
X124824896Y-69152915D01*
X124656374Y-69083111D01*
X124504709Y-68981772D01*
X124375728Y-68852791D01*
X124274389Y-68701126D01*
X124204585Y-68532604D01*
X124169000Y-68353703D01*
X124169000Y-68171297D01*
X124204585Y-67992396D01*
X124274389Y-67823874D01*
X124375728Y-67672209D01*
X124504709Y-67543228D01*
X124656374Y-67441889D01*
X124824896Y-67372085D01*
X125003797Y-67336500D01*
X125186203Y-67336500D01*
X125365104Y-67372085D01*
G37*
G36*
X116475104Y-67372085D02*
G01*
X116643626Y-67441889D01*
X116795291Y-67543228D01*
X116924272Y-67672209D01*
X117025611Y-67823874D01*
X117095415Y-67992396D01*
X117131000Y-68171297D01*
X117131000Y-68353703D01*
X117095415Y-68532604D01*
X117025611Y-68701126D01*
X116924272Y-68852791D01*
X116795291Y-68981772D01*
X116643626Y-69083111D01*
X116475104Y-69152915D01*
X116296203Y-69188500D01*
X116113797Y-69188500D01*
X115934896Y-69152915D01*
X115766374Y-69083111D01*
X115614709Y-68981772D01*
X115485728Y-68852791D01*
X115384389Y-68701126D01*
X115314585Y-68532604D01*
X115279000Y-68353703D01*
X115279000Y-68171297D01*
X115314585Y-67992396D01*
X115384389Y-67823874D01*
X115485728Y-67672209D01*
X115614709Y-67543228D01*
X115766374Y-67441889D01*
X115934896Y-67372085D01*
X116113797Y-67336500D01*
X116296203Y-67336500D01*
X116475104Y-67372085D01*
G37*
G36*
X106315104Y-67372085D02*
G01*
X106483626Y-67441889D01*
X106635291Y-67543228D01*
X106764272Y-67672209D01*
X106865611Y-67823874D01*
X106935415Y-67992396D01*
X106971000Y-68171297D01*
X106971000Y-68353703D01*
X106935415Y-68532604D01*
X106865611Y-68701126D01*
X106764272Y-68852791D01*
X106635291Y-68981772D01*
X106483626Y-69083111D01*
X106315104Y-69152915D01*
X106136203Y-69188500D01*
X105953797Y-69188500D01*
X105774896Y-69152915D01*
X105606374Y-69083111D01*
X105454709Y-68981772D01*
X105325728Y-68852791D01*
X105224389Y-68701126D01*
X105154585Y-68532604D01*
X105119000Y-68353703D01*
X105119000Y-68171297D01*
X105154585Y-67992396D01*
X105224389Y-67823874D01*
X105325728Y-67672209D01*
X105454709Y-67543228D01*
X105606374Y-67441889D01*
X105774896Y-67372085D01*
X105953797Y-67336500D01*
X106136203Y-67336500D01*
X106315104Y-67372085D01*
G37*
G36*
X97425104Y-67372085D02*
G01*
X97593626Y-67441889D01*
X97745291Y-67543228D01*
X97874272Y-67672209D01*
X97975611Y-67823874D01*
X98045415Y-67992396D01*
X98081000Y-68171297D01*
X98081000Y-68353703D01*
X98045415Y-68532604D01*
X97975611Y-68701126D01*
X97874272Y-68852791D01*
X97745291Y-68981772D01*
X97593626Y-69083111D01*
X97425104Y-69152915D01*
X97246203Y-69188500D01*
X97063797Y-69188500D01*
X96884896Y-69152915D01*
X96716374Y-69083111D01*
X96564709Y-68981772D01*
X96435728Y-68852791D01*
X96334389Y-68701126D01*
X96264585Y-68532604D01*
X96229000Y-68353703D01*
X96229000Y-68171297D01*
X96264585Y-67992396D01*
X96334389Y-67823874D01*
X96435728Y-67672209D01*
X96564709Y-67543228D01*
X96716374Y-67441889D01*
X96884896Y-67372085D01*
X97063797Y-67336500D01*
X97246203Y-67336500D01*
X97425104Y-67372085D01*
G37*
G36*
X87265104Y-67372085D02*
G01*
X87433626Y-67441889D01*
X87585291Y-67543228D01*
X87714272Y-67672209D01*
X87815611Y-67823874D01*
X87885415Y-67992396D01*
X87921000Y-68171297D01*
X87921000Y-68353703D01*
X87885415Y-68532604D01*
X87815611Y-68701126D01*
X87714272Y-68852791D01*
X87585291Y-68981772D01*
X87433626Y-69083111D01*
X87265104Y-69152915D01*
X87086203Y-69188500D01*
X86903797Y-69188500D01*
X86724896Y-69152915D01*
X86556374Y-69083111D01*
X86404709Y-68981772D01*
X86275728Y-68852791D01*
X86174389Y-68701126D01*
X86104585Y-68532604D01*
X86069000Y-68353703D01*
X86069000Y-68171297D01*
X86104585Y-67992396D01*
X86174389Y-67823874D01*
X86275728Y-67672209D01*
X86404709Y-67543228D01*
X86556374Y-67441889D01*
X86724896Y-67372085D01*
X86903797Y-67336500D01*
X87086203Y-67336500D01*
X87265104Y-67372085D01*
G37*
G36*
X78375104Y-67372085D02*
G01*
X78543626Y-67441889D01*
X78695291Y-67543228D01*
X78824272Y-67672209D01*
X78925611Y-67823874D01*
X78995415Y-67992396D01*
X79031000Y-68171297D01*
X79031000Y-68353703D01*
X78995415Y-68532604D01*
X78925611Y-68701126D01*
X78824272Y-68852791D01*
X78695291Y-68981772D01*
X78543626Y-69083111D01*
X78375104Y-69152915D01*
X78196203Y-69188500D01*
X78013797Y-69188500D01*
X77834896Y-69152915D01*
X77666374Y-69083111D01*
X77514709Y-68981772D01*
X77385728Y-68852791D01*
X77284389Y-68701126D01*
X77214585Y-68532604D01*
X77179000Y-68353703D01*
X77179000Y-68171297D01*
X77214585Y-67992396D01*
X77284389Y-67823874D01*
X77385728Y-67672209D01*
X77514709Y-67543228D01*
X77666374Y-67441889D01*
X77834896Y-67372085D01*
X78013797Y-67336500D01*
X78196203Y-67336500D01*
X78375104Y-67372085D01*
G37*
G36*
X69517585Y-64201302D02*
G01*
X69667410Y-64231104D01*
X69949674Y-64348021D01*
X70203705Y-64517759D01*
X70419741Y-64733795D01*
X70589479Y-64987826D01*
X70706396Y-65270090D01*
X70766000Y-65569740D01*
X70766000Y-65875260D01*
X70706396Y-66174910D01*
X70589479Y-66457174D01*
X70419741Y-66711205D01*
X70203705Y-66927241D01*
X69949674Y-67096979D01*
X69667410Y-67213896D01*
X69517585Y-67243698D01*
X69367761Y-67273500D01*
X69062239Y-67273500D01*
X68912415Y-67243698D01*
X68762590Y-67213896D01*
X68480326Y-67096979D01*
X68226295Y-66927241D01*
X68010259Y-66711205D01*
X67840521Y-66457174D01*
X67723604Y-66174910D01*
X67664000Y-65875260D01*
X67664000Y-65569740D01*
X67723604Y-65270090D01*
X67840521Y-64987826D01*
X68010259Y-64733795D01*
X68226295Y-64517759D01*
X68480326Y-64348021D01*
X68762590Y-64231104D01*
X68912415Y-64201302D01*
X69062239Y-64171500D01*
X69367761Y-64171500D01*
X69517585Y-64201302D01*
G37*
G36*
X88567585Y-64201302D02*
G01*
X88717410Y-64231104D01*
X88999674Y-64348021D01*
X89253705Y-64517759D01*
X89469741Y-64733795D01*
X89639479Y-64987826D01*
X89756396Y-65270090D01*
X89816000Y-65569740D01*
X89816000Y-65875260D01*
X89756396Y-66174910D01*
X89639479Y-66457174D01*
X89469741Y-66711205D01*
X89253705Y-66927241D01*
X88999674Y-67096979D01*
X88717410Y-67213896D01*
X88567585Y-67243698D01*
X88417761Y-67273500D01*
X88112239Y-67273500D01*
X87962415Y-67243698D01*
X87812590Y-67213896D01*
X87530326Y-67096979D01*
X87276295Y-66927241D01*
X87060259Y-66711205D01*
X86890521Y-66457174D01*
X86773604Y-66174910D01*
X86714000Y-65875260D01*
X86714000Y-65569740D01*
X86773604Y-65270090D01*
X86890521Y-64987826D01*
X87060259Y-64733795D01*
X87276295Y-64517759D01*
X87530326Y-64348021D01*
X87812590Y-64231104D01*
X87962415Y-64201302D01*
X88112239Y-64171500D01*
X88417761Y-64171500D01*
X88567585Y-64201302D01*
G37*
G36*
X107617585Y-64201302D02*
G01*
X107767410Y-64231104D01*
X108049674Y-64348021D01*
X108303705Y-64517759D01*
X108519741Y-64733795D01*
X108689479Y-64987826D01*
X108806396Y-65270090D01*
X108866000Y-65569740D01*
X108866000Y-65875260D01*
X108806396Y-66174910D01*
X108689479Y-66457174D01*
X108519741Y-66711205D01*
X108303705Y-66927241D01*
X108049674Y-67096979D01*
X107767410Y-67213896D01*
X107617585Y-67243698D01*
X107467761Y-67273500D01*
X107162239Y-67273500D01*
X107012415Y-67243698D01*
X106862590Y-67213896D01*
X106580326Y-67096979D01*
X106326295Y-66927241D01*
X106110259Y-66711205D01*
X105940521Y-66457174D01*
X105823604Y-66174910D01*
X105764000Y-65875260D01*
X105764000Y-65569740D01*
X105823604Y-65270090D01*
X105940521Y-64987826D01*
X106110259Y-64733795D01*
X106326295Y-64517759D01*
X106580326Y-64348021D01*
X106862590Y-64231104D01*
X107012415Y-64201302D01*
X107162239Y-64171500D01*
X107467761Y-64171500D01*
X107617585Y-64201302D01*
G37*
G36*
X126667585Y-64201302D02*
G01*
X126817410Y-64231104D01*
X127099674Y-64348021D01*
X127353705Y-64517759D01*
X127569741Y-64733795D01*
X127739479Y-64987826D01*
X127856396Y-65270090D01*
X127916000Y-65569740D01*
X127916000Y-65875260D01*
X127856396Y-66174910D01*
X127739479Y-66457174D01*
X127569741Y-66711205D01*
X127353705Y-66927241D01*
X127099674Y-67096979D01*
X126817410Y-67213896D01*
X126667585Y-67243698D01*
X126517761Y-67273500D01*
X126212239Y-67273500D01*
X126062415Y-67243698D01*
X125912590Y-67213896D01*
X125630326Y-67096979D01*
X125376295Y-66927241D01*
X125160259Y-66711205D01*
X124990521Y-66457174D01*
X124873604Y-66174910D01*
X124814000Y-65875260D01*
X124814000Y-65569740D01*
X124873604Y-65270090D01*
X124990521Y-64987826D01*
X125160259Y-64733795D01*
X125376295Y-64517759D01*
X125630326Y-64348021D01*
X125912590Y-64231104D01*
X126062415Y-64201302D01*
X126212239Y-64171500D01*
X126517761Y-64171500D01*
X126667585Y-64201302D01*
G37*
G36*
X145717585Y-64201302D02*
G01*
X145867410Y-64231104D01*
X146149674Y-64348021D01*
X146403705Y-64517759D01*
X146619741Y-64733795D01*
X146789479Y-64987826D01*
X146906396Y-65270090D01*
X146966000Y-65569740D01*
X146966000Y-65875260D01*
X146906396Y-66174910D01*
X146789479Y-66457174D01*
X146619741Y-66711205D01*
X146403705Y-66927241D01*
X146149674Y-67096979D01*
X145867410Y-67213896D01*
X145717585Y-67243698D01*
X145567761Y-67273500D01*
X145262239Y-67273500D01*
X145112415Y-67243698D01*
X144962590Y-67213896D01*
X144680326Y-67096979D01*
X144426295Y-66927241D01*
X144210259Y-66711205D01*
X144040521Y-66457174D01*
X143923604Y-66174910D01*
X143864000Y-65875260D01*
X143864000Y-65569740D01*
X143923604Y-65270090D01*
X144040521Y-64987826D01*
X144210259Y-64733795D01*
X144426295Y-64517759D01*
X144680326Y-64348021D01*
X144962590Y-64231104D01*
X145112415Y-64201302D01*
X145262239Y-64171500D01*
X145567761Y-64171500D01*
X145717585Y-64201302D01*
G37*
G36*
X143466000Y-67023500D02*
G01*
X140814000Y-67023500D01*
X140814000Y-64421500D01*
X143466000Y-64421500D01*
X143466000Y-67023500D01*
G37*
G36*
X67266000Y-67023500D02*
G01*
X64614000Y-67023500D01*
X64614000Y-64421500D01*
X67266000Y-64421500D01*
X67266000Y-67023500D01*
G37*
G36*
X86316000Y-67023500D02*
G01*
X83664000Y-67023500D01*
X83664000Y-64421500D01*
X86316000Y-64421500D01*
X86316000Y-67023500D01*
G37*
G36*
X105366000Y-67023500D02*
G01*
X102714000Y-67023500D01*
X102714000Y-64421500D01*
X105366000Y-64421500D01*
X105366000Y-67023500D01*
G37*
G36*
X124416000Y-67023500D02*
G01*
X121764000Y-67023500D01*
X121764000Y-64421500D01*
X124416000Y-64421500D01*
X124416000Y-67023500D01*
G37*
G36*
X113967585Y-61661302D02*
G01*
X114117410Y-61691104D01*
X114399674Y-61808021D01*
X114653705Y-61977759D01*
X114869741Y-62193795D01*
X115039479Y-62447826D01*
X115156396Y-62730090D01*
X115216000Y-63029740D01*
X115216000Y-63335260D01*
X115156396Y-63634910D01*
X115039479Y-63917174D01*
X114869741Y-64171205D01*
X114653705Y-64387241D01*
X114399674Y-64556979D01*
X114117410Y-64673896D01*
X113967585Y-64703698D01*
X113817761Y-64733500D01*
X113512239Y-64733500D01*
X113362415Y-64703698D01*
X113212590Y-64673896D01*
X112930326Y-64556979D01*
X112676295Y-64387241D01*
X112460259Y-64171205D01*
X112290521Y-63917174D01*
X112173604Y-63634910D01*
X112114000Y-63335260D01*
X112114000Y-63029740D01*
X112173604Y-62730090D01*
X112290521Y-62447826D01*
X112460259Y-62193795D01*
X112676295Y-61977759D01*
X112930326Y-61808021D01*
X113212590Y-61691104D01*
X113362415Y-61661302D01*
X113512239Y-61631500D01*
X113817761Y-61631500D01*
X113967585Y-61661302D01*
G37*
G36*
X152067585Y-61661302D02*
G01*
X152217410Y-61691104D01*
X152499674Y-61808021D01*
X152753705Y-61977759D01*
X152969741Y-62193795D01*
X153139479Y-62447826D01*
X153256396Y-62730090D01*
X153316000Y-63029740D01*
X153316000Y-63335260D01*
X153256396Y-63634910D01*
X153139479Y-63917174D01*
X152969741Y-64171205D01*
X152753705Y-64387241D01*
X152499674Y-64556979D01*
X152217410Y-64673896D01*
X152067585Y-64703698D01*
X151917761Y-64733500D01*
X151612239Y-64733500D01*
X151462415Y-64703698D01*
X151312590Y-64673896D01*
X151030326Y-64556979D01*
X150776295Y-64387241D01*
X150560259Y-64171205D01*
X150390521Y-63917174D01*
X150273604Y-63634910D01*
X150214000Y-63335260D01*
X150214000Y-63029740D01*
X150273604Y-62730090D01*
X150390521Y-62447826D01*
X150560259Y-62193795D01*
X150776295Y-61977759D01*
X151030326Y-61808021D01*
X151312590Y-61691104D01*
X151462415Y-61661302D01*
X151612239Y-61631500D01*
X151917761Y-61631500D01*
X152067585Y-61661302D01*
G37*
G36*
X75867585Y-61661302D02*
G01*
X76017410Y-61691104D01*
X76299674Y-61808021D01*
X76553705Y-61977759D01*
X76769741Y-62193795D01*
X76939479Y-62447826D01*
X77056396Y-62730090D01*
X77116000Y-63029740D01*
X77116000Y-63335260D01*
X77056396Y-63634910D01*
X76939479Y-63917174D01*
X76769741Y-64171205D01*
X76553705Y-64387241D01*
X76299674Y-64556979D01*
X76017410Y-64673896D01*
X75867585Y-64703698D01*
X75717761Y-64733500D01*
X75412239Y-64733500D01*
X75262415Y-64703698D01*
X75112590Y-64673896D01*
X74830326Y-64556979D01*
X74576295Y-64387241D01*
X74360259Y-64171205D01*
X74190521Y-63917174D01*
X74073604Y-63634910D01*
X74014000Y-63335260D01*
X74014000Y-63029740D01*
X74073604Y-62730090D01*
X74190521Y-62447826D01*
X74360259Y-62193795D01*
X74576295Y-61977759D01*
X74830326Y-61808021D01*
X75112590Y-61691104D01*
X75262415Y-61661302D01*
X75412239Y-61631500D01*
X75717761Y-61631500D01*
X75867585Y-61661302D01*
G37*
G36*
X94917585Y-61661302D02*
G01*
X95067410Y-61691104D01*
X95349674Y-61808021D01*
X95603705Y-61977759D01*
X95819741Y-62193795D01*
X95989479Y-62447826D01*
X96106396Y-62730090D01*
X96166000Y-63029740D01*
X96166000Y-63335260D01*
X96106396Y-63634910D01*
X95989479Y-63917174D01*
X95819741Y-64171205D01*
X95603705Y-64387241D01*
X95349674Y-64556979D01*
X95067410Y-64673896D01*
X94917585Y-64703698D01*
X94767761Y-64733500D01*
X94462239Y-64733500D01*
X94312415Y-64703698D01*
X94162590Y-64673896D01*
X93880326Y-64556979D01*
X93626295Y-64387241D01*
X93410259Y-64171205D01*
X93240521Y-63917174D01*
X93123604Y-63634910D01*
X93064000Y-63335260D01*
X93064000Y-63029740D01*
X93123604Y-62730090D01*
X93240521Y-62447826D01*
X93410259Y-62193795D01*
X93626295Y-61977759D01*
X93880326Y-61808021D01*
X94162590Y-61691104D01*
X94312415Y-61661302D01*
X94462239Y-61631500D01*
X94767761Y-61631500D01*
X94917585Y-61661302D01*
G37*
G36*
X133017585Y-61661302D02*
G01*
X133167410Y-61691104D01*
X133449674Y-61808021D01*
X133703705Y-61977759D01*
X133919741Y-62193795D01*
X134089479Y-62447826D01*
X134206396Y-62730090D01*
X134266000Y-63029740D01*
X134266000Y-63335260D01*
X134206396Y-63634910D01*
X134089479Y-63917174D01*
X133919741Y-64171205D01*
X133703705Y-64387241D01*
X133449674Y-64556979D01*
X133167410Y-64673896D01*
X133017585Y-64703698D01*
X132867761Y-64733500D01*
X132562239Y-64733500D01*
X132412415Y-64703698D01*
X132262590Y-64673896D01*
X131980326Y-64556979D01*
X131726295Y-64387241D01*
X131510259Y-64171205D01*
X131340521Y-63917174D01*
X131223604Y-63634910D01*
X131164000Y-63335260D01*
X131164000Y-63029740D01*
X131223604Y-62730090D01*
X131340521Y-62447826D01*
X131510259Y-62193795D01*
X131726295Y-61977759D01*
X131980326Y-61808021D01*
X132262590Y-61691104D01*
X132412415Y-61661302D01*
X132562239Y-61631500D01*
X132867761Y-61631500D01*
X133017585Y-61661302D01*
G37*
G36*
X156393000Y-64483500D02*
G01*
X153741000Y-64483500D01*
X153741000Y-61881500D01*
X156393000Y-61881500D01*
X156393000Y-64483500D01*
G37*
G36*
X99243000Y-64483500D02*
G01*
X96591000Y-64483500D01*
X96591000Y-61881500D01*
X99243000Y-61881500D01*
X99243000Y-64483500D01*
G37*
G36*
X80193000Y-64483500D02*
G01*
X77541000Y-64483500D01*
X77541000Y-61881500D01*
X80193000Y-61881500D01*
X80193000Y-64483500D01*
G37*
G36*
X118293000Y-64483500D02*
G01*
X115641000Y-64483500D01*
X115641000Y-61881500D01*
X118293000Y-61881500D01*
X118293000Y-64483500D01*
G37*
G36*
X137343000Y-64483500D02*
G01*
X134691000Y-64483500D01*
X134691000Y-61881500D01*
X137343000Y-61881500D01*
X137343000Y-64483500D01*
G37*
G36*
X129026000Y-56213500D02*
G01*
X128024000Y-56213500D01*
X128024000Y-54911500D01*
X129026000Y-54911500D01*
X129026000Y-56213500D01*
G37*
G36*
X71876000Y-56213500D02*
G01*
X70874000Y-56213500D01*
X70874000Y-54911500D01*
X71876000Y-54911500D01*
X71876000Y-56213500D01*
G37*
G36*
X75176000Y-56213500D02*
G01*
X74174000Y-56213500D01*
X74174000Y-54911500D01*
X75176000Y-54911500D01*
X75176000Y-56213500D01*
G37*
G36*
X90926000Y-56213500D02*
G01*
X89924000Y-56213500D01*
X89924000Y-54911500D01*
X90926000Y-54911500D01*
X90926000Y-56213500D01*
G37*
G36*
X148076000Y-56213500D02*
G01*
X147074000Y-56213500D01*
X147074000Y-54911500D01*
X148076000Y-54911500D01*
X148076000Y-56213500D01*
G37*
G36*
X132326000Y-56213500D02*
G01*
X131324000Y-56213500D01*
X131324000Y-54911500D01*
X132326000Y-54911500D01*
X132326000Y-56213500D01*
G37*
G36*
X94226000Y-56213500D02*
G01*
X93224000Y-56213500D01*
X93224000Y-54911500D01*
X94226000Y-54911500D01*
X94226000Y-56213500D01*
G37*
G36*
X109976000Y-56213500D02*
G01*
X108974000Y-56213500D01*
X108974000Y-54911500D01*
X109976000Y-54911500D01*
X109976000Y-56213500D01*
G37*
G36*
X113276000Y-56213500D02*
G01*
X112274000Y-56213500D01*
X112274000Y-54911500D01*
X113276000Y-54911500D01*
X113276000Y-56213500D01*
G37*
G36*
X151376000Y-56213500D02*
G01*
X150374000Y-56213500D01*
X150374000Y-54911500D01*
X151376000Y-54911500D01*
X151376000Y-56213500D01*
G37*
G36*
X111721474Y-47246184D02*
G01*
X111939474Y-47336483D01*
X112093623Y-47400333D01*
X112428548Y-47624123D01*
X112713377Y-47908952D01*
X112937167Y-48243877D01*
X112969562Y-48322086D01*
X113091316Y-48616026D01*
X113169900Y-49011094D01*
X113169900Y-49413906D01*
X113091316Y-49808974D01*
X113040451Y-49931772D01*
X112937167Y-50181123D01*
X112713377Y-50516048D01*
X112428548Y-50800877D01*
X112093623Y-51024667D01*
X111939474Y-51088517D01*
X111721474Y-51178816D01*
X111326406Y-51257400D01*
X110923594Y-51257400D01*
X110528526Y-51178816D01*
X110310526Y-51088517D01*
X110156377Y-51024667D01*
X109821452Y-50800877D01*
X109536623Y-50516048D01*
X109312833Y-50181123D01*
X109209549Y-49931772D01*
X109158684Y-49808974D01*
X109080100Y-49413906D01*
X109080100Y-49011094D01*
X109158684Y-48616026D01*
X109280438Y-48322086D01*
X109312833Y-48243877D01*
X109536623Y-47908952D01*
X109821452Y-47624123D01*
X110156377Y-47400333D01*
X110310526Y-47336483D01*
X110528526Y-47246184D01*
X110923594Y-47167600D01*
X111326406Y-47167600D01*
X111721474Y-47246184D01*
G37*
G36*
X73621474Y-47246184D02*
G01*
X73839474Y-47336483D01*
X73993623Y-47400333D01*
X74328548Y-47624123D01*
X74613377Y-47908952D01*
X74837167Y-48243877D01*
X74869562Y-48322086D01*
X74991316Y-48616026D01*
X75069900Y-49011094D01*
X75069900Y-49413906D01*
X74991316Y-49808974D01*
X74940451Y-49931772D01*
X74837167Y-50181123D01*
X74613377Y-50516048D01*
X74328548Y-50800877D01*
X73993623Y-51024667D01*
X73839474Y-51088517D01*
X73621474Y-51178816D01*
X73226406Y-51257400D01*
X72823594Y-51257400D01*
X72428526Y-51178816D01*
X72210526Y-51088517D01*
X72056377Y-51024667D01*
X71721452Y-50800877D01*
X71436623Y-50516048D01*
X71212833Y-50181123D01*
X71109549Y-49931772D01*
X71058684Y-49808974D01*
X70980100Y-49413906D01*
X70980100Y-49011094D01*
X71058684Y-48616026D01*
X71180438Y-48322086D01*
X71212833Y-48243877D01*
X71436623Y-47908952D01*
X71721452Y-47624123D01*
X72056377Y-47400333D01*
X72210526Y-47336483D01*
X72428526Y-47246184D01*
X72823594Y-47167600D01*
X73226406Y-47167600D01*
X73621474Y-47246184D01*
G37*
G36*
X92671474Y-47246184D02*
G01*
X92889474Y-47336483D01*
X93043623Y-47400333D01*
X93378548Y-47624123D01*
X93663377Y-47908952D01*
X93887167Y-48243877D01*
X93919562Y-48322086D01*
X94041316Y-48616026D01*
X94119900Y-49011094D01*
X94119900Y-49413906D01*
X94041316Y-49808974D01*
X93990451Y-49931772D01*
X93887167Y-50181123D01*
X93663377Y-50516048D01*
X93378548Y-50800877D01*
X93043623Y-51024667D01*
X92889474Y-51088517D01*
X92671474Y-51178816D01*
X92276406Y-51257400D01*
X91873594Y-51257400D01*
X91478526Y-51178816D01*
X91260526Y-51088517D01*
X91106377Y-51024667D01*
X90771452Y-50800877D01*
X90486623Y-50516048D01*
X90262833Y-50181123D01*
X90159549Y-49931772D01*
X90108684Y-49808974D01*
X90030100Y-49413906D01*
X90030100Y-49011094D01*
X90108684Y-48616026D01*
X90230438Y-48322086D01*
X90262833Y-48243877D01*
X90486623Y-47908952D01*
X90771452Y-47624123D01*
X91106377Y-47400333D01*
X91260526Y-47336483D01*
X91478526Y-47246184D01*
X91873594Y-47167600D01*
X92276406Y-47167600D01*
X92671474Y-47246184D01*
G37*
G36*
X149821474Y-47246184D02*
G01*
X150039474Y-47336483D01*
X150193623Y-47400333D01*
X150528548Y-47624123D01*
X150813377Y-47908952D01*
X151037167Y-48243877D01*
X151069562Y-48322086D01*
X151191316Y-48616026D01*
X151269900Y-49011094D01*
X151269900Y-49413906D01*
X151191316Y-49808974D01*
X151140451Y-49931772D01*
X151037167Y-50181123D01*
X150813377Y-50516048D01*
X150528548Y-50800877D01*
X150193623Y-51024667D01*
X150039474Y-51088517D01*
X149821474Y-51178816D01*
X149426406Y-51257400D01*
X149023594Y-51257400D01*
X148628526Y-51178816D01*
X148410526Y-51088517D01*
X148256377Y-51024667D01*
X147921452Y-50800877D01*
X147636623Y-50516048D01*
X147412833Y-50181123D01*
X147309549Y-49931772D01*
X147258684Y-49808974D01*
X147180100Y-49413906D01*
X147180100Y-49011094D01*
X147258684Y-48616026D01*
X147380438Y-48322086D01*
X147412833Y-48243877D01*
X147636623Y-47908952D01*
X147921452Y-47624123D01*
X148256377Y-47400333D01*
X148410526Y-47336483D01*
X148628526Y-47246184D01*
X149023594Y-47167600D01*
X149426406Y-47167600D01*
X149821474Y-47246184D01*
G37*
G36*
X130771474Y-47246184D02*
G01*
X130989474Y-47336483D01*
X131143623Y-47400333D01*
X131478548Y-47624123D01*
X131763377Y-47908952D01*
X131987167Y-48243877D01*
X132019562Y-48322086D01*
X132141316Y-48616026D01*
X132219900Y-49011094D01*
X132219900Y-49413906D01*
X132141316Y-49808974D01*
X132090451Y-49931772D01*
X131987167Y-50181123D01*
X131763377Y-50516048D01*
X131478548Y-50800877D01*
X131143623Y-51024667D01*
X130989474Y-51088517D01*
X130771474Y-51178816D01*
X130376406Y-51257400D01*
X129973594Y-51257400D01*
X129578526Y-51178816D01*
X129360526Y-51088517D01*
X129206377Y-51024667D01*
X128871452Y-50800877D01*
X128586623Y-50516048D01*
X128362833Y-50181123D01*
X128259549Y-49931772D01*
X128208684Y-49808974D01*
X128130100Y-49413906D01*
X128130100Y-49011094D01*
X128208684Y-48616026D01*
X128330438Y-48322086D01*
X128362833Y-48243877D01*
X128586623Y-47908952D01*
X128871452Y-47624123D01*
X129206377Y-47400333D01*
X129360526Y-47336483D01*
X129578526Y-47246184D01*
X129973594Y-47167600D01*
X130376406Y-47167600D01*
X130771474Y-47246184D01*
G37*
G36*
X116475104Y-48322085D02*
G01*
X116643626Y-48391889D01*
X116795291Y-48493228D01*
X116924272Y-48622209D01*
X117025611Y-48773874D01*
X117095415Y-48942396D01*
X117131000Y-49121297D01*
X117131000Y-49303703D01*
X117095415Y-49482604D01*
X117025611Y-49651126D01*
X116924272Y-49802791D01*
X116795291Y-49931772D01*
X116643626Y-50033111D01*
X116475104Y-50102915D01*
X116296203Y-50138500D01*
X116113797Y-50138500D01*
X115934896Y-50102915D01*
X115766374Y-50033111D01*
X115614709Y-49931772D01*
X115485728Y-49802791D01*
X115384389Y-49651126D01*
X115314585Y-49482604D01*
X115279000Y-49303703D01*
X115279000Y-49121297D01*
X115314585Y-48942396D01*
X115384389Y-48773874D01*
X115485728Y-48622209D01*
X115614709Y-48493228D01*
X115766374Y-48391889D01*
X115934896Y-48322085D01*
X116113797Y-48286500D01*
X116296203Y-48286500D01*
X116475104Y-48322085D01*
G37*
G36*
X97425104Y-48322085D02*
G01*
X97593626Y-48391889D01*
X97745291Y-48493228D01*
X97874272Y-48622209D01*
X97975611Y-48773874D01*
X98045415Y-48942396D01*
X98081000Y-49121297D01*
X98081000Y-49303703D01*
X98045415Y-49482604D01*
X97975611Y-49651126D01*
X97874272Y-49802791D01*
X97745291Y-49931772D01*
X97593626Y-50033111D01*
X97425104Y-50102915D01*
X97246203Y-50138500D01*
X97063797Y-50138500D01*
X96884896Y-50102915D01*
X96716374Y-50033111D01*
X96564709Y-49931772D01*
X96435728Y-49802791D01*
X96334389Y-49651126D01*
X96264585Y-49482604D01*
X96229000Y-49303703D01*
X96229000Y-49121297D01*
X96264585Y-48942396D01*
X96334389Y-48773874D01*
X96435728Y-48622209D01*
X96564709Y-48493228D01*
X96716374Y-48391889D01*
X96884896Y-48322085D01*
X97063797Y-48286500D01*
X97246203Y-48286500D01*
X97425104Y-48322085D01*
G37*
G36*
X106315104Y-48322085D02*
G01*
X106483626Y-48391889D01*
X106635291Y-48493228D01*
X106764272Y-48622209D01*
X106865611Y-48773874D01*
X106935415Y-48942396D01*
X106971000Y-49121297D01*
X106971000Y-49303703D01*
X106935415Y-49482604D01*
X106865611Y-49651126D01*
X106764272Y-49802791D01*
X106635291Y-49931772D01*
X106483626Y-50033111D01*
X106315104Y-50102915D01*
X106136203Y-50138500D01*
X105953797Y-50138500D01*
X105774896Y-50102915D01*
X105606374Y-50033111D01*
X105454709Y-49931772D01*
X105325728Y-49802791D01*
X105224389Y-49651126D01*
X105154585Y-49482604D01*
X105119000Y-49303703D01*
X105119000Y-49121297D01*
X105154585Y-48942396D01*
X105224389Y-48773874D01*
X105325728Y-48622209D01*
X105454709Y-48493228D01*
X105606374Y-48391889D01*
X105774896Y-48322085D01*
X105953797Y-48286500D01*
X106136203Y-48286500D01*
X106315104Y-48322085D01*
G37*
G36*
X87265104Y-48322085D02*
G01*
X87433626Y-48391889D01*
X87585291Y-48493228D01*
X87714272Y-48622209D01*
X87815611Y-48773874D01*
X87885415Y-48942396D01*
X87921000Y-49121297D01*
X87921000Y-49303703D01*
X87885415Y-49482604D01*
X87815611Y-49651126D01*
X87714272Y-49802791D01*
X87585291Y-49931772D01*
X87433626Y-50033111D01*
X87265104Y-50102915D01*
X87086203Y-50138500D01*
X86903797Y-50138500D01*
X86724896Y-50102915D01*
X86556374Y-50033111D01*
X86404709Y-49931772D01*
X86275728Y-49802791D01*
X86174389Y-49651126D01*
X86104585Y-49482604D01*
X86069000Y-49303703D01*
X86069000Y-49121297D01*
X86104585Y-48942396D01*
X86174389Y-48773874D01*
X86275728Y-48622209D01*
X86404709Y-48493228D01*
X86556374Y-48391889D01*
X86724896Y-48322085D01*
X86903797Y-48286500D01*
X87086203Y-48286500D01*
X87265104Y-48322085D01*
G37*
G36*
X154575104Y-48322085D02*
G01*
X154743626Y-48391889D01*
X154895291Y-48493228D01*
X155024272Y-48622209D01*
X155125611Y-48773874D01*
X155195415Y-48942396D01*
X155231000Y-49121297D01*
X155231000Y-49303703D01*
X155195415Y-49482604D01*
X155125611Y-49651126D01*
X155024272Y-49802791D01*
X154895291Y-49931772D01*
X154743626Y-50033111D01*
X154575104Y-50102915D01*
X154396203Y-50138500D01*
X154213797Y-50138500D01*
X154034896Y-50102915D01*
X153866374Y-50033111D01*
X153714709Y-49931772D01*
X153585728Y-49802791D01*
X153484389Y-49651126D01*
X153414585Y-49482604D01*
X153379000Y-49303703D01*
X153379000Y-49121297D01*
X153414585Y-48942396D01*
X153484389Y-48773874D01*
X153585728Y-48622209D01*
X153714709Y-48493228D01*
X153866374Y-48391889D01*
X154034896Y-48322085D01*
X154213797Y-48286500D01*
X154396203Y-48286500D01*
X154575104Y-48322085D01*
G37*
G36*
X144415104Y-48322085D02*
G01*
X144583626Y-48391889D01*
X144735291Y-48493228D01*
X144864272Y-48622209D01*
X144965611Y-48773874D01*
X145035415Y-48942396D01*
X145071000Y-49121297D01*
X145071000Y-49303703D01*
X145035415Y-49482604D01*
X144965611Y-49651126D01*
X144864272Y-49802791D01*
X144735291Y-49931772D01*
X144583626Y-50033111D01*
X144415104Y-50102915D01*
X144236203Y-50138500D01*
X144053797Y-50138500D01*
X143874896Y-50102915D01*
X143706374Y-50033111D01*
X143554709Y-49931772D01*
X143425728Y-49802791D01*
X143324389Y-49651126D01*
X143254585Y-49482604D01*
X143219000Y-49303703D01*
X143219000Y-49121297D01*
X143254585Y-48942396D01*
X143324389Y-48773874D01*
X143425728Y-48622209D01*
X143554709Y-48493228D01*
X143706374Y-48391889D01*
X143874896Y-48322085D01*
X144053797Y-48286500D01*
X144236203Y-48286500D01*
X144415104Y-48322085D01*
G37*
G36*
X68215104Y-48322085D02*
G01*
X68383626Y-48391889D01*
X68535291Y-48493228D01*
X68664272Y-48622209D01*
X68765611Y-48773874D01*
X68835415Y-48942396D01*
X68871000Y-49121297D01*
X68871000Y-49303703D01*
X68835415Y-49482604D01*
X68765611Y-49651126D01*
X68664272Y-49802791D01*
X68535291Y-49931772D01*
X68383626Y-50033111D01*
X68215104Y-50102915D01*
X68036203Y-50138500D01*
X67853797Y-50138500D01*
X67674896Y-50102915D01*
X67506374Y-50033111D01*
X67354709Y-49931772D01*
X67225728Y-49802791D01*
X67124389Y-49651126D01*
X67054585Y-49482604D01*
X67019000Y-49303703D01*
X67019000Y-49121297D01*
X67054585Y-48942396D01*
X67124389Y-48773874D01*
X67225728Y-48622209D01*
X67354709Y-48493228D01*
X67506374Y-48391889D01*
X67674896Y-48322085D01*
X67853797Y-48286500D01*
X68036203Y-48286500D01*
X68215104Y-48322085D01*
G37*
G36*
X125365104Y-48322085D02*
G01*
X125533626Y-48391889D01*
X125685291Y-48493228D01*
X125814272Y-48622209D01*
X125915611Y-48773874D01*
X125985415Y-48942396D01*
X126021000Y-49121297D01*
X126021000Y-49303703D01*
X125985415Y-49482604D01*
X125915611Y-49651126D01*
X125814272Y-49802791D01*
X125685291Y-49931772D01*
X125533626Y-50033111D01*
X125365104Y-50102915D01*
X125186203Y-50138500D01*
X125003797Y-50138500D01*
X124824896Y-50102915D01*
X124656374Y-50033111D01*
X124504709Y-49931772D01*
X124375728Y-49802791D01*
X124274389Y-49651126D01*
X124204585Y-49482604D01*
X124169000Y-49303703D01*
X124169000Y-49121297D01*
X124204585Y-48942396D01*
X124274389Y-48773874D01*
X124375728Y-48622209D01*
X124504709Y-48493228D01*
X124656374Y-48391889D01*
X124824896Y-48322085D01*
X125003797Y-48286500D01*
X125186203Y-48286500D01*
X125365104Y-48322085D01*
G37*
G36*
X135525104Y-48322085D02*
G01*
X135693626Y-48391889D01*
X135845291Y-48493228D01*
X135974272Y-48622209D01*
X136075611Y-48773874D01*
X136145415Y-48942396D01*
X136181000Y-49121297D01*
X136181000Y-49303703D01*
X136145415Y-49482604D01*
X136075611Y-49651126D01*
X135974272Y-49802791D01*
X135845291Y-49931772D01*
X135693626Y-50033111D01*
X135525104Y-50102915D01*
X135346203Y-50138500D01*
X135163797Y-50138500D01*
X134984896Y-50102915D01*
X134816374Y-50033111D01*
X134664709Y-49931772D01*
X134535728Y-49802791D01*
X134434389Y-49651126D01*
X134364585Y-49482604D01*
X134329000Y-49303703D01*
X134329000Y-49121297D01*
X134364585Y-48942396D01*
X134434389Y-48773874D01*
X134535728Y-48622209D01*
X134664709Y-48493228D01*
X134816374Y-48391889D01*
X134984896Y-48322085D01*
X135163797Y-48286500D01*
X135346203Y-48286500D01*
X135525104Y-48322085D01*
G37*
G36*
X78375104Y-48322085D02*
G01*
X78543626Y-48391889D01*
X78695291Y-48493228D01*
X78824272Y-48622209D01*
X78925611Y-48773874D01*
X78995415Y-48942396D01*
X79031000Y-49121297D01*
X79031000Y-49303703D01*
X78995415Y-49482604D01*
X78925611Y-49651126D01*
X78824272Y-49802791D01*
X78695291Y-49931772D01*
X78543626Y-50033111D01*
X78375104Y-50102915D01*
X78196203Y-50138500D01*
X78013797Y-50138500D01*
X77834896Y-50102915D01*
X77666374Y-50033111D01*
X77514709Y-49931772D01*
X77385728Y-49802791D01*
X77284389Y-49651126D01*
X77214585Y-49482604D01*
X77179000Y-49303703D01*
X77179000Y-49121297D01*
X77214585Y-48942396D01*
X77284389Y-48773874D01*
X77385728Y-48622209D01*
X77514709Y-48493228D01*
X77666374Y-48391889D01*
X77834896Y-48322085D01*
X78013797Y-48286500D01*
X78196203Y-48286500D01*
X78375104Y-48322085D01*
G37*
G36*
X69517585Y-45151302D02*
G01*
X69667410Y-45181104D01*
X69949674Y-45298021D01*
X70203705Y-45467759D01*
X70419741Y-45683795D01*
X70589479Y-45937826D01*
X70706396Y-46220090D01*
X70766000Y-46519740D01*
X70766000Y-46825260D01*
X70706396Y-47124910D01*
X70589479Y-47407174D01*
X70419741Y-47661205D01*
X70203705Y-47877241D01*
X69949674Y-48046979D01*
X69667410Y-48163896D01*
X69517585Y-48193698D01*
X69367761Y-48223500D01*
X69062239Y-48223500D01*
X68912415Y-48193698D01*
X68762590Y-48163896D01*
X68480326Y-48046979D01*
X68226295Y-47877241D01*
X68010259Y-47661205D01*
X67840521Y-47407174D01*
X67723604Y-47124910D01*
X67664000Y-46825260D01*
X67664000Y-46519740D01*
X67723604Y-46220090D01*
X67840521Y-45937826D01*
X68010259Y-45683795D01*
X68226295Y-45467759D01*
X68480326Y-45298021D01*
X68762590Y-45181104D01*
X68912415Y-45151302D01*
X69062239Y-45121500D01*
X69367761Y-45121500D01*
X69517585Y-45151302D01*
G37*
G36*
X107617585Y-45151302D02*
G01*
X107767410Y-45181104D01*
X108049674Y-45298021D01*
X108303705Y-45467759D01*
X108519741Y-45683795D01*
X108689479Y-45937826D01*
X108806396Y-46220090D01*
X108866000Y-46519740D01*
X108866000Y-46825260D01*
X108806396Y-47124910D01*
X108689479Y-47407174D01*
X108519741Y-47661205D01*
X108303705Y-47877241D01*
X108049674Y-48046979D01*
X107767410Y-48163896D01*
X107617585Y-48193698D01*
X107467761Y-48223500D01*
X107162239Y-48223500D01*
X107012415Y-48193698D01*
X106862590Y-48163896D01*
X106580326Y-48046979D01*
X106326295Y-47877241D01*
X106110259Y-47661205D01*
X105940521Y-47407174D01*
X105823604Y-47124910D01*
X105764000Y-46825260D01*
X105764000Y-46519740D01*
X105823604Y-46220090D01*
X105940521Y-45937826D01*
X106110259Y-45683795D01*
X106326295Y-45467759D01*
X106580326Y-45298021D01*
X106862590Y-45181104D01*
X107012415Y-45151302D01*
X107162239Y-45121500D01*
X107467761Y-45121500D01*
X107617585Y-45151302D01*
G37*
G36*
X88567585Y-45151302D02*
G01*
X88717410Y-45181104D01*
X88999674Y-45298021D01*
X89253705Y-45467759D01*
X89469741Y-45683795D01*
X89639479Y-45937826D01*
X89756396Y-46220090D01*
X89816000Y-46519740D01*
X89816000Y-46825260D01*
X89756396Y-47124910D01*
X89639479Y-47407174D01*
X89469741Y-47661205D01*
X89253705Y-47877241D01*
X88999674Y-48046979D01*
X88717410Y-48163896D01*
X88567585Y-48193698D01*
X88417761Y-48223500D01*
X88112239Y-48223500D01*
X87962415Y-48193698D01*
X87812590Y-48163896D01*
X87530326Y-48046979D01*
X87276295Y-47877241D01*
X87060259Y-47661205D01*
X86890521Y-47407174D01*
X86773604Y-47124910D01*
X86714000Y-46825260D01*
X86714000Y-46519740D01*
X86773604Y-46220090D01*
X86890521Y-45937826D01*
X87060259Y-45683795D01*
X87276295Y-45467759D01*
X87530326Y-45298021D01*
X87812590Y-45181104D01*
X87962415Y-45151302D01*
X88112239Y-45121500D01*
X88417761Y-45121500D01*
X88567585Y-45151302D01*
G37*
G36*
X126667585Y-45151302D02*
G01*
X126817410Y-45181104D01*
X127099674Y-45298021D01*
X127353705Y-45467759D01*
X127569741Y-45683795D01*
X127739479Y-45937826D01*
X127856396Y-46220090D01*
X127916000Y-46519740D01*
X127916000Y-46825260D01*
X127856396Y-47124910D01*
X127739479Y-47407174D01*
X127569741Y-47661205D01*
X127353705Y-47877241D01*
X127099674Y-48046979D01*
X126817410Y-48163896D01*
X126667585Y-48193698D01*
X126517761Y-48223500D01*
X126212239Y-48223500D01*
X126062415Y-48193698D01*
X125912590Y-48163896D01*
X125630326Y-48046979D01*
X125376295Y-47877241D01*
X125160259Y-47661205D01*
X124990521Y-47407174D01*
X124873604Y-47124910D01*
X124814000Y-46825260D01*
X124814000Y-46519740D01*
X124873604Y-46220090D01*
X124990521Y-45937826D01*
X125160259Y-45683795D01*
X125376295Y-45467759D01*
X125630326Y-45298021D01*
X125912590Y-45181104D01*
X126062415Y-45151302D01*
X126212239Y-45121500D01*
X126517761Y-45121500D01*
X126667585Y-45151302D01*
G37*
G36*
X145717585Y-45151302D02*
G01*
X145867410Y-45181104D01*
X146149674Y-45298021D01*
X146403705Y-45467759D01*
X146619741Y-45683795D01*
X146789479Y-45937826D01*
X146906396Y-46220090D01*
X146966000Y-46519740D01*
X146966000Y-46825260D01*
X146906396Y-47124910D01*
X146789479Y-47407174D01*
X146619741Y-47661205D01*
X146403705Y-47877241D01*
X146149674Y-48046979D01*
X145867410Y-48163896D01*
X145717585Y-48193698D01*
X145567761Y-48223500D01*
X145262239Y-48223500D01*
X145112415Y-48193698D01*
X144962590Y-48163896D01*
X144680326Y-48046979D01*
X144426295Y-47877241D01*
X144210259Y-47661205D01*
X144040521Y-47407174D01*
X143923604Y-47124910D01*
X143864000Y-46825260D01*
X143864000Y-46519740D01*
X143923604Y-46220090D01*
X144040521Y-45937826D01*
X144210259Y-45683795D01*
X144426295Y-45467759D01*
X144680326Y-45298021D01*
X144962590Y-45181104D01*
X145112415Y-45151302D01*
X145262239Y-45121500D01*
X145567761Y-45121500D01*
X145717585Y-45151302D01*
G37*
G36*
X67266000Y-47973500D02*
G01*
X64614000Y-47973500D01*
X64614000Y-45371500D01*
X67266000Y-45371500D01*
X67266000Y-47973500D01*
G37*
G36*
X143466000Y-47973500D02*
G01*
X140814000Y-47973500D01*
X140814000Y-45371500D01*
X143466000Y-45371500D01*
X143466000Y-47973500D01*
G37*
G36*
X86316000Y-47973500D02*
G01*
X83664000Y-47973500D01*
X83664000Y-45371500D01*
X86316000Y-45371500D01*
X86316000Y-47973500D01*
G37*
G36*
X124416000Y-47973500D02*
G01*
X121764000Y-47973500D01*
X121764000Y-45371500D01*
X124416000Y-45371500D01*
X124416000Y-47973500D01*
G37*
G36*
X105366000Y-47973500D02*
G01*
X102714000Y-47973500D01*
X102714000Y-45371500D01*
X105366000Y-45371500D01*
X105366000Y-47973500D01*
G37*
G36*
X94917585Y-42611302D02*
G01*
X95067410Y-42641104D01*
X95349674Y-42758021D01*
X95603705Y-42927759D01*
X95819741Y-43143795D01*
X95989479Y-43397826D01*
X96106396Y-43680090D01*
X96166000Y-43979740D01*
X96166000Y-44285260D01*
X96106396Y-44584910D01*
X95989479Y-44867174D01*
X95819741Y-45121205D01*
X95603705Y-45337241D01*
X95349674Y-45506979D01*
X95067410Y-45623896D01*
X94917585Y-45653698D01*
X94767761Y-45683500D01*
X94462239Y-45683500D01*
X94312415Y-45653698D01*
X94162590Y-45623896D01*
X93880326Y-45506979D01*
X93626295Y-45337241D01*
X93410259Y-45121205D01*
X93240521Y-44867174D01*
X93123604Y-44584910D01*
X93064000Y-44285260D01*
X93064000Y-43979740D01*
X93123604Y-43680090D01*
X93240521Y-43397826D01*
X93410259Y-43143795D01*
X93626295Y-42927759D01*
X93880326Y-42758021D01*
X94162590Y-42641104D01*
X94312415Y-42611302D01*
X94462239Y-42581500D01*
X94767761Y-42581500D01*
X94917585Y-42611302D01*
G37*
G36*
X152067585Y-42611302D02*
G01*
X152217410Y-42641104D01*
X152499674Y-42758021D01*
X152753705Y-42927759D01*
X152969741Y-43143795D01*
X153139479Y-43397826D01*
X153256396Y-43680090D01*
X153316000Y-43979740D01*
X153316000Y-44285260D01*
X153256396Y-44584910D01*
X153139479Y-44867174D01*
X152969741Y-45121205D01*
X152753705Y-45337241D01*
X152499674Y-45506979D01*
X152217410Y-45623896D01*
X152067585Y-45653698D01*
X151917761Y-45683500D01*
X151612239Y-45683500D01*
X151462415Y-45653698D01*
X151312590Y-45623896D01*
X151030326Y-45506979D01*
X150776295Y-45337241D01*
X150560259Y-45121205D01*
X150390521Y-44867174D01*
X150273604Y-44584910D01*
X150214000Y-44285260D01*
X150214000Y-43979740D01*
X150273604Y-43680090D01*
X150390521Y-43397826D01*
X150560259Y-43143795D01*
X150776295Y-42927759D01*
X151030326Y-42758021D01*
X151312590Y-42641104D01*
X151462415Y-42611302D01*
X151612239Y-42581500D01*
X151917761Y-42581500D01*
X152067585Y-42611302D01*
G37*
G36*
X133017585Y-42611302D02*
G01*
X133167410Y-42641104D01*
X133449674Y-42758021D01*
X133703705Y-42927759D01*
X133919741Y-43143795D01*
X134089479Y-43397826D01*
X134206396Y-43680090D01*
X134266000Y-43979740D01*
X134266000Y-44285260D01*
X134206396Y-44584910D01*
X134089479Y-44867174D01*
X133919741Y-45121205D01*
X133703705Y-45337241D01*
X133449674Y-45506979D01*
X133167410Y-45623896D01*
X133017585Y-45653698D01*
X132867761Y-45683500D01*
X132562239Y-45683500D01*
X132412415Y-45653698D01*
X132262590Y-45623896D01*
X131980326Y-45506979D01*
X131726295Y-45337241D01*
X131510259Y-45121205D01*
X131340521Y-44867174D01*
X131223604Y-44584910D01*
X131164000Y-44285260D01*
X131164000Y-43979740D01*
X131223604Y-43680090D01*
X131340521Y-43397826D01*
X131510259Y-43143795D01*
X131726295Y-42927759D01*
X131980326Y-42758021D01*
X132262590Y-42641104D01*
X132412415Y-42611302D01*
X132562239Y-42581500D01*
X132867761Y-42581500D01*
X133017585Y-42611302D01*
G37*
G36*
X113967585Y-42611302D02*
G01*
X114117410Y-42641104D01*
X114399674Y-42758021D01*
X114653705Y-42927759D01*
X114869741Y-43143795D01*
X115039479Y-43397826D01*
X115156396Y-43680090D01*
X115216000Y-43979740D01*
X115216000Y-44285260D01*
X115156396Y-44584910D01*
X115039479Y-44867174D01*
X114869741Y-45121205D01*
X114653705Y-45337241D01*
X114399674Y-45506979D01*
X114117410Y-45623896D01*
X113967585Y-45653698D01*
X113817761Y-45683500D01*
X113512239Y-45683500D01*
X113362415Y-45653698D01*
X113212590Y-45623896D01*
X112930326Y-45506979D01*
X112676295Y-45337241D01*
X112460259Y-45121205D01*
X112290521Y-44867174D01*
X112173604Y-44584910D01*
X112114000Y-44285260D01*
X112114000Y-43979740D01*
X112173604Y-43680090D01*
X112290521Y-43397826D01*
X112460259Y-43143795D01*
X112676295Y-42927759D01*
X112930326Y-42758021D01*
X113212590Y-42641104D01*
X113362415Y-42611302D01*
X113512239Y-42581500D01*
X113817761Y-42581500D01*
X113967585Y-42611302D01*
G37*
G36*
X75867585Y-42611302D02*
G01*
X76017410Y-42641104D01*
X76299674Y-42758021D01*
X76553705Y-42927759D01*
X76769741Y-43143795D01*
X76939479Y-43397826D01*
X77056396Y-43680090D01*
X77116000Y-43979740D01*
X77116000Y-44285260D01*
X77056396Y-44584910D01*
X76939479Y-44867174D01*
X76769741Y-45121205D01*
X76553705Y-45337241D01*
X76299674Y-45506979D01*
X76017410Y-45623896D01*
X75867585Y-45653698D01*
X75717761Y-45683500D01*
X75412239Y-45683500D01*
X75262415Y-45653698D01*
X75112590Y-45623896D01*
X74830326Y-45506979D01*
X74576295Y-45337241D01*
X74360259Y-45121205D01*
X74190521Y-44867174D01*
X74073604Y-44584910D01*
X74014000Y-44285260D01*
X74014000Y-43979740D01*
X74073604Y-43680090D01*
X74190521Y-43397826D01*
X74360259Y-43143795D01*
X74576295Y-42927759D01*
X74830326Y-42758021D01*
X75112590Y-42641104D01*
X75262415Y-42611302D01*
X75412239Y-42581500D01*
X75717761Y-42581500D01*
X75867585Y-42611302D01*
G37*
G36*
X137343000Y-45433500D02*
G01*
X134691000Y-45433500D01*
X134691000Y-42831500D01*
X137343000Y-42831500D01*
X137343000Y-45433500D01*
G37*
G36*
X80193000Y-45433500D02*
G01*
X77541000Y-45433500D01*
X77541000Y-42831500D01*
X80193000Y-42831500D01*
X80193000Y-45433500D01*
G37*
G36*
X156393000Y-45433500D02*
G01*
X153741000Y-45433500D01*
X153741000Y-42831500D01*
X156393000Y-42831500D01*
X156393000Y-45433500D01*
G37*
G36*
X99243000Y-45433500D02*
G01*
X96591000Y-45433500D01*
X96591000Y-42831500D01*
X99243000Y-42831500D01*
X99243000Y-45433500D01*
G37*
G36*
X118293000Y-45433500D02*
G01*
X115641000Y-45433500D01*
X115641000Y-42831500D01*
X118293000Y-42831500D01*
X118293000Y-45433500D01*
G37*
G36*
X118784468Y-38147315D02*
G01*
X118823138Y-38159046D01*
X118858777Y-38178096D01*
X118890017Y-38203733D01*
X118915654Y-38234973D01*
X118934704Y-38270612D01*
X118946435Y-38309282D01*
X118951000Y-38355638D01*
X118951000Y-39431862D01*
X118946435Y-39478218D01*
X118934704Y-39516888D01*
X118915654Y-39552527D01*
X118890017Y-39583767D01*
X118858777Y-39609404D01*
X118823138Y-39628454D01*
X118784468Y-39640185D01*
X118738112Y-39644750D01*
X118086888Y-39644750D01*
X118040532Y-39640185D01*
X118001862Y-39628454D01*
X117966223Y-39609404D01*
X117934983Y-39583767D01*
X117909346Y-39552527D01*
X117890296Y-39516888D01*
X117878565Y-39478218D01*
X117874000Y-39431862D01*
X117874000Y-38355638D01*
X117878565Y-38309282D01*
X117890296Y-38270612D01*
X117909346Y-38234973D01*
X117934983Y-38203733D01*
X117966223Y-38178096D01*
X118001862Y-38159046D01*
X118040532Y-38147315D01*
X118086888Y-38142750D01*
X118738112Y-38142750D01*
X118784468Y-38147315D01*
G37*
G36*
X116909468Y-38147315D02*
G01*
X116948138Y-38159046D01*
X116983777Y-38178096D01*
X117015017Y-38203733D01*
X117040654Y-38234973D01*
X117059704Y-38270612D01*
X117071435Y-38309282D01*
X117076000Y-38355638D01*
X117076000Y-39431862D01*
X117071435Y-39478218D01*
X117059704Y-39516888D01*
X117040654Y-39552527D01*
X117015017Y-39583767D01*
X116983777Y-39609404D01*
X116948138Y-39628454D01*
X116909468Y-39640185D01*
X116863112Y-39644750D01*
X116211888Y-39644750D01*
X116165532Y-39640185D01*
X116126862Y-39628454D01*
X116091223Y-39609404D01*
X116059983Y-39583767D01*
X116034346Y-39552527D01*
X116015296Y-39516888D01*
X116003565Y-39478218D01*
X115999000Y-39431862D01*
X115999000Y-38355638D01*
X116003565Y-38309282D01*
X116015296Y-38270612D01*
X116034346Y-38234973D01*
X116059983Y-38203733D01*
X116091223Y-38178096D01*
X116126862Y-38159046D01*
X116165532Y-38147315D01*
X116211888Y-38142750D01*
X116863112Y-38142750D01*
X116909468Y-38147315D01*
G37*
G36*
X149772468Y-36972565D02*
G01*
X149811138Y-36984296D01*
X149846777Y-37003346D01*
X149878017Y-37028983D01*
X149903654Y-37060223D01*
X149922704Y-37095862D01*
X149934435Y-37134532D01*
X149939000Y-37180888D01*
X149939000Y-38257112D01*
X149934435Y-38303468D01*
X149922704Y-38342138D01*
X149903654Y-38377777D01*
X149878017Y-38409017D01*
X149846777Y-38434654D01*
X149811138Y-38453704D01*
X149772468Y-38465435D01*
X149726112Y-38470000D01*
X149074888Y-38470000D01*
X149028532Y-38465435D01*
X148989862Y-38453704D01*
X148954223Y-38434654D01*
X148922983Y-38409017D01*
X148897346Y-38377777D01*
X148878296Y-38342138D01*
X148866565Y-38303468D01*
X148862000Y-38257112D01*
X148862000Y-37180888D01*
X148866565Y-37134532D01*
X148878296Y-37095862D01*
X148897346Y-37060223D01*
X148922983Y-37028983D01*
X148954223Y-37003346D01*
X148989862Y-36984296D01*
X149028532Y-36972565D01*
X149074888Y-36968000D01*
X149726112Y-36968000D01*
X149772468Y-36972565D01*
G37*
G36*
X147897468Y-36972565D02*
G01*
X147936138Y-36984296D01*
X147971777Y-37003346D01*
X148003017Y-37028983D01*
X148028654Y-37060223D01*
X148047704Y-37095862D01*
X148059435Y-37134532D01*
X148064000Y-37180888D01*
X148064000Y-38257112D01*
X148059435Y-38303468D01*
X148047704Y-38342138D01*
X148028654Y-38377777D01*
X148003017Y-38409017D01*
X147971777Y-38434654D01*
X147936138Y-38453704D01*
X147897468Y-38465435D01*
X147851112Y-38470000D01*
X147199888Y-38470000D01*
X147153532Y-38465435D01*
X147114862Y-38453704D01*
X147079223Y-38434654D01*
X147047983Y-38409017D01*
X147022346Y-38377777D01*
X147003296Y-38342138D01*
X146991565Y-38303468D01*
X146987000Y-38257112D01*
X146987000Y-37180888D01*
X146991565Y-37134532D01*
X147003296Y-37095862D01*
X147022346Y-37060223D01*
X147047983Y-37028983D01*
X147079223Y-37003346D01*
X147114862Y-36984296D01*
X147153532Y-36972565D01*
X147199888Y-36968000D01*
X147851112Y-36968000D01*
X147897468Y-36972565D01*
G37*
G36*
X136025000Y-38251000D02*
G01*
X127373000Y-38251000D01*
X127373000Y-36649000D01*
X136025000Y-36649000D01*
X136025000Y-38251000D01*
G37*
G36*
X118784468Y-34972315D02*
G01*
X118823138Y-34984046D01*
X118858777Y-35003096D01*
X118890017Y-35028733D01*
X118915654Y-35059973D01*
X118934704Y-35095612D01*
X118946435Y-35134282D01*
X118951000Y-35180638D01*
X118951000Y-36256862D01*
X118946435Y-36303218D01*
X118934704Y-36341888D01*
X118915654Y-36377527D01*
X118890017Y-36408767D01*
X118858777Y-36434404D01*
X118823138Y-36453454D01*
X118784468Y-36465185D01*
X118738112Y-36469750D01*
X118086888Y-36469750D01*
X118040532Y-36465185D01*
X118001862Y-36453454D01*
X117966223Y-36434404D01*
X117934983Y-36408767D01*
X117909346Y-36377527D01*
X117890296Y-36341888D01*
X117878565Y-36303218D01*
X117874000Y-36256862D01*
X117874000Y-35180638D01*
X117878565Y-35134282D01*
X117890296Y-35095612D01*
X117909346Y-35059973D01*
X117934983Y-35028733D01*
X117966223Y-35003096D01*
X118001862Y-34984046D01*
X118040532Y-34972315D01*
X118086888Y-34967750D01*
X118738112Y-34967750D01*
X118784468Y-34972315D01*
G37*
G36*
X116909468Y-34972315D02*
G01*
X116948138Y-34984046D01*
X116983777Y-35003096D01*
X117015017Y-35028733D01*
X117040654Y-35059973D01*
X117059704Y-35095612D01*
X117071435Y-35134282D01*
X117076000Y-35180638D01*
X117076000Y-36256862D01*
X117071435Y-36303218D01*
X117059704Y-36341888D01*
X117040654Y-36377527D01*
X117015017Y-36408767D01*
X116983777Y-36434404D01*
X116948138Y-36453454D01*
X116909468Y-36465185D01*
X116863112Y-36469750D01*
X116211888Y-36469750D01*
X116165532Y-36465185D01*
X116126862Y-36453454D01*
X116091223Y-36434404D01*
X116059983Y-36408767D01*
X116034346Y-36377527D01*
X116015296Y-36341888D01*
X116003565Y-36303218D01*
X115999000Y-36256862D01*
X115999000Y-35180638D01*
X116003565Y-35134282D01*
X116015296Y-35095612D01*
X116034346Y-35059973D01*
X116059983Y-35028733D01*
X116091223Y-35003096D01*
X116126862Y-34984046D01*
X116165532Y-34972315D01*
X116211888Y-34967750D01*
X116863112Y-34967750D01*
X116909468Y-34972315D01*
G37*
G36*
X95262000Y-36461000D02*
G01*
X93460000Y-36461000D01*
X93460000Y-34659000D01*
X95262000Y-34659000D01*
X95262000Y-36461000D01*
G37*
G36*
X138200000Y-36076000D02*
G01*
X136598000Y-36076000D01*
X136598000Y-27424000D01*
X138200000Y-27424000D01*
X138200000Y-36076000D01*
G37*
G36*
X126800000Y-36076000D02*
G01*
X125198000Y-36076000D01*
X125198000Y-27424000D01*
X126800000Y-27424000D01*
X126800000Y-36076000D01*
G37*
G36*
X147897468Y-34432565D02*
G01*
X147936138Y-34444296D01*
X147971777Y-34463346D01*
X148003017Y-34488983D01*
X148028654Y-34520223D01*
X148047704Y-34555862D01*
X148059435Y-34594532D01*
X148064000Y-34640888D01*
X148064000Y-35717112D01*
X148059435Y-35763468D01*
X148047704Y-35802138D01*
X148028654Y-35837777D01*
X148003017Y-35869017D01*
X147971777Y-35894654D01*
X147936138Y-35913704D01*
X147897468Y-35925435D01*
X147851112Y-35930000D01*
X147199888Y-35930000D01*
X147153532Y-35925435D01*
X147114862Y-35913704D01*
X147079223Y-35894654D01*
X147047983Y-35869017D01*
X147022346Y-35837777D01*
X147003296Y-35802138D01*
X146991565Y-35763468D01*
X146987000Y-35717112D01*
X146987000Y-34640888D01*
X146991565Y-34594532D01*
X147003296Y-34555862D01*
X147022346Y-34520223D01*
X147047983Y-34488983D01*
X147079223Y-34463346D01*
X147114862Y-34444296D01*
X147153532Y-34432565D01*
X147199888Y-34428000D01*
X147851112Y-34428000D01*
X147897468Y-34432565D01*
G37*
G36*
X149772468Y-34432565D02*
G01*
X149811138Y-34444296D01*
X149846777Y-34463346D01*
X149878017Y-34488983D01*
X149903654Y-34520223D01*
X149922704Y-34555862D01*
X149934435Y-34594532D01*
X149939000Y-34640888D01*
X149939000Y-35717112D01*
X149934435Y-35763468D01*
X149922704Y-35802138D01*
X149903654Y-35837777D01*
X149878017Y-35869017D01*
X149846777Y-35894654D01*
X149811138Y-35913704D01*
X149772468Y-35925435D01*
X149726112Y-35930000D01*
X149074888Y-35930000D01*
X149028532Y-35925435D01*
X148989862Y-35913704D01*
X148954223Y-35894654D01*
X148922983Y-35869017D01*
X148897346Y-35837777D01*
X148878296Y-35802138D01*
X148866565Y-35763468D01*
X148862000Y-35717112D01*
X148862000Y-34640888D01*
X148866565Y-34594532D01*
X148878296Y-34555862D01*
X148897346Y-34520223D01*
X148922983Y-34488983D01*
X148954223Y-34463346D01*
X148989862Y-34444296D01*
X149028532Y-34432565D01*
X149074888Y-34428000D01*
X149726112Y-34428000D01*
X149772468Y-34432565D01*
G37*
G36*
X82054000Y-35318000D02*
G01*
X80252000Y-35318000D01*
X80252000Y-33516000D01*
X82054000Y-33516000D01*
X82054000Y-35318000D01*
G37*
G36*
X83806512Y-33520927D02*
G01*
X83955812Y-33550624D01*
X84119784Y-33618544D01*
X84267354Y-33717147D01*
X84392853Y-33842646D01*
X84491456Y-33990216D01*
X84559376Y-34154188D01*
X84589073Y-34303488D01*
X84594000Y-34328258D01*
X84594000Y-34505742D01*
X84589073Y-34530512D01*
X84559376Y-34679812D01*
X84491456Y-34843784D01*
X84392853Y-34991354D01*
X84267354Y-35116853D01*
X84119784Y-35215456D01*
X83955812Y-35283376D01*
X83806512Y-35313073D01*
X83781742Y-35318000D01*
X83604258Y-35318000D01*
X83579488Y-35313073D01*
X83430188Y-35283376D01*
X83266216Y-35215456D01*
X83118646Y-35116853D01*
X82993147Y-34991354D01*
X82894544Y-34843784D01*
X82826624Y-34679812D01*
X82796927Y-34530512D01*
X82792000Y-34505742D01*
X82792000Y-34328258D01*
X82796927Y-34303488D01*
X82826624Y-34154188D01*
X82894544Y-33990216D01*
X82993147Y-33842646D01*
X83118646Y-33717147D01*
X83266216Y-33618544D01*
X83430188Y-33550624D01*
X83579488Y-33520927D01*
X83604258Y-33516000D01*
X83781742Y-33516000D01*
X83806512Y-33520927D01*
G37*
G36*
X94474512Y-32123927D02*
G01*
X94623812Y-32153624D01*
X94787784Y-32221544D01*
X94935354Y-32320147D01*
X95060853Y-32445646D01*
X95159456Y-32593216D01*
X95227376Y-32757188D01*
X95262000Y-32931259D01*
X95262000Y-33108741D01*
X95227376Y-33282812D01*
X95159456Y-33446784D01*
X95060853Y-33594354D01*
X94935354Y-33719853D01*
X94787784Y-33818456D01*
X94623812Y-33886376D01*
X94474512Y-33916073D01*
X94449742Y-33921000D01*
X94272258Y-33921000D01*
X94247488Y-33916073D01*
X94098188Y-33886376D01*
X93934216Y-33818456D01*
X93786646Y-33719853D01*
X93661147Y-33594354D01*
X93562544Y-33446784D01*
X93494624Y-33282812D01*
X93460000Y-33108741D01*
X93460000Y-32931259D01*
X93494624Y-32757188D01*
X93562544Y-32593216D01*
X93661147Y-32445646D01*
X93786646Y-32320147D01*
X93934216Y-32221544D01*
X94098188Y-32153624D01*
X94247488Y-32123927D01*
X94272258Y-32119000D01*
X94449742Y-32119000D01*
X94474512Y-32123927D01*
G37*
G36*
X118440468Y-32280565D02*
G01*
X118479138Y-32292296D01*
X118514777Y-32311346D01*
X118546017Y-32336983D01*
X118571654Y-32368223D01*
X118590704Y-32403862D01*
X118602435Y-32442532D01*
X118607000Y-32488888D01*
X118607000Y-33140112D01*
X118602435Y-33186468D01*
X118590704Y-33225138D01*
X118571654Y-33260777D01*
X118546017Y-33292017D01*
X118514777Y-33317654D01*
X118479138Y-33336704D01*
X118440468Y-33348435D01*
X118394112Y-33353000D01*
X117317888Y-33353000D01*
X117271532Y-33348435D01*
X117232862Y-33336704D01*
X117197223Y-33317654D01*
X117165983Y-33292017D01*
X117140346Y-33260777D01*
X117121296Y-33225138D01*
X117109565Y-33186468D01*
X117105000Y-33140112D01*
X117105000Y-32488888D01*
X117109565Y-32442532D01*
X117121296Y-32403862D01*
X117140346Y-32368223D01*
X117165983Y-32336983D01*
X117197223Y-32311346D01*
X117232862Y-32292296D01*
X117271532Y-32280565D01*
X117317888Y-32276000D01*
X118394112Y-32276000D01*
X118440468Y-32280565D01*
G37*
G36*
X115138468Y-32280565D02*
G01*
X115177138Y-32292296D01*
X115212777Y-32311346D01*
X115244017Y-32336983D01*
X115269654Y-32368223D01*
X115288704Y-32403862D01*
X115300435Y-32442532D01*
X115305000Y-32488888D01*
X115305000Y-33140112D01*
X115300435Y-33186468D01*
X115288704Y-33225138D01*
X115269654Y-33260777D01*
X115244017Y-33292017D01*
X115212777Y-33317654D01*
X115177138Y-33336704D01*
X115138468Y-33348435D01*
X115092112Y-33353000D01*
X114015888Y-33353000D01*
X113969532Y-33348435D01*
X113930862Y-33336704D01*
X113895223Y-33317654D01*
X113863983Y-33292017D01*
X113838346Y-33260777D01*
X113819296Y-33225138D01*
X113807565Y-33186468D01*
X113803000Y-33140112D01*
X113803000Y-32488888D01*
X113807565Y-32442532D01*
X113819296Y-32403862D01*
X113838346Y-32368223D01*
X113863983Y-32336983D01*
X113895223Y-32311346D01*
X113930862Y-32292296D01*
X113969532Y-32280565D01*
X114015888Y-32276000D01*
X115092112Y-32276000D01*
X115138468Y-32280565D01*
G37*
G36*
X111836468Y-32280565D02*
G01*
X111875138Y-32292296D01*
X111910777Y-32311346D01*
X111942017Y-32336983D01*
X111967654Y-32368223D01*
X111986704Y-32403862D01*
X111998435Y-32442532D01*
X112003000Y-32488888D01*
X112003000Y-33140112D01*
X111998435Y-33186468D01*
X111986704Y-33225138D01*
X111967654Y-33260777D01*
X111942017Y-33292017D01*
X111910777Y-33317654D01*
X111875138Y-33336704D01*
X111836468Y-33348435D01*
X111790112Y-33353000D01*
X110713888Y-33353000D01*
X110667532Y-33348435D01*
X110628862Y-33336704D01*
X110593223Y-33317654D01*
X110561983Y-33292017D01*
X110536346Y-33260777D01*
X110517296Y-33225138D01*
X110505565Y-33186468D01*
X110501000Y-33140112D01*
X110501000Y-32488888D01*
X110505565Y-32442532D01*
X110517296Y-32403862D01*
X110536346Y-32368223D01*
X110561983Y-32336983D01*
X110593223Y-32311346D01*
X110628862Y-32292296D01*
X110667532Y-32280565D01*
X110713888Y-32276000D01*
X111790112Y-32276000D01*
X111836468Y-32280565D01*
G37*
G36*
X83806512Y-30980927D02*
G01*
X83955812Y-31010624D01*
X84119784Y-31078544D01*
X84267354Y-31177147D01*
X84392853Y-31302646D01*
X84491456Y-31450216D01*
X84559376Y-31614188D01*
X84594000Y-31788259D01*
X84594000Y-31965741D01*
X84559376Y-32139812D01*
X84491456Y-32303784D01*
X84392853Y-32451354D01*
X84267354Y-32576853D01*
X84119784Y-32675456D01*
X83955812Y-32743376D01*
X83806512Y-32773073D01*
X83781742Y-32778000D01*
X83604258Y-32778000D01*
X83579488Y-32773073D01*
X83430188Y-32743376D01*
X83266216Y-32675456D01*
X83118646Y-32576853D01*
X82993147Y-32451354D01*
X82894544Y-32303784D01*
X82826624Y-32139812D01*
X82792000Y-31965741D01*
X82792000Y-31788259D01*
X82826624Y-31614188D01*
X82894544Y-31450216D01*
X82993147Y-31302646D01*
X83118646Y-31177147D01*
X83266216Y-31078544D01*
X83430188Y-31010624D01*
X83579488Y-30980927D01*
X83604258Y-30976000D01*
X83781742Y-30976000D01*
X83806512Y-30980927D01*
G37*
G36*
X81266512Y-30980927D02*
G01*
X81415812Y-31010624D01*
X81579784Y-31078544D01*
X81727354Y-31177147D01*
X81852853Y-31302646D01*
X81951456Y-31450216D01*
X82019376Y-31614188D01*
X82054000Y-31788259D01*
X82054000Y-31965741D01*
X82019376Y-32139812D01*
X81951456Y-32303784D01*
X81852853Y-32451354D01*
X81727354Y-32576853D01*
X81579784Y-32675456D01*
X81415812Y-32743376D01*
X81266512Y-32773073D01*
X81241742Y-32778000D01*
X81064258Y-32778000D01*
X81039488Y-32773073D01*
X80890188Y-32743376D01*
X80726216Y-32675456D01*
X80578646Y-32576853D01*
X80453147Y-32451354D01*
X80354544Y-32303784D01*
X80286624Y-32139812D01*
X80252000Y-31965741D01*
X80252000Y-31788259D01*
X80286624Y-31614188D01*
X80354544Y-31450216D01*
X80453147Y-31302646D01*
X80578646Y-31177147D01*
X80726216Y-31078544D01*
X80890188Y-31010624D01*
X81039488Y-30980927D01*
X81064258Y-30976000D01*
X81241742Y-30976000D01*
X81266512Y-30980927D01*
G37*
G36*
X153365468Y-31391565D02*
G01*
X153404138Y-31403296D01*
X153439777Y-31422346D01*
X153471017Y-31447983D01*
X153496654Y-31479223D01*
X153515704Y-31514862D01*
X153527435Y-31553532D01*
X153532000Y-31599888D01*
X153532000Y-32251112D01*
X153527435Y-32297468D01*
X153515704Y-32336138D01*
X153496654Y-32371777D01*
X153471017Y-32403017D01*
X153439777Y-32428654D01*
X153404138Y-32447704D01*
X153365468Y-32459435D01*
X153319112Y-32464000D01*
X152242888Y-32464000D01*
X152196532Y-32459435D01*
X152157862Y-32447704D01*
X152122223Y-32428654D01*
X152090983Y-32403017D01*
X152065346Y-32371777D01*
X152046296Y-32336138D01*
X152034565Y-32297468D01*
X152030000Y-32251112D01*
X152030000Y-31599888D01*
X152034565Y-31553532D01*
X152046296Y-31514862D01*
X152065346Y-31479223D01*
X152090983Y-31447983D01*
X152122223Y-31422346D01*
X152157862Y-31403296D01*
X152196532Y-31391565D01*
X152242888Y-31387000D01*
X153319112Y-31387000D01*
X153365468Y-31391565D01*
G37*
G36*
X144221468Y-31391565D02*
G01*
X144260138Y-31403296D01*
X144295777Y-31422346D01*
X144327017Y-31447983D01*
X144352654Y-31479223D01*
X144371704Y-31514862D01*
X144383435Y-31553532D01*
X144388000Y-31599888D01*
X144388000Y-32251112D01*
X144383435Y-32297468D01*
X144371704Y-32336138D01*
X144352654Y-32371777D01*
X144327017Y-32403017D01*
X144295777Y-32428654D01*
X144260138Y-32447704D01*
X144221468Y-32459435D01*
X144175112Y-32464000D01*
X143098888Y-32464000D01*
X143052532Y-32459435D01*
X143013862Y-32447704D01*
X142978223Y-32428654D01*
X142946983Y-32403017D01*
X142921346Y-32371777D01*
X142902296Y-32336138D01*
X142890565Y-32297468D01*
X142886000Y-32251112D01*
X142886000Y-31599888D01*
X142890565Y-31553532D01*
X142902296Y-31514862D01*
X142921346Y-31479223D01*
X142946983Y-31447983D01*
X142978223Y-31422346D01*
X143013862Y-31403296D01*
X143052532Y-31391565D01*
X143098888Y-31387000D01*
X144175112Y-31387000D01*
X144221468Y-31391565D01*
G37*
G36*
X150282250Y-32457250D02*
G01*
X148780250Y-32457250D01*
X148780250Y-31155250D01*
X150282250Y-31155250D01*
X150282250Y-32457250D01*
G37*
G36*
X148082250Y-32457250D02*
G01*
X146580250Y-32457250D01*
X146580250Y-31155250D01*
X148082250Y-31155250D01*
X148082250Y-32457250D01*
G37*
G36*
X111836468Y-30405565D02*
G01*
X111875138Y-30417296D01*
X111910777Y-30436346D01*
X111942017Y-30461983D01*
X111967654Y-30493223D01*
X111986704Y-30528862D01*
X111998435Y-30567532D01*
X112003000Y-30613888D01*
X112003000Y-31265112D01*
X111998435Y-31311468D01*
X111986704Y-31350138D01*
X111967654Y-31385777D01*
X111942017Y-31417017D01*
X111910777Y-31442654D01*
X111875138Y-31461704D01*
X111836468Y-31473435D01*
X111790112Y-31478000D01*
X110713888Y-31478000D01*
X110667532Y-31473435D01*
X110628862Y-31461704D01*
X110593223Y-31442654D01*
X110561983Y-31417017D01*
X110536346Y-31385777D01*
X110517296Y-31350138D01*
X110505565Y-31311468D01*
X110501000Y-31265112D01*
X110501000Y-30613888D01*
X110505565Y-30567532D01*
X110517296Y-30528862D01*
X110536346Y-30493223D01*
X110561983Y-30461983D01*
X110593223Y-30436346D01*
X110628862Y-30417296D01*
X110667532Y-30405565D01*
X110713888Y-30401000D01*
X111790112Y-30401000D01*
X111836468Y-30405565D01*
G37*
G36*
X118440468Y-30405565D02*
G01*
X118479138Y-30417296D01*
X118514777Y-30436346D01*
X118546017Y-30461983D01*
X118571654Y-30493223D01*
X118590704Y-30528862D01*
X118602435Y-30567532D01*
X118607000Y-30613888D01*
X118607000Y-31265112D01*
X118602435Y-31311468D01*
X118590704Y-31350138D01*
X118571654Y-31385777D01*
X118546017Y-31417017D01*
X118514777Y-31442654D01*
X118479138Y-31461704D01*
X118440468Y-31473435D01*
X118394112Y-31478000D01*
X117317888Y-31478000D01*
X117271532Y-31473435D01*
X117232862Y-31461704D01*
X117197223Y-31442654D01*
X117165983Y-31417017D01*
X117140346Y-31385777D01*
X117121296Y-31350138D01*
X117109565Y-31311468D01*
X117105000Y-31265112D01*
X117105000Y-30613888D01*
X117109565Y-30567532D01*
X117121296Y-30528862D01*
X117140346Y-30493223D01*
X117165983Y-30461983D01*
X117197223Y-30436346D01*
X117232862Y-30417296D01*
X117271532Y-30405565D01*
X117317888Y-30401000D01*
X118394112Y-30401000D01*
X118440468Y-30405565D01*
G37*
G36*
X115138468Y-30405565D02*
G01*
X115177138Y-30417296D01*
X115212777Y-30436346D01*
X115244017Y-30461983D01*
X115269654Y-30493223D01*
X115288704Y-30528862D01*
X115300435Y-30567532D01*
X115305000Y-30613888D01*
X115305000Y-31265112D01*
X115300435Y-31311468D01*
X115288704Y-31350138D01*
X115269654Y-31385777D01*
X115244017Y-31417017D01*
X115212777Y-31442654D01*
X115177138Y-31461704D01*
X115138468Y-31473435D01*
X115092112Y-31478000D01*
X114015888Y-31478000D01*
X113969532Y-31473435D01*
X113930862Y-31461704D01*
X113895223Y-31442654D01*
X113863983Y-31417017D01*
X113838346Y-31385777D01*
X113819296Y-31350138D01*
X113807565Y-31311468D01*
X113803000Y-31265112D01*
X113803000Y-30613888D01*
X113807565Y-30567532D01*
X113819296Y-30528862D01*
X113838346Y-30493223D01*
X113863983Y-30461983D01*
X113895223Y-30436346D01*
X113930862Y-30417296D01*
X113969532Y-30405565D01*
X114015888Y-30401000D01*
X115092112Y-30401000D01*
X115138468Y-30405565D01*
G37*
G36*
X94474512Y-29583927D02*
G01*
X94623812Y-29613624D01*
X94787784Y-29681544D01*
X94935354Y-29780147D01*
X95060853Y-29905646D01*
X95159456Y-30053216D01*
X95227376Y-30217188D01*
X95247776Y-30319750D01*
X95262000Y-30391258D01*
X95262000Y-30568742D01*
X95258878Y-30584435D01*
X95227376Y-30742812D01*
X95159456Y-30906784D01*
X95060853Y-31054354D01*
X94935354Y-31179853D01*
X94787784Y-31278456D01*
X94623812Y-31346376D01*
X94474512Y-31376073D01*
X94449742Y-31381000D01*
X94272258Y-31381000D01*
X94247488Y-31376073D01*
X94098188Y-31346376D01*
X93934216Y-31278456D01*
X93786646Y-31179853D01*
X93661147Y-31054354D01*
X93562544Y-30906784D01*
X93494624Y-30742812D01*
X93463122Y-30584435D01*
X93460000Y-30568742D01*
X93460000Y-30391258D01*
X93474224Y-30319750D01*
X93494624Y-30217188D01*
X93562544Y-30053216D01*
X93661147Y-29905646D01*
X93786646Y-29780147D01*
X93934216Y-29681544D01*
X94098188Y-29613624D01*
X94247488Y-29583927D01*
X94272258Y-29579000D01*
X94449742Y-29579000D01*
X94474512Y-29583927D01*
G37*
G36*
X148082250Y-30757250D02*
G01*
X146580250Y-30757250D01*
X146580250Y-29455250D01*
X148082250Y-29455250D01*
X148082250Y-30757250D01*
G37*
G36*
X150282250Y-30757250D02*
G01*
X148780250Y-30757250D01*
X148780250Y-29455250D01*
X150282250Y-29455250D01*
X150282250Y-30757250D01*
G37*
G36*
X153365468Y-29516565D02*
G01*
X153404138Y-29528296D01*
X153439777Y-29547346D01*
X153471017Y-29572983D01*
X153496654Y-29604223D01*
X153515704Y-29639862D01*
X153527435Y-29678532D01*
X153532000Y-29724888D01*
X153532000Y-30376112D01*
X153527435Y-30422468D01*
X153515704Y-30461138D01*
X153496654Y-30496777D01*
X153471017Y-30528017D01*
X153439777Y-30553654D01*
X153404138Y-30572704D01*
X153365468Y-30584435D01*
X153319112Y-30589000D01*
X152242888Y-30589000D01*
X152196532Y-30584435D01*
X152157862Y-30572704D01*
X152122223Y-30553654D01*
X152090983Y-30528017D01*
X152065346Y-30496777D01*
X152046296Y-30461138D01*
X152034565Y-30422468D01*
X152030000Y-30376112D01*
X152030000Y-29724888D01*
X152034565Y-29678532D01*
X152046296Y-29639862D01*
X152065346Y-29604223D01*
X152090983Y-29572983D01*
X152122223Y-29547346D01*
X152157862Y-29528296D01*
X152196532Y-29516565D01*
X152242888Y-29512000D01*
X153319112Y-29512000D01*
X153365468Y-29516565D01*
G37*
G36*
X144221468Y-29516565D02*
G01*
X144260138Y-29528296D01*
X144295777Y-29547346D01*
X144327017Y-29572983D01*
X144352654Y-29604223D01*
X144371704Y-29639862D01*
X144383435Y-29678532D01*
X144388000Y-29724888D01*
X144388000Y-30376112D01*
X144383435Y-30422468D01*
X144371704Y-30461138D01*
X144352654Y-30496777D01*
X144327017Y-30528017D01*
X144295777Y-30553654D01*
X144260138Y-30572704D01*
X144221468Y-30584435D01*
X144175112Y-30589000D01*
X143098888Y-30589000D01*
X143052532Y-30584435D01*
X143013862Y-30572704D01*
X142978223Y-30553654D01*
X142946983Y-30528017D01*
X142921346Y-30496777D01*
X142902296Y-30461138D01*
X142890565Y-30422468D01*
X142886000Y-30376112D01*
X142886000Y-29724888D01*
X142890565Y-29678532D01*
X142902296Y-29639862D01*
X142921346Y-29604223D01*
X142946983Y-29572983D01*
X142978223Y-29547346D01*
X143013862Y-29528296D01*
X143052532Y-29516565D01*
X143098888Y-29512000D01*
X144175112Y-29512000D01*
X144221468Y-29516565D01*
G37*
G36*
X81266512Y-28440927D02*
G01*
X81415812Y-28470624D01*
X81579784Y-28538544D01*
X81727354Y-28637147D01*
X81852853Y-28762646D01*
X81951456Y-28910216D01*
X82019376Y-29074188D01*
X82054000Y-29248259D01*
X82054000Y-29425741D01*
X82019376Y-29599812D01*
X81951456Y-29763784D01*
X81852853Y-29911354D01*
X81727354Y-30036853D01*
X81579784Y-30135456D01*
X81415812Y-30203376D01*
X81266512Y-30233073D01*
X81241742Y-30238000D01*
X81064258Y-30238000D01*
X81039488Y-30233073D01*
X80890188Y-30203376D01*
X80726216Y-30135456D01*
X80578646Y-30036853D01*
X80453147Y-29911354D01*
X80354544Y-29763784D01*
X80286624Y-29599812D01*
X80252000Y-29425741D01*
X80252000Y-29248259D01*
X80286624Y-29074188D01*
X80354544Y-28910216D01*
X80453147Y-28762646D01*
X80578646Y-28637147D01*
X80726216Y-28538544D01*
X80890188Y-28470624D01*
X81039488Y-28440927D01*
X81064258Y-28436000D01*
X81241742Y-28436000D01*
X81266512Y-28440927D01*
G37*
G36*
X83806512Y-28440927D02*
G01*
X83955812Y-28470624D01*
X84119784Y-28538544D01*
X84267354Y-28637147D01*
X84392853Y-28762646D01*
X84491456Y-28910216D01*
X84559376Y-29074188D01*
X84594000Y-29248259D01*
X84594000Y-29425741D01*
X84559376Y-29599812D01*
X84491456Y-29763784D01*
X84392853Y-29911354D01*
X84267354Y-30036853D01*
X84119784Y-30135456D01*
X83955812Y-30203376D01*
X83806512Y-30233073D01*
X83781742Y-30238000D01*
X83604258Y-30238000D01*
X83579488Y-30233073D01*
X83430188Y-30203376D01*
X83266216Y-30135456D01*
X83118646Y-30036853D01*
X82993147Y-29911354D01*
X82894544Y-29763784D01*
X82826624Y-29599812D01*
X82792000Y-29425741D01*
X82792000Y-29248259D01*
X82826624Y-29074188D01*
X82894544Y-28910216D01*
X82993147Y-28762646D01*
X83118646Y-28637147D01*
X83266216Y-28538544D01*
X83430188Y-28470624D01*
X83579488Y-28440927D01*
X83604258Y-28436000D01*
X83781742Y-28436000D01*
X83806512Y-28440927D01*
G37*
G36*
X68185512Y-28186927D02*
G01*
X68334812Y-28216624D01*
X68498784Y-28284544D01*
X68646354Y-28383147D01*
X68771853Y-28508646D01*
X68870456Y-28656216D01*
X68938376Y-28820188D01*
X68973000Y-28994259D01*
X68973000Y-29171741D01*
X68938376Y-29345812D01*
X68870456Y-29509784D01*
X68771853Y-29657354D01*
X68646354Y-29782853D01*
X68498784Y-29881456D01*
X68334812Y-29949376D01*
X68185512Y-29979073D01*
X68160742Y-29984000D01*
X67983258Y-29984000D01*
X67958488Y-29979073D01*
X67809188Y-29949376D01*
X67645216Y-29881456D01*
X67497646Y-29782853D01*
X67372147Y-29657354D01*
X67273544Y-29509784D01*
X67205624Y-29345812D01*
X67171000Y-29171741D01*
X67171000Y-28994259D01*
X67205624Y-28820188D01*
X67273544Y-28656216D01*
X67372147Y-28508646D01*
X67497646Y-28383147D01*
X67645216Y-28284544D01*
X67809188Y-28216624D01*
X67958488Y-28186927D01*
X67983258Y-28182000D01*
X68160742Y-28182000D01*
X68185512Y-28186927D01*
G37*
G36*
X94474512Y-27043927D02*
G01*
X94623812Y-27073624D01*
X94787784Y-27141544D01*
X94935354Y-27240147D01*
X95060853Y-27365646D01*
X95159456Y-27513216D01*
X95227376Y-27677188D01*
X95262000Y-27851259D01*
X95262000Y-28028741D01*
X95227376Y-28202812D01*
X95159456Y-28366784D01*
X95060853Y-28514354D01*
X94935354Y-28639853D01*
X94787784Y-28738456D01*
X94623812Y-28806376D01*
X94474512Y-28836073D01*
X94449742Y-28841000D01*
X94272258Y-28841000D01*
X94247488Y-28836073D01*
X94098188Y-28806376D01*
X93934216Y-28738456D01*
X93786646Y-28639853D01*
X93661147Y-28514354D01*
X93562544Y-28366784D01*
X93494624Y-28202812D01*
X93460000Y-28028741D01*
X93460000Y-27851259D01*
X93494624Y-27677188D01*
X93562544Y-27513216D01*
X93661147Y-27365646D01*
X93786646Y-27240147D01*
X93934216Y-27141544D01*
X94098188Y-27073624D01*
X94247488Y-27043927D01*
X94272258Y-27039000D01*
X94449742Y-27039000D01*
X94474512Y-27043927D01*
G37*
G36*
X117544468Y-27066565D02*
G01*
X117583138Y-27078296D01*
X117618777Y-27097346D01*
X117650017Y-27122983D01*
X117675654Y-27154223D01*
X117694704Y-27189862D01*
X117706435Y-27228532D01*
X117711000Y-27274888D01*
X117711000Y-28351112D01*
X117706435Y-28397468D01*
X117694704Y-28436138D01*
X117675654Y-28471777D01*
X117650017Y-28503017D01*
X117618777Y-28528654D01*
X117583138Y-28547704D01*
X117544468Y-28559435D01*
X117498112Y-28564000D01*
X116846888Y-28564000D01*
X116800532Y-28559435D01*
X116761862Y-28547704D01*
X116726223Y-28528654D01*
X116694983Y-28503017D01*
X116669346Y-28471777D01*
X116650296Y-28436138D01*
X116638565Y-28397468D01*
X116634000Y-28351112D01*
X116634000Y-27274888D01*
X116638565Y-27228532D01*
X116650296Y-27189862D01*
X116669346Y-27154223D01*
X116694983Y-27122983D01*
X116726223Y-27097346D01*
X116761862Y-27078296D01*
X116800532Y-27066565D01*
X116846888Y-27062000D01*
X117498112Y-27062000D01*
X117544468Y-27066565D01*
G37*
G36*
X119419468Y-27066565D02*
G01*
X119458138Y-27078296D01*
X119493777Y-27097346D01*
X119525017Y-27122983D01*
X119550654Y-27154223D01*
X119569704Y-27189862D01*
X119581435Y-27228532D01*
X119586000Y-27274888D01*
X119586000Y-28351112D01*
X119581435Y-28397468D01*
X119569704Y-28436138D01*
X119550654Y-28471777D01*
X119525017Y-28503017D01*
X119493777Y-28528654D01*
X119458138Y-28547704D01*
X119419468Y-28559435D01*
X119373112Y-28564000D01*
X118721888Y-28564000D01*
X118675532Y-28559435D01*
X118636862Y-28547704D01*
X118601223Y-28528654D01*
X118569983Y-28503017D01*
X118544346Y-28471777D01*
X118525296Y-28436138D01*
X118513565Y-28397468D01*
X118509000Y-28351112D01*
X118509000Y-27274888D01*
X118513565Y-27228532D01*
X118525296Y-27189862D01*
X118544346Y-27154223D01*
X118569983Y-27122983D01*
X118601223Y-27097346D01*
X118636862Y-27078296D01*
X118675532Y-27066565D01*
X118721888Y-27062000D01*
X119373112Y-27062000D01*
X119419468Y-27066565D01*
G37*
G36*
X121354468Y-27066565D02*
G01*
X121393138Y-27078296D01*
X121428777Y-27097346D01*
X121460017Y-27122983D01*
X121485654Y-27154223D01*
X121504704Y-27189862D01*
X121516435Y-27228532D01*
X121521000Y-27274888D01*
X121521000Y-28351112D01*
X121516435Y-28397468D01*
X121504704Y-28436138D01*
X121485654Y-28471777D01*
X121460017Y-28503017D01*
X121428777Y-28528654D01*
X121393138Y-28547704D01*
X121354468Y-28559435D01*
X121308112Y-28564000D01*
X120656888Y-28564000D01*
X120610532Y-28559435D01*
X120571862Y-28547704D01*
X120536223Y-28528654D01*
X120504983Y-28503017D01*
X120479346Y-28471777D01*
X120460296Y-28436138D01*
X120448565Y-28397468D01*
X120444000Y-28351112D01*
X120444000Y-27274888D01*
X120448565Y-27228532D01*
X120460296Y-27189862D01*
X120479346Y-27154223D01*
X120504983Y-27122983D01*
X120536223Y-27097346D01*
X120571862Y-27078296D01*
X120610532Y-27066565D01*
X120656888Y-27062000D01*
X121308112Y-27062000D01*
X121354468Y-27066565D01*
G37*
G36*
X123229468Y-27066565D02*
G01*
X123268138Y-27078296D01*
X123303777Y-27097346D01*
X123335017Y-27122983D01*
X123360654Y-27154223D01*
X123379704Y-27189862D01*
X123391435Y-27228532D01*
X123396000Y-27274888D01*
X123396000Y-28351112D01*
X123391435Y-28397468D01*
X123379704Y-28436138D01*
X123360654Y-28471777D01*
X123335017Y-28503017D01*
X123303777Y-28528654D01*
X123268138Y-28547704D01*
X123229468Y-28559435D01*
X123183112Y-28564000D01*
X122531888Y-28564000D01*
X122485532Y-28559435D01*
X122446862Y-28547704D01*
X122411223Y-28528654D01*
X122379983Y-28503017D01*
X122354346Y-28471777D01*
X122335296Y-28436138D01*
X122323565Y-28397468D01*
X122319000Y-28351112D01*
X122319000Y-27274888D01*
X122323565Y-27228532D01*
X122335296Y-27189862D01*
X122354346Y-27154223D01*
X122379983Y-27122983D01*
X122411223Y-27097346D01*
X122446862Y-27078296D01*
X122485532Y-27066565D01*
X122531888Y-27062000D01*
X123183112Y-27062000D01*
X123229468Y-27066565D01*
G37*
G36*
X103385604Y-25621347D02*
G01*
X103422144Y-25632432D01*
X103455821Y-25650433D01*
X103485341Y-25674659D01*
X103509567Y-25704179D01*
X103527568Y-25737856D01*
X103538653Y-25774396D01*
X103543000Y-25818538D01*
X103543000Y-27267462D01*
X103538653Y-27311604D01*
X103527568Y-27348144D01*
X103509567Y-27381821D01*
X103485341Y-27411341D01*
X103455821Y-27435567D01*
X103422144Y-27453568D01*
X103385604Y-27464653D01*
X103341462Y-27469000D01*
X102392538Y-27469000D01*
X102348396Y-27464653D01*
X102311856Y-27453568D01*
X102278179Y-27435567D01*
X102248659Y-27411341D01*
X102224433Y-27381821D01*
X102206432Y-27348144D01*
X102195347Y-27311604D01*
X102191000Y-27267462D01*
X102191000Y-25818538D01*
X102195347Y-25774396D01*
X102206432Y-25737856D01*
X102224433Y-25704179D01*
X102248659Y-25674659D01*
X102278179Y-25650433D01*
X102311856Y-25632432D01*
X102348396Y-25621347D01*
X102392538Y-25617000D01*
X103341462Y-25617000D01*
X103385604Y-25621347D01*
G37*
G36*
X106185604Y-25621347D02*
G01*
X106222144Y-25632432D01*
X106255821Y-25650433D01*
X106285341Y-25674659D01*
X106309567Y-25704179D01*
X106327568Y-25737856D01*
X106338653Y-25774396D01*
X106343000Y-25818538D01*
X106343000Y-27267462D01*
X106338653Y-27311604D01*
X106327568Y-27348144D01*
X106309567Y-27381821D01*
X106285341Y-27411341D01*
X106255821Y-27435567D01*
X106222144Y-27453568D01*
X106185604Y-27464653D01*
X106141462Y-27469000D01*
X105192538Y-27469000D01*
X105148396Y-27464653D01*
X105111856Y-27453568D01*
X105078179Y-27435567D01*
X105048659Y-27411341D01*
X105024433Y-27381821D01*
X105006432Y-27348144D01*
X104995347Y-27311604D01*
X104991000Y-27267462D01*
X104991000Y-25818538D01*
X104995347Y-25774396D01*
X105006432Y-25737856D01*
X105024433Y-25704179D01*
X105048659Y-25674659D01*
X105078179Y-25650433D01*
X105111856Y-25632432D01*
X105148396Y-25621347D01*
X105192538Y-25617000D01*
X106141462Y-25617000D01*
X106185604Y-25621347D01*
G37*
G36*
X68185512Y-25646927D02*
G01*
X68334812Y-25676624D01*
X68498784Y-25744544D01*
X68646354Y-25843147D01*
X68771853Y-25968646D01*
X68870456Y-26116216D01*
X68938376Y-26280188D01*
X68973000Y-26454259D01*
X68973000Y-26631741D01*
X68938376Y-26805812D01*
X68870456Y-26969784D01*
X68771853Y-27117354D01*
X68646354Y-27242853D01*
X68498784Y-27341456D01*
X68334812Y-27409376D01*
X68185512Y-27439073D01*
X68160742Y-27444000D01*
X67983258Y-27444000D01*
X67958488Y-27439073D01*
X67809188Y-27409376D01*
X67645216Y-27341456D01*
X67497646Y-27242853D01*
X67372147Y-27117354D01*
X67273544Y-26969784D01*
X67205624Y-26805812D01*
X67171000Y-26631741D01*
X67171000Y-26454259D01*
X67205624Y-26280188D01*
X67273544Y-26116216D01*
X67372147Y-25968646D01*
X67497646Y-25843147D01*
X67645216Y-25744544D01*
X67809188Y-25676624D01*
X67958488Y-25646927D01*
X67983258Y-25642000D01*
X68160742Y-25642000D01*
X68185512Y-25646927D01*
G37*
G36*
X136025000Y-26851000D02*
G01*
X127373000Y-26851000D01*
X127373000Y-25249000D01*
X136025000Y-25249000D01*
X136025000Y-26851000D01*
G37*
G36*
X145488500Y-25469750D02*
G01*
X143586500Y-25469750D01*
X143586500Y-24267750D01*
X145488500Y-24267750D01*
X145488500Y-25469750D01*
G37*
G36*
X151688500Y-25469750D02*
G01*
X149786500Y-25469750D01*
X149786500Y-24267750D01*
X151688500Y-24267750D01*
X151688500Y-25469750D01*
G37*
G36*
X68185512Y-23106927D02*
G01*
X68334812Y-23136624D01*
X68498784Y-23204544D01*
X68646354Y-23303147D01*
X68771853Y-23428646D01*
X68870456Y-23576216D01*
X68938376Y-23740188D01*
X68973000Y-23914259D01*
X68973000Y-24091741D01*
X68938376Y-24265812D01*
X68870456Y-24429784D01*
X68771853Y-24577354D01*
X68646354Y-24702853D01*
X68498784Y-24801456D01*
X68334812Y-24869376D01*
X68185512Y-24899073D01*
X68160742Y-24904000D01*
X67983258Y-24904000D01*
X67958488Y-24899073D01*
X67809188Y-24869376D01*
X67645216Y-24801456D01*
X67497646Y-24702853D01*
X67372147Y-24577354D01*
X67273544Y-24429784D01*
X67205624Y-24265812D01*
X67171000Y-24091741D01*
X67171000Y-23914259D01*
X67205624Y-23740188D01*
X67273544Y-23576216D01*
X67372147Y-23428646D01*
X67497646Y-23303147D01*
X67645216Y-23204544D01*
X67809188Y-23136624D01*
X67958488Y-23106927D01*
X67983258Y-23102000D01*
X68160742Y-23102000D01*
X68185512Y-23106927D01*
G37*
G36*
X116729627Y-21400037D02*
G01*
X116899466Y-21451557D01*
X117055991Y-21535222D01*
X117091729Y-21564552D01*
X117193186Y-21647814D01*
X117276448Y-21749271D01*
X117305778Y-21785009D01*
X117389443Y-21941534D01*
X117440963Y-22111373D01*
X117454000Y-22243742D01*
X117454000Y-23332258D01*
X117440963Y-23464627D01*
X117389443Y-23634466D01*
X117305778Y-23790991D01*
X117276448Y-23826729D01*
X117193186Y-23928186D01*
X117055989Y-24040779D01*
X116960646Y-24091741D01*
X116899465Y-24124443D01*
X116729626Y-24175963D01*
X116553000Y-24193359D01*
X116376373Y-24175963D01*
X116206534Y-24124443D01*
X116050009Y-24040778D01*
X116014271Y-24011448D01*
X115912814Y-23928186D01*
X115800221Y-23790989D01*
X115716558Y-23634467D01*
X115698888Y-23576218D01*
X115665037Y-23464626D01*
X115652000Y-23332257D01*
X115652001Y-22243742D01*
X115665038Y-22111373D01*
X115716558Y-21941534D01*
X115800223Y-21785009D01*
X115829553Y-21749271D01*
X115912815Y-21647814D01*
X116014272Y-21564552D01*
X116050010Y-21535222D01*
X116206535Y-21451557D01*
X116376374Y-21400037D01*
X116553000Y-21382641D01*
X116729627Y-21400037D01*
G37*
G36*
X109429627Y-21400037D02*
G01*
X109599466Y-21451557D01*
X109755991Y-21535222D01*
X109791729Y-21564552D01*
X109893186Y-21647814D01*
X109976448Y-21749271D01*
X110005778Y-21785009D01*
X110089443Y-21941534D01*
X110140963Y-22111373D01*
X110154000Y-22243742D01*
X110154000Y-23332258D01*
X110140963Y-23464627D01*
X110089443Y-23634466D01*
X110005778Y-23790991D01*
X109976448Y-23826729D01*
X109893186Y-23928186D01*
X109755989Y-24040779D01*
X109660646Y-24091741D01*
X109599465Y-24124443D01*
X109429626Y-24175963D01*
X109253000Y-24193359D01*
X109076373Y-24175963D01*
X108906534Y-24124443D01*
X108750009Y-24040778D01*
X108714271Y-24011448D01*
X108612814Y-23928186D01*
X108500221Y-23790989D01*
X108416558Y-23634467D01*
X108398888Y-23576218D01*
X108365037Y-23464626D01*
X108352000Y-23332257D01*
X108352001Y-22243742D01*
X108365038Y-22111373D01*
X108416558Y-21941534D01*
X108500223Y-21785009D01*
X108529553Y-21749271D01*
X108612815Y-21647814D01*
X108714272Y-21564552D01*
X108750010Y-21535222D01*
X108906535Y-21451557D01*
X109076374Y-21400037D01*
X109253000Y-21382641D01*
X109429627Y-21400037D01*
G37*
G36*
X114804000Y-23964000D02*
G01*
X111002000Y-23964000D01*
X111002000Y-21612000D01*
X114804000Y-21612000D01*
X114804000Y-23964000D01*
G37*
G36*
X95109512Y-21074927D02*
G01*
X95258812Y-21104624D01*
X95422784Y-21172544D01*
X95570354Y-21271147D01*
X95695853Y-21396646D01*
X95794456Y-21544216D01*
X95862376Y-21708188D01*
X95897000Y-21882259D01*
X95897000Y-22059741D01*
X95862376Y-22233812D01*
X95794456Y-22397784D01*
X95695853Y-22545354D01*
X95570354Y-22670853D01*
X95422784Y-22769456D01*
X95258812Y-22837376D01*
X95109512Y-22867073D01*
X95084742Y-22872000D01*
X94907258Y-22872000D01*
X94882488Y-22867073D01*
X94733188Y-22837376D01*
X94569216Y-22769456D01*
X94421646Y-22670853D01*
X94296147Y-22545354D01*
X94197544Y-22397784D01*
X94129624Y-22233812D01*
X94095000Y-22059741D01*
X94095000Y-21882259D01*
X94129624Y-21708188D01*
X94197544Y-21544216D01*
X94296147Y-21396646D01*
X94421646Y-21271147D01*
X94569216Y-21172544D01*
X94733188Y-21104624D01*
X94882488Y-21074927D01*
X94907258Y-21070000D01*
X95084742Y-21070000D01*
X95109512Y-21074927D01*
G37*
G36*
X100189512Y-21074927D02*
G01*
X100338812Y-21104624D01*
X100502784Y-21172544D01*
X100650354Y-21271147D01*
X100775853Y-21396646D01*
X100874456Y-21544216D01*
X100942376Y-21708188D01*
X100977000Y-21882259D01*
X100977000Y-22059741D01*
X100942376Y-22233812D01*
X100874456Y-22397784D01*
X100775853Y-22545354D01*
X100650354Y-22670853D01*
X100502784Y-22769456D01*
X100338812Y-22837376D01*
X100189512Y-22867073D01*
X100164742Y-22872000D01*
X99987258Y-22872000D01*
X99962488Y-22867073D01*
X99813188Y-22837376D01*
X99649216Y-22769456D01*
X99501646Y-22670853D01*
X99376147Y-22545354D01*
X99277544Y-22397784D01*
X99209624Y-22233812D01*
X99175000Y-22059741D01*
X99175000Y-21882259D01*
X99209624Y-21708188D01*
X99277544Y-21544216D01*
X99376147Y-21396646D01*
X99501646Y-21271147D01*
X99649216Y-21172544D01*
X99813188Y-21104624D01*
X99962488Y-21074927D01*
X99987258Y-21070000D01*
X100164742Y-21070000D01*
X100189512Y-21074927D01*
G37*
G36*
X97649512Y-21074927D02*
G01*
X97798812Y-21104624D01*
X97962784Y-21172544D01*
X98110354Y-21271147D01*
X98235853Y-21396646D01*
X98334456Y-21544216D01*
X98402376Y-21708188D01*
X98437000Y-21882259D01*
X98437000Y-22059741D01*
X98402376Y-22233812D01*
X98334456Y-22397784D01*
X98235853Y-22545354D01*
X98110354Y-22670853D01*
X97962784Y-22769456D01*
X97798812Y-22837376D01*
X97649512Y-22867073D01*
X97624742Y-22872000D01*
X97447258Y-22872000D01*
X97422488Y-22867073D01*
X97273188Y-22837376D01*
X97109216Y-22769456D01*
X96961646Y-22670853D01*
X96836147Y-22545354D01*
X96737544Y-22397784D01*
X96669624Y-22233812D01*
X96635000Y-22059741D01*
X96635000Y-21882259D01*
X96669624Y-21708188D01*
X96737544Y-21544216D01*
X96836147Y-21396646D01*
X96961646Y-21271147D01*
X97109216Y-21172544D01*
X97273188Y-21104624D01*
X97422488Y-21074927D01*
X97447258Y-21070000D01*
X97624742Y-21070000D01*
X97649512Y-21074927D01*
G37*
G36*
X103517000Y-22872000D02*
G01*
X101715000Y-22872000D01*
X101715000Y-21070000D01*
X103517000Y-21070000D01*
X103517000Y-22872000D01*
G37*
G36*
X68973000Y-22364000D02*
G01*
X67171000Y-22364000D01*
X67171000Y-20562000D01*
X68973000Y-20562000D01*
X68973000Y-22364000D01*
G37*
G36*
X145488500Y-21769750D02*
G01*
X143586500Y-21769750D01*
X143586500Y-20567750D01*
X145488500Y-20567750D01*
X145488500Y-21769750D01*
G37*
G36*
X151688500Y-21769750D02*
G01*
X149786500Y-21769750D01*
X149786500Y-20567750D01*
X151688500Y-20567750D01*
X151688500Y-21769750D01*
G37*
G36*
X109429627Y-16900037D02*
G01*
X109599466Y-16951557D01*
X109755991Y-17035222D01*
X109791729Y-17064552D01*
X109893186Y-17147814D01*
X109976448Y-17249271D01*
X110005778Y-17285009D01*
X110089443Y-17441534D01*
X110140963Y-17611373D01*
X110154000Y-17743742D01*
X110154000Y-18832258D01*
X110140963Y-18964627D01*
X110089443Y-19134466D01*
X110005778Y-19290991D01*
X109976448Y-19326729D01*
X109893186Y-19428186D01*
X109755989Y-19540779D01*
X109599467Y-19624442D01*
X109599465Y-19624443D01*
X109429626Y-19675963D01*
X109253000Y-19693359D01*
X109076373Y-19675963D01*
X108906534Y-19624443D01*
X108750009Y-19540778D01*
X108714271Y-19511448D01*
X108612814Y-19428186D01*
X108500221Y-19290989D01*
X108416558Y-19134467D01*
X108416557Y-19134465D01*
X108365037Y-18964626D01*
X108352000Y-18832257D01*
X108352001Y-17743742D01*
X108365038Y-17611373D01*
X108416558Y-17441534D01*
X108500223Y-17285009D01*
X108529553Y-17249271D01*
X108612815Y-17147814D01*
X108714272Y-17064552D01*
X108750010Y-17035222D01*
X108906535Y-16951557D01*
X109076374Y-16900037D01*
X109253000Y-16882641D01*
X109429627Y-16900037D01*
G37*
G36*
X116729627Y-16900037D02*
G01*
X116899466Y-16951557D01*
X117055991Y-17035222D01*
X117091729Y-17064552D01*
X117193186Y-17147814D01*
X117276448Y-17249271D01*
X117305778Y-17285009D01*
X117389443Y-17441534D01*
X117440963Y-17611373D01*
X117454000Y-17743742D01*
X117454000Y-18832258D01*
X117440963Y-18964627D01*
X117389443Y-19134466D01*
X117305778Y-19290991D01*
X117276448Y-19326729D01*
X117193186Y-19428186D01*
X117055989Y-19540779D01*
X116899467Y-19624442D01*
X116899465Y-19624443D01*
X116729626Y-19675963D01*
X116553000Y-19693359D01*
X116376373Y-19675963D01*
X116206534Y-19624443D01*
X116050009Y-19540778D01*
X116014271Y-19511448D01*
X115912814Y-19428186D01*
X115800221Y-19290989D01*
X115716558Y-19134467D01*
X115716557Y-19134465D01*
X115665037Y-18964626D01*
X115652000Y-18832257D01*
X115652001Y-17743742D01*
X115665038Y-17611373D01*
X115716558Y-17441534D01*
X115800223Y-17285009D01*
X115829553Y-17249271D01*
X115912815Y-17147814D01*
X116014272Y-17064552D01*
X116050010Y-17035222D01*
X116206535Y-16951557D01*
X116376374Y-16900037D01*
X116553000Y-16882641D01*
X116729627Y-16900037D01*
G37*
M02*
