G04 #@! TF.GenerationSoftware,KiCad,Pcbnew,(5.1.5)-3*
G04 #@! TF.CreationDate,2020-04-08T16:54:26+08:00*
G04 #@! TF.ProjectId,KaChi-Juu Macropad,4b614368-692d-44a7-9575-204d6163726f,rev?*
G04 #@! TF.SameCoordinates,Original*
G04 #@! TF.FileFunction,Legend,Bot*
G04 #@! TF.FilePolarity,Positive*
%FSLAX46Y46*%
G04 Gerber Fmt 4.6, Leading zero omitted, Abs format (unit mm)*
G04 Created by KiCad (PCBNEW (5.1.5)-3) date 2020-04-08 16:54:26*
%MOMM*%
%LPD*%
G04 APERTURE LIST*
%ADD10C,0.120000*%
%ADD11C,0.150000*%
G04 APERTURE END LIST*
D10*
X150431250Y-32606250D02*
X146431250Y-32606250D01*
X150431250Y-29306250D02*
X150431250Y-32606250D01*
D11*
X109053000Y-18288000D02*
X109053000Y-23738000D01*
X116753000Y-18288000D02*
X116753000Y-23738000D01*
X109053000Y-23738000D02*
X116753000Y-23738000D01*
X126524000Y-36350000D02*
X125249000Y-36350000D01*
X136874000Y-36925000D02*
X136199000Y-36925000D01*
X136874000Y-26575000D02*
X136199000Y-26575000D01*
X126524000Y-26575000D02*
X127199000Y-26575000D01*
X126524000Y-36925000D02*
X127199000Y-36925000D01*
X126524000Y-26575000D02*
X126524000Y-27250000D01*
X136874000Y-26575000D02*
X136874000Y-27250000D01*
X136874000Y-36925000D02*
X136874000Y-36250000D01*
X126524000Y-36925000D02*
X126524000Y-36350000D01*
X145037500Y-25618750D02*
X150237500Y-25618750D01*
X150237500Y-25618750D02*
X150237500Y-20418750D01*
X150237500Y-20418750D02*
X145037500Y-20418750D01*
X145037500Y-20418750D02*
X145037500Y-25618750D01*
X148637500Y-23018750D02*
G75*
G03X148637500Y-23018750I-1000000J0D01*
G01*
D10*
X153491000Y-30729422D02*
X153491000Y-31246578D01*
X152071000Y-30729422D02*
X152071000Y-31246578D01*
X117733578Y-39603750D02*
X117216422Y-39603750D01*
X117733578Y-38183750D02*
X117216422Y-38183750D01*
X122178578Y-28523000D02*
X121661422Y-28523000D01*
X122178578Y-27103000D02*
X121661422Y-27103000D01*
X117851422Y-27103000D02*
X118368578Y-27103000D01*
X117851422Y-28523000D02*
X118368578Y-28523000D01*
X103664936Y-25633000D02*
X104869064Y-25633000D01*
X103664936Y-27453000D02*
X104869064Y-27453000D01*
X146975000Y-75612500D02*
X150875000Y-75612500D01*
X146975000Y-73612500D02*
X150875000Y-73612500D01*
X146975000Y-75612500D02*
X146975000Y-73612500D01*
X146975000Y-56562500D02*
X150875000Y-56562500D01*
X146975000Y-54562500D02*
X150875000Y-54562500D01*
X146975000Y-56562500D02*
X146975000Y-54562500D01*
X127925000Y-75612500D02*
X131825000Y-75612500D01*
X127925000Y-73612500D02*
X131825000Y-73612500D01*
X127925000Y-75612500D02*
X127925000Y-73612500D01*
X127925000Y-56562500D02*
X131825000Y-56562500D01*
X127925000Y-54562500D02*
X131825000Y-54562500D01*
X127925000Y-56562500D02*
X127925000Y-54562500D01*
X108875000Y-75612500D02*
X112775000Y-75612500D01*
X108875000Y-73612500D02*
X112775000Y-73612500D01*
X108875000Y-75612500D02*
X108875000Y-73612500D01*
X108875000Y-56562500D02*
X112775000Y-56562500D01*
X108875000Y-54562500D02*
X112775000Y-54562500D01*
X108875000Y-56562500D02*
X108875000Y-54562500D01*
X89825000Y-75612500D02*
X93725000Y-75612500D01*
X89825000Y-73612500D02*
X93725000Y-73612500D01*
X89825000Y-75612500D02*
X89825000Y-73612500D01*
X89825000Y-56562500D02*
X93725000Y-56562500D01*
X89825000Y-54562500D02*
X93725000Y-54562500D01*
X89825000Y-56562500D02*
X89825000Y-54562500D01*
X70775000Y-75612500D02*
X74675000Y-75612500D01*
X70775000Y-73612500D02*
X74675000Y-73612500D01*
X70775000Y-75612500D02*
X70775000Y-73612500D01*
X70775000Y-56562500D02*
X74675000Y-56562500D01*
X70775000Y-54562500D02*
X74675000Y-54562500D01*
X70775000Y-56562500D02*
X70775000Y-54562500D01*
X115264000Y-31618422D02*
X115264000Y-32135578D01*
X113844000Y-31618422D02*
X113844000Y-32135578D01*
X118566000Y-31618422D02*
X118566000Y-32135578D01*
X117146000Y-31618422D02*
X117146000Y-32135578D01*
X111962000Y-31618422D02*
X111962000Y-32135578D01*
X110542000Y-31618422D02*
X110542000Y-32135578D01*
X148204422Y-37009000D02*
X148721578Y-37009000D01*
X148204422Y-38429000D02*
X148721578Y-38429000D01*
X117733578Y-36428750D02*
X117216422Y-36428750D01*
X117733578Y-35008750D02*
X117216422Y-35008750D01*
X144347000Y-30729422D02*
X144347000Y-31246578D01*
X142927000Y-30729422D02*
X142927000Y-31246578D01*
X148721578Y-35889000D02*
X148204422Y-35889000D01*
X148721578Y-34469000D02*
X148204422Y-34469000D01*
D11*
X148907440Y-28482440D02*
X148907440Y-28958630D01*
X149240773Y-27958630D02*
X148907440Y-28482440D01*
X148574107Y-27958630D01*
X147716964Y-28958630D02*
X148288392Y-28958630D01*
X148002678Y-28958630D02*
X148002678Y-27958630D01*
X148097916Y-28101488D01*
X148193154Y-28196726D01*
X148288392Y-28244345D01*
X114641095Y-19772380D02*
X114641095Y-20581904D01*
X114593476Y-20677142D01*
X114545857Y-20724761D01*
X114450619Y-20772380D01*
X114260142Y-20772380D01*
X114164904Y-20724761D01*
X114117285Y-20677142D01*
X114069666Y-20581904D01*
X114069666Y-19772380D01*
X113641095Y-20724761D02*
X113498238Y-20772380D01*
X113260142Y-20772380D01*
X113164904Y-20724761D01*
X113117285Y-20677142D01*
X113069666Y-20581904D01*
X113069666Y-20486666D01*
X113117285Y-20391428D01*
X113164904Y-20343809D01*
X113260142Y-20296190D01*
X113450619Y-20248571D01*
X113545857Y-20200952D01*
X113593476Y-20153333D01*
X113641095Y-20058095D01*
X113641095Y-19962857D01*
X113593476Y-19867619D01*
X113545857Y-19820000D01*
X113450619Y-19772380D01*
X113212523Y-19772380D01*
X113069666Y-19820000D01*
X112307761Y-20248571D02*
X112164904Y-20296190D01*
X112117285Y-20343809D01*
X112069666Y-20439047D01*
X112069666Y-20581904D01*
X112117285Y-20677142D01*
X112164904Y-20724761D01*
X112260142Y-20772380D01*
X112641095Y-20772380D01*
X112641095Y-19772380D01*
X112307761Y-19772380D01*
X112212523Y-19820000D01*
X112164904Y-19867619D01*
X112117285Y-19962857D01*
X112117285Y-20058095D01*
X112164904Y-20153333D01*
X112212523Y-20200952D01*
X112307761Y-20248571D01*
X112641095Y-20248571D01*
X111117285Y-20772380D02*
X111688714Y-20772380D01*
X111403000Y-20772380D02*
X111403000Y-19772380D01*
X111498238Y-19915238D01*
X111593476Y-20010476D01*
X111688714Y-20058095D01*
X132460904Y-38652380D02*
X132460904Y-39461904D01*
X132413285Y-39557142D01*
X132365666Y-39604761D01*
X132270428Y-39652380D01*
X132079952Y-39652380D01*
X131984714Y-39604761D01*
X131937095Y-39557142D01*
X131889476Y-39461904D01*
X131889476Y-38652380D01*
X130889476Y-39652380D02*
X131460904Y-39652380D01*
X131175190Y-39652380D02*
X131175190Y-38652380D01*
X131270428Y-38795238D01*
X131365666Y-38890476D01*
X131460904Y-38938095D01*
X148970833Y-19359511D02*
X148827976Y-19407130D01*
X148589880Y-19407130D01*
X148494642Y-19359511D01*
X148447023Y-19311892D01*
X148399404Y-19216654D01*
X148399404Y-19121416D01*
X148447023Y-19026178D01*
X148494642Y-18978559D01*
X148589880Y-18930940D01*
X148780357Y-18883321D01*
X148875595Y-18835702D01*
X148923214Y-18788083D01*
X148970833Y-18692845D01*
X148970833Y-18597607D01*
X148923214Y-18502369D01*
X148875595Y-18454750D01*
X148780357Y-18407130D01*
X148542261Y-18407130D01*
X148399404Y-18454750D01*
X148066071Y-18407130D02*
X147827976Y-19407130D01*
X147637500Y-18692845D01*
X147447023Y-19407130D01*
X147208928Y-18407130D01*
X146304166Y-19407130D02*
X146875595Y-19407130D01*
X146589880Y-19407130D02*
X146589880Y-18407130D01*
X146685119Y-18549988D01*
X146780357Y-18645226D01*
X146875595Y-18692845D01*
X151583380Y-30821333D02*
X151107190Y-30488000D01*
X151583380Y-30249904D02*
X150583380Y-30249904D01*
X150583380Y-30630857D01*
X150631000Y-30726095D01*
X150678619Y-30773714D01*
X150773857Y-30821333D01*
X150916714Y-30821333D01*
X151011952Y-30773714D01*
X151059571Y-30726095D01*
X151107190Y-30630857D01*
X151107190Y-30249904D01*
X150916714Y-31678476D02*
X151583380Y-31678476D01*
X150535761Y-31440380D02*
X151250047Y-31202285D01*
X151250047Y-31821333D01*
X117641666Y-37696130D02*
X117975000Y-37219940D01*
X118213095Y-37696130D02*
X118213095Y-36696130D01*
X117832142Y-36696130D01*
X117736904Y-36743750D01*
X117689285Y-36791369D01*
X117641666Y-36886607D01*
X117641666Y-37029464D01*
X117689285Y-37124702D01*
X117736904Y-37172321D01*
X117832142Y-37219940D01*
X118213095Y-37219940D01*
X117308333Y-36696130D02*
X116689285Y-36696130D01*
X117022619Y-37077083D01*
X116879761Y-37077083D01*
X116784523Y-37124702D01*
X116736904Y-37172321D01*
X116689285Y-37267559D01*
X116689285Y-37505654D01*
X116736904Y-37600892D01*
X116784523Y-37648511D01*
X116879761Y-37696130D01*
X117165476Y-37696130D01*
X117260714Y-37648511D01*
X117308333Y-37600892D01*
X122086666Y-26615380D02*
X122420000Y-26139190D01*
X122658095Y-26615380D02*
X122658095Y-25615380D01*
X122277142Y-25615380D01*
X122181904Y-25663000D01*
X122134285Y-25710619D01*
X122086666Y-25805857D01*
X122086666Y-25948714D01*
X122134285Y-26043952D01*
X122181904Y-26091571D01*
X122277142Y-26139190D01*
X122658095Y-26139190D01*
X121705714Y-25710619D02*
X121658095Y-25663000D01*
X121562857Y-25615380D01*
X121324761Y-25615380D01*
X121229523Y-25663000D01*
X121181904Y-25710619D01*
X121134285Y-25805857D01*
X121134285Y-25901095D01*
X121181904Y-26043952D01*
X121753333Y-26615380D01*
X121134285Y-26615380D01*
X118276666Y-29915380D02*
X118610000Y-29439190D01*
X118848095Y-29915380D02*
X118848095Y-28915380D01*
X118467142Y-28915380D01*
X118371904Y-28963000D01*
X118324285Y-29010619D01*
X118276666Y-29105857D01*
X118276666Y-29248714D01*
X118324285Y-29343952D01*
X118371904Y-29391571D01*
X118467142Y-29439190D01*
X118848095Y-29439190D01*
X117324285Y-29915380D02*
X117895714Y-29915380D01*
X117610000Y-29915380D02*
X117610000Y-28915380D01*
X117705238Y-29058238D01*
X117800476Y-29153476D01*
X117895714Y-29201095D01*
X150986904Y-71762880D02*
X150986904Y-70762880D01*
X150653571Y-71477166D01*
X150320238Y-70762880D01*
X150320238Y-71762880D01*
X149939285Y-70762880D02*
X149272619Y-71762880D01*
X149272619Y-70762880D02*
X149939285Y-71762880D01*
X148367857Y-71762880D02*
X148939285Y-71762880D01*
X148653571Y-71762880D02*
X148653571Y-70762880D01*
X148748809Y-70905738D01*
X148844047Y-71000976D01*
X148939285Y-71048595D01*
X147748809Y-70762880D02*
X147653571Y-70762880D01*
X147558333Y-70810500D01*
X147510714Y-70858119D01*
X147463095Y-70953357D01*
X147415476Y-71143833D01*
X147415476Y-71381928D01*
X147463095Y-71572404D01*
X147510714Y-71667642D01*
X147558333Y-71715261D01*
X147653571Y-71762880D01*
X147748809Y-71762880D01*
X147844047Y-71715261D01*
X147891666Y-71667642D01*
X147939285Y-71572404D01*
X147986904Y-71381928D01*
X147986904Y-71143833D01*
X147939285Y-70953357D01*
X147891666Y-70858119D01*
X147844047Y-70810500D01*
X147748809Y-70762880D01*
X150510714Y-52712880D02*
X150510714Y-51712880D01*
X150177380Y-52427166D01*
X149844047Y-51712880D01*
X149844047Y-52712880D01*
X149463095Y-51712880D02*
X148796428Y-52712880D01*
X148796428Y-51712880D02*
X149463095Y-52712880D01*
X148367857Y-52712880D02*
X148177380Y-52712880D01*
X148082142Y-52665261D01*
X148034523Y-52617642D01*
X147939285Y-52474785D01*
X147891666Y-52284309D01*
X147891666Y-51903357D01*
X147939285Y-51808119D01*
X147986904Y-51760500D01*
X148082142Y-51712880D01*
X148272619Y-51712880D01*
X148367857Y-51760500D01*
X148415476Y-51808119D01*
X148463095Y-51903357D01*
X148463095Y-52141452D01*
X148415476Y-52236690D01*
X148367857Y-52284309D01*
X148272619Y-52331928D01*
X148082142Y-52331928D01*
X147986904Y-52284309D01*
X147939285Y-52236690D01*
X147891666Y-52141452D01*
X131460714Y-71762880D02*
X131460714Y-70762880D01*
X131127380Y-71477166D01*
X130794047Y-70762880D01*
X130794047Y-71762880D01*
X130413095Y-70762880D02*
X129746428Y-71762880D01*
X129746428Y-70762880D02*
X130413095Y-71762880D01*
X129222619Y-71191452D02*
X129317857Y-71143833D01*
X129365476Y-71096214D01*
X129413095Y-71000976D01*
X129413095Y-70953357D01*
X129365476Y-70858119D01*
X129317857Y-70810500D01*
X129222619Y-70762880D01*
X129032142Y-70762880D01*
X128936904Y-70810500D01*
X128889285Y-70858119D01*
X128841666Y-70953357D01*
X128841666Y-71000976D01*
X128889285Y-71096214D01*
X128936904Y-71143833D01*
X129032142Y-71191452D01*
X129222619Y-71191452D01*
X129317857Y-71239071D01*
X129365476Y-71286690D01*
X129413095Y-71381928D01*
X129413095Y-71572404D01*
X129365476Y-71667642D01*
X129317857Y-71715261D01*
X129222619Y-71762880D01*
X129032142Y-71762880D01*
X128936904Y-71715261D01*
X128889285Y-71667642D01*
X128841666Y-71572404D01*
X128841666Y-71381928D01*
X128889285Y-71286690D01*
X128936904Y-71239071D01*
X129032142Y-71191452D01*
X131460714Y-52712880D02*
X131460714Y-51712880D01*
X131127380Y-52427166D01*
X130794047Y-51712880D01*
X130794047Y-52712880D01*
X130413095Y-51712880D02*
X129746428Y-52712880D01*
X129746428Y-51712880D02*
X130413095Y-52712880D01*
X129460714Y-51712880D02*
X128794047Y-51712880D01*
X129222619Y-52712880D01*
X112410714Y-71762880D02*
X112410714Y-70762880D01*
X112077380Y-71477166D01*
X111744047Y-70762880D01*
X111744047Y-71762880D01*
X111363095Y-70762880D02*
X110696428Y-71762880D01*
X110696428Y-70762880D02*
X111363095Y-71762880D01*
X109886904Y-70762880D02*
X110077380Y-70762880D01*
X110172619Y-70810500D01*
X110220238Y-70858119D01*
X110315476Y-71000976D01*
X110363095Y-71191452D01*
X110363095Y-71572404D01*
X110315476Y-71667642D01*
X110267857Y-71715261D01*
X110172619Y-71762880D01*
X109982142Y-71762880D01*
X109886904Y-71715261D01*
X109839285Y-71667642D01*
X109791666Y-71572404D01*
X109791666Y-71334309D01*
X109839285Y-71239071D01*
X109886904Y-71191452D01*
X109982142Y-71143833D01*
X110172619Y-71143833D01*
X110267857Y-71191452D01*
X110315476Y-71239071D01*
X110363095Y-71334309D01*
X112410714Y-52712880D02*
X112410714Y-51712880D01*
X112077380Y-52427166D01*
X111744047Y-51712880D01*
X111744047Y-52712880D01*
X111363095Y-51712880D02*
X110696428Y-52712880D01*
X110696428Y-51712880D02*
X111363095Y-52712880D01*
X109839285Y-51712880D02*
X110315476Y-51712880D01*
X110363095Y-52189071D01*
X110315476Y-52141452D01*
X110220238Y-52093833D01*
X109982142Y-52093833D01*
X109886904Y-52141452D01*
X109839285Y-52189071D01*
X109791666Y-52284309D01*
X109791666Y-52522404D01*
X109839285Y-52617642D01*
X109886904Y-52665261D01*
X109982142Y-52712880D01*
X110220238Y-52712880D01*
X110315476Y-52665261D01*
X110363095Y-52617642D01*
X93360714Y-71762880D02*
X93360714Y-70762880D01*
X93027380Y-71477166D01*
X92694047Y-70762880D01*
X92694047Y-71762880D01*
X92313095Y-70762880D02*
X91646428Y-71762880D01*
X91646428Y-70762880D02*
X92313095Y-71762880D01*
X90836904Y-71096214D02*
X90836904Y-71762880D01*
X91075000Y-70715261D02*
X91313095Y-71429547D01*
X90694047Y-71429547D01*
X93360714Y-52712880D02*
X93360714Y-51712880D01*
X93027380Y-52427166D01*
X92694047Y-51712880D01*
X92694047Y-52712880D01*
X92313095Y-51712880D02*
X91646428Y-52712880D01*
X91646428Y-51712880D02*
X92313095Y-52712880D01*
X91360714Y-51712880D02*
X90741666Y-51712880D01*
X91075000Y-52093833D01*
X90932142Y-52093833D01*
X90836904Y-52141452D01*
X90789285Y-52189071D01*
X90741666Y-52284309D01*
X90741666Y-52522404D01*
X90789285Y-52617642D01*
X90836904Y-52665261D01*
X90932142Y-52712880D01*
X91217857Y-52712880D01*
X91313095Y-52665261D01*
X91360714Y-52617642D01*
X74310714Y-71762880D02*
X74310714Y-70762880D01*
X73977380Y-71477166D01*
X73644047Y-70762880D01*
X73644047Y-71762880D01*
X73263095Y-70762880D02*
X72596428Y-71762880D01*
X72596428Y-70762880D02*
X73263095Y-71762880D01*
X72263095Y-70858119D02*
X72215476Y-70810500D01*
X72120238Y-70762880D01*
X71882142Y-70762880D01*
X71786904Y-70810500D01*
X71739285Y-70858119D01*
X71691666Y-70953357D01*
X71691666Y-71048595D01*
X71739285Y-71191452D01*
X72310714Y-71762880D01*
X71691666Y-71762880D01*
X74310714Y-52712880D02*
X74310714Y-51712880D01*
X73977380Y-52427166D01*
X73644047Y-51712880D01*
X73644047Y-52712880D01*
X73263095Y-51712880D02*
X72596428Y-52712880D01*
X72596428Y-51712880D02*
X73263095Y-52712880D01*
X71691666Y-52712880D02*
X72263095Y-52712880D01*
X71977380Y-52712880D02*
X71977380Y-51712880D01*
X72072619Y-51855738D01*
X72167857Y-51950976D01*
X72263095Y-51998595D01*
X104600333Y-28291571D02*
X104933666Y-28291571D01*
X104933666Y-28815380D02*
X104933666Y-27815380D01*
X104457476Y-27815380D01*
X103552714Y-28815380D02*
X104124142Y-28815380D01*
X103838428Y-28815380D02*
X103838428Y-27815380D01*
X103933666Y-27958238D01*
X104028904Y-28053476D01*
X104124142Y-28101095D01*
X150439285Y-77064880D02*
X150439285Y-76064880D01*
X150201190Y-76064880D01*
X150058333Y-76112500D01*
X149963095Y-76207738D01*
X149915476Y-76302976D01*
X149867857Y-76493452D01*
X149867857Y-76636309D01*
X149915476Y-76826785D01*
X149963095Y-76922023D01*
X150058333Y-77017261D01*
X150201190Y-77064880D01*
X150439285Y-77064880D01*
X148915476Y-77064880D02*
X149486904Y-77064880D01*
X149201190Y-77064880D02*
X149201190Y-76064880D01*
X149296428Y-76207738D01*
X149391666Y-76302976D01*
X149486904Y-76350595D01*
X148296428Y-76064880D02*
X148201190Y-76064880D01*
X148105952Y-76112500D01*
X148058333Y-76160119D01*
X148010714Y-76255357D01*
X147963095Y-76445833D01*
X147963095Y-76683928D01*
X148010714Y-76874404D01*
X148058333Y-76969642D01*
X148105952Y-77017261D01*
X148201190Y-77064880D01*
X148296428Y-77064880D01*
X148391666Y-77017261D01*
X148439285Y-76969642D01*
X148486904Y-76874404D01*
X148534523Y-76683928D01*
X148534523Y-76445833D01*
X148486904Y-76255357D01*
X148439285Y-76160119D01*
X148391666Y-76112500D01*
X148296428Y-76064880D01*
X149963095Y-58014880D02*
X149963095Y-57014880D01*
X149725000Y-57014880D01*
X149582142Y-57062500D01*
X149486904Y-57157738D01*
X149439285Y-57252976D01*
X149391666Y-57443452D01*
X149391666Y-57586309D01*
X149439285Y-57776785D01*
X149486904Y-57872023D01*
X149582142Y-57967261D01*
X149725000Y-58014880D01*
X149963095Y-58014880D01*
X148915476Y-58014880D02*
X148725000Y-58014880D01*
X148629761Y-57967261D01*
X148582142Y-57919642D01*
X148486904Y-57776785D01*
X148439285Y-57586309D01*
X148439285Y-57205357D01*
X148486904Y-57110119D01*
X148534523Y-57062500D01*
X148629761Y-57014880D01*
X148820238Y-57014880D01*
X148915476Y-57062500D01*
X148963095Y-57110119D01*
X149010714Y-57205357D01*
X149010714Y-57443452D01*
X148963095Y-57538690D01*
X148915476Y-57586309D01*
X148820238Y-57633928D01*
X148629761Y-57633928D01*
X148534523Y-57586309D01*
X148486904Y-57538690D01*
X148439285Y-57443452D01*
X130913095Y-77064880D02*
X130913095Y-76064880D01*
X130675000Y-76064880D01*
X130532142Y-76112500D01*
X130436904Y-76207738D01*
X130389285Y-76302976D01*
X130341666Y-76493452D01*
X130341666Y-76636309D01*
X130389285Y-76826785D01*
X130436904Y-76922023D01*
X130532142Y-77017261D01*
X130675000Y-77064880D01*
X130913095Y-77064880D01*
X129770238Y-76493452D02*
X129865476Y-76445833D01*
X129913095Y-76398214D01*
X129960714Y-76302976D01*
X129960714Y-76255357D01*
X129913095Y-76160119D01*
X129865476Y-76112500D01*
X129770238Y-76064880D01*
X129579761Y-76064880D01*
X129484523Y-76112500D01*
X129436904Y-76160119D01*
X129389285Y-76255357D01*
X129389285Y-76302976D01*
X129436904Y-76398214D01*
X129484523Y-76445833D01*
X129579761Y-76493452D01*
X129770238Y-76493452D01*
X129865476Y-76541071D01*
X129913095Y-76588690D01*
X129960714Y-76683928D01*
X129960714Y-76874404D01*
X129913095Y-76969642D01*
X129865476Y-77017261D01*
X129770238Y-77064880D01*
X129579761Y-77064880D01*
X129484523Y-77017261D01*
X129436904Y-76969642D01*
X129389285Y-76874404D01*
X129389285Y-76683928D01*
X129436904Y-76588690D01*
X129484523Y-76541071D01*
X129579761Y-76493452D01*
X130913095Y-58014880D02*
X130913095Y-57014880D01*
X130675000Y-57014880D01*
X130532142Y-57062500D01*
X130436904Y-57157738D01*
X130389285Y-57252976D01*
X130341666Y-57443452D01*
X130341666Y-57586309D01*
X130389285Y-57776785D01*
X130436904Y-57872023D01*
X130532142Y-57967261D01*
X130675000Y-58014880D01*
X130913095Y-58014880D01*
X130008333Y-57014880D02*
X129341666Y-57014880D01*
X129770238Y-58014880D01*
X111863095Y-77064880D02*
X111863095Y-76064880D01*
X111625000Y-76064880D01*
X111482142Y-76112500D01*
X111386904Y-76207738D01*
X111339285Y-76302976D01*
X111291666Y-76493452D01*
X111291666Y-76636309D01*
X111339285Y-76826785D01*
X111386904Y-76922023D01*
X111482142Y-77017261D01*
X111625000Y-77064880D01*
X111863095Y-77064880D01*
X110434523Y-76064880D02*
X110625000Y-76064880D01*
X110720238Y-76112500D01*
X110767857Y-76160119D01*
X110863095Y-76302976D01*
X110910714Y-76493452D01*
X110910714Y-76874404D01*
X110863095Y-76969642D01*
X110815476Y-77017261D01*
X110720238Y-77064880D01*
X110529761Y-77064880D01*
X110434523Y-77017261D01*
X110386904Y-76969642D01*
X110339285Y-76874404D01*
X110339285Y-76636309D01*
X110386904Y-76541071D01*
X110434523Y-76493452D01*
X110529761Y-76445833D01*
X110720238Y-76445833D01*
X110815476Y-76493452D01*
X110863095Y-76541071D01*
X110910714Y-76636309D01*
X111863095Y-58014880D02*
X111863095Y-57014880D01*
X111625000Y-57014880D01*
X111482142Y-57062500D01*
X111386904Y-57157738D01*
X111339285Y-57252976D01*
X111291666Y-57443452D01*
X111291666Y-57586309D01*
X111339285Y-57776785D01*
X111386904Y-57872023D01*
X111482142Y-57967261D01*
X111625000Y-58014880D01*
X111863095Y-58014880D01*
X110386904Y-57014880D02*
X110863095Y-57014880D01*
X110910714Y-57491071D01*
X110863095Y-57443452D01*
X110767857Y-57395833D01*
X110529761Y-57395833D01*
X110434523Y-57443452D01*
X110386904Y-57491071D01*
X110339285Y-57586309D01*
X110339285Y-57824404D01*
X110386904Y-57919642D01*
X110434523Y-57967261D01*
X110529761Y-58014880D01*
X110767857Y-58014880D01*
X110863095Y-57967261D01*
X110910714Y-57919642D01*
X92813095Y-77064880D02*
X92813095Y-76064880D01*
X92575000Y-76064880D01*
X92432142Y-76112500D01*
X92336904Y-76207738D01*
X92289285Y-76302976D01*
X92241666Y-76493452D01*
X92241666Y-76636309D01*
X92289285Y-76826785D01*
X92336904Y-76922023D01*
X92432142Y-77017261D01*
X92575000Y-77064880D01*
X92813095Y-77064880D01*
X91384523Y-76398214D02*
X91384523Y-77064880D01*
X91622619Y-76017261D02*
X91860714Y-76731547D01*
X91241666Y-76731547D01*
X92813095Y-58014880D02*
X92813095Y-57014880D01*
X92575000Y-57014880D01*
X92432142Y-57062500D01*
X92336904Y-57157738D01*
X92289285Y-57252976D01*
X92241666Y-57443452D01*
X92241666Y-57586309D01*
X92289285Y-57776785D01*
X92336904Y-57872023D01*
X92432142Y-57967261D01*
X92575000Y-58014880D01*
X92813095Y-58014880D01*
X91908333Y-57014880D02*
X91289285Y-57014880D01*
X91622619Y-57395833D01*
X91479761Y-57395833D01*
X91384523Y-57443452D01*
X91336904Y-57491071D01*
X91289285Y-57586309D01*
X91289285Y-57824404D01*
X91336904Y-57919642D01*
X91384523Y-57967261D01*
X91479761Y-58014880D01*
X91765476Y-58014880D01*
X91860714Y-57967261D01*
X91908333Y-57919642D01*
X73763095Y-77064880D02*
X73763095Y-76064880D01*
X73525000Y-76064880D01*
X73382142Y-76112500D01*
X73286904Y-76207738D01*
X73239285Y-76302976D01*
X73191666Y-76493452D01*
X73191666Y-76636309D01*
X73239285Y-76826785D01*
X73286904Y-76922023D01*
X73382142Y-77017261D01*
X73525000Y-77064880D01*
X73763095Y-77064880D01*
X72810714Y-76160119D02*
X72763095Y-76112500D01*
X72667857Y-76064880D01*
X72429761Y-76064880D01*
X72334523Y-76112500D01*
X72286904Y-76160119D01*
X72239285Y-76255357D01*
X72239285Y-76350595D01*
X72286904Y-76493452D01*
X72858333Y-77064880D01*
X72239285Y-77064880D01*
X73763095Y-58014880D02*
X73763095Y-57014880D01*
X73525000Y-57014880D01*
X73382142Y-57062500D01*
X73286904Y-57157738D01*
X73239285Y-57252976D01*
X73191666Y-57443452D01*
X73191666Y-57586309D01*
X73239285Y-57776785D01*
X73286904Y-57872023D01*
X73382142Y-57967261D01*
X73525000Y-58014880D01*
X73763095Y-58014880D01*
X72239285Y-58014880D02*
X72810714Y-58014880D01*
X72525000Y-58014880D02*
X72525000Y-57014880D01*
X72620238Y-57157738D01*
X72715476Y-57252976D01*
X72810714Y-57300595D01*
X113261142Y-31710333D02*
X113308761Y-31662714D01*
X113356380Y-31519857D01*
X113356380Y-31424619D01*
X113308761Y-31281761D01*
X113213523Y-31186523D01*
X113118285Y-31138904D01*
X112927809Y-31091285D01*
X112784952Y-31091285D01*
X112594476Y-31138904D01*
X112499238Y-31186523D01*
X112404000Y-31281761D01*
X112356380Y-31424619D01*
X112356380Y-31519857D01*
X112404000Y-31662714D01*
X112451619Y-31710333D01*
X112356380Y-32043666D02*
X112356380Y-32710333D01*
X113356380Y-32281761D01*
X116563142Y-31710333D02*
X116610761Y-31662714D01*
X116658380Y-31519857D01*
X116658380Y-31424619D01*
X116610761Y-31281761D01*
X116515523Y-31186523D01*
X116420285Y-31138904D01*
X116229809Y-31091285D01*
X116086952Y-31091285D01*
X115896476Y-31138904D01*
X115801238Y-31186523D01*
X115706000Y-31281761D01*
X115658380Y-31424619D01*
X115658380Y-31519857D01*
X115706000Y-31662714D01*
X115753619Y-31710333D01*
X115658380Y-32567476D02*
X115658380Y-32377000D01*
X115706000Y-32281761D01*
X115753619Y-32234142D01*
X115896476Y-32138904D01*
X116086952Y-32091285D01*
X116467904Y-32091285D01*
X116563142Y-32138904D01*
X116610761Y-32186523D01*
X116658380Y-32281761D01*
X116658380Y-32472238D01*
X116610761Y-32567476D01*
X116563142Y-32615095D01*
X116467904Y-32662714D01*
X116229809Y-32662714D01*
X116134571Y-32615095D01*
X116086952Y-32567476D01*
X116039333Y-32472238D01*
X116039333Y-32281761D01*
X116086952Y-32186523D01*
X116134571Y-32138904D01*
X116229809Y-32091285D01*
X109959142Y-31710333D02*
X110006761Y-31662714D01*
X110054380Y-31519857D01*
X110054380Y-31424619D01*
X110006761Y-31281761D01*
X109911523Y-31186523D01*
X109816285Y-31138904D01*
X109625809Y-31091285D01*
X109482952Y-31091285D01*
X109292476Y-31138904D01*
X109197238Y-31186523D01*
X109102000Y-31281761D01*
X109054380Y-31424619D01*
X109054380Y-31519857D01*
X109102000Y-31662714D01*
X109149619Y-31710333D01*
X109054380Y-32615095D02*
X109054380Y-32138904D01*
X109530571Y-32091285D01*
X109482952Y-32138904D01*
X109435333Y-32234142D01*
X109435333Y-32472238D01*
X109482952Y-32567476D01*
X109530571Y-32615095D01*
X109625809Y-32662714D01*
X109863904Y-32662714D01*
X109959142Y-32615095D01*
X110006761Y-32567476D01*
X110054380Y-32472238D01*
X110054380Y-32234142D01*
X110006761Y-32138904D01*
X109959142Y-32091285D01*
X148629666Y-39726142D02*
X148677285Y-39773761D01*
X148820142Y-39821380D01*
X148915380Y-39821380D01*
X149058238Y-39773761D01*
X149153476Y-39678523D01*
X149201095Y-39583285D01*
X149248714Y-39392809D01*
X149248714Y-39249952D01*
X149201095Y-39059476D01*
X149153476Y-38964238D01*
X149058238Y-38869000D01*
X148915380Y-38821380D01*
X148820142Y-38821380D01*
X148677285Y-38869000D01*
X148629666Y-38916619D01*
X147772523Y-39154714D02*
X147772523Y-39821380D01*
X148010619Y-38773761D02*
X148248714Y-39488047D01*
X147629666Y-39488047D01*
X117641666Y-34425892D02*
X117689285Y-34473511D01*
X117832142Y-34521130D01*
X117927380Y-34521130D01*
X118070238Y-34473511D01*
X118165476Y-34378273D01*
X118213095Y-34283035D01*
X118260714Y-34092559D01*
X118260714Y-33949702D01*
X118213095Y-33759226D01*
X118165476Y-33663988D01*
X118070238Y-33568750D01*
X117927380Y-33521130D01*
X117832142Y-33521130D01*
X117689285Y-33568750D01*
X117641666Y-33616369D01*
X117308333Y-33521130D02*
X116689285Y-33521130D01*
X117022619Y-33902083D01*
X116879761Y-33902083D01*
X116784523Y-33949702D01*
X116736904Y-33997321D01*
X116689285Y-34092559D01*
X116689285Y-34330654D01*
X116736904Y-34425892D01*
X116784523Y-34473511D01*
X116879761Y-34521130D01*
X117165476Y-34521130D01*
X117260714Y-34473511D01*
X117308333Y-34425892D01*
X142344142Y-30821333D02*
X142391761Y-30773714D01*
X142439380Y-30630857D01*
X142439380Y-30535619D01*
X142391761Y-30392761D01*
X142296523Y-30297523D01*
X142201285Y-30249904D01*
X142010809Y-30202285D01*
X141867952Y-30202285D01*
X141677476Y-30249904D01*
X141582238Y-30297523D01*
X141487000Y-30392761D01*
X141439380Y-30535619D01*
X141439380Y-30630857D01*
X141487000Y-30773714D01*
X141534619Y-30821333D01*
X141534619Y-31202285D02*
X141487000Y-31249904D01*
X141439380Y-31345142D01*
X141439380Y-31583238D01*
X141487000Y-31678476D01*
X141534619Y-31726095D01*
X141629857Y-31773714D01*
X141725095Y-31773714D01*
X141867952Y-31726095D01*
X142439380Y-31154666D01*
X142439380Y-31773714D01*
X148629666Y-33886142D02*
X148677285Y-33933761D01*
X148820142Y-33981380D01*
X148915380Y-33981380D01*
X149058238Y-33933761D01*
X149153476Y-33838523D01*
X149201095Y-33743285D01*
X149248714Y-33552809D01*
X149248714Y-33409952D01*
X149201095Y-33219476D01*
X149153476Y-33124238D01*
X149058238Y-33029000D01*
X148915380Y-32981380D01*
X148820142Y-32981380D01*
X148677285Y-33029000D01*
X148629666Y-33076619D01*
X147677285Y-33981380D02*
X148248714Y-33981380D01*
X147963000Y-33981380D02*
X147963000Y-32981380D01*
X148058238Y-33124238D01*
X148153476Y-33219476D01*
X148248714Y-33267095D01*
M02*
